<svg id="Layer_1" xmlns="http://www.w3.org/2000/svg" viewBox="0 0 179.66 37.45"><defs><style>.cls-1{fill:#f89c1f}.cls-2{fill:#00a5ce}.cls-3{fill:none;stroke:#00a5ce;stroke-linecap:round;stroke-miterlimit:10;stroke-width:2.64px}</style></defs><path class="cls-2" d="M8.82 19.34c0-5.36 3.72-9.78 9.81-9.78 3.97 0 7.1 1.96 8.44 4.9l-4.21 2.41c-.7-1.58-2.2-2.57-4.18-2.57-3.05 0-4.69 2.2-4.69 5.04s1.71 5.01 4.77 5.01c1.98 0 3.54-.99 4.23-2.55l4.21 2.41c-1.34 2.95-4.5 4.9-8.49 4.9-6.08 0-9.89-4.42-9.89-9.78zm39.9 9.11v.27H43.2l-1.1-2.84h-7.96l-1.07 2.84h-5.52v-.27L35.4 9.96h5.47l7.85 18.49zm-8.25-6.83l-2.33-6.14-2.36 6.14h4.69zM68.63 9.96v18.76h-4.42l-8.17-10.26v10.26h-5.09V9.96h4.42l8.17 10.26V9.96h5.09zm21.92 9.38c0 5.33-4.21 9.38-9.78 9.38H72.6V9.96h8.17c5.57 0 9.78 4.05 9.78 9.38zm-5.09 0c0-2.81-1.93-4.72-4.69-4.72h-3.08v9.43h3.08c2.76 0 4.69-1.93 4.69-4.72zm24.22-9.13l-7.1 11.2v7.31h-5.09v-7.31l-7.1-11.2v-.24h5.57l4.07 6.89 4.1-6.89h5.55v.24z"/><path class="cls-1" d="M111.99 9.96h10.93c3.21 0 5.33 2.28 5.33 5.06 0 1.93-.96 3.3-2.33 4.05 1.9.62 3.27 2.12 3.27 4.58 0 3.08-2.38 5.06-5.33 5.06h-11.87V9.96zm9.22 7.42c1.29 0 1.96-.59 1.96-1.69S122.5 14 121.21 14h-4.13v3.38h4.13zm.86 7.26c1.31 0 2.04-.62 2.04-1.69s-.72-1.71-2.04-1.71h-4.98v3.4h4.98zm29.18 3.81v.27h-5.52l-1.1-2.84h-7.96l-1.07 2.84h-5.52v-.27l7.85-18.49h5.47l7.85 18.49zM143 21.62l-2.33-6.14-2.36 6.14H143zm28.42 6.86v.24h-5.36l-3.88-5.89h-3.62v5.89h-5.09V9.96h10.1c3.89 0 6.78 2.6 6.78 6.43 0 2.6-1.31 4.61-3.32 5.65l4.39 6.43zm-12.86-9.89h4.34c1.42 0 2.36-.8 2.36-2.09s-.94-2.09-2.36-2.09h-4.34v4.18z"/><path class="cls-2" d="M64.13 4.47l.57-1.11c.51.43 1.1.6 1.82.6.56 0 .89-.13.89-.42 0-.2-.18-.26-1.12-.39-1.06-.16-2.05-.32-2.05-1.46 0-1.06.89-1.69 2.17-1.69 1.15 0 1.87.5 2.16 1.14l-1.07.54c-.14-.38-.57-.53-1.11-.53-.62 0-.81.19-.81.42 0 .21.19.28 1.07.41 1.07.15 2.1.34 2.1 1.49s-.96 1.66-2.31 1.66c-.9 0-1.65-.22-2.3-.67zm10-4.36v4.92h-1.16l-2.15-2.69v2.69h-1.34V.11h1.16l2.15 2.69V.11h1.34zm6.13 4.85v.07h-1.45l-.29-.75h-2.09l-.28.75H74.7v-.07L76.77.11h1.44l2.06 4.85zm-2.17-1.79l-.61-1.61-.62 1.61h1.23zm2.25-.6c0-1.41.98-2.57 2.57-2.57 1.04 0 1.86.51 2.22 1.29l-1.1.63c-.18-.42-.58-.68-1.1-.68-.8 0-1.23.58-1.23 1.32s.45 1.32 1.25 1.32c.52 0 .93-.26 1.11-.67l1.1.63c-.35.77-1.18 1.29-2.23 1.29-1.6 0-2.6-1.16-2.6-2.57zm10.31 2.4v.06h-1.46l-1.2-1.84-.8.92v.91h-1.34V.11h1.34v2.17L89.03.11h1.58v.06L88.85 2.2l1.8 2.76zm.06-2.4c0-1.41.98-2.57 2.58-2.57 1.04 0 1.86.51 2.22 1.29l-1.1.63c-.18-.42-.58-.68-1.1-.68-.8 0-1.23.58-1.23 1.32s.45 1.32 1.25 1.32c.52 0 .93-.26 1.11-.67l1.1.63c-.35.77-1.18 1.29-2.23 1.29-1.6 0-2.6-1.16-2.6-2.57zm10.22 2.4v.06h-1.41L98.5 3.48h-.95v1.55h-1.34V.11h2.65c1.02 0 1.78.68 1.78 1.69 0 .68-.34 1.21-.87 1.48l1.15 1.69zm-3.38-2.6h1.14c.37 0 .62-.21.62-.55s-.25-.55-.62-.55h-1.14v1.1zm9.13 2.59v.07h-1.45l-.29-.75h-2.09l-.28.75h-1.45v-.07l2.07-4.85h1.44l2.06 4.85zm-2.17-1.79l-.61-1.61-.62 1.61h1.23zm6.21-1.84h-1.58v3.7h-1.34v-3.7h-1.58V.11h4.5v1.22zm4.74 2.49v1.21h-4.08V.11h4.03v1.21h-2.69V2h1.71v1.13h-1.71v.7h2.74z"/><path class="cls-3" d="M58.81 2.6H5.91c-2.54 0-4.59 2.02-4.59 4.51v24.52c0 2.49 2.06 4.51 4.59 4.51h167.83c2.54 0 4.59-2.02 4.59-4.51V7.11c0-2.49-2.06-4.51-4.59-4.51h-53.4"/></svg>