<svg id="Layer_1" xmlns="http://www.w3.org/2000/svg" viewBox="0 0 248.1 168.6"><style>.st0{fill:#ff9e16}.st1{fill:#fff}</style><path class="st0" d="M248.1 0v129.6H163l-39 39-38.9-39H0V0z"/><path class="st1" d="M83.3 66.9c-.1 2.6.1 16.7-1 18.4-.6 1-1.6 1.3-2.5 1.3-2 0-6-2.2-6.4-4.3-.2-1.4.2-3.4.3-4.7l.1-1.8-14.3 1.7c0 2.3 1 7.4-2.8 7.4-1.7 0-4.1-1-5.3-2.8-.6-.9-1.1-3.1-1.4-5.6-.7-5.8-1.1-16.8.4-19.1.7-.9 1.7-1.1 2.5-1.1 2.2 0 5.9 2 6.2 4.7.2 1.1.2 5.9.1 9.1 4.1-.8 11-1.9 14.6-2.2-.2-1.8-.1-6.5-.1-8.1 0-2.9.2-5.9.7-7.3.5-1.3 1.8-1.6 2.6-1.6 2.4 0 6 2.2 6.3 4.9.3 1.2.1 5.9 0 11.1zm55 8.7c-.6 2.2-4.6 3.6-6.3 3.6-.4 0-2.3-.1-3.1-1.8-1-2.3-1.5-6-2.3-8l-.4-1.1c-2.8 2.5-8.2 9-9.8 10.8-1.1 1.2-2.8 1.5-4.1 1.5-1.7 0-3.8-.5-5.2-1.8-1.3-1.3-2.4-10.4-2.9-12.9-3.2 4.8-6.6 11-8.2 13.6-.9 1.4-2.9 1.6-3.9 1.6-1.6 0-3.8-.8-4.1-2.8v-.6c.5-2.2 12-22.5 13.9-24.7 1.3-1.5 3.4-2.8 5.5-2.8 1.8 0 3.5 1 4.1 2.9.8 2.5 1.7 10.5 3.3 16.9 3-3.1 6.3-7.6 7.5-8.8 1.6-1.5 4.3-2.9 6.6-2.9.7 0 1.6.1 2.4.6 2.3 1.4 6.7 12.5 7 15.5.1.1.1.7 0 1.2zm53.9 0c-.6 2.2-4.6 3.6-6.3 3.6-.4 0-2.3-.1-3.1-1.8-1-2.3-1.5-6-2.3-8l-.4-1.1c-2.8 2.5-8.2 9-9.8 10.8-1.1 1.2-2.8 1.5-4.1 1.5-1.7 0-3.8-.5-5.2-1.8-1.3-1.3-2.4-10.4-2.9-12.9-3.2 4.8-6.6 11-8.2 13.6-.9 1.2-2.9 1.5-3.9 1.5-1.6 0-3.8-.8-4.1-2.8v-.6c.5-2.2 12-22.5 13.9-24.7 1.3-1.5 3.4-2.8 5.5-2.8 1.8 0 3.5 1 4.1 2.9.8 2.5 1.7 10.5 3.3 16.9 3-3.1 6.3-7.6 7.5-8.8 1.6-1.5 4.3-2.9 6.6-2.9.7 0 1.6.1 2.4.6 2.3 1.4 6.7 12.5 7 15.5.1.2.1.8 0 1.3z"/></svg>