<svg width="285" height="348" viewBox="0 0 285 348" fill="none" xmlns="http://www.w3.org/2000/svg">
<path d="M127.512 20.062L141.896 40.42V41H129.658L121.19 28.994L112.722 41H100.484V40.42L114.868 20.062L101.412 0.921997V0.399997H113.592L121.19 11.13L128.788 0.399997H140.968V0.921997L127.512 20.062ZM158.417 30.908H179.877V41H150.993H147.397V0.399997H158.417V30.908Z" fill="black"/>
<path d="M142.5 74.1286L173.274 173.367L173.929 175.478H176.14H276.106L195.113 237.135L193.443 238.406L194.065 240.41L224.928 339.935L144.317 278.57L142.5 277.186L140.683 278.57L60.0722 339.935L90.9352 240.41L91.5568 238.406L89.887 237.135L8.89371 175.478H108.86H111.071L111.726 173.367L142.5 74.1286Z" fill="#FFE600" stroke="black" stroke-width="6"/>
</svg>
