<svg width="287" height="311" viewBox="0 0 287 311" fill="none" xmlns="http://www.w3.org/2000/svg">
<path d="M54.8565 0.399997H64.0205V41H53.0005V18.438L42.6765 32.126H41.8065L31.5405 18.438V41H20.5205V0.399997H29.6265L42.2705 17.22L54.8565 0.399997ZM83.7079 31.024H106.328V41H75.7619H72.6879V0.399997H83.7079H105.922V10.376H83.7079V16.002H97.8019V25.282H83.7079V31.024ZM130.648 0.399997C142.712 0.399997 151.818 9.158 151.818 20.7C151.818 32.242 142.712 41 130.648 41H113.828H112.958V0.399997H123.978H130.648ZM130.648 30.908C136.622 30.908 140.798 26.732 140.798 20.7C140.798 14.61 136.622 10.492 130.648 10.492H123.978V30.908H130.648ZM158.497 0.399997H169.517V41H158.497V0.399997ZM196.191 41.87C184.881 41.87 177.341 35.896 177.341 24.818V0.399997H188.361V24.818C188.361 29.284 191.435 31.546 196.249 31.546C201.063 31.546 204.021 29.284 204.021 24.818V0.399997H215.041V24.818C215.041 35.896 207.559 41.87 196.191 41.87ZM257.29 0.399997H266.454V41H255.434V18.438L245.11 32.126H244.24L233.974 18.438V41H222.954V0.399997H232.06L244.704 17.22L257.29 0.399997Z" fill="black"/>
<g clip-path="url(#clip0_2002_121)">
<path d="M5.47569 306.5L143.5 76.8242L281.524 306.5H5.47569Z" fill="#C1FF00" stroke="black" stroke-width="6"/>
</g>
<defs>
<clipPath id="clip0_2002_121">
<rect width="287" height="240" fill="white" transform="translate(0 71)"/>
</clipPath>
</defs>
</svg>
