<svg width="286" height="344" viewBox="0 0 286 344" fill="none" xmlns="http://www.w3.org/2000/svg">
<path d="M50.7515 31.908H72.2115V42H43.3275H39.7315V1.4H50.7515V31.908ZM103.416 1.4L120.41 41.42V42H108.462L106.084 35.852H88.8584L86.5384 42H74.5904V41.42L91.5844 1.4H103.416ZM92.3964 26.63H102.546L97.5004 13.348L92.3964 26.63ZM154.55 27.558L164.062 41.478V42H152.462L144.052 29.24H136.222V42H125.202V1.4H136.222H147.068C155.478 1.4 161.742 7.026 161.742 15.32C161.742 20.946 158.9 25.296 154.55 27.558ZM136.222 11.028V20.076H145.618C148.692 20.076 150.722 18.336 150.722 15.552C150.722 12.768 148.692 11.028 145.618 11.028H136.222ZM188.719 18.626H207.279V27.384V35.446C203.219 40.144 197.013 42.87 189.357 42.87C174.741 42.87 166.505 33.184 166.505 21.758C166.505 10.158 174.973 0.529998 188.313 0.529998C196.955 0.529998 203.625 4.706 206.525 11.144L197.129 15.842C195.737 13.116 193.185 10.622 188.313 10.622C181.701 10.622 177.699 15.088 177.699 21.816C177.699 28.312 181.469 33.126 189.705 33.126C192.605 33.126 194.983 32.546 197.245 31.154V27.384H188.719V18.626ZM225.602 32.024H248.222V42H217.656H214.582V1.4H225.602H247.816V11.376H225.602V17.002H239.696V26.282H225.602V32.024Z" fill="black"/>
<path d="M283 203.5C283 279.389 220.37 341 143 341C65.63 341 3 279.389 3 203.5C3 127.611 65.63 66 143 66C220.37 66 283 127.611 283 203.5Z" fill="#002DCE" stroke="black" stroke-width="6"/>
</svg>
