<svg width="286" height="346" viewBox="0 0 286 346" fill="none" xmlns="http://www.w3.org/2000/svg">
<path d="M54.8441 42.87C47.4201 42.87 41.2721 41.072 35.8781 37.36L40.5761 28.196C44.7521 31.734 49.6241 33.184 55.5981 33.184C60.2381 33.184 62.9061 32.14 62.9061 29.762C62.9061 28.08 61.3981 27.616 53.6841 26.514C44.9841 25.18 36.8061 23.846 36.8061 14.508C36.8061 5.75 44.1721 0.529998 54.6701 0.529998C64.1241 0.529998 70.0981 4.648 72.4761 9.926L63.6601 14.392C62.5001 11.26 58.9621 10.042 54.4961 10.042C49.3921 10.042 47.8261 11.608 47.8261 13.522C47.8261 15.262 49.3921 15.842 56.6421 16.886C65.4581 18.162 73.9261 19.728 73.9261 29.182C73.9261 38.288 65.9801 42.87 54.8441 42.87ZM114.339 1.4H123.503V42H112.483V19.438L102.159 33.126H101.289L91.0229 19.438V42H80.0029V1.4H89.1089L101.753 18.22L114.339 1.4ZM157.168 1.4L174.162 41.42V42H162.214L159.836 35.852H142.61L140.29 42H128.342V41.42L145.336 1.4H157.168ZM146.148 26.63H156.298L151.252 13.348L146.148 26.63ZM189.974 31.908H211.434V42H182.55H178.954V1.4H189.974V31.908ZM228.603 31.908H250.063V42H221.179H217.583V1.4H228.603V31.908Z" fill="black"/>
<rect x="3" y="68" width="280" height="275" fill="#FF0000" stroke="black" stroke-width="6"/>
</svg>
