<svg width="368" height="344" viewBox="0 0 368 344" fill="none" xmlns="http://www.w3.org/2000/svg">
<path d="M4.46485 42V1.4H28.1289C35.0889 1.4 39.6709 6.33 39.6709 12.362C39.6709 16.538 37.5829 19.496 34.6249 21.12C38.7429 22.454 41.7009 25.702 41.7009 31.038C41.7009 37.708 36.5389 42 30.1589 42H4.46485ZM15.4849 17.466H24.4169C27.2009 17.466 28.6509 16.19 28.6509 13.812C28.6509 11.434 27.2009 10.158 24.4169 10.158H15.4849V17.466ZM15.4849 33.184H26.2729C29.1149 33.184 30.6809 31.85 30.6809 29.53C30.6809 27.152 29.1149 25.818 26.2729 25.818H15.4849V33.184ZM48.0215 1.4H59.0415V42H48.0215V1.4ZM87.9191 18.626H106.479V27.384V35.446C102.419 40.144 96.2132 42.87 88.5572 42.87C73.9411 42.87 65.7051 33.184 65.7051 21.758C65.7051 10.158 74.1731 0.529998 87.5131 0.529998C96.1552 0.529998 102.825 4.706 105.725 11.144L96.3291 15.842C94.9371 13.116 92.3852 10.622 87.5131 10.622C80.9011 10.622 76.8991 15.088 76.8991 21.816C76.8991 28.312 80.6691 33.126 88.9051 33.126C91.8051 33.126 94.1831 32.546 96.4452 31.154V27.384H87.9191V18.626ZM130.264 42V1.4H153.928C160.888 1.4 165.47 6.33 165.47 12.362C165.47 16.538 163.382 19.496 160.424 21.12C164.542 22.454 167.5 25.702 167.5 31.038C167.5 37.708 162.338 42 155.958 42H130.264ZM141.284 17.466H150.216C153 17.466 154.45 16.19 154.45 13.812C154.45 11.434 153 10.158 150.216 10.158H141.284V17.466ZM141.284 33.184H152.072C154.914 33.184 156.48 31.85 156.48 29.53C156.48 27.152 154.914 25.818 152.072 25.818H141.284V33.184ZM203.168 27.558L212.68 41.478V42H201.08L192.67 29.24H184.84V42H173.82V1.4H184.84H195.686C204.096 1.4 210.36 7.026 210.36 15.32C210.36 20.946 207.518 25.296 203.168 27.558ZM184.84 11.028V20.076H194.236C197.31 20.076 199.34 18.336 199.34 15.552C199.34 12.768 197.31 11.028 194.236 11.028H184.84ZM237.047 42.87C223.533 42.87 215.123 33.242 215.123 21.7C215.123 10.158 223.533 0.529998 237.047 0.529998C250.561 0.529998 258.913 10.158 258.913 21.7C258.913 33.242 250.561 42.87 237.047 42.87ZM237.047 32.546C243.717 32.546 247.719 27.906 247.719 21.7C247.719 15.494 243.717 10.796 237.047 10.796C230.377 10.796 226.317 15.494 226.317 21.7C226.317 27.906 230.377 32.546 237.047 32.546ZM273.566 42L260.4 1.922V1.4H272L278.786 25.238L286.384 2.56H294.156L301.812 25.238L308.598 1.4H320.14V1.922L307.032 42H297.694L290.27 19.96L282.846 42H273.566ZM352.537 1.4H363.557V42H353.987L336.297 19.786V42H325.277V1.4H334.847L352.537 23.614V1.4Z" fill="black"/>
<path d="M44.478 174.793L177.001 72.7858L309.524 174.793L258.837 340.066H95.1656L44.478 174.793Z" fill="#FF40D5" stroke="black" stroke-width="6"/>
</svg>
