<svg width="356" height="357" viewBox="0 0 356 357" fill="none" xmlns="http://www.w3.org/2000/svg">
<path d="M15.687 31.908H37.147V42H8.263H4.667V1.4H15.687V31.908ZM43.2959 1.4H54.3159V42H43.2959V1.4ZM73.9136 31.908H95.3736V42H66.4896H62.8936V1.4H73.9136V31.908ZM118.062 42V1.4H141.726C148.686 1.4 153.268 6.33 153.268 12.362C153.268 16.538 151.18 19.496 148.222 21.12C152.34 22.454 155.298 25.702 155.298 31.038C155.298 37.708 150.136 42 143.756 42H118.062ZM129.082 17.466H138.014C140.798 17.466 142.248 16.19 142.248 13.812C142.248 11.434 140.798 10.158 138.014 10.158H129.082V17.466ZM129.082 33.184H139.87C142.712 33.184 144.278 31.85 144.278 29.53C144.278 27.152 142.712 25.818 139.87 25.818H129.082V33.184ZM190.966 27.558L200.478 41.478V42H188.878L180.468 29.24H172.638V42H161.618V1.4H172.638H183.484C191.894 1.4 198.158 7.026 198.158 15.32C198.158 20.946 195.316 25.296 190.966 27.558ZM172.638 11.028V20.076H182.034C185.108 20.076 187.138 18.336 187.138 15.552C187.138 12.768 185.108 11.028 182.034 11.028H172.638ZM224.845 42.87C211.331 42.87 202.921 33.242 202.921 21.7C202.921 10.158 211.331 0.529998 224.845 0.529998C238.359 0.529998 246.711 10.158 246.711 21.7C246.711 33.242 238.359 42.87 224.845 42.87ZM224.845 32.546C231.515 32.546 235.517 27.906 235.517 21.7C235.517 15.494 231.515 10.796 224.845 10.796C218.175 10.796 214.115 15.494 214.115 21.7C214.115 27.906 218.175 32.546 224.845 32.546ZM261.364 42L248.198 1.922V1.4H259.798L266.584 25.238L274.182 2.56H281.954L289.61 25.238L296.396 1.4H307.938V1.922L294.83 42H285.492L278.068 19.96L270.644 42H261.364ZM340.335 1.4H351.355V42H341.785L324.095 19.786V42H313.075V1.4H322.645L340.335 23.614V1.4Z" fill="black"/>
<path d="M26.3874 222.182L165 92.2931L303.613 222.182L165 352.071L26.3874 222.182Z" fill="#BD00FF" stroke="black" stroke-width="6"/>
</svg>
