<?xml version="1.0" encoding="utf-8" ?>
<svg xmlns="http://www.w3.org/2000/svg" xmlns:xlink="http://www.w3.org/1999/xlink" width="368" height="368">
	<path fill="#FEFEFE" d="M0 0L368 0L368 368L0 368L0 0Z"/>
	<path d="M106.358 63.6021C114.708 63.1657 123.247 63.534 131.622 63.5346L180.81 63.5344L234.421 63.5361L251.531 63.5562C254.159 63.5533 256.822 63.3801 259.445 63.4921C260.779 63.549 261.987 63.6934 263.116 64.4729C263.759 65.3024 263.858 66.5091 263.944 67.5308C264.38 72.7157 264.032 78.1928 264.031 83.4048L264.047 116.065C272.96 116.323 281.937 116.098 290.856 116.089C295.128 116.085 300.141 115.595 304.296 116.558C306.17 116.992 307.927 118.109 309.281 119.456Q309.891 120.063 310.397 120.76Q310.903 121.457 311.291 122.226Q311.679 122.995 311.939 123.816Q312.2 124.636 312.326 125.488C312.86 129.353 312.537 133.523 312.53 137.431L312.5 159.613L312.543 233.72C312.528 238.054 312.33 241.458 309.066 244.644C307.735 245.944 306.319 246.792 304.52 247.29C299.779 248.605 285.848 247.88 280.283 247.849C280.063 258.764 280.257 269.731 280.273 280.65C280.279 285.038 280.817 291.256 279.933 295.461Q279.763 296.269 279.478 297.044Q279.193 297.819 278.798 298.544Q278.403 299.269 277.906 299.928Q277.41 300.588 276.823 301.169C272.786 305.19 267.232 304.506 262.005 304.456L148.114 304.452L114.876 304.474C109.225 304.481 103.078 304.966 97.4961 304.269C94.8697 303.941 92.7373 302.761 90.8871 300.887C89.1698 299.148 88.4368 297.136 88.0188 294.761C87.1911 290.059 87.7315 284.072 87.7337 279.253L87.755 247.948C81.8075 247.737 69.091 248.668 63.9638 247.418C62.0161 246.943 60.3909 246.083 58.9528 244.679C55.9261 241.725 55.4964 238.56 55.4671 234.503L55.5035 159.895L55.4749 137.265C55.469 133.532 55.12 129.379 55.6503 125.689Q55.72 125.226 55.8269 124.769Q55.9338 124.313 56.0773 123.867Q56.2208 123.421 56.3999 122.988Q56.579 122.554 56.7926 122.137Q57.0062 121.72 57.2528 121.322Q57.4995 120.923 57.7775 120.546Q58.0556 120.169 58.3633 119.815Q58.6709 119.461 59.0062 119.134C60.5626 117.587 62.7236 116.774 64.8576 116.408C69.2858 115.649 74.255 116.08 78.762 116.085L103.992 116.078L103.971 83.3898C103.969 80.07 103.465 67.8857 104.351 65.3039C104.677 64.3559 105.509 63.9897 106.358 63.6021Z"/>
	<path fill="#FEFEFE" d="M264.013 215.514L273.753 215.515L273.743 225.375L273.737 272.508L273.767 286.152C273.773 288.707 273.943 291.399 273.616 293.931C273.49 294.914 272.91 295.905 272.233 296.614C270.88 298.031 268.634 297.927 266.815 297.962C254.908 298.192 242.953 297.973 231.041 297.972L161.042 297.97L119.378 297.97L106.645 297.972C104.334 297.98 101.949 298.137 99.6474 297.972C98.1065 297.862 96.3807 297.421 95.2966 296.25C94.4156 295.298 94.372 293.018 94.3071 291.783C93.8609 283.299 94.258 274.575 94.2599 266.065L94.2804 215.504L103.99 215.522L103.976 259.732C103.975 265.052 103.321 283.173 104.686 287.243C105.671 288.081 106.789 288.297 108.053 288.35C111.371 288.489 114.806 288.279 118.137 288.279L142.365 288.28L215.81 288.283L249.23 288.283C252.182 288.284 259.448 288.726 261.824 288.121C262.342 287.988 262.862 287.734 263.227 287.334C263.851 286.651 263.943 284.204 263.987 283.315C264.361 275.823 264.027 268.136 264.025 260.626L264.013 215.514Z"/>
	<path fill="#FEFEFE" d="M86.2372 122.521L103.988 122.567C103.966 125.656 103.293 135.189 104.767 137.571C105.123 138.147 105.509 138.435 106.174 138.564C109.442 139.194 113.648 138.743 117.002 138.744L140.03 138.745L227.623 138.745C231.787 138.745 261.249 139.252 262.984 138.141C264.867 135.302 264.032 126.258 264.007 122.549C269.934 122.448 275.877 122.542 281.806 122.547L281.809 144.452C281.822 148.943 282.634 154.554 279.133 158.041C277.513 159.654 275.611 160.231 273.386 160.422C267.389 160.938 261.064 160.532 255.032 160.53L218.602 160.516L103.997 160.533C99.0842 160.535 92.4227 161.642 88.6694 157.801Q88.2593 157.386 87.9141 156.915Q87.569 156.445 87.2961 155.929Q87.0233 155.413 86.8287 154.863Q86.6341 154.313 86.5219 153.74C85.8263 150.218 86.193 146.104 86.1971 142.503L86.2372 122.521Z"/>
	<path fill="#FEFEFE" d="M110.5 70.0143L257.52 70.038L257.519 132.256L110.494 132.262C110.261 111.527 110.428 90.7517 110.5 70.0143Z"/>
	<path fill="#FEFEFE" d="M110.489 215.509L257.548 215.519C257.208 237.581 257.529 259.703 257.528 281.771L110.495 281.788C110.235 259.707 110.47 237.594 110.489 215.509Z"/>
	<path fill="#FEFEFE" d="M288.329 122.526C292.356 122.543 297.98 121.909 301.818 122.702C302.937 122.933 304.741 123.592 305.294 124.642C305.975 125.935 306.025 128.06 306.067 129.506C306.31 137.844 306.091 146.254 306.088 154.599L306.085 203.32L306.1 225.96C306.101 229.681 306.626 234.452 305.767 238.042C305.379 239.662 304.133 240.384 302.815 241.198C301.405 241.318 299.976 241.323 298.562 241.369L280.261 241.301L280.271 215.498C282.277 215.541 285.346 215.934 287.068 214.816Q287.287 214.677 287.473 214.496Q287.659 214.316 287.806 214.102Q287.952 213.889 288.053 213.65Q288.154 213.411 288.205 213.157C288.399 212.229 288.182 211.132 287.628 210.361C287.176 209.733 286.603 209.423 285.859 209.274C282.284 208.557 277.889 209.05 274.211 209.053L249.627 209.071L153.915 209.077L108.057 209.065C100.124 209.055 91.9762 208.668 84.0664 209.105C83.1662 209.154 81.6148 209.197 80.8864 209.778C80.2545 210.282 79.9024 211.102 79.8086 211.889C79.6981 212.815 79.9108 213.802 80.5567 214.502C81.9697 216.033 85.8524 215.539 87.7623 215.514L87.7498 241.399C85.6558 241.183 83.4206 241.333 81.3121 241.332C75.9382 241.331 70.5175 241.51 65.1515 241.208C63.9842 240.482 62.829 239.724 62.3351 238.368C61.3685 235.716 61.9458 200.931 61.9439 195.525L61.9231 151.035C61.92 143.494 61.7846 135.927 61.9301 128.389C61.953 127.203 62.0546 126.101 62.6144 125.026C63.347 123.618 64.5924 123.016 66.0264 122.56C70.5867 122.451 75.1683 122.542 79.7308 122.55L79.7108 142.336C79.7068 146.487 79.2427 151.284 80.1787 155.327Q80.4112 156.302 80.7717 157.238Q81.1322 158.173 81.6143 159.052Q82.0963 159.932 82.6912 160.739Q83.2862 161.546 83.9834 162.266C87.6067 166.035 91.789 166.944 96.8456 167.041C109.702 167.29 122.613 167.034 135.475 167.034L213.733 167.038L254.144 167.047C260.588 167.05 268.493 167.565 274.779 166.837C278.06 166.458 281.242 165.028 283.607 162.706Q284.39 161.927 285.056 161.046Q285.723 160.164 286.259 159.199Q286.795 158.233 287.191 157.201Q287.587 156.17 287.834 155.093C288.803 150.933 288.33 146.053 288.321 141.799Q288.255 132.162 288.329 122.526Z"/>
	<path d="M239.392 180.774C241.079 180.646 242.592 180.866 244.099 181.678Q244.412 181.848 244.706 182.048Q245 182.248 245.273 182.476Q245.546 182.705 245.795 182.959Q246.044 183.213 246.267 183.491Q246.489 183.769 246.683 184.067Q246.877 184.366 247.04 184.682Q247.203 184.998 247.334 185.329Q247.465 185.66 247.563 186.002Q247.665 186.357 247.73 186.72Q247.796 187.083 247.824 187.451Q247.853 187.819 247.845 188.188Q247.837 188.557 247.792 188.923Q247.746 189.289 247.665 189.649Q247.583 190.009 247.466 190.359Q247.348 190.709 247.197 191.045Q247.045 191.382 246.86 191.701C245.663 193.747 243.845 194.672 241.625 195.249C240.214 195.342 238.946 195.226 237.64 194.662Q237.309 194.521 236.994 194.347Q236.68 194.173 236.384 193.968Q236.089 193.762 235.817 193.528Q235.544 193.293 235.297 193.032Q235.05 192.77 234.832 192.485Q234.613 192.199 234.425 191.893Q234.236 191.587 234.081 191.263Q233.925 190.938 233.803 190.6Q233.677 190.254 233.585 189.897Q233.494 189.54 233.438 189.175Q233.383 188.811 233.364 188.443Q233.345 188.075 233.363 187.706Q233.38 187.338 233.434 186.974Q233.488 186.609 233.578 186.252Q233.668 185.894 233.793 185.547Q233.918 185.201 234.077 184.868C235.188 182.569 237.074 181.563 239.392 180.774Z"/>
	<path d="M267.343 176.788C269.739 176.6 272.01 176.899 274.162 178.021Q274.66 178.28 275.129 178.588Q275.598 178.896 276.035 179.25Q276.471 179.603 276.869 179.998Q277.268 180.394 277.625 180.827Q277.982 181.26 278.294 181.726Q278.606 182.193 278.87 182.689Q279.133 183.184 279.346 183.704Q279.559 184.223 279.719 184.761C280.613 187.678 280.29 190.71 278.838 193.389C277.1 196.594 274.386 198.205 270.986 199.218C268.204 199.64 265.533 199.232 263.094 197.776Q262.605 197.481 262.148 197.139Q261.692 196.797 261.271 196.411Q260.85 196.025 260.47 195.599Q260.09 195.173 259.754 194.711Q259.418 194.25 259.13 193.757Q258.842 193.265 258.604 192.746Q258.366 192.227 258.181 191.687Q257.996 191.147 257.865 190.591Q257.738 190.05 257.665 189.499Q257.592 188.948 257.574 188.392Q257.556 187.836 257.593 187.282Q257.629 186.727 257.72 186.179Q257.812 185.63 257.956 185.093Q258.101 184.557 258.298 184.037Q258.495 183.517 258.742 183.019Q258.989 182.521 259.284 182.05C261.178 179.011 263.94 177.558 267.343 176.788Z"/>
	<path fill="#FEFEFE" d="M267.768 183.268C268.58 183.251 269.492 183.181 270.272 183.432C271.614 183.864 272.812 184.902 273.368 186.202Q273.462 186.421 273.532 186.648Q273.603 186.876 273.649 187.109Q273.696 187.343 273.718 187.58Q273.741 187.817 273.738 188.055Q273.736 188.293 273.71 188.529Q273.683 188.766 273.632 188.998Q273.581 189.231 273.506 189.457Q273.432 189.683 273.334 189.9C272.607 191.53 271.397 192.194 269.836 192.823C268.957 192.877 268.145 192.874 267.302 192.58Q267.069 192.499 266.846 192.396Q266.623 192.292 266.412 192.166Q266.2 192.04 266.003 191.893Q265.805 191.747 265.623 191.581Q265.442 191.415 265.278 191.231Q265.114 191.048 264.97 190.848Q264.825 190.649 264.702 190.436Q264.578 190.223 264.477 189.999Q264.375 189.773 264.298 189.537Q264.22 189.302 264.167 189.059Q264.115 188.817 264.087 188.57Q264.06 188.324 264.058 188.076Q264.057 187.828 264.081 187.581Q264.105 187.334 264.154 187.091Q264.204 186.848 264.278 186.611Q264.352 186.375 264.451 186.147C265.107 184.597 266.285 183.863 267.768 183.268Z"/>
</svg>
