<svg id="Layer_1" data-name="Layer 1" xmlns="http://www.w3.org/2000/svg" viewBox="0 0 144.01 95.63"><defs><style>.cls-1{fill:#74aadc;}.cls-2{fill:#fff;}.cls-3{fill:#5ca1d4;}.cls-4{fill:#eceff3;}.cls-5{fill:#e1701e;}.cls-6{fill:#ffe300;}</style></defs><path class="cls-1" d="M339,338.07c19.31.8,26.33,10.65,46.57,14.35,14.17,2.58,26.38-.48,38.82-8.72-1.27-9.23-2.43-17.94-3.28-25a1.11,1.11,0,0,0-1.71-.8c-12.25,7.85-23.82,10.76-39.34,7.93-20.24-3.7-26.29-12.8-45.6-13.6-19.92-.83-35.4,6.75-46,14.65a1.08,1.08,0,0,0-.36,1.19c1.44,4.29,3.48,12.61,5.79,22.44C305.33,342.62,321.85,337.36,339,338.07Z" transform="translate(-288 -312.18)"/><path class="cls-1" d="M428.12,370.67c-21.39,12.64-45.35,9.79-67.27.34-22.41-9.65-43.63-7-61.14,4.34,2.09,8.61,4.21,16.91,6.19,23.53a1.12,1.12,0,0,0,1.57.67c15.56-7.05,33.73-7,59.19,2,23.45,8.31,44.28,8.88,64.75-1.73a1.1,1.1,0,0,0,.58-1.12C431.05,391.58,429.65,381.56,428.12,370.67Z" transform="translate(-288 -312.18)"/><path class="cls-2" d="M360.85,371c21.92,9.45,45.88,12.3,67.27-.34-1.23-8.77-2.55-18.11-3.76-27-12.44,8.24-24.65,11.3-38.82,8.72-20.24-3.7-27.26-13.55-46.57-14.35-17.12-.71-33.64,4.55-45.13,12.46,1.83,7.75,3.84,16.43,5.87,24.82C317.22,364,338.44,361.36,360.85,371Z" transform="translate(-288 -312.18)"/><path class="cls-3" d="M432,398.73v0c-.08-.63-.17-1.29-.26-2l-.05-.41c-.3-2.23-.63-4.67-1-7.29C419,402.8,397.35,399,382,388.92c-17.4-11.38-27.81-16.06-47.39-20.84-3.29-.8-6.53-1.56-9.69-2.37a62.49,62.49,0,0,0-25.19,9.64l.15.6.45,1.87c.13.5.25,1,.38,1.51l.42,1.73c.14.53.27,1.06.4,1.59s.28,1.08.41,1.62l.42,1.63.39,1.51c.15.56.29,1.12.44,1.67l.36,1.39.47,1.7.33,1.24.52,1.84.27,1c.26.91.52,1.8.78,2.66a1.07,1.07,0,0,0,.62.69,1.17,1.17,0,0,0,1,0,55.51,55.51,0,0,1,12.23-3.93,62,62,0,0,1,13.65-1.09c1.21,0,2.44.1,3.69.2a89.46,89.46,0,0,1,11.17,1.61c2,.4,4,.87,6,1.41,3.95,1,8.07,2.29,12.41,3.83a117.64,117.64,0,0,0,16.61,4.62l.9.17q2.81.53,5.57.86c.83.1,1.66.19,2.48.26A70.2,70.2,0,0,0,416,405.77a68.16,68.16,0,0,0,7.75-2.46c1.29-.49,2.57-1,3.86-1.6s2.56-1.19,3.84-1.86a1.11,1.11,0,0,0,.5-.55,1.05,1.05,0,0,0,.08-.56Z" transform="translate(-288 -312.18)"/><path class="cls-4" d="M324.9,365.71c-12-3.06-22.7-6.79-29.81-16-.41.28-.84.54-1.25.82.18.74.36,1.49.53,2.25l0,.06c1.16,4.93,2.37,10.16,3.62,15.41.08.33.16.66.23,1,.17.69.34,1.38.5,2.08.1.43.21.86.31,1.29.15.64.31,1.28.46,1.91.07.28.14.55.2.83A62.49,62.49,0,0,1,324.9,365.71Z" transform="translate(-288 -312.18)"/><path class="cls-3" d="M295.09,349.71a33.32,33.32,0,0,1-2.21-3.23v0c.24,1,.48,2,.73,3.07v0l.21.92C294.25,350.25,294.68,350,295.09,349.71Z" transform="translate(-288 -312.18)"/><path class="cls-3" d="M380,325.85c-20-3.66-26.15-12.58-44.93-13.57,30.49,9.82,31.78,28.1,52,34.63,12.7,4.08,26.46,3.34,35.53-15.83-.59-4.47-1.13-8.65-1.58-12.36a1.11,1.11,0,0,0-1.71-.8C407.12,325.77,395.55,328.68,380,325.85Z" transform="translate(-288 -312.18)"/><path class="cls-5" d="M374.51,357.83c0-.2-.19-.29-.36-.29l-6.17-.15.52-.19a4,4,0,0,1,1.83-.39,3.93,3.93,0,0,0,2.36-.64,2.37,2.37,0,0,1,.48-.24.93.93,0,0,1,.65,0c.13,0,.32.11.41-.08a.29.29,0,0,0-.05-.29,1.36,1.36,0,0,0-1.27-.31,2.62,2.62,0,0,0-.73.26,3.33,3.33,0,0,1-2,.35,4.69,4.69,0,0,0-2,.31l-.52.17,5.64-2.68a.47.47,0,0,0,.23-.21.3.3,0,0,0,0-.21.24.24,0,0,0-.14-.14.43.43,0,0,0-.3,0l-5.76,2.22.4-.37a4,4,0,0,1,1.54-1.06,3.88,3.88,0,0,0,1.94-1.5,2.61,2.61,0,0,1,.36-.41.93.93,0,0,1,.6-.23c.14,0,.34,0,.35-.23a.28.28,0,0,0-.16-.25,1.36,1.36,0,0,0-1.28.2,3,3,0,0,0-.58.52,3.35,3.35,0,0,1-1.72,1.1,4.44,4.44,0,0,0-1.71,1l-.41.35,4.19-4.64s.05-.06.09-.13a.27.27,0,0,0-.05-.33.32.32,0,0,0-.46.05L366,353.73l.23-.5a4.1,4.1,0,0,1,1-1.57,4,4,0,0,0,1.22-2.12,3,3,0,0,1,.16-.52,1,1,0,0,1,.48-.44c.12-.06.3-.15.23-.34a.28.28,0,0,0-.24-.18,1.35,1.35,0,0,0-1.11.68,2.46,2.46,0,0,0-.33.7,3.41,3.41,0,0,1-1.17,1.67,4.34,4.34,0,0,0-1.18,1.62c-.08.16-.16.32-.25.48l2.09-5.89a.39.39,0,0,0,0-.3.24.24,0,0,0-.14-.14.26.26,0,0,0-.21,0,.42.42,0,0,0-.2.22l-2.5,5.65c0-.19,0-.37,0-.55a4.09,4.09,0,0,1,.34-1.84,3.82,3.82,0,0,0,.31-2.43,4,4,0,0,1,0-.54,1,1,0,0,1,.27-.59c.09-.1.22-.26.09-.41a.3.3,0,0,0-.29-.07,1.37,1.37,0,0,0-.77,1.06,2.54,2.54,0,0,0,0,.77,3.36,3.36,0,0,1-.44,2,4.41,4.41,0,0,0-.47,1.94,4.93,4.93,0,0,1-.05.54l-.32-6.23c0-.18-.09-.37-.29-.36a.25.25,0,0,0-.19.07.44.44,0,0,0-.1.29l-.15,6.17-.19-.51a3.93,3.93,0,0,1-.39-1.84,3.93,3.93,0,0,0-.64-2.36,3.79,3.79,0,0,1-.25-.48,1,1,0,0,1,0-.65c0-.13.1-.32-.08-.41a.31.31,0,0,0-.3.05,1.39,1.39,0,0,0-.3,1.27,2.62,2.62,0,0,0,.26.73,3.33,3.33,0,0,1,.35,2,4.54,4.54,0,0,0,.31,2,4.48,4.48,0,0,1,.16.52l-2.68-5.64a.34.34,0,0,0-.08-.14.28.28,0,0,0-.33-.08.24.24,0,0,0-.14.14.43.43,0,0,0,0,.3l2.22,5.76c-.12-.14-.25-.27-.38-.4a4.2,4.2,0,0,1-1.06-1.54,3.86,3.86,0,0,0-1.49-1.94,2.61,2.61,0,0,1-.41-.36.93.93,0,0,1-.23-.6c0-.14,0-.34-.23-.35a.3.3,0,0,0-.25.16,1.36,1.36,0,0,0,.2,1.28,2.68,2.68,0,0,0,.52.58,3.34,3.34,0,0,1,1.09,1.72,4.57,4.57,0,0,0,1.05,1.71c.12.13.24.27.35.41l-4.64-4.18a.31.31,0,0,0-.46-.05.32.32,0,0,0,.05.46l4.26,4.47-.5-.23a3.92,3.92,0,0,1-1.57-1,4,4,0,0,0-2.13-1.22,3.1,3.1,0,0,1-.51-.16.93.93,0,0,1-.44-.48c-.06-.12-.16-.3-.35-.23a.28.28,0,0,0-.17.24,1.36,1.36,0,0,0,.68,1.11,2.46,2.46,0,0,0,.7.33,3.49,3.49,0,0,1,1.67,1.17,4.39,4.39,0,0,0,1.61,1.18l.49.25-5.89-2.09a.3.3,0,1,0-.22.54l5.65,2.5-.56,0a4.12,4.12,0,0,1-1.84-.34,3.78,3.78,0,0,0-2.42-.31,4,4,0,0,1-.54,0,1,1,0,0,1-.59-.27c-.1-.09-.26-.22-.41-.09a.3.3,0,0,0-.07.29,1.36,1.36,0,0,0,1.05.77,2.62,2.62,0,0,0,.78,0,3.44,3.44,0,0,1,2,.44,4.38,4.38,0,0,0,1.94.47l.54,0-6.24.32c-.17,0-.36.09-.36.29a.34.34,0,0,0,.37.29l6.17.15-.52.19a3.89,3.89,0,0,1-1.83.39,4,4,0,0,0-2.36.64,3.79,3.79,0,0,1-.48.25,1,1,0,0,1-.65,0c-.13,0-.32-.1-.41.08a.31.31,0,0,0,.05.3,1.39,1.39,0,0,0,1.27.3,2.74,2.74,0,0,0,.73-.26,3.33,3.33,0,0,1,2-.35,4.54,4.54,0,0,0,2-.31,4.48,4.48,0,0,1,.52-.16l-5.65,2.68a.33.33,0,0,0-.22.41.28.28,0,0,0,.28.16.51.51,0,0,0,.17,0l5.76-2.23-.4.38a4.16,4.16,0,0,1-1.55,1.06,3.88,3.88,0,0,0-1.93,1.49,3.25,3.25,0,0,1-.36.41.89.89,0,0,1-.6.23c-.14,0-.34,0-.35.23a.28.28,0,0,0,.16.25,1.34,1.34,0,0,0,1.28-.2,2.68,2.68,0,0,0,.58-.52,3.29,3.29,0,0,1,1.72-1.09,4.52,4.52,0,0,0,1.7-1.05l.42-.35-4.19,4.64a.79.79,0,0,0-.09.13.29.29,0,0,0,0,.34.26.26,0,0,0,.19.07.42.42,0,0,0,.27-.13l4.47-4.26-.23.5a4,4,0,0,1-1,1.57,4,4,0,0,0-1.22,2.13,2.33,2.33,0,0,1-.17.51.91.91,0,0,1-.47.44c-.12.06-.3.16-.23.35a.28.28,0,0,0,.24.17,1.36,1.36,0,0,0,1.11-.68,2.46,2.46,0,0,0,.33-.7,3.41,3.41,0,0,1,1.17-1.67,4.51,4.51,0,0,0,1.18-1.61c.08-.17.16-.33.25-.49L358,368.65a.43.43,0,0,0,0,.31.27.27,0,0,0,.14.14l.11,0,.1,0a.47.47,0,0,0,.2-.22l2.5-5.65c0,.19,0,.38,0,.56a4.12,4.12,0,0,1-.34,1.84,3.87,3.87,0,0,0-.32,2.42,2.89,2.89,0,0,1,0,.55.86.86,0,0,1-.27.58c-.08.11-.22.26-.08.41a.29.29,0,0,0,.29.07,1.36,1.36,0,0,0,.77-1,2.62,2.62,0,0,0,0-.78,3.36,3.36,0,0,1,.44-2,4.38,4.38,0,0,0,.47-1.94,4.93,4.93,0,0,1,.05-.54l.32,6.24c0,.17.09.36.29.36h0a.27.27,0,0,0,.19-.08.43.43,0,0,0,.1-.29l.15-6.17c.06.18.13.35.19.52a4,4,0,0,1,.39,1.83,3.91,3.91,0,0,0,.64,2.36,3.26,3.26,0,0,1,.25.49,1,1,0,0,1,0,.64c0,.13-.1.32.08.41a.2.2,0,0,0,.11,0,.27.27,0,0,0,.18-.07,1.35,1.35,0,0,0,.31-1.26,2.69,2.69,0,0,0-.26-.74,3.33,3.33,0,0,1-.35-2,4.54,4.54,0,0,0-.31-2c-.06-.17-.12-.34-.17-.52l2.68,5.65s0,.07.09.13a.3.3,0,0,0,.33.09.29.29,0,0,0,.14-.15.43.43,0,0,0,0-.3l-2.22-5.76.37.41a4,4,0,0,1,1.07,1.54,3.79,3.79,0,0,0,1.49,1.93,3.25,3.25,0,0,1,.41.36,1,1,0,0,1,.23.61c0,.13,0,.33.23.34h0a.31.31,0,0,0,.24-.15,1.38,1.38,0,0,0-.2-1.29,3,3,0,0,0-.52-.58,3.31,3.31,0,0,1-1.1-1.72,4.39,4.39,0,0,0-1-1.7c-.12-.14-.24-.27-.35-.42l4.64,4.19a.46.46,0,0,0,.28.12.25.25,0,0,0,.18-.08.26.26,0,0,0,.08-.19.42.42,0,0,0-.13-.27l-4.26-4.47.5.23a4.1,4.1,0,0,1,1.57,1,3.92,3.92,0,0,0,2.12,1.22,2.26,2.26,0,0,1,.52.17,1,1,0,0,1,.44.47c.05.1.13.25.27.25l.08,0a.28.28,0,0,0,.17-.24,1.36,1.36,0,0,0-.68-1.11,2.46,2.46,0,0,0-.7-.33,3.34,3.34,0,0,1-1.67-1.17,4.45,4.45,0,0,0-1.62-1.18l-.48-.25,5.89,2.09a.4.4,0,0,0,.15,0,.27.27,0,0,0,.29-.17.23.23,0,0,0,0-.2.45.45,0,0,0-.22-.21l-5.65-2.5.56,0a4.12,4.12,0,0,1,1.84.34,3.87,3.87,0,0,0,2.42.32,2.84,2.84,0,0,1,.54,0,.86.86,0,0,1,.59.27.47.47,0,0,0,.27.14.22.22,0,0,0,.14-.06.29.29,0,0,0,.07-.29,1.37,1.37,0,0,0-1.06-.77,2.91,2.91,0,0,0-.77,0,3.36,3.36,0,0,1-2-.44,4.41,4.41,0,0,0-1.94-.47,4.93,4.93,0,0,1-.54-.05l6.23-.31C374.33,358.12,374.52,358,374.51,357.83Z" transform="translate(-288 -312.18)"/><path class="cls-6" d="M362.5,353.53a4.46,4.46,0,1,0,4.51,4.4A4.45,4.45,0,0,0,362.5,353.53Z" transform="translate(-288 -312.18)"/><path class="cls-5" d="M359.77,356.9a.3.3,0,0,1-.16,0,.27.27,0,0,1-.06-.37,1.83,1.83,0,0,1,1.18-.59,1.74,1.74,0,0,1,1.34.38.27.27,0,0,1-.34.41,1.23,1.23,0,0,0-.94-.26,1.35,1.35,0,0,0-.81.37A.26.26,0,0,1,359.77,356.9Z" transform="translate(-288 -312.18)"/><circle class="cls-5" cx="72.95" cy="45.16" r="0.46"/><path class="cls-5" d="M365.31,356.82a.23.23,0,0,1-.21-.1,1.34,1.34,0,0,0-.83-.35,1.25,1.25,0,0,0-.93.28.26.26,0,0,1-.37,0,.27.27,0,0,1,0-.37,1.74,1.74,0,0,1,1.32-.42,1.86,1.86,0,0,1,1.2.56.26.26,0,0,1,0,.37A.24.24,0,0,1,365.31,356.82Z" transform="translate(-288 -312.18)"/><circle class="cls-5" cx="76.15" cy="45.12" r="0.46"/><path class="cls-5" d="M362.57,359.42a1,1,0,0,1-.63-.21.28.28,0,0,1,0-.38.27.27,0,0,1,.37,0,.5.5,0,0,0,.59,0,.26.26,0,0,1,.34.4A1,1,0,0,1,362.57,359.42Z" transform="translate(-288 -312.18)"/><path class="cls-5" d="M362.59,360.68a2.72,2.72,0,0,1-1.29-.27.27.27,0,0,1-.11-.36.26.26,0,0,1,.35-.11,2.48,2.48,0,0,0,2.08,0,.27.27,0,0,1,.36.11.26.26,0,0,1-.11.35A2.66,2.66,0,0,1,362.59,360.68Z" transform="translate(-288 -312.18)"/></svg>