<svg id="Layer_3" data-name="Layer 3" xmlns="http://www.w3.org/2000/svg" viewBox="0 0 144.01 95.63"><defs><style>.cls-1{fill:#ef4130;}.cls-2{fill:#fff;}.cls-3{fill:#da2128;}.cls-4{fill:#eceff3;}</style></defs><path class="cls-1" d="M339,338.07c19.31.8,26.33,10.65,46.57,14.35,14.17,2.58,26.38-.48,38.82-8.72-1.27-9.23-2.43-17.94-3.28-25a1.11,1.11,0,0,0-1.71-.8c-12.25,7.85-23.82,10.76-39.34,7.93-20.24-3.7-26.29-12.8-45.6-13.6-19.92-.83-35.4,6.75-46,14.65a1.08,1.08,0,0,0-.36,1.19c1.44,4.29,3.48,12.61,5.79,22.44C305.33,342.62,321.85,337.36,339,338.07Z" transform="translate(-288 -312.18)"/><path class="cls-1" d="M428.12,370.67c-21.39,12.64-45.35,9.79-67.27.34-22.41-9.65-43.63-7-61.14,4.34,2.09,8.61,4.21,16.91,6.19,23.53a1.12,1.12,0,0,0,1.57.67c15.56-7.05,33.73-7,59.19,2,23.45,8.31,44.28,8.88,64.75-1.73a1.1,1.1,0,0,0,.58-1.12C431.05,391.58,429.65,381.56,428.12,370.67Z" transform="translate(-288 -312.18)"/><path class="cls-2" d="M360.85,371c21.92,9.45,45.88,12.3,67.27-.34-1.23-8.77-2.55-18.11-3.76-27-12.44,8.24-24.65,11.3-38.82,8.72-20.24-3.7-27.26-13.55-46.57-14.35-17.12-.71-33.64,4.55-45.13,12.46,1.83,7.75,3.84,16.43,5.87,24.82C317.22,364,338.44,361.36,360.85,371Z" transform="translate(-288 -312.18)"/><path class="cls-3" d="M432,398.73v0c-.08-.63-.17-1.29-.26-2l-.05-.41c-.3-2.23-.63-4.67-1-7.29C419,402.8,397.35,399,382,388.92c-17.4-11.38-27.81-16.06-47.39-20.84-3.29-.8-6.53-1.56-9.69-2.37a62.49,62.49,0,0,0-25.19,9.64l.15.6.45,1.87c.13.5.25,1,.38,1.51l.42,1.73c.14.53.27,1.06.4,1.59s.28,1.08.41,1.62l.42,1.63.39,1.51c.15.56.29,1.12.44,1.67l.36,1.39.47,1.7.33,1.24.52,1.84.27,1c.26.91.52,1.8.78,2.66a1.07,1.07,0,0,0,.62.69,1.17,1.17,0,0,0,1,0,55.51,55.51,0,0,1,12.23-3.93,62,62,0,0,1,13.65-1.09c1.21,0,2.44.1,3.69.2a89.46,89.46,0,0,1,11.17,1.61c2,.4,4,.87,6,1.41,3.95,1,8.07,2.29,12.41,3.83a117.64,117.64,0,0,0,16.61,4.62l.9.17q2.81.53,5.57.86c.83.1,1.66.19,2.48.26A70.2,70.2,0,0,0,416,405.77a68.16,68.16,0,0,0,7.75-2.46c1.29-.49,2.57-1,3.86-1.6s2.56-1.19,3.84-1.86a1.11,1.11,0,0,0,.5-.55,1.05,1.05,0,0,0,.08-.56Z" transform="translate(-288 -312.18)"/><path class="cls-4" d="M324.9,365.71c-12-3.06-22.7-6.79-29.81-16-.41.28-.84.54-1.25.82.18.74.36,1.49.53,2.25l0,.06c1.16,4.93,2.37,10.16,3.62,15.41.08.33.16.66.23,1,.17.69.34,1.38.5,2.08.1.43.21.86.31,1.29.15.64.31,1.28.46,1.91.07.28.14.55.2.83A62.49,62.49,0,0,1,324.9,365.71Z" transform="translate(-288 -312.18)"/><path class="cls-3" d="M295.09,349.71a33.32,33.32,0,0,1-2.21-3.23v0c.24,1,.48,2,.73,3.07v0l.21.92C294.25,350.25,294.68,350,295.09,349.71Z" transform="translate(-288 -312.18)"/><path class="cls-3" d="M380,325.85c-20-3.66-26.15-12.58-44.93-13.57,30.49,9.82,31.78,28.1,52,34.63,12.7,4.08,26.46,3.34,35.53-15.83-.59-4.47-1.13-8.65-1.58-12.36a1.11,1.11,0,0,0-1.71-.8C407.12,325.77,395.55,328.68,380,325.85Z" transform="translate(-288 -312.18)"/></svg>