<?xml version="1.0" encoding="iso-8859-1"?>
<!-- Generator: Adobe Illustrator 24.0.1, SVG Export Plug-In . SVG Version: 6.00 Build 0)  -->
<svg version="1.1" id="Layer_1" xmlns="http://www.w3.org/2000/svg" xmlns:xlink="http://www.w3.org/1999/xlink" x="0px" y="0px"
	 viewBox="0 0 97.75 60.927" style="enable-background:new 0 0 97.75 60.927;" xml:space="preserve">
<g>
	<g>
		<path style="fill:#225AA9;" d="M96.575,47.307c-0.364-1.915-0.74-3.851-1.122-5.797c-0.119-0.605-0.238-1.213-0.359-1.82
			c-2.004-10.152-4.166-20.598-6.013-30.594c-0.002-0.009-0.003-0.017-0.005-0.025c-0.237-1.282-0.467-2.554-0.694-3.822
			c-0.219-1.229-0.436-2.457-0.645-3.672c-0.123-0.714-0.948-1.058-1.539-0.639C78.486,6.412,70.974,8.854,60.77,7.371
			c-4.657-0.677-9.867-2.159-15.926-4.564c-4.812-1.91-9.506-2.728-13.954-2.806c-0.263-0.005-0.518,0.012-0.779,0.012l-0.001,0
			C17.59,0.038,7.128,5.889,1.795,10.043c-0.053,0.041-0.871,0.72-1.446,1.206c-0.314,0.265-0.43,0.697-0.291,1.084
			c0.581,1.623,1.468,4.198,1.681,4.848c0.062,0.189,0.124,0.385,0.186,0.576c0.264,0.814,0.527,1.636,0.789,2.477
			c0.034,0.108,0.067,0.219,0.101,0.328c0.297,0.957,0.593,1.927,0.889,2.915l0,0c3.234,10.786,6.475,23.305,10.551,34.605
			c0.205,0.568,0.866,0.817,1.397,0.529c5.44-2.956,13.63-5.379,26.825-3.395c3.661,0.55,7.686,1.422,12.17,2.737
			c6.02,1.766,11.367,2.638,16.168,2.895c11.817,0.631,20.221-2.591,26.457-6.276c0.353-0.209,0.535-0.614,0.463-1.018
			C97.364,51.499,96.976,49.413,96.575,47.307z"/>
	</g>
	<g>
		<path style="fill:#004C9C;" d="M97.272,54.572c-6.237,3.684-14.64,6.907-26.458,6.276c-4.801-0.256-10.147-1.129-16.168-2.895
			c-4.483-1.315-8.509-2.187-12.17-2.737c-13.194-1.984-21.385,0.439-26.824,3.395c-0.531,0.288-1.192,0.039-1.397-0.529
			c-4.076-11.3-7.317-23.819-10.551-34.605c-0.296-0.988-0.593-1.958-0.889-2.915c-0.034-0.109-0.067-0.219-0.101-0.328
			c-0.262-0.842-0.525-1.664-0.789-2.477c-0.062-0.191-0.124-0.387-0.186-0.576c-0.048-0.146-0.133-0.399-0.237-0.705
			c13.167-0.606,22.668,1.353,37.526,15.362c9.836,9.274,26.502,18.396,29.917,19.674c9.134,3.419,20.788,2.144,27.514-4.81
			c0.038,0.2,0.079,0.405,0.117,0.605c0.4,2.106,0.789,4.192,1.159,6.247C97.807,53.957,97.625,54.363,97.272,54.572z M87.737,1.576
			c-0.122-0.715-0.947-1.057-1.538-0.637C78.486,6.412,70.973,8.854,60.77,7.371c-4.657-0.677-9.867-2.159-15.926-4.564
			c-4.812-1.91-9.506-2.728-13.954-2.806c-0.263-0.005-0.518,0.012-0.779,0.012c0.275,0.065,0.55,0.132,0.829,0.207
			c8.047,2.149,18.03,8.185,23.478,13.59c1.893,1.877,4.931,4.107,8.485,5.795c0.003,0.016,0.006,0.033,0.009,0.049
			c-0.003-0.017-0.006-0.032-0.009-0.049c8.691,4.128,20.464,4.983,26.175-10.526C88.611,6.549,88.157,4.038,87.737,1.576z"/>
	</g>
	<g>
		<path style="fill:#ED1A3B;" d="M37.109,17.216c4.751,2.587,9.402,5.942,14.488,10.079c0.165,0.741,0.331,1.486,0.497,2.232
			c-6.713-5.56-12.576-9.753-18.807-12.659C34.554,16.935,35.828,17.05,37.109,17.216z M0.38,11.223
			c4.266,0.116,8.473,0.497,12.664,1.16c0.933-0.329,1.9-0.642,2.902-0.934c-4.611-0.858-9.226-1.387-13.905-1.591
			c-0.08,0.061-0.169,0.125-0.246,0.185C1.743,10.083,0.952,10.739,0.38,11.223z M8.493,32.201
			c3.753-5.054,8.275-10.348,12.634-14.347c-0.133,0.029-0.268,0.053-0.401,0.083c-0.822,0.189-1.616,0.401-2.394,0.625
			C14.1,22.738,9.853,27.884,6.385,32.684c0.053,0.184,0.105,0.366,0.158,0.55C7.154,32.903,7.81,32.554,8.493,32.201z
			 M28.157,9.369C29.087,9.32,30.034,9.292,31,9.292c4.993-2.987,9.462-5.281,13.132-6.748c-0.667-0.251-1.332-0.48-1.994-0.69
			C38.149,3.582,33.4,6.125,28.157,9.369z M26.61,11.042c-0.971-3.955-1.909-7.688-2.66-10.54c-1.431,0.217-2.822,0.501-4.17,0.84
			c0.713,2.705,1.627,6.332,2.588,10.235c-8.711,1.468-15.402,4.94-19.964,7.684c0.103,0.326,0.207,0.643,0.31,0.975
			c0.034,0.108,0.067,0.219,0.101,0.328c0.293,0.947,0.587,1.907,0.88,2.884c4.302-2.649,10.907-6.273,19.694-7.689
			c0.92,3.792,1.831,7.614,2.603,10.92c1.383-0.138,2.819-0.21,4.309-0.205c-0.765-3.289-1.701-7.234-2.661-11.2
			c6.371-0.439,13.719,0.351,22.01,3.343c-0.376-1.662-0.744-3.286-1.105-4.863C40.317,11.128,32.995,10.515,26.61,11.042z"/>
	</g>
	<g>
		<path style="fill:#FFFFFF;" d="M1.925,17.758c-0.011-0.034-0.022-0.069-0.033-0.103c2.498-1.477,5.676-3.18,9.518-4.668
			c-3.775-0.54-7.567-0.848-11.408-0.939c-0.015-0.301,0.108-0.598,0.346-0.799c0.01-0.008,0.021-0.017,0.031-0.026
			c4.266,0.116,8.473,0.497,12.664,1.16c0.933-0.329,1.9-0.642,2.902-0.934c-4.611-0.858-9.226-1.387-13.905-1.591
			c0.947-0.726,2.035-1.496,3.27-2.278c5.015,0.376,9.961,1.124,14.926,2.255c-0.762-3.069-1.472-5.871-2.051-8.063
			c0.524-0.152,1.054-0.295,1.593-0.431c0.713,2.705,1.627,6.332,2.588,10.235c-8.711,1.468-15.402,4.94-19.964,7.684
			C2.244,18.758,2.085,18.251,1.925,17.758z M52.095,29.528c-6.713-5.56-12.576-9.753-18.807-12.659
			c1.267,0.065,2.541,0.181,3.822,0.347c4.751,2.587,9.402,5.942,14.488,10.079c-0.122-0.547-0.244-1.092-0.365-1.636
			c-3.523-2.844-7.198-5.582-11.115-7.973c3.283,0.623,6.61,1.59,9.969,2.864c-0.146-0.65-0.292-1.295-0.436-1.936
			c-8.291-2.992-15.639-3.781-22.01-3.343c0.96,3.966,1.896,7.911,2.661,11.2c0.561,0.002,1.128,0.013,1.704,0.038
			c-0.607-2.613-1.326-5.66-2.087-8.831c6.605,2.766,12.694,7.001,19.71,12.768c0.957,0.285,1.913,0.569,2.86,0.847
			C52.356,30.705,52.225,30.116,52.095,29.528z M23.389,15.758c-8.787,1.416-15.392,5.04-19.694,7.689
			c0.003,0.011,0.006,0.021,0.009,0.031c0.159,0.53,0.318,1.07,0.477,1.609c2.404-1.494,5.577-3.347,9.497-4.925
			c-2.984,3.249-5.754,6.703-8.07,9.819c0.258,0.895,0.517,1.796,0.776,2.704c3.468-4.8,7.716-9.946,11.947-14.122
			c0.779-0.224,1.573-0.436,2.394-0.625c0.133-0.031,0.268-0.054,0.401-0.083c-4.36,3.999-8.881,9.293-12.634,14.347
			c0.677-0.351,1.389-0.707,2.138-1.063c3.581-4.656,7.715-9.36,11.663-12.888c0.727,3.017,1.431,5.981,2.05,8.63
			c0.542-0.076,1.089-0.146,1.649-0.202C25.22,23.371,24.309,19.549,23.389,15.758z M26.61,11.042
			c6.385-0.526,13.707,0.086,21.936,2.711c-0.142-0.621-0.282-1.234-0.421-1.839c-4.476-1.346-8.707-2.12-12.67-2.44
			c4.194-2.348,7.892-4.099,10.9-5.164c-0.081-0.341-0.162-0.683-0.241-1.014c-0.422-0.162-0.839-0.317-1.269-0.488
			c-0.238-0.094-0.474-0.174-0.711-0.263C40.462,4.011,35.993,6.305,31,9.292c-0.966,0-1.913,0.028-2.843,0.077
			c5.244-3.244,9.993-5.787,13.982-7.515c-0.436-0.138-0.87-0.271-1.303-0.393c-3.826,1.713-8.282,4.119-13.136,7.106
			c-0.765-3.092-1.492-5.968-2.103-8.293c-0.556,0.062-1.101,0.144-1.646,0.227C24.701,3.354,25.639,7.087,26.61,11.042z
			 M29.604,36.044l-4.792-0.805l3.416,3.59l-3.466,3.395l4.652-0.471l0.413,4.981l2.539-4.274l3.658,3.02l-1.568-4.747l4.596-1.4
			l-4.628-1.757l1.866-4.659l-3.977,2.58l-2.249-4.411L29.604,36.044z M76.155,47.441l-2.124-0.399l1.565,1.6l-1.625,1.32
			l2.03-0.165l0.138,2.126l1.023-1.739l1.54,1.314l-0.564-2.055l2.099-0.519l-2.079-0.707l0.977-2.021l-1.799,1.049l-0.962-1.813
			L76.155,47.441z M61.934,30.717l-1.939-0.44l1.465,1.502l-1.636,1.385l2.04-0.23l0.15,2.191l1.011-1.741l1.645,1.301l-0.575-2.121
			l2.099-0.456l-2.078-0.77l0.994-1.91l-1.797,1.059l-1.085-1.918L61.934,30.717z M70.955,16.064l-2.124-0.399l1.556,1.544
			l-1.618,1.365l2.041-0.1l0.129,2.07l1.033-1.677l1.53,1.253l-0.555-2l2.088-0.585l-2.086-0.751l0.986-1.965l-1.799,1.049
			l-0.981-1.929L70.955,16.064z M82.231,24.091l-1.824-0.454l1.256,1.594l-1.421,1.401l1.938-0.207l0.037,2.153l1.135-1.7
			l1.728,1.226l-0.566-2.066l1.891-0.427l-1.879-0.854l0.768-1.929l-1.694,1.037l-1.064-1.915L82.231,24.091z M78.469,33.678
			l-1.162,0.193l1.104,0.805l-0.22,1.316l1.163-0.892l1.182,0.504l-0.538-1.19l0.805-1.122l-1.266,0.21l-0.661-1.288L78.469,33.678z
			"/>
	</g>
	<g>
		<g>
			<path style="fill:#ECEFF3;" d="M32.005,26.51c-0.064-0.277-0.135-0.577-0.202-0.864c-0.692-0.529-1.375-1.033-2.047-1.506
				c0.189,0.805,0.372,1.587,0.546,2.332C30.862,26.474,31.429,26.485,32.005,26.51z"/>
		</g>
		<g>
			<path style="fill:#ECEFF3;" d="M42.138,1.854L42.138,1.854c-0.436-0.138-0.87-0.271-1.302-0.392l-0.001,0
				c-0.923,0.413-1.885,0.869-2.878,1.361c0.346,0.159,0.692,0.317,1.039,0.484C40.089,2.773,41.138,2.287,42.138,1.854z"/>
		</g>
		<g>
			<polygon style="fill:#ECEFF3;" points="70.811,18.474 70.94,20.545 71.973,18.867 73.503,20.12 72.948,18.12 75.036,17.536 
				72.95,16.785 73.937,14.819 72.138,15.868 71.157,13.939 70.955,16.064 68.832,15.665 70.388,17.209 68.77,18.574 			"/>
		</g>
		<g>
			<path style="fill:#ECEFF3;" d="M21.169,19.289c-0.365-0.153-0.729-0.3-1.091-0.439c-4.03,3.861-8.132,8.701-11.585,13.351
				c0.677-0.351,1.389-0.707,2.138-1.063C13.873,26.921,17.569,22.675,21.169,19.289z"/>
		</g>
		<g>
			<polygon style="fill:#ECEFF3;" points="34.424,37.575 36.289,32.916 32.313,35.496 30.064,31.085 29.604,36.044 24.812,35.239 
				28.228,38.829 24.762,42.224 29.414,41.753 29.827,46.734 32.366,42.46 36.023,45.48 34.456,40.732 39.051,39.332 			"/>
		</g>
		<g>
			<path style="fill:#ECEFF3;" d="M13.679,20.161c-2.984,3.249-5.754,6.703-8.07,9.819c0.137,0.476,0.275,0.958,0.413,1.437
				c0.121,0.42,0.243,0.843,0.364,1.266c3.468-4.8,7.716-9.946,11.947-14.122c0.181-0.052,0.374-0.095,0.557-0.145
				c-0.961-0.33-1.918-0.613-2.875-0.852c-5.197,1.716-9.319,4.035-12.319,5.882c0.003,0.011,0.006,0.021,0.009,0.031
				c0.159,0.53,0.318,1.07,0.477,1.609C6.585,23.592,9.759,21.739,13.679,20.161z"/>
		</g>
		<g>
			<path style="fill:#ECEFF3;" d="M7.597,16.424c-1.14-0.043-2.3-0.051-3.485-0.031c-0.789,0.431-1.533,0.855-2.22,1.261
				c0.011,0.034,0.022,0.069,0.033,0.103c0.16,0.493,0.319,1,0.479,1.503C3.9,18.361,5.647,17.384,7.597,16.424z"/>
		</g>
		<g>
			<path style="fill:#ECEFF3;" d="M40.589,4.104c0.89,0.461,1.773,0.949,2.645,1.452c1.105-0.482,2.151-0.903,3.12-1.246
				c-0.081-0.341-0.162-0.683-0.241-1.014c-0.422-0.162-0.839-0.317-1.269-0.488c-0.238-0.094-0.474-0.174-0.711-0.263
				C43.024,2.987,41.835,3.514,40.589,4.104z"/>
		</g>
		<g>
			<path style="fill:#ECEFF3;" d="M24.343,26.879c0.542-0.076,1.089-0.146,1.649-0.202c-0.417-1.784-0.876-3.723-1.353-5.722
				c-0.649-0.35-1.293-0.677-1.931-0.979C23.287,22.389,23.843,24.738,24.343,26.879z"/>
		</g>
	</g>
	<g>
		<g>
			<path style="fill:#DF1F33;" d="M20.078,18.85c-0.397-0.152-0.794-0.297-1.19-0.433c-0.183,0.051-0.376,0.093-0.557,0.145
				C14.1,22.738,9.853,27.884,6.385,32.684c0.053,0.182,0.105,0.368,0.158,0.551c0.611-0.332,1.267-0.68,1.95-1.034
				C11.946,27.551,16.049,22.711,20.078,18.85z"/>
		</g>
		<g>
			<path style="fill:#DF1F33;" d="M25.992,26.677c1.383-0.138,2.819-0.21,4.309-0.205c-0.173-0.745-0.356-1.527-0.546-2.332
				c-1.76-1.239-3.458-2.291-5.116-3.185C25.117,22.954,25.575,24.893,25.992,26.677z"/>
		</g>
		<g>
			<path style="fill:#DF1F33;" d="M44.132,2.544c-0.001,0-0.002-0.001-0.002-0.001c-0.667-0.251-1.33-0.48-1.991-0.69l0,0
				c-1.001,0.434-2.05,0.919-3.142,1.453c0.532,0.257,1.063,0.523,1.593,0.797C41.835,3.514,43.024,2.987,44.132,2.544z"/>
		</g>
		<g>
			<path style="fill:#DF1F33;" d="M16.014,17.565c-2.761-0.692-5.527-1.032-8.417-1.141c-1.95,0.96-3.698,1.937-5.194,2.837
				c0.103,0.326,0.207,0.643,0.31,0.975c0.034,0.108,0.067,0.219,0.101,0.328c0.293,0.947,0.587,1.907,0.88,2.884
				C6.694,21.6,10.816,19.281,16.014,17.565z"/>
		</g>
	</g>
</g>
</svg>
