<svg id="Layer_4" data-name="Layer 4" xmlns="http://www.w3.org/2000/svg" viewBox="0 0 144 95.85"><defs><style>.cls-1{fill:#00994c;}.cls-2{fill:#008f49;}.cls-3{fill:#ef4130;}.cls-4{fill:#da2128;}</style></defs><path class="cls-1" d="M430.77,389.18q-.58-4.38-1.2-8.84l-.39-2.78c-2.16-15.49-4.54-31.44-6.48-46.69v0q-.37-2.94-.73-5.83c-.22-1.88-.45-3.75-.66-5.6a1.48,1.48,0,0,0-2.27-1.09c-12.1,7.6-23.65,10.65-38.92,7.55a108.56,108.56,0,0,1-23.66-8.24,59.7,59.7,0,0,0-20.82-5.42c-.39,0-.78,0-1.18,0h0c-18.89-1-35.18,6.92-43.58,12.74-.09.06-1.38,1-2.29,1.7a1.5,1.5,0,0,0-.53,1.61c.74,2.5,1.86,6.46,2.13,7.46.08.29.15.59.23.88.33,1.25.66,2.52,1,3.81,0,.17.08.34.13.5.36,1.47.73,3,1.09,4.48h0c4,16.55,7.8,35.72,13,53.12a1.48,1.48,0,0,0,2.06.92c8.46-4,21-7,40.78-2.85a138.52,138.52,0,0,1,18.13,5.16,106.51,106.51,0,0,0,24.16,5.74c17.78,2,30.74-2.19,40.46-7.22a1.5,1.5,0,0,0,.79-1.5C431.6,395.58,431.2,392.39,430.77,389.18Z" transform="translate(-288 -312.07)"/><path class="cls-2" d="M430.78,389.25c-10.48,11.27-26.64,10.72-42.07,3.94A82,82,0,0,1,374,384.74c-9.67-7-19.69-11-29.34-14-22.51-6.94-42.93-7.9-52.07-25.39,4,16.55,7.8,35.72,13,53.12a1.48,1.48,0,0,0,2.06.92c8.46-4,21-7,40.78-2.85a138.52,138.52,0,0,1,18.13,5.16,106.51,106.51,0,0,0,24.16,5.74c17.78,2,30.74-2.19,40.46-7.22a1.5,1.5,0,0,0,.79-1.5C431.61,395.6,431.2,392.44,430.78,389.25Z" transform="translate(-288 -312.07)"/><path class="cls-2" d="M421.31,319.41a1.48,1.48,0,0,0-2.27-1.09c-12.1,7.6-23.65,10.65-38.92,7.55a108.56,108.56,0,0,1-23.66-8.24,59.7,59.7,0,0,0-20.82-5.42c-.39,0-.78,0-1.18,0l1.24.39c12,3.92,26.52,13.88,34.28,22.5a48.77,48.77,0,0,0,12.32,9.47v0c12.76,7,30.46,9.25,40.4-13.67C422.21,327,421.73,323.16,421.31,319.41Z" transform="translate(-288 -312.07)"/><path class="cls-3" d="M391,359a26.81,26.81,0,1,1-26.44-27.17A26.82,26.82,0,0,1,391,359Z" transform="translate(-288 -312.07)"/><path class="cls-4" d="M367,332c1.08,1,2.09,2.07,3,3.08a48.77,48.77,0,0,0,12.32,9.47v0a43.43,43.43,0,0,0,6.2,2.8A26.82,26.82,0,0,0,367,332Z" transform="translate(-288 -312.07)"/><path class="cls-4" d="M363.82,385.43a26.7,26.7,0,0,0,9.11-1.47,100,100,0,0,0-28.24-13.23c-1.72-.53-3.43-1-5.12-1.49A26.81,26.81,0,0,0,363.82,385.43Z" transform="translate(-288 -312.07)"/></svg>