<svg id="Layer_5" data-name="Layer 5" xmlns="http://www.w3.org/2000/svg" viewBox="0 0 144.01 95.63"><defs><style>.cls-1{fill:#ef4130;}.cls-2{fill:#352825;}.cls-3{fill:#231f20;}.cls-4{fill:#da2128;}.cls-5{fill:#ffe300;}.cls-6{fill:#eeca19;}</style></defs><path class="cls-1" d="M387.07,346.84a36,36,0,0,1-4.26-1.67c2,14.88,4.5,33.55,6.4,47.74,14.36,6.74,31.49,7.76,41.41-3.92h0c-2.27-16.45-5.62-39.68-8-58C413.52,350.19,399.76,350.93,387.07,346.84Z" transform="translate(-287.93 -312.12)"/><path class="cls-2" d="M334.52,368c3.34.82,6.4,1.63,9.29,2.48-3.17-19.63-7.11-43.86-9.5-58.31-19.89-.81-35.36,6.76-46,14.66A1.05,1.05,0,0,0,288,328c1.24,3.69,2.92,10.36,4.84,18.4C301.44,360.8,317.4,363.84,334.52,368Z" transform="translate(-287.93 -312.12)"/><path class="cls-3" d="M307.4,399.49c11.48-5.21,24.38-6.53,40.56-3.25-.9-5.62-2.41-15-4.15-25.75-2.89-.85-5.95-1.66-9.29-2.48-17.12-4.17-33.08-7.21-41.7-21.59,3.88,16.27,8.75,38.17,13,52.4A1.13,1.13,0,0,0,307.4,399.49Z" transform="translate(-287.93 -312.12)"/><path class="cls-4" d="M389.21,392.91l1.94,14.42a69.4,69.4,0,0,0,40.19-7.54,1.13,1.13,0,0,0,.59-1.13c-.37-2.82-.82-6.09-1.31-9.67h0C420.7,400.67,403.57,399.65,389.21,392.91Z" transform="translate(-287.93 -312.12)"/><path class="cls-4" d="M419.3,317.86c-12.18,7.8-23.69,10.71-39.08,8,.6,4.51,1.52,11.38,2.59,19.35a36,36,0,0,0,4.26,1.67c12.69,4.09,26.45,3.35,35.52-15.83-.59-4.47-1.13-8.65-1.58-12.36A1.1,1.1,0,0,0,419.3,317.86Z" transform="translate(-287.93 -312.12)"/><path class="cls-5" d="M381.91,388.85a59.49,59.49,0,0,0,7.3,4.06c-1.9-14.19-4.41-32.86-6.4-47.74-14.48-6.69-18.67-20.25-39-29.57a67.48,67.48,0,0,0-8.41-3.36c-.35,0-.69-.05-1-.06h-.05c2.39,14.45,6.33,38.68,9.5,58.31C357.84,374.59,367.48,379.42,381.91,388.85Z" transform="translate(-287.93 -312.12)"/><path class="cls-6" d="M381.91,388.85c-14.43-9.43-24.07-14.26-38.1-18.36,1.74,10.76,3.25,20.13,4.15,25.75a136.59,136.59,0,0,1,18.63,5.27,106.59,106.59,0,0,0,24.56,5.82l-1.94-14.42A59.49,59.49,0,0,1,381.91,388.85Z" transform="translate(-287.93 -312.12)"/><path class="cls-6" d="M380,325.78c-19.87-3.63-26.08-12.46-44.57-13.54a67.48,67.48,0,0,1,8.41,3.36c20.33,9.32,24.52,22.88,39,29.57-1.07-8-2-14.84-2.59-19.35Z" transform="translate(-287.93 -312.12)"/></svg>