<svg width="99" height="63" viewBox="0 0 99 63" fill="none" xmlns="http://www.w3.org/2000/svg">
<g clip-path="url(#clip0)">
<path d="M85.8896 30.5346C84.6526 23.8286 76.0426 8.41163 68.2946 8.47163C66.2376 8.48763 64.0816 8.31663 61.7946 7.94863C57.0776 7.18963 51.8126 5.60363 45.7006 3.06863C40.8466 1.05563 36.0946 0.15263 31.5806 0.0026304C31.3136 -0.0063696 31.0546 0.0066304 30.7896 0.0026304H30.7876C27.4666 -0.0413696 24.2826 0.31963 21.2926 0.95163C12.8416 2.73963 9.72656 24.5166 9.72656 24.5166C12.9426 35.8706 25.1956 54.9176 35.1076 55.4106C37.3806 55.5236 39.8326 55.7846 42.4826 56.2246C46.1896 56.8406 50.2616 57.7876 54.7926 59.1916C60.8756 61.0776 66.2886 62.0466 71.1576 62.3816C73.1136 62.5166 74.9786 62.5456 76.7586 62.4836C86.2276 62.1566 86.5806 34.2816 85.8896 30.5346Z" fill="#EEEEEE"/>
<path d="M60.2441 37.523L52.5901 37.506L53.8631 45.809L52.3901 45.994L51.5681 37.635L44.1561 39.547L44.6301 36.534L36.2671 31.089L38.0351 30.013L36.0921 24.482L40.7441 24.947L41.2271 22.524L46.7471 27.277L43.6481 17.23L46.8961 18.528L48.9241 12.498L52.3871 17.838L55.2121 15.776L54.6951 26.276L58.8661 20.304L59.9341 22.532L64.3261 20.93L63.8131 26.77L65.7921 27.374L59.0371 34.721L60.2441 37.523ZM34.8221 55.403C30.3301 37.517 23.9361 11.146 21.2951 0.959961C14.3551 2.42796 8.39606 5.28996 4.26806 7.97896C3.48906 8.48596 1.34506 10.045 0.27806 11.001C0.0290604 11.224 -0.0639396 11.57 0.0450604 11.886C0.40206 12.919 0.95306 14.57 1.01506 14.759C1.25306 15.49 1.49106 16.228 1.72706 16.987C1.78706 17.18 1.84706 17.38 1.90706 17.575C2.16206 18.405 2.41606 19.243 2.66906 20.101C2.70206 20.212 2.73406 20.324 2.76706 20.435C3.05306 21.411 3.33906 22.4 3.62406 23.407C6.75706 34.467 9.86806 47.307 13.8621 58.89C14.0261 59.365 14.5771 59.585 15.0201 59.349C19.4481 56.996 25.6661 54.995 34.8221 55.403ZM68.1511 8.46296C70.2681 22.272 74.5671 47.604 76.7571 62.474C85.9381 62.155 92.8551 59.436 98.2131 56.365C98.5111 56.194 98.6681 55.857 98.6131 55.518C98.2641 53.389 97.8951 51.225 97.5141 49.041C97.1741 47.092 96.8221 45.121 96.4661 43.14C96.3551 42.524 96.2431 41.906 96.1301 41.287C94.2541 30.952 92.2221 20.316 90.5031 10.141C90.5021 10.132 90.5001 10.124 90.4991 10.115C90.2791 8.80996 90.0651 7.51596 89.8541 6.22496C89.6361 4.87796 89.4191 3.53396 89.2131 2.20596C89.1191 1.60196 88.4281 1.31496 87.9251 1.66396C81.6451 6.01696 75.5371 8.43596 68.1511 8.46296Z" fill="#EEEEEE"/>
<path d="M97.5209 49.085C92.1139 55.402 84.0279 56.677 75.5859 54.786C76.0169 57.55 76.4129 60.141 76.7559 62.475C80.3019 62.352 83.5109 61.87 86.4219 61.149C86.4259 61.148 86.4299 61.147 86.4339 61.146C86.9059 61.029 87.3699 60.905 87.8269 60.776C87.8559 60.768 87.8849 60.759 87.9149 60.751C89.6789 60.248 91.3259 59.657 92.8709 59.01C92.9699 58.968 93.0709 58.928 93.1699 58.886C93.4459 58.768 93.7139 58.647 93.9829 58.526C94.1599 58.446 94.3379 58.366 94.5119 58.285C94.6989 58.198 97.0899 56.949 98.1889 56.362C98.4999 56.196 98.6679 55.856 98.6099 55.508C98.3279 53.817 97.6889 50.048 97.5209 49.085Z" fill="#EEEEEE"/>
<path d="M52.3902 45.9935L53.8633 45.8085L53.6372 44.3325C53.1432 44.0835 52.6502 43.8375 52.1562 43.6055L52.3902 45.9935Z" fill="#EEEEEE"/>
<path d="M18.5931 57.7272C18.7961 57.6492 19.0011 57.5722 19.2101 57.4962C19.5281 57.3812 19.8491 57.2692 20.1811 57.1612C20.3891 57.0932 20.6061 57.0292 20.8201 56.9642C21.0451 56.8962 21.2701 56.8282 21.5021 56.7632C21.7421 56.6962 21.9861 56.6312 22.2331 56.5672C22.4501 56.5112 22.6711 56.4582 22.8931 56.4052C23.1581 56.3422 23.4231 56.2802 23.6961 56.2222C23.9061 56.1772 24.1241 56.1372 24.3391 56.0962C24.9421 55.9792 25.5651 55.8742 26.2071 55.7822C26.3511 55.7612 26.4891 55.7372 26.6351 55.7182C26.9621 55.6752 27.3011 55.6402 27.6381 55.6042C27.8601 55.5802 28.0811 55.5562 28.3081 55.5352C28.6491 55.5042 28.9971 55.4792 29.3481 55.4552C29.5841 55.4392 29.8221 55.4262 30.0631 55.4142C30.4241 55.3962 30.7871 55.3792 31.1581 55.3692C31.3951 55.3632 31.6401 55.3622 31.8811 55.3592C32.8281 55.3472 33.8031 55.3572 34.8211 55.4032V55.4022C33.4191 49.8212 31.8321 43.4142 30.2321 36.9302C18.7101 34.4802 8.89609 32.5742 3.62109 23.4092C4.42509 26.2472 5.22809 29.2032 6.04409 32.2252C7.67709 38.2682 9.36609 44.5752 11.2311 50.7352C12.0721 53.5102 12.9481 56.2552 13.8721 58.9332C14.0331 59.3982 14.5631 59.6182 15.0071 59.4052C16.2381 58.8142 18.3911 57.8042 18.5931 57.7272Z" fill="#EEEEEE"/>
<path d="M84.7324 3.70392C84.5374 3.81892 84.3424 3.93492 84.1484 4.04592C83.8214 4.23192 83.4934 4.40792 83.1654 4.58292C82.8344 4.75992 82.5014 4.92892 82.1684 5.09392C81.9234 5.21492 81.6794 5.33792 81.4334 5.45292C81.1664 5.57792 80.8974 5.69592 80.6284 5.81392C80.4344 5.89892 80.2394 5.98392 80.0454 6.06492C79.7554 6.18592 79.4634 6.30292 79.1714 6.41592C78.5254 6.66392 76.4074 7.45192 73.9214 7.91592C73.8284 7.93292 73.7364 7.95192 73.6424 7.96792C73.2474 8.03992 72.8494 8.10492 72.4484 8.16092C72.3974 8.16792 72.3464 8.17392 72.2954 8.18092C70.9534 8.36192 69.5754 8.45792 68.1484 8.46292C68.7584 12.4409 69.5494 17.3769 70.4194 22.7419C77.8584 24.2779 85.8924 22.0599 90.4984 10.1229C90.3744 9.38892 90.2574 8.66492 90.1354 7.93592C90.0414 7.36592 89.9444 6.79292 89.8514 6.22492C89.8514 6.22192 89.8504 6.21892 89.8504 6.21492C89.7834 5.80292 89.4484 3.70892 89.2074 2.17092C89.1144 1.57892 88.4424 1.27992 87.9424 1.61092C86.7274 2.41592 84.9364 3.58392 84.7324 3.70392Z" fill="#EEEEEE"/>
</g>
<defs>
<clipPath id="clip0">
<rect width="98.625" height="62.516" fill="white"/>
</clipPath>
</defs>
</svg>
