<?xml version="1.0" encoding="utf-8"?>
<!-- Generator: Adobe Illustrator 25.1.0, SVG Export Plug-In . SVG Version: 6.00 Build 0)  -->
<svg version="1.1" id="Layer_1" xmlns="http://www.w3.org/2000/svg" xmlns:xlink="http://www.w3.org/1999/xlink" x="0px" y="0px"
	 viewBox="0 0 86.63 64.37" style="enable-background:new 0 0 86.63 64.37;" xml:space="preserve">
<style type="text/css">
	.st0{fill:#2FAC4A;}
	.st1{fill:#009643;}
	.st2{fill:#FFE300;}
	.st3{fill:#253370;}
	.st4{clip-path:url(#SVGID_2_);fill:#FFFFFF;}
	.st5{fill:#0A9C49;}
	.st6{fill:#FFFFFF;}
	.st7{fill:#EFCF06;}
</style>
<g>
	<path class="st0" d="M86.39,54.13c-0.08-1.86-0.17-3.74-0.27-5.63c-0.03-0.59-0.06-1.18-0.09-1.77c-0.51-9.86-1.12-20.02-1.5-29.71
		c0-0.01,0-0.02,0-0.02c-0.05-1.24-0.09-2.48-0.13-3.7c-0.04-1.19-0.08-2.38-0.11-3.56c-0.02-0.69-0.75-1.13-1.37-0.81
		c-8.03,4.12-15.46,5.4-24.89,2.6c-4.31-1.27-9.02-3.39-14.42-6.48c-4.28-2.46-8.6-3.87-12.79-4.56c-0.25-0.04-0.49-0.06-0.74-0.09
		c0,0,0,0,0,0C18.25-1.29,7.58,2.8,1.97,6C1.92,6.03,1.05,6.56,0.44,6.94c-0.33,0.21-0.5,0.6-0.42,0.98
		c0.33,1.61,0.81,4.16,0.93,4.81c0.03,0.19,0.06,0.38,0.1,0.57c0.14,0.8,0.27,1.62,0.41,2.45c0.02,0.11,0.03,0.22,0.05,0.32
		c0.15,0.94,0.3,1.9,0.44,2.87l0,0c1.58,10.63,2.93,22.89,5.24,34.12c0.12,0.56,0.71,0.89,1.25,0.69c5.54-2.05,13.61-3.22,25.8,0.46
		c3.38,1.02,7.06,2.39,11.12,4.25c5.44,2.49,10.37,4.04,14.87,4.94c11.07,2.21,19.45,0.31,25.84-2.32c0.36-0.15,0.59-0.51,0.58-0.9
		C86.56,58.19,86.48,56.17,86.39,54.13z"/>
	<path class="st1" d="M86.39,54.17c-7.21,6.51-17.34,5.27-26.67,0.16c-3.05-1.67-6.02-3.76-8.76-6.12
		c-5.7-4.91-11.78-8.02-17.68-10.42C19.51,32.18,6.72,30.45,1.94,18.95c1.58,10.63,2.93,22.89,5.24,34.12
		c0.12,0.56,0.71,0.89,1.25,0.69c5.54-2.05,13.61-3.22,25.8,0.46c3.38,1.02,7.06,2.39,11.12,4.25c5.44,2.49,10.37,4.04,14.87,4.94
		c11.07,2.21,19.45,0.31,25.84-2.32c0.36-0.15,0.59-0.51,0.58-0.9C86.57,58.21,86.48,56.2,86.39,54.17z"/>
	<path class="st1" d="M84.29,9.73c-0.02-0.69-0.75-1.13-1.37-0.81c-8.03,4.12-15.46,5.4-24.89,2.6c-4.31-1.27-9.02-3.39-14.42-6.48
		c-4.28-2.46-8.6-3.87-12.79-4.56c-0.25-0.04-0.49-0.06-0.74-0.09c0.25,0.1,0.5,0.2,0.76,0.31c7.31,3.13,15.91,10.19,20.32,16.04
		c1.53,2.03,4.1,4.55,7.22,6.63c0,0.02,0,0.03,0,0.05c0-0.02,0-0.03,0-0.05c7.64,5.08,18.64,7.5,26.16-6.37
		C84.43,14.55,84.35,12.12,84.29,9.73z"/>
	<g>
		<path class="st2" d="M18.17,25.46c6.36,4.69,17.17,18.53,27.17,23.92c4.1-1.94,21.75-11.52,27.76-16.66
			c-9.69-8.93-22.44-18.22-26.3-21.1C39.89,13.75,22.56,22.71,18.17,25.46z"/>
		<g>
			<circle class="st3" cx="45.53" cy="29.77" r="12.02"/>
			<g>
				<defs>
					<circle id="SVGID_1_" cx="45.53" cy="29.77" r="12.02"/>
				</defs>
				<clipPath id="SVGID_2_">
					<use xlink:href="#SVGID_1_"  style="overflow:visible;"/>
				</clipPath>
				<path class="st4" d="M8.85,52.84c0.43-16.11,13.84-28.83,29.95-28.4c16.11,0.43,28.83,13.84,28.4,29.95l-1.72-0.05
					c0.4-15.17-11.56-27.79-26.73-28.19c-15.17-0.4-27.79,11.56-28.19,26.73L8.85,52.84z"/>
			</g>
			<g>
				<g transform="rotate(-7)">
					<path class="st5" d="M455.84-1444.63c-0.03-0.31-0.28-0.55-0.57-0.52c-0.28,0.03-0.49,0.3-0.46,0.62
						c0.03,0.31,0.28,0.55,0.57,0.52C455.66-1444.04,455.87-1444.31,455.84-1444.63z M455.33-1444.93c0.39,0.01,0.37,0.71-0.02,0.7
						C454.93-1444.24,454.95-1444.94,455.33-1444.93z"/>
				</g>
				<g>
					<g transform="rotate(2)">
						<path id="E_2_" class="st5" d="M459.22-1444.12l1.03,0.06l0.01-0.21l-0.83-0.05l0.02-0.29l0.65,0.04l0.01-0.2l-0.65-0.04
							l0.01-0.23l0.78,0.05l0.01-0.21l-0.98-0.06L459.22-1444.12z"/>
					</g>
					<g transform="rotate(5)">
						<path id="M_1_" class="st5" d="M460.67-1444.02l0.19,0.02l0.09-0.78l0.14,0.81l0.18,0.02l0.32-0.75l-0.09,0.78l0.2,0.02
							l0.13-1.14l-0.28-0.03l-0.32,0.75l-0.14-0.81l-0.28-0.03L460.67-1444.02z"/>
					</g>
					<g transform="rotate(9.75)">
						<path id="e_1_" class="st5" d="M463.03-1443.69l0.84,0.17l0.04-0.19l-0.65-0.13l0.05-0.26l0.53,0.11l0.04-0.19l-0.53-0.11
							l0.04-0.18l0.63,0.13l0.04-0.19l-0.82-0.16L463.03-1443.69z"/>
					</g>
					<g>
						<g id="R_1_">
							<g transform="rotate(17.5)">
								<path id="P_1_" class="st5" d="M467.82-1443.2 M466.59-1442.79"/>
							</g>
						</g>
						<g>
							<g id="G_1_">
								<g>
									<defs>
										<path id="SVGID_3_" d="M469.3-1441.75l0.48-1.04l0.93,0.44l-0.48,1.04L469.3-1441.75z M470.09-1442.23l-0.08,0.18
											l0.47,0.22l0.08-0.18L470.09-1442.23z"/>
									</defs>
									<clipPath id="SVGID_4_">
										<use xlink:href="#SVGID_3_"  style="overflow:visible;"/>
									</clipPath>
								</g>
								
									<rect x="470.17" y="-1442.07" transform="matrix(0.4229 -0.9062 0.9062 0.4229 1577.9318 -405.9451)" class="st5" width="0.16" height="0.43"/>
								
									<rect x="470" y="-1441.69" transform="matrix(0.423 -0.9061 0.9061 0.423 1577.665 -405.7003)" class="st5" width="0.57" height="0.16"/>
							</g>
							<g transform="translate(-420,1470)">
								<g transform="rotate(29.5)">
									<path id="E_1_" class="st5" d="M471.89-1440.43l0.88,0.53l0.11-0.18l-0.71-0.43l0.15-0.25l0.56,0.34l0.1-0.17l-0.56-0.34
										l0.12-0.2l0.67,0.4l0.11-0.18l-0.84-0.51L471.89-1440.43z"/>
								</g>
								<g transform="rotate(32.5)">
									<path id="S_2_" class="st5" d="M473.55-1439.83c-0.06,0.09,0,0.2,0.13,0.3c0.14,0.09,0.23,0.09,0.27,0.03
										c0.13-0.19-0.59-0.5-0.35-0.84c0.2-0.29,0.52-0.05,0.65,0.03c0.12,0.08,0.32,0.29,0.15,0.52l-0.21-0.14
										c0.07-0.1,0-0.2-0.11-0.28c-0.11-0.07-0.19-0.1-0.26-0.01c-0.11,0.16,0.59,0.48,0.36,0.81c-0.17,0.25-0.44,0.13-0.63,0.01
										c-0.16-0.11-0.39-0.35-0.23-0.59L473.55-1439.83z"/>
								</g>
								<g transform="rotate(35.5)">
									<path id="S_1_" class="st5" d="M474.75-1438.98c-0.07,0.09-0.02,0.2,0.12,0.3c0.13,0.1,0.22,0.1,0.27,0.04
										c0.14-0.19-0.56-0.53-0.31-0.85c0.21-0.28,0.52-0.02,0.64,0.06c0.12,0.09,0.3,0.31,0.13,0.53l-0.2-0.15
										c0.07-0.1,0.01-0.2-0.09-0.28c-0.1-0.08-0.19-0.11-0.26-0.02c-0.12,0.15,0.56,0.51,0.32,0.83
										c-0.18,0.24-0.45,0.11-0.63-0.03c-0.15-0.11-0.37-0.37-0.19-0.6L474.75-1438.98z"/>
								</g>
							</g>
							<g>
								<g>
									<g>
										<g id="c_111_">
											<path id="t_270_" class="st6" d="M455.8-1443.16l-0.17,0.49l0.24,0.09"/>
											<g transform="scale(-1,1)">
												<path id="t_269_" class="st6" d="M455.8-1443.16l0.15,0.49l-0.25,0.07"/>
											</g>
										</g>
										<g>
											<g id="c_110_">
												<path id="t_268_" class="st6" d="M456.28-1442.79l-0.51-0.01l-0.01,0.26"/>
												<g transform="rotate(72)">
													<path id="t_267_" class="st6" d="M456.28-1442.79l-0.42,0.29l-0.15-0.21"/>
												</g>
											</g>
											<g>
												<g id="c_109_">
													<path id="t_266_" class="st6" d="M455.3-1442.82l0.41,0.31l0.16-0.2"/>
													<g transform="rotate(-72)">
														<path id="t_265_" class="st6" d="M455.3-1442.82l0.51,0.01l-0.01,0.26"/>
													</g>
												</g>
												<g>
													<g id="c_108_">
														<path id="t_264_" class="st6" d="M456.07-1442.22l-0.15-0.49l-0.25,0.07"/>
														<g transform="rotate(144)">
															<path id="t_263_" class="st6" d="M456.07-1442.22l-0.41-0.31l0.16-0.2"/>
														</g>
													</g>
													<g id="star_27_">
														<g id="c_107_">
															<path id="t_262_" class="st6" d="M455.47-1442.24l0.42-0.29l-0.15-0.21"/>
															<g id="αCMi_1_" transform="scale(31.5)">
																<path id="t_261_" class="st6" d="M455.47-1442.24l0.17-0.49l0.24,0.09"/>
															</g>
														</g>
													</g>
													<g>
														<g>
															<g>
																<g id="c_106_">
																	<path id="t_260_" class="st6" d="M456.72-1438.08l-0.17,0.49l0.24,0.09"/>
																	<g transform="scale(-1,1)">
																		<path id="t_259_" class="st6" d="M456.72-1438.08l0.15,0.49l-0.25,0.07"/>
																	</g>
																</g>
																<g>
																	<g id="c_105_">
																		<path id="t_258_" class="st6" d="M457.2-1437.71l-0.51-0.01l-0.01,0.26"/>
																		<g transform="rotate(72)">
																			<path id="t_257_" class="st6" d="M457.2-1437.71l-0.42,0.29l-0.15-0.21"/>
																		</g>
																	</g>
																	<g>
																		<g id="c_104_">
																			<path id="t_256_" class="st6" d="M456.23-1437.74l0.41,0.31l0.16-0.2"/>
																			<g transform="rotate(-72)">
																				<path id="t_255_" class="st6" d="M456.23-1437.74l0.51,0.01l-0.01,0.26"/>
																			</g>
																		</g>
																		<g>
																			<g id="c_103_">
																				<path id="t_254_" class="st6" d="M457-1437.14l-0.15-0.49l-0.25,0.07"/>
																				<g transform="rotate(144)">
																					<path id="t_253_" class="st6" d="M457-1437.14l-0.41-0.31l0.16-0.2"/>
																				</g>
																			</g>
																			<g id="star_26_">
																				<g id="c_102_">
																					<path id="t_252_" class="st6" d="M456.4-1437.16l0.42-0.29l-0.15-0.21"/>
																					<g id="αCMa_25_" transform="scale(31.5)">
																						<path id="t_251_" class="st6" d="M456.4-1437.16l0.17-0.49l0.24,0.09"/>
																					</g>
																				</g>
																			</g>
																			<g>
																				<g>
																					<g>
																						<g id="c_101_">
																							<path id="t_250_" class="st6" d="M455.22-1436.96l-0.14,0.4l0.2,0.07"/>
																							<g transform="scale(-1,1)">
																								<path id="t_249_" class="st6" d="M455.22-1436.96l0.12,0.41l-0.21,0.06"/>
																							</g>
																						</g>
																						<g>
																							<g id="c_100_">
																								<path id="t_248_" class="st6" d="M455.62-1436.65l-0.43-0.01l-0.01,0.21"/>
																								<g transform="rotate(72)">
																									<path id="t_247_" class="st6" d="M455.62-1436.65l-0.35,0.24l-0.12-0.18"/>
																								</g>
																							</g>
																							<g>
																								<g id="c_99_">
																									<path id="t_246_" class="st6" d="M454.81-1436.67l0.34,0.26l0.13-0.17"/>
																									<g transform="rotate(-72)">
																										<path id="t_245_" class="st6" d="M454.81-1436.67l0.43,0.01l-0.01,0.21"/>
																									</g>
																								</g>
																								<g>
																									<g id="c_98_">
																										<path id="t_244_" class="st6" d="M455.45-1436.17l-0.12-0.41l-0.21,0.06"/>
																										<g transform="rotate(144)">
																											<path id="t_243_" class="st6" d="M455.45-1436.17l-0.34-0.26l0.13-0.17"/>
																										</g>
																									</g>
																									<g id="star_25_">
																										<g id="c_97_">
																											<path id="t_242_" class="st6" d="M454.95-1436.19l0.35-0.24l-0.12-0.18"/>
																											<g id="βCMa_1_" transform="scale(26.25)">
																												<path id="t_241_" class="st6" d="M454.95-1436.19l0.14-0.4l0.2,0.07"/>
																											</g>
																										</g>
																									</g>
																								</g>
																							</g>
																						</g>
																					</g>
																				</g>
																			</g>
																		</g>
																	</g>
																</g>
															</g>
														</g>
													</g>
												</g>
											</g>
										</g>
									</g>
								</g>
								<g id="c_96_">
									<path id="t_240_" class="st6" d="M465.4-1435.29l-0.17,0.49l0.24,0.09"/>
									<g transform="scale(-1,1)">
										<path id="t_239_" class="st6" d="M465.4-1435.29l0.15,0.49l-0.25,0.07"/>
									</g>
								</g>
								<g id="c_95_">
									<path id="t_238_" class="st6" d="M464.9-1434.95l0.41,0.31l0.16-0.2"/>
									<g transform="rotate(-72)">
										<path id="t_237_" class="st6" d="M464.9-1434.95l0.51,0.01l-0.01,0.26"/>
									</g>
									<path id="t_236_" class="st6" d="M465.88-1434.92l-0.51-0.01l-0.01,0.26"/>
									<path id="t_235_" class="st6" d="M465.88-1434.92l-0.42,0.29l-0.15-0.21"/>
								</g>
								<g id="c_94_">
									<path id="t_234_" class="st6" d="M465.68-1434.35l-0.15-0.49l-0.25,0.07"/>
									<g transform="rotate(144)">
										<path id="t_233_" class="st6" d="M465.68-1434.35l-0.41-0.31l0.16-0.2"/>
									</g>
								</g>
								<g id="star_24_">
									<g id="c_93_">
										<path id="t_232_" class="st6" d="M465.07-1434.37l0.42-0.29l-0.15-0.21"/>
										<g id="αCMa_24_" transform="scale(31.5)">
											<path id="t_231_" class="st6" d="M465.07-1434.37l0.17-0.49l0.24,0.09"/>
										</g>
									</g>
								</g>
								<g id="c_92_">
									<path id="t_230_" class="st6" d="M460.57-1434.56l-0.17,0.49l0.24,0.09"/>
									<g transform="scale(-1,1)">
										<path id="t_229_" class="st6" d="M460.57-1434.56l0.15,0.49l-0.25,0.07"/>
									</g>
								</g>
								<g id="c_91_">
									<path id="t_228_" class="st6" d="M460.07-1434.22l0.41,0.31l0.16-0.2"/>
									<g transform="rotate(-72)">
										<path id="t_227_" class="st6" d="M460.07-1434.22l0.51,0.01l-0.01,0.26"/>
									</g>
									<path id="t_226_" class="st6" d="M461.05-1434.19l-0.51-0.01l-0.01,0.26"/>
									<path id="t_225_" class="st6" d="M461.05-1434.19l-0.42,0.29l-0.15-0.21"/>
								</g>
								<g id="c_90_">
									<path id="t_224_" class="st6" d="M460.84-1433.62l-0.15-0.49l-0.25,0.07"/>
									<g transform="rotate(144)">
										<path id="t_223_" class="st6" d="M460.84-1433.62l-0.41-0.31l0.16-0.2"/>
									</g>
								</g>
								<g id="star_23_">
									<g id="c_89_">
										<path id="t_222_" class="st6" d="M460.24-1433.63l0.42-0.29l-0.15-0.21"/>
										<g id="αCMa_23_" transform="scale(31.5)">
											<path id="t_221_" class="st6" d="M460.24-1433.63l0.17-0.49l0.24,0.09"/>
										</g>
									</g>
								</g>
								<g id="c_88_">
									<path id="t_220_" class="st6" d="M473.85-1436.31l-0.17,0.49l0.24,0.09"/>
									<g transform="scale(-1,1)">
										<path id="t_219_" class="st6" d="M473.85-1436.31l0.15,0.49l-0.25,0.07"/>
									</g>
								</g>
								<g id="c_87_">
									<path id="t_218_" class="st6" d="M473.35-1435.97l0.41,0.31l0.16-0.2"/>
									<g transform="rotate(-72)">
										<path id="t_217_" class="st6" d="M473.35-1435.97l0.51,0.01l-0.01,0.26"/>
									</g>
									<path id="t_216_" class="st6" d="M474.33-1435.94l-0.51-0.01l-0.01,0.26"/>
									<path id="t_215_" class="st6" d="M474.33-1435.94l-0.42,0.29l-0.15-0.21"/>
								</g>
								<g id="c_86_">
									<path id="t_214_" class="st6" d="M474.13-1435.37l-0.15-0.49l-0.25,0.07"/>
									<g transform="rotate(144)">
										<path id="t_213_" class="st6" d="M474.13-1435.37l-0.41-0.31l0.16-0.2"/>
									</g>
								</g>
								<g id="star_22_">
									<g id="c_85_">
										<path id="t_212_" class="st6" d="M473.52-1435.39l0.42-0.29l-0.15-0.21"/>
										<g id="αCMa_22_" transform="scale(31.5)">
											<path id="t_211_" class="st6" d="M473.52-1435.39l0.17-0.49l0.24,0.09"/>
										</g>
									</g>
								</g>
								<g id="c_84_">
									<path id="t_210_" class="st6" d="M468.92-1432.48l-0.14,0.41l0.2,0.07"/>
									<g transform="scale(-1,1)">
										<path id="t_209_" class="st6" d="M468.92-1432.48l0.12,0.41l-0.21,0.06"/>
									</g>
								</g>
								<g id="c_83_">
									<path id="t_208_" class="st6" d="M468.5-1432.19l0.34,0.26l0.13-0.17"/>
									<g transform="rotate(-72)">
										<path id="t_207_" class="st6" d="M468.5-1432.19l0.43,0.01l-0.01,0.22"/>
									</g>
									<path id="t_206_" class="st6" d="M469.32-1432.17l-0.43-0.01l-0.01,0.22"/>
									<path id="t_205_" class="st6" d="M469.32-1432.17l-0.36,0.24l-0.12-0.18"/>
								</g>
								<g id="c_82_">
									<path id="t_204_" class="st6" d="M469.15-1431.69l-0.12-0.41l-0.21,0.06"/>
									<g transform="rotate(144)">
										<path id="t_203_" class="st6" d="M469.15-1431.69l-0.34-0.26l0.13-0.17"/>
									</g>
								</g>
								<g id="star_21_">
									<g id="c_81_">
										<path id="t_202_" class="st6" d="M468.65-1431.7l0.36-0.24l-0.12-0.18"/>
										<g id="αCMa_21_" transform="scale(31.5)">
											<path id="t_201_" class="st6" d="M468.65-1431.7l0.14-0.41l0.2,0.07"/>
										</g>
									</g>
								</g>
								<g id="c_80_">
									<path id="t_200_" class="st6" d="M471.34-1432.72l-0.14,0.41l0.2,0.07"/>
									<g transform="scale(-1,1)">
										<path id="t_199_" class="st6" d="M471.34-1432.72l0.12,0.41l-0.21,0.06"/>
									</g>
								</g>
								<g id="c_79_">
									<path id="t_198_" class="st6" d="M470.92-1432.43l0.34,0.26l0.13-0.17"/>
									<g transform="rotate(-72)">
										<path id="t_197_" class="st6" d="M470.92-1432.43l0.43,0.01l-0.01,0.22"/>
									</g>
									<path id="t_196_" class="st6" d="M471.74-1432.41l-0.43-0.01l-0.01,0.22"/>
									<path id="t_195_" class="st6" d="M471.74-1432.41l-0.36,0.24l-0.12-0.18"/>
								</g>
								<g id="c_78_">
									<path id="t_194_" class="st6" d="M471.57-1431.93l-0.12-0.41l-0.21,0.06"/>
									<g transform="rotate(144)">
										<path id="t_193_" class="st6" d="M471.57-1431.93l-0.34-0.26l0.13-0.17"/>
									</g>
								</g>
								<g id="star_20_">
									<g id="c_77_">
										<path id="t_192_" class="st6" d="M471.06-1431.95l0.36-0.24l-0.12-0.18"/>
										<g id="αCMa_20_" transform="scale(31.5)">
											<path id="t_191_" class="st6" d="M471.06-1431.95l0.14-0.41l0.2,0.07"/>
										</g>
									</g>
								</g>
								<g id="c_76_">
									<path id="t_190_" class="st6" d="M473.56-1434.21l-0.14,0.41l0.2,0.07"/>
									<g transform="scale(-1,1)">
										<path id="t_189_" class="st6" d="M473.56-1434.21l0.12,0.41l-0.21,0.06"/>
									</g>
								</g>
								<g id="c_75_">
									<path id="t_188_" class="st6" d="M473.14-1433.92l0.34,0.26l0.13-0.17"/>
									<g transform="rotate(-72)">
										<path id="t_187_" class="st6" d="M473.14-1433.92l0.43,0.01l-0.01,0.22"/>
									</g>
									<path id="t_186_" class="st6" d="M473.97-1433.9l-0.43-0.01l-0.01,0.22"/>
									<path id="t_185_" class="st6" d="M473.97-1433.9l-0.36,0.24l-0.12-0.18"/>
								</g>
								<g id="c_74_">
									<path id="t_184_" class="st6" d="M473.8-1433.42l-0.12-0.41l-0.21,0.06"/>
									<g transform="rotate(144)">
										<path id="t_183_" class="st6" d="M473.8-1433.42l-0.34-0.26l0.13-0.17"/>
									</g>
								</g>
								<g id="star_19_">
									<g id="c_73_">
										<path id="t_182_" class="st6" d="M473.29-1433.43l0.36-0.24l-0.12-0.18"/>
										<g id="αCMa_19_" transform="scale(31.5)">
											<path id="t_181_" class="st6" d="M473.29-1433.43l0.14-0.41l0.2,0.07"/>
										</g>
									</g>
								</g>
								<g id="c_72_">
									<path id="t_180_" class="st6" d="M474.31-1435.12l-0.14,0.41l0.2,0.07"/>
									<g transform="scale(-1,1)">
										<path id="t_179_" class="st6" d="M474.31-1435.12l0.12,0.41l-0.21,0.06"/>
									</g>
								</g>
								<g id="c_71_">
									<path id="t_178_" class="st6" d="M473.89-1434.84l0.34,0.26l0.13-0.17"/>
									<g transform="rotate(-72)">
										<path id="t_177_" class="st6" d="M473.89-1434.84l0.43,0.01l-0.01,0.22"/>
									</g>
									<path id="t_176_" class="st6" d="M474.71-1434.82l-0.43-0.01l-0.01,0.22"/>
									<path id="t_175_" class="st6" d="M474.71-1434.82l-0.36,0.24l-0.12-0.18"/>
								</g>
								<g id="c_70_">
									<path id="t_174_" class="st6" d="M474.54-1434.34l-0.12-0.41l-0.21,0.06"/>
									<g transform="rotate(144)">
										<path id="t_173_" class="st6" d="M474.54-1434.34l-0.34-0.26l0.13-0.17"/>
									</g>
								</g>
								<g id="star_18_">
									<g id="c_69_">
										<path id="t_172_" class="st6" d="M474.03-1434.35l0.36-0.24l-0.12-0.18"/>
										<g id="αCMa_18_" transform="scale(31.5)">
											<path id="t_171_" class="st6" d="M474.03-1434.35l0.14-0.41l0.2,0.07"/>
										</g>
									</g>
								</g>
								<g id="c_68_">
									<path id="t_170_" class="st6" d="M466.85-1437.6l-0.14,0.41l0.2,0.07"/>
									<g transform="scale(-1,1)">
										<path id="t_169_" class="st6" d="M466.85-1437.6l0.12,0.41l-0.21,0.06"/>
									</g>
								</g>
								<g id="c_67_">
									<path id="t_168_" class="st6" d="M466.43-1437.31l0.34,0.26l0.13-0.17"/>
									<g transform="rotate(-72)">
										<path id="t_167_" class="st6" d="M466.43-1437.31l0.43,0.01l-0.01,0.22"/>
									</g>
									<path id="t_166_" class="st6" d="M467.26-1437.29l-0.43-0.01l-0.01,0.22"/>
									<path id="t_165_" class="st6" d="M467.26-1437.29l-0.36,0.24l-0.12-0.18"/>
								</g>
								<g id="c_66_">
									<path id="t_164_" class="st6" d="M467.09-1436.81l-0.12-0.41l-0.21,0.06"/>
									<g transform="rotate(144)">
										<path id="t_163_" class="st6" d="M467.09-1436.81l-0.34-0.26l0.13-0.17"/>
									</g>
								</g>
								<g id="star_17_">
									<g id="c_65_">
										<path id="t_162_" class="st6" d="M466.58-1436.82l0.36-0.24l-0.12-0.18"/>
										<g id="αCMa_17_" transform="scale(31.5)">
											<path id="t_161_" class="st6" d="M466.58-1436.82l0.14-0.41l0.2,0.07"/>
										</g>
									</g>
								</g>
								<g id="c_64_">
									<path id="t_160_" class="st6" d="M465.49-1438.69l-0.14,0.41l0.2,0.07"/>
									<g transform="scale(-1,1)">
										<path id="t_159_" class="st6" d="M465.49-1438.69l0.12,0.41l-0.21,0.06"/>
									</g>
								</g>
								<g id="c_63_">
									<path id="t_158_" class="st6" d="M465.07-1438.4l0.34,0.26l0.13-0.17"/>
									<g transform="rotate(-72)">
										<path id="t_157_" class="st6" d="M465.07-1438.4l0.43,0.01l-0.01,0.22"/>
									</g>
									<path id="t_156_" class="st6" d="M465.9-1438.38l-0.43-0.01l-0.01,0.22"/>
									<path id="t_155_" class="st6" d="M465.9-1438.38l-0.36,0.24l-0.12-0.18"/>
								</g>
								<g id="c_62_">
									<path id="t_154_" class="st6" d="M465.73-1437.9l-0.12-0.41l-0.21,0.06"/>
									<g transform="rotate(144)">
										<path id="t_153_" class="st6" d="M465.73-1437.9l-0.34-0.26l0.13-0.17"/>
									</g>
								</g>
								<g id="star_16_">
									<g id="c_61_">
										<path id="t_152_" class="st6" d="M465.22-1437.91l0.36-0.24l-0.12-0.18"/>
										<g id="αCMa_16_" transform="scale(31.5)">
											<path id="t_151_" class="st6" d="M465.22-1437.91l0.14-0.41l0.2,0.07"/>
										</g>
									</g>
								</g>
								<g id="c_60_">
									<path id="t_150_" class="st6" d="M469.41-1444.31l-0.14,0.41l0.2,0.07"/>
									<g transform="scale(-1,1)">
										<path id="t_149_" class="st6" d="M469.41-1444.31l0.12,0.41l-0.21,0.06"/>
									</g>
								</g>
								<g id="c_59_">
									<path id="t_148_" class="st6" d="M468.99-1444.02l0.34,0.26l0.13-0.17"/>
									<g transform="rotate(-72)">
										<path id="t_147_" class="st6" d="M468.99-1444.02l0.43,0.01l-0.01,0.22"/>
									</g>
									<path id="t_146_" class="st6" d="M469.81-1444l-0.43-0.01l-0.01,0.22"/>
									<path id="t_145_" class="st6" d="M469.81-1444l-0.36,0.24l-0.12-0.18"/>
								</g>
								<g id="c_58_">
									<path id="t_144_" class="st6" d="M469.64-1443.52l-0.12-0.41l-0.21,0.06"/>
									<g transform="rotate(144)">
										<path id="t_143_" class="st6" d="M469.64-1443.52l-0.34-0.26l0.13-0.17"/>
									</g>
								</g>
								<g id="star_15_">
									<g id="c_57_">
										<path id="t_142_" class="st6" d="M469.14-1443.53l0.36-0.24l-0.12-0.18"/>
										<g id="αCMa_15_" transform="scale(31.5)">
											<path id="t_141_" class="st6" d="M469.14-1443.53l0.14-0.41l0.2,0.07"/>
										</g>
									</g>
								</g>
								<g id="c_56_">
									<path id="t_140_" class="st6" d="M460.96-1440.29l-0.14,0.4l0.2,0.07"/>
									<g transform="scale(-1,1)">
										<path id="t_139_" class="st6" d="M460.96-1440.29l0.12,0.4l-0.2,0.06"/>
									</g>
								</g>
								<g id="c_55_">
									<path id="t_138_" class="st6" d="M460.55-1440.01l0.33,0.26l0.13-0.17"/>
									<g transform="rotate(-72)">
										<path id="t_137_" class="st6" d="M460.55-1440.01l0.42,0.01l-0.01,0.21"/>
									</g>
									<path id="t_136_" class="st6" d="M461.35-1439.99l-0.42-0.01l-0.01,0.21"/>
									<path id="t_135_" class="st6" d="M461.35-1439.99l-0.35,0.24l-0.12-0.17"/>
								</g>
								<g id="c_54_">
									<path id="t_134_" class="st6" d="M461.19-1439.52l-0.12-0.4l-0.2,0.06"/>
									<g transform="rotate(144)">
										<path id="t_133_" class="st6" d="M461.19-1439.52l-0.33-0.26l0.13-0.17"/>
									</g>
								</g>
								<g id="star_14_">
									<g id="c_53_">
										<path id="t_132_" class="st6" d="M460.69-1439.53l0.35-0.24l-0.12-0.17"/>
										<g id="αCMa_14_" transform="scale(31.5)">
											<path id="t_131_" class="st6" d="M460.69-1439.53l0.14-0.4l0.2,0.07"/>
										</g>
									</g>
								</g>
								<g id="c_52_">
									<path id="t_130_" class="st6" d="M475.53-1435.97l-0.12,0.34l0.17,0.06"/>
									<g transform="scale(-1,1)">
										<path id="t_129_" class="st6" d="M475.53-1435.97l0.1,0.34l-0.17,0.05"/>
									</g>
								</g>
								<g id="c_51_">
									<path id="t_128_" class="st6" d="M475.18-1435.74l0.28,0.22l0.11-0.14"/>
									<g transform="rotate(-72)">
										<path id="t_127_" class="st6" d="M475.18-1435.74l0.36,0.01l0,0.18"/>
									</g>
									<path id="t_126_" class="st6" d="M475.86-1435.72l-0.36-0.01l0,0.18"/>
									<path id="t_125_" class="st6" d="M475.86-1435.72l-0.29,0.2l-0.1-0.15"/>
								</g>
								<g id="c_50_">
									<path id="t_124_" class="st6" d="M475.72-1435.32l-0.1-0.34l-0.17,0.05"/>
									<g transform="rotate(144)">
										<path id="t_123_" class="st6" d="M475.72-1435.32l-0.28-0.22l0.11-0.14"/>
									</g>
								</g>
								<g id="star_13_">
									<g id="c_49_">
										<path id="t_122_" class="st6" d="M475.3-1435.33l0.29-0.2l-0.1-0.15"/>
										<g id="αCMa_13_" transform="scale(31.5)">
											<path id="t_121_" class="st6" d="M475.3-1435.33l0.12-0.34l0.17,0.06"/>
										</g>
									</g>
								</g>
								<g id="c_48_">
									<path id="t_120_" class="st6" d="M468.85-1441.1l-0.12,0.34l0.17,0.06"/>
									<g transform="scale(-1,1)">
										<path id="t_119_" class="st6" d="M468.85-1441.1l0.1,0.34l-0.17,0.05"/>
									</g>
								</g>
								<g id="c_47_">
									<path id="t_118_" class="st6" d="M468.5-1440.86l0.28,0.22l0.11-0.14"/>
									<g transform="rotate(-72)">
										<path id="t_117_" class="st6" d="M468.5-1440.86l0.36,0.01l0,0.18"/>
									</g>
									<path id="t_116_" class="st6" d="M469.18-1440.84l-0.36-0.01l0,0.18"/>
									<path id="t_115_" class="st6" d="M469.18-1440.84l-0.29,0.2l-0.1-0.15"/>
								</g>
								<g id="c_46_">
									<path id="t_114_" class="st6" d="M469.04-1440.45l-0.1-0.34l-0.17,0.05"/>
									<g transform="rotate(144)">
										<path id="t_113_" class="st6" d="M469.04-1440.45l-0.28-0.22l0.11-0.14"/>
									</g>
								</g>
								<g id="star_12_">
									<g id="c_45_">
										<path id="t_112_" class="st6" d="M468.62-1440.46l0.29-0.2l-0.1-0.15"/>
										<g id="αCMa_12_" transform="scale(31.5)">
											<path id="t_111_" class="st6" d="M468.62-1440.46l0.12-0.34l0.17,0.06"/>
										</g>
									</g>
								</g>
								<g id="c_44_">
									<path id="t_110_" class="st6" d="M471.33-1433.81l-0.12,0.34l0.17,0.06"/>
									<g transform="scale(-1,1)">
										<path id="t_109_" class="st6" d="M471.33-1433.81l0.1,0.34l-0.17,0.05"/>
									</g>
								</g>
								<g id="c_43_">
									<path id="t_108_" class="st6" d="M470.99-1433.57l0.28,0.22l0.11-0.14"/>
									<g transform="rotate(-72)">
										<path id="t_107_" class="st6" d="M470.99-1433.57l0.36,0.01l0,0.18"/>
									</g>
									<path id="t_106_" class="st6" d="M471.67-1433.55l-0.36-0.01l0,0.18"/>
									<path id="t_105_" class="st6" d="M471.67-1433.55l-0.29,0.2l-0.1-0.15"/>
								</g>
								<g id="c_42_">
									<path id="t_104_" class="st6" d="M471.53-1433.16l-0.1-0.34l-0.17,0.05"/>
									<g transform="rotate(144)">
										<path id="t_103_" class="st6" d="M471.53-1433.16l-0.28-0.22l0.11-0.14"/>
									</g>
								</g>
								<g id="star_11_">
									<g id="c_41_">
										<path id="t_102_" class="st6" d="M471.11-1433.17l0.29-0.2l-0.1-0.15"/>
										<g id="αCMa_11_" transform="scale(31.5)">
											<path id="t_101_" class="st6" d="M471.11-1433.17l0.12-0.34l0.17,0.06"/>
										</g>
									</g>
								</g>
								<g id="c_40_">
									<path id="t_100_" class="st6" d="M472.58-1433.56l-0.12,0.34l0.17,0.06"/>
									<g transform="scale(-1,1)">
										<path id="t_99_" class="st6" d="M472.58-1433.56l0.1,0.34l-0.17,0.05"/>
									</g>
								</g>
								<g id="c_39_">
									<path id="t_98_" class="st6" d="M472.24-1433.32l0.28,0.22l0.11-0.14"/>
									<g transform="rotate(-72)">
										<path id="t_97_" class="st6" d="M472.24-1433.32l0.36,0.01l0,0.18"/>
									</g>
									<path id="t_96_" class="st6" d="M472.92-1433.3l-0.36-0.01l0,0.18"/>
									<path id="t_95_" class="st6" d="M472.92-1433.3l-0.29,0.2l-0.1-0.15"/>
								</g>
								<g id="c_38_">
									<path id="t_94_" class="st6" d="M472.78-1432.91l-0.1-0.34l-0.17,0.05"/>
									<g transform="rotate(144)">
										<path id="t_93_" class="st6" d="M472.78-1432.91l-0.28-0.22l0.11-0.14"/>
									</g>
								</g>
								<g id="star_10_">
									<g id="c_37_">
										<path id="t_92_" class="st6" d="M472.36-1432.92l0.29-0.2l-0.1-0.15"/>
										<g id="αCMa_10_" transform="scale(31.5)">
											<path id="t_91_" class="st6" d="M472.36-1432.92l0.12-0.34l0.17,0.06"/>
										</g>
									</g>
								</g>
								<g id="c_36_">
									<path id="t_90_" class="st6" d="M471.33-1431.41l-0.12,0.34l0.17,0.06"/>
									<g transform="scale(-1,1)">
										<path id="t_89_" class="st6" d="M471.33-1431.41l0.1,0.34l-0.17,0.05"/>
									</g>
								</g>
								<g id="c_35_">
									<path id="t_88_" class="st6" d="M470.98-1431.18l0.28,0.22l0.11-0.14"/>
									<g transform="rotate(-72)">
										<path id="t_87_" class="st6" d="M470.98-1431.18l0.36,0.01l0,0.18"/>
									</g>
									<path id="t_86_" class="st6" d="M471.66-1431.16l-0.36-0.01l0,0.18"/>
									<path id="t_85_" class="st6" d="M471.66-1431.16l-0.29,0.2l-0.1-0.15"/>
								</g>
								<g id="c_34_">
									<path id="t_84_" class="st6" d="M471.52-1430.76l-0.1-0.34l-0.17,0.05"/>
									<g transform="rotate(144)">
										<path id="t_83_" class="st6" d="M471.52-1430.76l-0.28-0.22l0.11-0.14"/>
									</g>
								</g>
								<g id="star_9_">
									<g id="c_33_">
										<path id="t_82_" class="st6" d="M471.1-1430.77l0.29-0.2l-0.1-0.15"/>
										<g id="αCMa_9_" transform="scale(31.5)">
											<path id="t_81_" class="st6" d="M471.1-1430.77l0.12-0.34l0.17,0.06"/>
										</g>
									</g>
								</g>
								<g id="c_32_">
									<path id="t_80_" class="st6" d="M469.99-1433.44l-0.12,0.34l0.17,0.06"/>
									<g transform="scale(-1,1)">
										<path id="t_79_" class="st6" d="M469.99-1433.44l0.1,0.34l-0.17,0.05"/>
									</g>
								</g>
								<g id="c_31_">
									<path id="t_78_" class="st6" d="M469.64-1433.21l0.28,0.22l0.11-0.14"/>
									<g transform="rotate(-72)">
										<path id="t_77_" class="st6" d="M469.64-1433.21l0.36,0.01l0,0.18"/>
									</g>
									<path id="t_76_" class="st6" d="M470.32-1433.19l-0.36-0.01l0,0.18"/>
									<path id="t_75_" class="st6" d="M470.32-1433.19l-0.29,0.2l-0.1-0.15"/>
								</g>
								<g id="c_30_">
									<path id="t_74_" class="st6" d="M470.18-1432.79l-0.1-0.34l-0.17,0.05"/>
									<g transform="rotate(144)">
										<path id="t_73_" class="st6" d="M470.18-1432.79l-0.28-0.22l0.11-0.14"/>
									</g>
								</g>
								<g id="star_8_">
									<g id="c_29_">
										<path id="t_72_" class="st6" d="M469.76-1432.8l0.29-0.2l-0.1-0.15"/>
										<g id="αCMa_8_" transform="scale(31.5)">
											<path id="t_71_" class="st6" d="M469.76-1432.8l0.12-0.34l0.17,0.06"/>
										</g>
									</g>
								</g>
								<g id="c_28_">
									<path id="t_70_" class="st6" d="M468.01-1433.77l-0.12,0.34l0.17,0.06"/>
									<g transform="scale(-1,1)">
										<path id="t_69_" class="st6" d="M468.01-1433.77l0.1,0.34l-0.17,0.05"/>
									</g>
								</g>
								<g id="c_27_">
									<path id="t_68_" class="st6" d="M467.66-1433.53l0.28,0.22l0.11-0.14"/>
									<g transform="rotate(-72)">
										<path id="t_67_" class="st6" d="M467.66-1433.53l0.36,0.01l0,0.18"/>
									</g>
									<path id="t_66_" class="st6" d="M468.34-1433.51l-0.36-0.01l0,0.18"/>
									<path id="t_65_" class="st6" d="M468.34-1433.51l-0.29,0.2l-0.1-0.15"/>
								</g>
								<g id="c_26_">
									<path id="t_64_" class="st6" d="M468.2-1433.12l-0.1-0.34l-0.17,0.05"/>
									<g transform="rotate(144)">
										<path id="t_63_" class="st6" d="M468.2-1433.12l-0.28-0.22l0.11-0.14"/>
									</g>
								</g>
								<g id="star_7_">
									<g id="c_25_">
										<path id="t_62_" class="st6" d="M467.78-1433.13l0.29-0.2l-0.1-0.15"/>
										<g id="αCMa_7_" transform="scale(31.5)">
											<path id="t_61_" class="st6" d="M467.78-1433.13l0.12-0.34l0.17,0.06"/>
										</g>
									</g>
								</g>
								<g id="c_24_">
									<path id="t_60_" class="st6" d="M459.22-1436.72l-0.13,0.37l0.18,0.06"/>
									<g transform="scale(-1,1)">
										<path id="t_59_" class="st6" d="M459.22-1436.72l0.11,0.37l-0.19,0.05"/>
									</g>
								</g>
								<g id="c_23_">
									<path id="t_58_" class="st6" d="M458.84-1436.46l0.31,0.24l0.12-0.15"/>
									<g transform="rotate(-72)">
										<path id="t_57_" class="st6" d="M458.84-1436.46l0.39,0.01l-0.01,0.19"/>
									</g>
									<path id="t_56_" class="st6" d="M459.58-1436.44l-0.39-0.01l-0.01,0.19"/>
									<path id="t_55_" class="st6" d="M459.58-1436.44l-0.32,0.22l-0.11-0.16"/>
								</g>
								<g id="c_22_">
									<path id="t_54_" class="st6" d="M459.43-1436.01l-0.11-0.37l-0.19,0.06"/>
									<g transform="rotate(144)">
										<path id="t_53_" class="st6" d="M459.43-1436.01l-0.31-0.24l0.12-0.15"/>
									</g>
								</g>
								<g id="star_6_">
									<g id="c_21_">
										<path id="t_52_" class="st6" d="M458.97-1436.03l0.32-0.22l-0.11-0.16"/>
										<g id="αCMa_6_" transform="scale(31.5)">
											<path id="t_51_" class="st6" d="M458.97-1436.03l0.13-0.37l0.18,0.06"/>
										</g>
									</g>
								</g>
								<g id="c_20_">
									<path id="t_50_" class="st6" d="M458.82-1435.45l-0.12,0.34l0.17,0.06"/>
									<g transform="scale(-1,1)">
										<path id="t_49_" class="st6" d="M458.82-1435.45l0.1,0.34l-0.17,0.05"/>
									</g>
								</g>
								<g id="c_19_">
									<path id="t_48_" class="st6" d="M458.47-1435.22l0.28,0.22l0.11-0.14"/>
									<g transform="rotate(-72)">
										<path id="t_47_" class="st6" d="M458.47-1435.22l0.36,0.01l0,0.18"/>
									</g>
									<path id="t_46_" class="st6" d="M459.15-1435.2l-0.36-0.01l0,0.18"/>
									<path id="t_45_" class="st6" d="M459.15-1435.2l-0.29,0.2l-0.1-0.15"/>
								</g>
								<g id="c_18_">
									<path id="t_44_" class="st6" d="M459.01-1434.8l-0.1-0.34l-0.17,0.05"/>
									<g transform="rotate(144)">
										<path id="t_43_" class="st6" d="M459.01-1434.8l-0.28-0.22l0.11-0.14"/>
									</g>
								</g>
								<g id="star_5_">
									<g id="c_17_">
										<path id="t_42_" class="st6" d="M458.59-1434.81l0.29-0.2l-0.1-0.15"/>
										<g id="αCMa_5_" transform="scale(31.5)">
											<path id="t_41_" class="st6" d="M458.59-1434.81l0.12-0.34l0.17,0.06"/>
										</g>
									</g>
								</g>
								<g id="c_16_">
									<path id="t_40_" class="st6" d="M464.25-1437.58l-0.12,0.34l0.17,0.06"/>
									<g transform="scale(-1,1)">
										<path id="t_39_" class="st6" d="M464.25-1437.58l0.1,0.34l-0.17,0.05"/>
									</g>
								</g>
								<g id="c_15_">
									<path id="t_38_" class="st6" d="M463.9-1437.35l0.28,0.22l0.11-0.14"/>
									<g transform="rotate(-72)">
										<path id="t_37_" class="st6" d="M463.9-1437.35l0.36,0.01l0,0.18"/>
									</g>
									<path id="t_36_" class="st6" d="M464.58-1437.33l-0.36-0.01l0,0.18"/>
									<path id="t_35_" class="st6" d="M464.58-1437.33l-0.29,0.2l-0.1-0.15"/>
								</g>
								<g id="c_14_">
									<path id="t_34_" class="st6" d="M464.44-1436.93l-0.1-0.34l-0.17,0.05"/>
									<g transform="rotate(144)">
										<path id="t_33_" class="st6" d="M464.44-1436.93l-0.28-0.22l0.11-0.14"/>
									</g>
								</g>
								<g id="star_4_">
									<g id="c_13_">
										<path id="t_32_" class="st6" d="M464.02-1436.94l0.29-0.2l-0.1-0.15"/>
										<g id="αCMa_4_" transform="scale(31.5)">
											<path id="t_31_" class="st6" d="M464.02-1436.94l0.12-0.34l0.17,0.06"/>
										</g>
									</g>
								</g>
								<g id="c_12_">
									<path id="t_30_" class="st6" d="M457.9-1438.47l-0.07,0.2l0.1,0.04"/>
									<g transform="scale(-1,1)">
										<path id="t_29_" class="st6" d="M457.9-1438.47l0.06,0.21l-0.1,0.03"/>
									</g>
								</g>
								<g id="c_11_">
									<path id="t_28_" class="st6" d="M457.69-1438.33l0.17,0.13l0.07-0.09"/>
									<g transform="rotate(-72)">
										<path id="t_27_" class="st6" d="M457.69-1438.33l0.22,0.01l0,0.11"/>
									</g>
									<path id="t_26_" class="st6" d="M458.1-1438.31l-0.22-0.01l0,0.11"/>
									<path id="t_25_" class="st6" d="M458.1-1438.31l-0.18,0.12l-0.06-0.09"/>
								</g>
								<g id="c_10_">
									<path id="t_24_" class="st6" d="M458.02-1438.07l-0.06-0.21l-0.1,0.03"/>
									<g transform="rotate(144)">
										<path id="t_23_" class="st6" d="M458.02-1438.07l-0.17-0.13l0.07-0.09"/>
									</g>
								</g>
								<g id="star_3_">
									<g id="c_9_">
										<path id="t_22_" class="st6" d="M457.77-1438.08l0.18-0.12l-0.06-0.09"/>
										<g id="αCMa_3_" transform="scale(31.5)">
											<path id="t_21_" class="st6" d="M457.77-1438.08l0.07-0.2l0.1,0.04"/>
										</g>
									</g>
								</g>
								<g id="c_8_">
									<path id="t_20_" class="st6" d="M464.82-1436.64l-0.07,0.2l0.1,0.04"/>
									<g transform="scale(-1,1)">
										<path id="t_19_" class="st6" d="M464.82-1436.64l0.06,0.21l-0.1,0.03"/>
									</g>
								</g>
								<g id="c_7_">
									<path id="t_18_" class="st6" d="M464.61-1436.5l0.17,0.13l0.07-0.09"/>
									<g transform="rotate(-72)">
										<path id="t_17_" class="st6" d="M464.61-1436.5l0.22,0.01l0,0.11"/>
									</g>
									<path id="t_16_" class="st6" d="M465.03-1436.49l-0.22-0.01l0,0.11"/>
									<path id="t_15_" class="st6" d="M465.03-1436.49l-0.18,0.12l-0.06-0.09"/>
								</g>
								<g id="c_6_">
									<path id="t_14_" class="st6" d="M464.94-1436.25l-0.06-0.21l-0.1,0.03"/>
									<g transform="rotate(144)">
										<path id="t_13_" class="st6" d="M464.94-1436.25l-0.17-0.13l0.07-0.09"/>
									</g>
								</g>
								<g id="star_2_">
									<g id="c_5_">
										<path id="t_12_" class="st6" d="M464.69-1436.25l0.18-0.12l-0.06-0.09"/>
										<g id="αCMa_2_" transform="scale(31.5)">
											<path id="t_11_" class="st6" d="M464.69-1436.25l0.07-0.2l0.1,0.04"/>
										</g>
									</g>
								</g>
								<g id="c_4_">
									<path id="t_10_" class="st6" d="M465.28-1430.99l-0.06,0.16l0.08,0.03"/>
									<g transform="scale(-1,1)">
										<path id="t_9_" class="st6" d="M465.28-1430.99l0.05,0.16l-0.08,0.02"/>
									</g>
								</g>
								<g id="c_3_">
									<path id="t_8_" class="st6" d="M465.12-1430.88l0.13,0.1l0.05-0.07"/>
									<g transform="rotate(-72)">
										<path id="t_7_" class="st6" d="M465.12-1430.88l0.17,0l0,0.08"/>
									</g>
									<path id="t_6_" class="st6" d="M465.43-1430.87l-0.17,0l0,0.08"/>
									<path id="t_5_" class="st6" d="M465.43-1430.87l-0.14,0.09l-0.05-0.07"/>
								</g>
								<g id="c_2_">
									<path id="t_4_" class="st6" d="M465.37-1430.69l-0.05-0.16l-0.08,0.02"/>
									<g transform="rotate(144)">
										<path id="t_3_" class="st6" d="M465.37-1430.69l-0.13-0.1l0.05-0.07"/>
									</g>
								</g>
								<g id="star_1_">
									<g id="c_1_">
										<path id="t_2_" class="st6" d="M465.17-1430.7l0.14-0.09l-0.05-0.07"/>
										<g id="αCMa_1_" transform="scale(31.5)">
											<path id="t_1_" class="st6" d="M465.17-1430.7l0.06-0.16l0.08,0.03"/>
										</g>
									</g>
								</g>
							</g>
							<g transform="rotate(-7)">
								<path class="st5" d="M476.75-1437.8c0.15-0.28,0.07-0.61-0.17-0.75c-0.25-0.14-0.57-0.02-0.73,0.25
									c-0.15,0.28-0.07,0.61,0.17,0.75C476.27-1437.41,476.6-1437.52,476.75-1437.8z M476.51-1438.33
									c0.32,0.23-0.09,0.79-0.41,0.56C475.78-1437.99,476.19-1438.55,476.51-1438.33z"/>
							</g>
						</g>
					</g>
					<path class="st5" d="M458.72-1445.06c-0.12-0.21-0.37-0.22-0.37-0.22l-0.57-0.01l-0.01,1.14c0,0,0.45,0.01,0.57,0
						s0.26-0.07,0.36-0.19c0.1-0.12,0.1-0.26,0.1-0.35C458.8-1444.77,458.82-1444.89,458.72-1445.06z M458.24-1444.35
						c-0.09,0-0.26-0.01-0.26-0.01s0.01-0.58,0.01-0.72c0.24,0,0.24,0,0.34,0.01c0.17,0.01,0.24,0.14,0.27,0.22
						c0.01,0.09,0.01,0.13,0.01,0.21c-0.01,0.08-0.04,0.15-0.11,0.22C458.37-1444.34,458.31-1444.34,458.24-1444.35z"/>
					<path class="st5" d="M457.15-1444.6c0,0,0.12-0.1,0.16-0.24c0.03-0.14-0.05-0.26-0.09-0.3c-0.04-0.03-0.11-0.12-0.23-0.12
						c-0.12,0-0.7,0.03-0.7,0.03l0.03,1.14l0.21-0.01l-0.02-0.42l0.37-0.02l0.09,0c0,0,0.11,0.19,0.12,0.3c0.01,0.07,0,0.13,0,0.13
						l0.21,0.01c0,0,0.01-0.2-0.04-0.33C457.19-1444.56,457.15-1444.6,457.15-1444.6z M457.02-1444.78
						c-0.05,0.04-0.17,0.03-0.17,0.03l-0.35,0.01c0,0-0.01-0.2-0.01-0.29c0.05,0,0.34-0.01,0.34-0.01c0.06,0,0.12,0,0.12,0
						s0.05,0,0.09,0.04c0.01,0.01,0.05,0.04,0.04,0.1C457.08-1444.85,457.05-1444.79,457.02-1444.78z"/>
				</g>
				<g transform="rotate(-7)">
					<path class="st5" d="M469.19-1442.54c0.05-0.31-0.13-0.6-0.41-0.65c-0.28-0.05-0.55,0.17-0.6,0.48
						c-0.05,0.31,0.13,0.6,0.41,0.65C468.87-1442.01,469.14-1442.23,469.19-1442.54z M468.78-1442.96c0.37,0.11,0.18,0.78-0.2,0.67
						C468.21-1442.4,468.4-1443.07,468.78-1442.96z"/>
				</g>
				<path class="st5" d="M467.56-1443.03c0,0,0.15-0.05,0.23-0.18c0.08-0.12,0.04-0.27,0.01-0.31c-0.02-0.05-0.07-0.15-0.18-0.19
					c-0.11-0.04-0.67-0.2-0.67-0.2l-0.34,1.09l0.2,0.06l0.12-0.41l0.35,0.11l0.09,0.03c0,0,0.04,0.21,0.01,0.33
					c-0.02,0.07-0.04,0.12-0.04,0.12l0.19,0.07c0,0,0.08-0.19,0.06-0.32C467.58-1442.97,467.56-1443.03,467.56-1443.03z
					 M467.5-1443.24c-0.05,0.02-0.17-0.02-0.17-0.02l-0.34-0.1c0,0,0.06-0.19,0.08-0.28c0.05,0.02,0.32,0.1,0.33,0.1
					c0.05,0.02,0.12,0.04,0.12,0.04s0.04,0.02,0.07,0.07c0.01,0.01,0.03,0.05,0.01,0.11
					C467.57-1443.28,467.52-1443.24,467.5-1443.24z"/>
				<path class="st5" d="M471.67-1441.23c0,0,0.15-0.04,0.24-0.16c0.09-0.12,0.06-0.26,0.04-0.31c-0.02-0.05-0.06-0.15-0.17-0.2
					c-0.11-0.05-0.65-0.26-0.65-0.26l-0.43,1.06l0.2,0.08l0.16-0.4l0.34,0.14l0.08,0.03c0,0,0.02,0.22-0.02,0.33
					c-0.02,0.06-0.05,0.12-0.05,0.12l0.19,0.09c0,0,0.09-0.18,0.09-0.32C471.69-1441.18,471.67-1441.23,471.67-1441.23z
					 M471.63-1441.45c-0.06,0.01-0.17-0.04-0.17-0.04l-0.33-0.13c0,0,0.07-0.19,0.11-0.27c0.05,0.02,0.31,0.12,0.32,0.13
					c0.05,0.02,0.11,0.05,0.11,0.05s0.04,0.02,0.07,0.08c0.01,0.01,0.03,0.06,0,0.11C471.7-1441.48,471.65-1441.45,471.63-1441.45z"
					/>
				<path class="st5" d="M466.16-1443.45c0,0,0.15-0.06,0.22-0.18s0.03-0.27,0.01-0.31c-0.02-0.04-0.07-0.15-0.19-0.18
					c-0.11-0.03-0.68-0.19-0.68-0.19l-0.32,1.1l0.21,0.06l0.11-0.41l0.36,0.1l0.09,0.02 M466.09-1443.66
					c-0.05,0.02-0.17-0.02-0.17-0.02l-0.34-0.09c0,0,0.05-0.19,0.08-0.28c0.05,0.02,0.32,0.09,0.33,0.09
					c0.05,0.02,0.12,0.03,0.12,0.03s0.04,0.02,0.07,0.07c0.01,0.01,0.03,0.05,0.01,0.11
					C466.17-1443.7,466.12-1443.66,466.09-1443.66z"/>
				<g transform="rotate(-7)">
					<path class="st5" d="M470.38-1441.89c-0.03-0.01-0.06-0.02-0.09-0.03c-0.09,0.17-0.3,0.28-0.47,0.16
						c-0.32-0.23,0.09-0.79,0.41-0.56c0.08,0.06,0.11,0.13,0.11,0.21c0.05,0.02,0.1,0.03,0.15,0.06c0.02,0.01,0.04,0.02,0.06,0.03
						c0.02-0.21-0.07-0.41-0.25-0.51c-0.25-0.14-0.57-0.02-0.73,0.25c-0.15,0.28-0.07,0.61,0.17,0.75c0.25,0.14,0.57,0.02,0.73-0.25
						c0.01-0.01,0.01-0.02,0.02-0.03C470.45-1441.85,470.41-1441.87,470.38-1441.89z"/>
				</g>
			</g>
		</g>
	</g>
	<g>
		<path class="st7" d="M46.8,11.62c-0.06,0.02-0.13,0.04-0.2,0.06c1.76,1.71,3.32,3.43,4.55,5.06c1.53,2.03,4.1,4.55,7.22,6.63
			c0,0.02,0,0.03,0,0.05c0-0.02,0-0.03,0-0.05c2.46,1.64,5.26,2.99,8.19,3.62C58.35,20.1,49.83,13.87,46.8,11.62z"/>
		<path class="st7" d="M45.34,49.38c0.89-0.42,2.42-1.2,4.33-2.22c-5.32-4.3-10.93-7.15-16.39-9.37c-1.24-0.51-2.47-0.97-3.69-1.42
			C34.55,41.33,40.06,46.53,45.34,49.38z"/>
	</g>
</g>
</svg>
