<?xml version="1.0" encoding="iso-8859-1"?>
<!-- Generator: Adobe Illustrator 24.0.1, SVG Export Plug-In . SVG Version: 6.00 Build 0)  -->
<svg version="1.1" id="Layer_1" xmlns="http://www.w3.org/2000/svg" xmlns:xlink="http://www.w3.org/1999/xlink" x="0px" y="0px"
	 viewBox="0 0 98.625 62.516" style="enable-background:new 0 0 98.625 62.516;" xml:space="preserve">
<g>
	<path style="fill:#FFFFFF;" d="M85.89,30.535c-1.237-6.706-9.847-22.123-17.595-22.063c-2.057,0.016-4.213-0.155-6.5-0.523
		c-4.717-0.759-9.982-2.345-16.094-4.88c-4.854-2.013-9.606-2.916-14.12-3.066c-0.267-0.009-0.526,0.004-0.791,0l-0.002,0
		c-3.321-0.044-6.505,0.317-9.495,0.949C12.842,2.74,9.727,24.517,9.727,24.517c3.216,11.354,15.469,30.401,25.381,30.894
		c2.273,0.113,4.725,0.374,7.375,0.814c3.707,0.616,7.779,1.563,12.31,2.967c6.083,1.886,11.496,2.855,16.365,3.19
		c1.956,0.135,3.821,0.164,5.601,0.102C86.228,62.157,86.581,34.282,85.89,30.535z"/>
	<path style="fill:#EF4130;" d="M60.245,37.523l-7.654-0.017l1.273,8.303l-1.473,0.185l-0.822-8.359l-7.412,1.912l0.474-3.013
		l-8.363-5.445l1.768-1.076l-1.943-5.531l4.652,0.465l0.483-2.423l5.52,4.753L43.649,17.23l3.248,1.298l2.028-6.03l3.463,5.34
		l2.825-2.062l-0.517,10.5l4.171-5.972l1.068,2.228l4.392-1.602l-0.513,5.84l1.979,0.604l-6.755,7.347L60.245,37.523z
		 M34.823,55.403C30.331,37.517,23.937,11.146,21.296,0.96c-6.94,1.468-12.899,4.33-17.027,7.019
		c-0.779,0.507-2.923,2.066-3.99,3.022c-0.249,0.223-0.342,0.569-0.233,0.885c0.357,1.033,0.908,2.684,0.97,2.873
		c0.238,0.731,0.476,1.469,0.712,2.228c0.06,0.193,0.12,0.393,0.18,0.588c0.255,0.83,0.509,1.668,0.762,2.526
		c0.033,0.111,0.065,0.223,0.098,0.334c0.286,0.976,0.572,1.965,0.857,2.972l0,0c3.133,11.06,6.244,23.9,10.238,35.483
		c0.164,0.475,0.715,0.695,1.158,0.459C19.449,56.996,25.667,54.995,34.823,55.403z M68.152,8.463
		c2.117,13.809,6.416,39.141,8.606,54.011c9.181-0.319,16.098-3.038,21.456-6.109c0.298-0.171,0.455-0.508,0.4-0.847
		c-0.349-2.129-0.718-4.293-1.099-6.477c-0.34-1.949-0.692-3.92-1.048-5.901c-0.111-0.616-0.223-1.234-0.336-1.853
		c-1.876-10.335-3.908-20.971-5.627-31.146c-0.001-0.009-0.003-0.017-0.004-0.026c-0.22-1.305-0.434-2.599-0.645-3.89
		c-0.218-1.347-0.435-2.691-0.641-4.019c-0.094-0.604-0.785-0.891-1.288-0.542C81.646,6.017,75.538,8.436,68.152,8.463z"/>
	<path style="fill:#F1F2F2;" d="M98.614,55.518c0.056,0.339-0.102,0.676-0.4,0.847c-6.398,3.668-15.006,6.847-27.057,6.018
		c-4.869-0.335-10.282-1.304-16.365-3.19c-4.53-1.405-8.602-2.352-12.31-2.967c-13.494-2.241-21.878,0.16-27.445,3.116
		c-0.45,0.239-1.01,0.033-1.176-0.449C9.868,47.309,6.756,34.469,3.623,23.409c6.609,11.484,20.341,11.571,35.635,15.612
		c6.552,1.731,13.386,4.186,20.068,8.591c3.221,2.123,6.633,3.917,10.079,5.267c10.539,4.13,21.397,4.058,28.118-3.794
		C97.901,51.254,98.267,53.403,98.614,55.518z M89.212,2.204c-0.093-0.604-0.784-0.889-1.287-0.54
		c-7.992,5.544-15.701,7.965-26.131,6.286c-4.717-0.759-9.982-2.345-16.094-4.88c-4.854-2.013-9.606-2.916-14.12-3.066
		c-0.267-0.009-0.526,0.004-0.791,0c0.278,0.07,0.556,0.142,0.839,0.223c8.134,2.307,18.173,8.589,23.619,14.159
		c1.892,1.935,4.941,4.246,8.522,6.014c0.003,0.016,0.006,0.034,0.008,0.05c-0.003-0.017-0.006-0.033-0.008-0.05
		c8.757,4.325,20.693,5.376,26.731-10.277C90.05,7.45,89.613,4.799,89.212,2.204z"/>
	<g>
		<path style="fill:#DA2128;" d="M97.523,49.085c-5.407,6.317-13.493,7.592-21.935,5.701c0.431,2.764,0.827,5.355,1.17,7.689
			c3.546-0.123,6.755-0.605,9.666-1.326c0.004-0.001,0.008-0.002,0.012-0.003c0.472-0.117,0.936-0.241,1.393-0.37
			c0.029-0.008,0.058-0.017,0.088-0.025c1.764-0.503,3.411-1.094,4.956-1.741c0.099-0.042,0.2-0.082,0.299-0.124
			c0.276-0.118,0.544-0.239,0.813-0.36c0.177-0.08,0.355-0.16,0.529-0.241c0.187-0.087,2.578-1.336,3.677-1.923
			c0.311-0.166,0.479-0.506,0.421-0.854C98.33,53.817,97.691,50.048,97.523,49.085z"/>
		<path style="fill:#DA2128;" d="M52.392,45.994l1.473-0.185l-0.226-1.476c-0.494-0.249-0.987-0.495-1.481-0.727L52.392,45.994z"/>
		<path style="fill:#DA2128;" d="M18.595,57.727c0.203-0.078,0.408-0.155,0.617-0.231c0.318-0.115,0.639-0.227,0.971-0.335
			c0.208-0.068,0.425-0.132,0.639-0.197c0.225-0.068,0.45-0.136,0.682-0.201c0.24-0.067,0.484-0.132,0.731-0.196
			c0.217-0.056,0.438-0.109,0.66-0.162c0.265-0.063,0.53-0.125,0.803-0.183c0.21-0.045,0.428-0.085,0.643-0.126
			c0.603-0.117,1.226-0.222,1.868-0.314c0.144-0.021,0.282-0.045,0.428-0.064c0.327-0.043,0.666-0.078,1.003-0.114
			c0.222-0.024,0.443-0.048,0.67-0.069c0.341-0.031,0.689-0.056,1.04-0.08c0.236-0.016,0.474-0.029,0.715-0.041
			c0.361-0.018,0.724-0.035,1.095-0.045c0.237-0.006,0.482-0.007,0.723-0.01c0.947-0.012,1.922-0.002,2.94,0.044l0-0.001
			c-1.402-5.581-2.989-11.988-4.589-18.472C18.712,34.48,8.898,32.574,3.623,23.409c0.804,2.838,1.607,5.794,2.423,8.816
			c1.633,6.043,3.322,12.35,5.187,18.51c0.841,2.775,1.717,5.52,2.641,8.198c0.161,0.465,0.691,0.685,1.135,0.472
			C16.24,58.814,18.393,57.804,18.595,57.727z"/>
		<path style="fill:#DA2128;" d="M84.736,3.704c-0.195,0.115-0.39,0.231-0.584,0.342c-0.327,0.186-0.655,0.362-0.983,0.537
			c-0.331,0.177-0.664,0.346-0.997,0.511c-0.245,0.121-0.489,0.244-0.735,0.359c-0.267,0.125-0.536,0.243-0.805,0.361
			c-0.194,0.085-0.389,0.17-0.583,0.251c-0.29,0.121-0.582,0.238-0.874,0.351c-0.646,0.248-2.764,1.036-5.25,1.5
			c-0.093,0.017-0.185,0.036-0.279,0.052c-0.395,0.072-0.793,0.137-1.194,0.193c-0.051,0.007-0.102,0.013-0.153,0.02
			c-1.342,0.181-2.72,0.277-4.147,0.282c0.61,3.978,1.401,8.914,2.271,14.279c7.439,1.536,15.473-0.682,20.079-12.619
			c-0.124-0.734-0.241-1.458-0.363-2.187c-0.094-0.57-0.191-1.143-0.284-1.711c0-0.003-0.001-0.006-0.001-0.01
			c-0.067-0.412-0.402-2.506-0.643-4.044c-0.093-0.592-0.765-0.891-1.265-0.56C86.731,2.416,84.94,3.584,84.736,3.704z"/>
	</g>
</g>
</svg>
