<svg id="Layer_9" data-name="Layer 9" xmlns="http://www.w3.org/2000/svg" viewBox="0 0 144.01 95.63"><defs><style>.cls-1{fill:#ef4130;}.cls-2{fill:#da2128;}.cls-3{fill:#ffe300;}</style></defs><path class="cls-1" d="M421,317.85a1.1,1.1,0,0,0-1.71-.8C407.05,324.89,395.48,327.8,380,325c-20.25-3.69-26.3-12.8-45.61-13.6-19.92-.83-35.4,6.75-46,14.66a1.05,1.05,0,0,0-.37,1.18c3.75,11.14,11.49,49.55,17.85,70.8a1.13,1.13,0,0,0,1.57.67c15.57-7.06,33.73-7,59.19,2,23.46,8.31,44.29,8.89,64.75-1.72a1.12,1.12,0,0,0,.59-1.13C429.44,379,423.7,340.06,421,317.85Z" transform="translate(-287.93 -311.31)"/><path class="cls-2" d="M381.91,388c-17.4-11.37-27.81-16.06-47.39-20.84-17.12-4.17-33.08-7.21-41.7-21.59,3.88,16.27,8.75,38.17,13,52.4a1.13,1.13,0,0,0,1.57.67c15.57-7.06,33.73-7,59.19,2,23.46,8.31,44.29,8.89,64.75-1.72a1.12,1.12,0,0,0,.59-1.13c-.37-2.81-.82-6.09-1.31-9.67C418.94,401.92,397.28,398.09,381.91,388Z" transform="translate(-287.93 -311.31)"/><path class="cls-2" d="M380,325c-20-3.65-26.15-12.58-44.93-13.56,30.49,9.81,31.78,28.1,52,34.62,12.69,4.09,26.45,3.35,35.52-15.83-.59-4.46-1.13-8.65-1.58-12.35a1.1,1.1,0,0,0-1.71-.8C407.05,324.89,395.48,327.8,380,325Z" transform="translate(-287.93 -311.31)"/><polygon class="cls-3" points="24.69 20.46 21.32 12.77 19.52 20.97 11.17 21.79 18.41 26.04 16.61 34.24 22.89 28.66 30.13 32.91 26.77 25.21 33.05 19.64 24.69 20.46"/><polygon class="cls-3" points="40.05 12.28 41.72 14.53 41.69 11.73 44.35 10.84 41.67 10 41.65 7.2 40.02 9.48 37.35 8.65 39.02 10.89 37.4 13.18 40.05 12.28"/><polygon class="cls-3" points="47.97 18.91 48.63 21.63 49.69 19.04 52.48 19.25 50.35 17.44 51.41 14.85 49.03 16.32 46.89 14.52 47.55 17.23 45.17 18.71 47.97 18.91"/><polygon class="cls-3" points="51.5 29.56 53.52 27.62 50.75 28 49.53 25.48 49.03 28.23 46.26 28.6 48.72 29.93 48.22 32.69 50.25 30.75 52.71 32.08 51.5 29.56"/><polygon class="cls-3" points="44.28 36.79 44.14 34 42.61 36.34 39.91 35.62 41.67 37.79 40.14 40.14 42.76 39.14 44.52 41.31 44.37 38.52 46.98 37.52 44.28 36.79"/></svg>