<?xml version="1.0" encoding="iso-8859-1"?>
<!-- Generator: Adobe Illustrator 24.0.1, SVG Export Plug-In . SVG Version: 6.00 Build 0)  -->
<svg version="1.1" id="Layer_1" xmlns="http://www.w3.org/2000/svg" xmlns:xlink="http://www.w3.org/1999/xlink" x="0px" y="0px"
	 viewBox="0 0 108.182 70.798" style="enable-background:new 0 0 108.182 70.798;" xml:space="preserve">
<g>
	<path style="fill:#FFE300;" d="M12.195,34.062c11.518-4.942,27.938-9.166,42.764-2.152c15.333,7.254,31.417,10.531,48.885,3.118
		c-1.153-7.374-2.299-14.758-3.312-21.933c-0.001-0.01-0.003-0.019-0.004-0.029c-0.205-1.455-0.404-2.899-0.599-4.338
		c-0.208-1.546-0.414-3.091-0.608-4.614c-0.078-0.613-0.769-0.92-1.286-0.581c-9.081,5.966-17.737,8.45-29.312,6.262
		C63.509,8.81,57.712,6.89,51.002,3.891c-5.329-2.382-10.577-3.528-15.584-3.83c-0.296-0.018-0.584-0.011-0.878-0.023h-0.002
		C20.435-0.535,8.37,5.555,2.163,9.978c-0.087,0.062-0.159,0.119-0.243,0.18c-0.345,0.25-0.687,0.499-0.993,0.736
		c-0.219,0.17-0.428,0.335-0.627,0.496c-0.264,0.215-0.363,0.564-0.259,0.888c0.26,0.809,0.518,1.639,0.773,2.485
		c0.075,0.248,0.148,0.507,0.222,0.757c0.243,0.819,0.484,1.646,0.723,2.496c0.061,0.216,0.121,0.44,0.182,0.658
		c0.258,0.929,0.515,1.868,0.77,2.828c0.033,0.124,0.065,0.25,0.098,0.374c0.288,1.092,0.575,2.199,0.862,3.326v0
		C5.805,29.156,8.711,31.947,12.195,34.062z"/>
	<path style="fill:#F5D012;" d="M99.321,4.112c-0.077-0.613-0.768-0.919-1.285-0.579c-9.081,5.966-17.737,8.451-29.312,6.262
		C63.509,8.81,57.712,6.89,51.002,3.891c-5.329-2.382-10.577-3.528-15.584-3.83c-0.296-0.018-0.584-0.011-0.878-0.023
		c0.306,0.087,0.613,0.175,0.924,0.272c8.961,2.807,19.917,10.084,25.796,16.434c2.042,2.205,5.358,4.863,9.28,6.935
		c0.002,0.018,0.005,0.037,0.008,0.056c-0.003-0.019-0.005-0.037-0.008-0.056c9.592,5.066,22.812,6.593,29.989-10.603
		C100.103,10.049,99.691,7.048,99.321,4.112z"/>
	<path style="fill:#F5D012;" d="M3.671,25.203c0.939,3.696,1.872,7.57,2.826,11.529c1.715-0.873,3.629-1.783,5.698-2.671
		C8.711,31.947,5.805,29.156,3.671,25.203z"/>
	<path style="fill:#225AA9;" d="M54.959,31.91c-14.826-7.015-31.247-2.79-42.764,2.152c7.928,4.813,18.857,6.113,30.569,9.551
		c0.612,0.18,1.227,0.368,1.843,0.56c3.769,0.581,7.621,1.657,11.496,3.389c14.884,6.65,31.719,10.581,50.045,2.298
		c-0.102-0.67-0.205-1.341-0.308-2.014c-0.651-4.241-1.324-8.528-1.995-12.818C86.376,42.44,70.292,39.164,54.959,31.91z"/>
	<path style="fill:#004C9C;" d="M44.606,44.172c-0.616-0.192-1.231-0.38-1.843-0.56c-11.712-3.438-22.641-4.738-30.569-9.551
		c-2.069,0.888-3.983,1.798-5.698,2.671c1.129,4.685,2.292,9.49,3.532,14.271C18.482,46.563,30.989,42.075,44.606,44.172z"/>
	<path style="fill:#EF4130;" d="M56.103,47.561c-3.876-1.732-7.728-2.809-11.496-3.389c6.652,2.075,13.51,4.924,20.179,9.584
		c3.512,2.455,7.246,4.549,11.031,6.152c11.576,4.903,23.634,5.152,31.333-3.363c-0.003-0.017-0.005-0.033-0.007-0.049
		c-0.318-2.174-0.65-4.374-0.986-6.584c-0.003-0.018-0.006-0.036-0.008-0.054C87.822,58.142,70.986,54.211,56.103,47.561z"/>
	<path style="fill:#DA2128;" d="M75.816,59.909c-3.785-1.603-7.519-3.698-11.031-6.152c-6.669-4.661-13.527-7.509-20.179-9.584
		c-13.617-2.097-26.125,2.39-34.578,6.832c1.229,4.738,2.534,9.452,3.966,13.996c0.155,0.493,0.714,0.717,1.176,0.486
		c6.27-3.135,15.669-5.584,30.653-2.674c4.098,0.796,8.59,1.97,13.578,3.666c6.697,2.278,12.678,3.517,18.073,4.036
		c2.51,0.241,4.889,0.322,7.146,0.268c9.779-0.235,17.261-2.998,23.127-6.16c0.306-0.165,0.474-0.5,0.427-0.844
		c-0.324-2.377-0.668-4.793-1.025-7.232C99.45,65.061,87.392,64.812,75.816,59.909z"/>
</g>
</svg>
