<?xml version="1.0" encoding="iso-8859-1"?>
<!-- Generator: Adobe Illustrator 24.0.1, SVG Export Plug-In . SVG Version: 6.00 Build 0)  -->
<svg version="1.1" id="Warstwa_2" xmlns="http://www.w3.org/2000/svg" xmlns:xlink="http://www.w3.org/1999/xlink" x="0px" y="0px"
	 viewBox="0 0 97.57 63.651" style="enable-background:new 0 0 97.57 63.651;" xml:space="preserve">
<g>
	<g>
		<path style="fill:#EF4130;" d="M96.217,50.688c-0.284-1.944-0.581-3.91-0.881-5.886c-0.094-0.615-0.188-1.231-0.283-1.849
			c-1.583-10.31-3.313-20.923-4.745-31.07c-0.001-0.009-0.002-0.017-0.004-0.026c-0.184-1.301-0.361-2.592-0.536-3.879
			c-0.186-1.383-0.37-2.763-0.543-4.126c-0.07-0.548-0.688-0.823-1.15-0.519c-8.119,5.334-15.858,7.555-26.208,5.599
			c-4.662-0.881-9.845-2.597-15.844-5.279C41.259,1.524,36.566,0.5,32.089,0.23c-0.264-0.016-0.522-0.01-0.785-0.021h-0.002
			C18.694-0.303,7.906,5.142,2.357,9.097C2.279,9.152,2.215,9.203,2.139,9.258C1.83,9.482,1.525,9.704,1.251,9.916
			c-0.196,0.151-0.383,0.3-0.56,0.444c-0.236,0.192-0.325,0.505-0.231,0.794c0.233,0.723,0.463,1.465,0.691,2.222
			c0.067,0.221,0.132,0.453,0.198,0.677c0.217,0.733,0.433,1.471,0.647,2.231c0.054,0.193,0.108,0.393,0.162,0.588
			c0.231,0.83,0.46,1.67,0.688,2.529c0.029,0.111,0.059,0.223,0.088,0.334c0.258,0.977,0.515,1.966,0.771,2.974v0
			c2.818,11.09,5.566,23.954,9.231,35.582c0.139,0.441,0.639,0.641,1.052,0.435c5.606-2.803,14.009-4.992,27.406-2.391
			c3.664,0.711,7.68,1.761,12.14,3.278c5.988,2.037,11.335,3.144,16.159,3.608c11.968,1.151,20.611-1.789,27.066-5.268
			c0.273-0.147,0.424-0.447,0.382-0.755C96.849,55.059,96.539,52.884,96.217,50.688z"/>
	</g>
	<g>
		<path style="fill:#DA2128;" d="M97.14,57.198c0.042,0.308-0.108,0.608-0.382,0.755c-6.455,3.479-15.098,6.419-27.066,5.268
			c-4.824-0.464-10.171-1.572-16.159-3.608c-4.459-1.517-8.476-2.567-12.14-3.278c-13.397-2.601-21.8-0.412-27.406,2.391
			c-0.413,0.207-0.913,0.006-1.052-0.435C9.271,46.663,6.522,33.799,3.705,22.709c6.251,11.578,19.88,12.035,34.953,16.46
			c6.457,1.895,13.174,4.517,19.689,9.07c3.14,2.195,6.478,4.067,9.863,5.501c10.35,4.384,21.131,4.606,28.015-3.007
			C96.543,52.914,96.85,55.073,97.14,57.198z M89.224,3.852c-0.069-0.548-0.687-0.821-1.149-0.518
			c-8.119,5.334-15.858,7.556-26.208,5.599c-4.662-0.881-9.845-2.597-15.844-5.279C41.259,1.524,36.566,0.5,32.089,0.23
			c-0.264-0.016-0.522-0.01-0.785-0.021c0.274,0.077,0.548,0.156,0.827,0.244c8.012,2.51,17.808,9.016,23.064,14.693
			c1.826,1.972,4.79,4.348,8.297,6.2c0.002,0.016,0.005,0.033,0.007,0.05c-0.002-0.017-0.004-0.033-0.007-0.05
			c8.576,4.53,20.396,5.895,26.813-9.48C89.923,9.16,89.556,6.477,89.224,3.852z"/>
	</g>
	<g>
		<path style="fill:#FFFFFF;" d="M55.779,26.168c-3.894-1.188-7.802-2.51-11.93-3.618c-0.762-0.199-1.545-0.389-2.335-0.571
			L38.712,8.074l-1.471-7.197c-1.743-0.336-3.463-0.546-5.152-0.648c-0.264-0.016-0.522-0.01-0.785-0.021h-0.002
			c-0.765-0.031-1.523-0.038-2.274-0.027l1.709,9.424l2.039,11.072c-0.687-0.046-1.374-0.084-2.063-0.106
			c-8.975-0.209-17.993,2.04-25.713,6.295l-0.229,0.126c0.677,2.762,1.357,5.605,2.054,8.486l2.031-0.9
			c3.452-1.53,6.994-2.752,10.624-3.517c3.625-0.782,7.319-1.114,11.009-1.045c0.922,0.05,1.846,0.069,2.767,0.147
			c0.43,0.049,0.861,0.085,1.292,0.126c1.084,5.922,2.206,11.837,3.336,17.75c0.503,2.649,1.007,5.297,1.514,7.944
			c0.655,0.108,1.314,0.219,1.994,0.352c2.27,0.441,4.677,1.012,7.239,1.744c-0.744-3.874-1.497-7.747-2.255-11.618
			c-0.934-4.802-1.878-9.602-2.838-14.399c3.176,0.806,6.406,1.745,9.684,2.659c1.978,0.556,3.976,1.113,6.023,1.635
			c2.049,0.531,4.117,1.046,6.383,1.424c2.328,0.383,4.54,0.471,6.788,0.535c2.225-0.015,4.441-0.094,6.614-0.355
			c4.36-0.472,8.603-1.368,12.753-2.567c0.67-0.193,1.332-0.41,1.997-0.622c-0.441-2.822-0.884-5.649-1.321-8.47
			C80.672,30.041,72.626,31.307,55.779,26.168z"/>
	</g>
	<g>
		<g>
			<path style="fill:#EAE4EA;" d="M36.065,38.441c0.602,3.2,1.209,6.4,1.82,9.598c0.503,2.649,1.007,5.297,1.514,7.944
				c0.655,0.108,1.314,0.219,1.994,0.352c2.27,0.441,4.677,1.012,7.239,1.744c-0.744-3.874-1.497-7.747-2.255-11.618
				c-0.326-1.677-0.662-3.352-0.991-5.029c-2.261-0.871-4.51-1.612-6.729-2.263C37.788,38.913,36.923,38.673,36.065,38.441z"/>
		</g>
		<g>
			<path style="fill:#FCF0D7;" d="M37.241,0.877c-1.743-0.336-3.463-0.546-5.152-0.648c-0.264-0.016-0.522-0.01-0.785-0.021
				c0.274,0.077,0.548,0.156,0.827,0.244c1.76,0.551,3.606,1.304,5.471,2.189L37.241,0.877z"/>
		</g>
		<g>
			<path style="fill:#EAE4EA;" d="M6.137,26.265c-0.381,0.197-0.761,0.395-1.136,0.601l-0.229,0.126
				c0.677,2.762,1.357,5.605,2.054,8.486l2.031-0.9c1.904-0.844,3.836-1.59,5.795-2.221C11.334,30.884,8.448,28.977,6.137,26.265z"
				/>
		</g>
	</g>
</g>
</svg>
