<svg id="Layer_11" data-name="Layer 11" xmlns="http://www.w3.org/2000/svg" viewBox="0 0 144.01 95.63"><defs><style>.cls-1{fill:#ef4130;}.cls-2{fill:#352825;}.cls-3{fill:#fff;}.cls-4{fill:#231f20;}.cls-5{fill:#eceff3;}.cls-6{fill:#da2128;}.cls-7{fill:#806112;}</style></defs><path class="cls-1" d="M338.9,337.2c19.32.8,26.33,10.65,46.57,14.34,14.17,2.59,26.38-.48,38.82-8.72-1.26-9.22-2.42-17.94-3.28-25a1.1,1.1,0,0,0-1.71-.8C407.05,324.89,395.48,327.8,380,325c-20.25-3.69-26.3-12.8-45.61-13.6-19.92-.83-35.4,6.75-46,14.66a1.05,1.05,0,0,0-.37,1.18c1.44,4.29,3.48,12.62,5.8,22.45C305.26,341.75,321.78,336.49,338.9,337.2Z" transform="translate(-287.93 -311.31)"/><path class="cls-2" d="M428.05,369.79c-21.39,12.64-45.35,9.79-67.27.35-22.4-9.65-43.63-7-61.14,4.33,2.09,8.62,4.21,16.91,6.19,23.54a1.13,1.13,0,0,0,1.57.67c15.57-7.06,33.73-7,59.19,2,23.46,8.31,44.29,8.89,64.75-1.72a1.12,1.12,0,0,0,.59-1.13C431,390.7,429.58,380.68,428.05,369.79Z" transform="translate(-287.93 -311.31)"/><path class="cls-3" d="M360.78,370.14c21.92,9.44,45.88,12.29,67.27-.35-1.23-8.77-2.54-18.1-3.76-27-12.44,8.24-24.65,11.31-38.82,8.72-20.24-3.69-27.25-13.54-46.57-14.34-17.12-.71-33.64,4.55-45.12,12.46,1.82,7.75,3.83,16.43,5.86,24.81C317.15,363.11,338.38,360.49,360.78,370.14Z" transform="translate(-287.93 -311.31)"/><path class="cls-4" d="M431.93,397.85h0c-.08-.63-.17-1.29-.26-2l-.05-.41c-.3-2.23-.63-4.68-1-7.29-11.68,13.74-33.34,9.91-48.71-.14-17.4-11.37-27.81-16.06-47.39-20.84-3.29-.8-6.53-1.56-9.69-2.37a62.83,62.83,0,0,0-25.19,9.64l.15.6c.15.63.3,1.25.46,1.87s.24,1,.37,1.51.28,1.16.43,1.73.26,1.07.4,1.6.27,1.08.4,1.61l.42,1.64c.13.5.26,1,.39,1.5s.29,1.12.44,1.67.24.93.37,1.39.3,1.14.46,1.7.22.84.34,1.24c.17.63.34,1.24.51,1.85.09.32.18.65.27,1l.78,2.67a1.08,1.08,0,0,0,.63.69,1.18,1.18,0,0,0,.94,0,55.35,55.35,0,0,1,6-2.31,53.84,53.84,0,0,1,6.27-1.62,61.39,61.39,0,0,1,13.65-1.09c1.21,0,2.43.1,3.68.19a91.36,91.36,0,0,1,11.17,1.61c2,.4,4,.88,6.05,1.42,3.94,1,8.06,2.28,12.4,3.82a116.68,116.68,0,0,0,16.61,4.62l.9.18q2.81.51,5.57.86c.83.1,1.66.18,2.48.26a70.18,70.18,0,0,0,23.74-1.73,68.88,68.88,0,0,0,7.76-2.45c1.28-.49,2.57-1,3.85-1.6s2.56-1.2,3.84-1.86a1.11,1.11,0,0,0,.5-.55,1.22,1.22,0,0,0,.09-.57Z" transform="translate(-287.93 -311.31)"/><path class="cls-5" d="M324.83,364.83c-12-3.05-22.7-6.78-29.8-16-.42.27-.85.54-1.25.82.17.74.35,1.49.52,2.24l0,.07c1.16,4.92,2.38,10.15,3.62,15.41l.24,1c.16.7.33,1.39.49,2.08.11.44.21.87.31,1.3.16.64.31,1.27.46,1.91.07.27.14.55.2.82A62.83,62.83,0,0,1,324.83,364.83Z" transform="translate(-287.93 -311.31)"/><path class="cls-6" d="M295,348.84a33.32,33.32,0,0,1-2.21-3.23v0c.24,1,.49,2,.73,3.07v0c.07.3.14.61.22.92C294.18,349.38,294.61,349.11,295,348.84Z" transform="translate(-287.93 -311.31)"/><path class="cls-6" d="M380,325c-20-3.65-26.16-12.58-44.94-13.56,30.49,9.81,31.78,28.1,52,34.62,12.69,4.09,26.45,3.35,35.52-15.83-.59-4.46-1.13-8.65-1.58-12.35a1.1,1.1,0,0,0-1.71-.8C407.05,324.89,395.48,327.8,380,325Z" transform="translate(-287.93 -311.31)"/><path class="cls-7" d="M372,351.77a1.92,1.92,0,0,0-.76-1.57c-.89-.58-2.25-.05-2.8.2a4.07,4.07,0,0,1-2.44.42,6.43,6.43,0,0,1-.68-2.87,5,5,0,0,0-.22-1.7h0a1.92,1.92,0,0,0-.15-.29h0a1.11,1.11,0,0,0-.12-.16,3.67,3.67,0,0,0-1.67-.71.29.29,0,0,0-.27.06.16.16,0,0,0-.05.1l-.51-.14a1.23,1.23,0,0,0-.83,0h0a.35.35,0,0,0-.11.13v0l0,.05a.14.14,0,0,1,0,.06h0v0h0a1.14,1.14,0,0,0,0,.44.28.28,0,0,0,.08.18l0,.15.2-.14a.46.46,0,0,1,.37-.08.93.93,0,0,1,.42.31,1.33,1.33,0,0,1,.14.19.67.67,0,0,1,.09.21,3.92,3.92,0,0,1-.14,2,5.38,5.38,0,0,1-.86,1.66,5,5,0,0,1-2.46-1c-.57-.38-2-1.22-2.83-.84q-.66.28-.66,1.41l-.14,14.46a.1.1,0,0,0,.05.08.09.09,0,0,0,.09,0l4.41-3.6-.83,3.22-.54-.22a.48.48,0,0,0-.42.05.6.6,0,0,0-.55.22.77.77,0,0,0-.09.75.48.48,0,0,0,0,.18.67.67,0,0,0-.53.32c-.1.13-.17.2-.24.2s-.22,0-.23.1a.16.16,0,0,0,.11.17l.09,0s.05.07.09.22a1,1,0,0,0,.45.68.86.86,0,0,0,.75.93,27.41,27.41,0,0,0,6.38,1.31,25.49,25.49,0,0,0,6.34.12c.66-.05.71-.41.7-.78a.68.68,0,0,0,.4-.58c0-.14.05-.19.08-.2H372a.13.13,0,0,0,.11-.15.22.22,0,0,0-.24-.15c-.08,0-.14-.1-.26-.25a1,1,0,0,0-.55-.45.78.78,0,0,0,0-.18.9.9,0,0,0-.15-.79.79.79,0,0,0-.56-.33.58.58,0,0,0-.44-.15l-.52.09-1.08-3.5.37.33,4.34,4.37.06,0h0a.08.08,0,0,0,.05-.07Zm-1.27,13.89a.8.8,0,0,1,.14.57,1.94,1.94,0,0,0-.24-.15.61.61,0,0,1-.26-.17.4.4,0,0,1,0-.25.36.36,0,0,0,0-.26A.66.66,0,0,1,370.71,365.66Zm.88,1.77a.63.63,0,0,0-.07.22c0,.2-.08.37-.32.43a.12.12,0,0,0-.1.13c0,.39,0,.58-.46.61a26.43,26.43,0,0,1-6.28-.11,28.2,28.2,0,0,1-6.31-1.3c-.5-.14-.5-.32-.52-.72a.16.16,0,0,0-.1-.15.6.6,0,0,1-.35-.5,1.52,1.52,0,0,0-.09-.25.77.77,0,0,0,.22-.22c.14-.17.24-.27.4-.22a.14.14,0,0,0,.13,0,.16.16,0,0,0,.05-.11.42.42,0,0,1,.17-.41.63.63,0,0,1,.4-.06l0,0c.58.22,1.42.48,2,.64a.72.72,0,0,0,.16.3.63.63,0,0,1,.16.38.09.09,0,0,0,.09.08.06.06,0,0,0,.07-.07.31.31,0,0,1,.17-.29.73.73,0,0,0,.16-.18,11.66,11.66,0,0,0,1.3.23,5.92,5.92,0,0,0,.7,0h.12a.58.58,0,0,0,.25.27c.12.1.26.21.26.32a.1.1,0,0,0,.06.09h0a.06.06,0,0,0,.07,0,1.18,1.18,0,0,0,.2-.58h.22a1.46,1.46,0,0,0,.24.63.1.1,0,0,0,.07,0h0a.07.07,0,0,0,.06-.07c0-.12.12-.19.24-.26s.21-.13.23-.23l.13,0a6.15,6.15,0,0,0,.69.12,10,10,0,0,0,1.3.06,1,1,0,0,0,.18.22.46.46,0,0,1,.18.33.09.09,0,0,0,.08.09.07.07,0,0,0,.08-.07.46.46,0,0,1,.14-.34.7.7,0,0,0,.15-.27c.54,0,1.37-.11,1.94-.2l0,0a1,1,0,0,1,.41.16.6.6,0,0,1,.2.45.16.16,0,0,0,.06.12.14.14,0,0,0,.12,0c.16,0,.25.09.42.31A1.61,1.61,0,0,0,371.59,367.43Zm-13.83-3.21a.46.46,0,0,1,.41-.18.4.4,0,0,0,0,.26.37.37,0,0,1,0,.23c0,.07-.14.1-.25.13a.79.79,0,0,0-.23.09A.62.62,0,0,1,357.76,364.22Zm-1.46-15.57a1.24,1.24,0,0,1,.64-.08,5.53,5.53,0,0,1,2,.89,5.22,5.22,0,0,0,2.44,1l-.2.25-.11.12.17,0a2.32,2.32,0,0,0,1.07-.24l-.14.66.15-.06a3.4,3.4,0,0,0,.89-.5l.53.6.06-.07a3.19,3.19,0,0,1,.42-.41,2.32,2.32,0,0,0,1.08.59h.06l0,0s0-.06,0-.3a4,4,0,0,0,.9.27l0-.15a.78.78,0,0,1-.23-.22,4.28,4.28,0,0,0,2.43-.44c.52-.25,1.82-.75,2.63-.22a1.69,1.69,0,0,1,.67,1.36,3.43,3.43,0,0,0-.92-.55l1.05,14-.3-.3-1.06-13.55c-.19.18-.77.6-.88.69h0l.9,11.81-.42-.42-.86-11.12c-.2.17-.59.42-.69.51l.72,9.77-.42-.41-.69-9.21c-.14.05-.38.15-.57.2h0v-.08h-.08a1.06,1.06,0,0,1-.31,0,7,7,0,0,1-3.38-1.46l-.06-.08-.06.06c-.47.49-2.52.8-3.39.71l-.3-.07-.09,0v.09h0c-.2-.09-.45-.24-.59-.32l-.09,9.2-.38.32.07-9.77c-.12-.12-.52-.45-.73-.67l-.13,11.08-.39.32.11-11.76h0c-.11-.12-.72-.67-.93-.89l-.16,13.45-.28.23.12-13.93a2.33,2.33,0,0,0-.89.34C355.74,349.22,355.93,348.81,356.3,348.65Zm6.41-1.81h0v-.06s0-.06.07-.09a.85.85,0,0,1,.36.06l.19.06-.1-.17c-.53-.9-1.11-1.16-1.36-1.17a.5.5,0,0,0-.46.33,1.19,1.19,0,0,1,0-.25.29.29,0,0,1,0-.09s.11-.14.39-.13a.93.93,0,0,1,.71.31,1.29,1.29,0,0,0,.69.4l0,0,.05.07v0c0,.06.09.09.22.11s.15-.08.18-.15,0-.05,0-.05A.51.51,0,0,1,364,346h.41a.71.71,0,0,1,.49.18l0,0a4.5,4.5,0,0,1,.24,1.72,5.91,5.91,0,0,0,.88,3.21,1.73,1.73,0,0,1-.76-.31,8.14,8.14,0,0,1-.65-2.63h-.16a7.9,7.9,0,0,0,.68,2.71h0a3.19,3.19,0,0,1,.13.34,2.16,2.16,0,0,1-.94-.56,19.1,19.1,0,0,1-.22-2.65h-.16a24.67,24.67,0,0,0,.22,2.66,3.36,3.36,0,0,0-.41.39l-.41-.47a10.11,10.11,0,0,0,.36-2.69l-.16,0a9.64,9.64,0,0,1-.37,2.67,3.46,3.46,0,0,1-.74.45l.1-.5a6.72,6.72,0,0,0,.73-2.58l-.16,0a6.7,6.7,0,0,1-.7,2.51,3,3,0,0,1-1,.3,6.11,6.11,0,0,0,1.09-2A4.57,4.57,0,0,0,362.71,346.84Zm.89-1a.12.12,0,0,1-.14.13.19.19,0,0,1-.16-.16.13.13,0,0,1,.15-.13A.17.17,0,0,1,363.6,345.83Zm3.86,20.28c0-.17.08-.41.21-.4a.44.44,0,0,1,.33.37.35.35,0,0,1-.11.37.83.83,0,0,0-.11.15,1.07,1.07,0,0,0-.14-.16A.41.41,0,0,1,367.46,366.11Zm-6.94-.88a.28.28,0,0,1,.31-.28c.13,0,.23.27.24.45a.32.32,0,0,1-.16.29.43.43,0,0,0-.14.13.81.81,0,0,0-.12-.18A.47.47,0,0,1,360.52,365.23Zm2-5.48-.44.55-.18-1.28.4-.36c.17.23.36.45.55.67l-.3.38Zm-1.61-.1-.27-.62v0l.56-2.14a6.47,6.47,0,0,0,.34.63l.2,1.44Zm7.22,1.61-.48-1.57-.27-3.66a9.89,9.89,0,0,0,.24-1.15Zm-.49,4.09h-.15l-.43-.74a.14.14,0,0,0-.08-.05.08.08,0,0,0-.07.05l-.22.73-.63,0-.22-.87.23-1.24.68,1.08a.1.1,0,0,0,.08,0,.06.06,0,0,0,.06-.05l.31-1,.67,1.11,0,0Zm-.33,0h-.45l.16-.5Zm-2.19.68s-.09.11-.17.16a.73.73,0,0,0-.26.2.93.93,0,0,1-.08-.75.25.25,0,0,1,.19-.14c0,.13.09.23.17.3S365.09,366,365.09,366Zm-.21-.69a.43.43,0,0,0-.45.21.83.83,0,0,0,0,.15h-.12l-.14,0a.88.88,0,0,0-.05-.15.61.61,0,0,0-.46-.31.53.53,0,0,0-.39-.24h0c-.19,0-.41,0-.63,0l.09-.47.32.34.48-.3.35-3.21-.09,3.23.49.64.45-.54-.3-3.27.56,3.29v0l.5.41.3-.28.12.5a5.89,5.89,0,0,1-.63-.11A.41.41,0,0,0,364.88,365.35Zm-1,1a1.15,1.15,0,0,0-.27-.27c-.09-.06-.19-.14-.19-.19s.05-.14.14-.2.18-.13.15-.27a.43.43,0,0,1,.21.19A.92.92,0,0,1,363.9,366.32Zm-3.76-13.95.25.05a6.62,6.62,0,0,0,3.44-.69,7.48,7.48,0,0,0,3.45,1.47h.25a8.24,8.24,0,0,1-3.45,7.18A11,11,0,0,1,360.14,352.37Zm6.19,5.95-.07,1-.38-.39A5.12,5.12,0,0,0,366.33,358.32Zm-.61,5.73-.53-2.15.72,1.12Zm-.64-2.58h0l-.33-1.37a5.34,5.34,0,0,0,.44-.39l.28.38h0Zm.21-1.87c.18-.18.34-.36.5-.54l.45.47-.09,1.23Zm1.12-.12.11-1.46c.1-.17.19-.35.28-.52l.7,2.29h0l-.23.57Zm-6.23-5.42c.08.36.18.77.32,1.2l0,3.62-.39,1.48Zm1.52,3.78c.15.23.3.46.47.69l-.33.28Zm1.24,1.63.46.48-.23,1.23-.06.08-.45-1.44Zm.13,2.16v0l-.41,2.11-.27-1.15Zm-.47,2.51-.15.77-.6-.1-.28-.78a.1.1,0,0,0-.07-.07.08.08,0,0,0-.07,0l-.39.65-.15,0-.34-1.05.59-1,.38,1.09a.11.11,0,0,0,.07.06.08.08,0,0,0,.07,0l.61-.93Zm-.93.64-.45-.1.26-.45Zm-.06-1.3-.38-1.09a.09.09,0,0,0-.07-.06h0a0,0,0,0,0-.06,0l-.6.95-.52-1.74.87-.82.32,1a.09.09,0,0,0,.07.06.05.05,0,0,0,.08,0l.6-.77.31,1.49Zm-1.18.19.28.89c-.27-.07-.53-.15-.77-.23Zm7.35,1.68.23-.83.54.77C368.31,365.32,368.05,365.34,367.78,365.35Zm.09-1.21-.66-1.1a.09.09,0,0,0-.08,0,.07.07,0,0,0-.07,0l-.31,1-.67-1.06.22-1.44.65.92a.12.12,0,0,0,.08,0,.1.1,0,0,0,.06-.05l.25-1,.94,1Zm-.52-2.87a.06.06,0,0,0-.07,0,.06.06,0,0,0-.06.05l-.25.95-.66-.93a.09.09,0,0,0-.09,0s-.05,0-.06.06l-.22,1.47-.73-1.14.37-1.41.57.77a.1.1,0,0,0,.07,0h0a.09.09,0,0,0,.06-.06l.09-1.32.86.88a.05.05,0,0,0,.05,0h0a.07.07,0,0,0,.05,0l.21-.51.67,2.21Zm-6.81-2,.24.56a.1.1,0,0,0,.06.05h0a.06.06,0,0,0,.06,0l.82-.71.18,1.36a.1.1,0,0,0,.07.08h0s0,0,.06,0l.48-.6.46,1.46-.65,1-.33-1.53a.09.09,0,0,0-.06-.07.08.08,0,0,0-.08,0l-.61.79-.31-1a.12.12,0,0,0-.06-.06.08.08,0,0,0-.08,0l-.8.76Zm-.17,4.21-.61.82-.47-.17.59-2.31Zm.44,1.28a10.59,10.59,0,0,0,2.44.39.39.39,0,0,1,.32.31.38.38,0,0,1-.09.08.42.42,0,0,0-.18.21l-.15,0a9.4,9.4,0,0,1-1.93-.26s0-.05,0-.08c0-.24-.16-.6-.41-.62a.42.42,0,0,0-.46.4s0,0,0,.06c-.55-.16-1.36-.4-1.91-.62l-.14-.09a.68.68,0,0,0,0-.25c0-.07,0-.12.06-.25a.07.07,0,0,0,0-.05l.13,0,.06,0A14.94,14.94,0,0,0,360.81,364.74Zm9.26.56a.07.07,0,0,0,0,.05c.1.15.09.2.08.27a.58.58,0,0,0,0,.25l-.12.06c-.55.09-1.36.16-1.9.2v-.05a.61.61,0,0,0-.5-.53c-.25,0-.37.3-.36.54,0,0,0,.06,0,.08a8.89,8.89,0,0,1-1.93-.17l-.15-.05a.67.67,0,0,0-.2-.26l-.09-.09a.29.29,0,0,1,.31-.25,9.85,9.85,0,0,0,2.43.16,12.72,12.72,0,0,0,2.19-.25A.34.34,0,0,1,370.07,365.3Zm-1.35,0-.68-1,0,0,.39-1.56.76,2.51Z" transform="translate(-287.93 -311.31)"/><polygon class="cls-7" points="68.69 38.22 68.69 38.22 68.69 38.22 68.69 38.22"/><polygon class="cls-7" points="82.96 39.83 82.96 39.83 82.96 39.83 82.96 39.83"/><path class="cls-7" d="M358.51,364.16s-.05,0-.06,0a.08.08,0,0,0,0,.06l.61.27h0s0,0,0,0,0,0,0-.06A1.15,1.15,0,0,0,358.51,364.16Z" transform="translate(-287.93 -311.31)"/><path class="cls-7" d="M359.46,364.62a.06.06,0,0,0,0,.06l.71.28h0s0,0,0,0a.06.06,0,0,0,0-.07,3,3,0,0,0-.74-.29A0,0,0,0,0,359.46,364.62Z" transform="translate(-287.93 -311.31)"/><path class="cls-7" d="M362.4,365.46a.07.07,0,0,0,.05,0h.71a.06.06,0,0,0,0-.06.06.06,0,0,0-.06-.05,1.33,1.33,0,0,0-.74,0S362.39,365.44,362.4,365.46Z" transform="translate(-287.93 -311.31)"/><path class="cls-7" d="M361.34,365.28l.71.08s0,0,.05,0,0,0,0-.06a.86.86,0,0,0-.77-.09,0,0,0,0,0,0,.06S361.32,365.28,361.34,365.28Z" transform="translate(-287.93 -311.31)"/><path class="cls-7" d="M369.32,365.58s0,0,0,.07a.05.05,0,0,0,.05,0h0l.59-.13s0,0,0-.06a.06.06,0,0,0-.06-.05A.93.93,0,0,0,369.32,365.58Z" transform="translate(-287.93 -311.31)"/><path class="cls-7" d="M368.22,365.82a.07.07,0,0,0,0,0h0l.7-.12a0,0,0,0,0,0-.05.06.06,0,0,0,0-.06,2.4,2.4,0,0,0-.73.12A.06.06,0,0,0,368.22,365.82Z" transform="translate(-287.93 -311.31)"/><path class="cls-7" d="M366.07,365.9a0,0,0,0,0,.05,0,.06.06,0,0,0,0-.07,1.67,1.67,0,0,0-.74-.19.06.06,0,0,0,0,.11l.71.17Z" transform="translate(-287.93 -311.31)"/><path class="cls-7" d="M366.42,365.76a.06.06,0,0,0,0,.06.07.07,0,0,0,.06,0l.7.08a.05.05,0,0,0,.06,0,.11.11,0,0,0,0-.07C367,365.7,366.55,365.64,366.42,365.76Z" transform="translate(-287.93 -311.31)"/><path class="cls-7" d="M365.49,367.37a.11.11,0,0,0,.08-.1.17.17,0,0,0-.1-.11l0,0-.05,0c-.06,0-.07,0-.06.09a.12.12,0,0,0,.08.11A.09.09,0,0,0,365.49,367.37Z" transform="translate(-287.93 -311.31)"/><path class="cls-7" d="M366.14,368.22a.1.1,0,0,0-.11,0s0,0-.13,0-.12-.06-.17,0,0,0,0,.07a.1.1,0,0,0,0,.08s0,.05.09.05h.06l.1-.05s0,0,0,0,0,0,0,0a.11.11,0,0,0,.1.09s.05,0,.08,0,0,0,0-.09,0-.06,0-.09A.13.13,0,0,0,366.14,368.22Z" transform="translate(-287.93 -311.31)"/><path class="cls-7" d="M365.14,367.71l0-.12c0-.13,0-.15,0-.17a.07.07,0,0,0-.06,0H365s-.09,0-.16,0h0l0,0a.27.27,0,0,0-.11.1l0,0a.08.08,0,0,0,0,.06c0,.06,0,.08-.07.07s-.07,0-.08-.16v-.12l0,0s0,0-.15-.05l-.19,0H364l-.34-.06c-.16,0-.19,0-.2,0l0,0-.05,0s0,0,0-.11,0-.08,0-.1a.19.19,0,0,0-.15,0l-.05,0,0,0a.12.12,0,0,0,0,.1.51.51,0,0,1,.07.17v0a.2.2,0,0,0,0,.09c0,.11,0,.11-.09.09s-.09,0-.1-.07l0-.06s0,0,0,0a1,1,0,0,0-.09-.21s0-.05-.05-.06,0,0-.07,0a.31.31,0,0,1-.07.09c-.06.06-.06.08,0,.13s.06.06.1.17,0,.13,0,.17a.19.19,0,0,0,0,.07l0,0,0,0-.13.08a.18.18,0,0,1-.13,0c-.12,0-.15,0-.16,0s0,0,0,0h.05l.05,0a.67.67,0,0,0,.31,0h0l.09-.06h0a.09.09,0,0,1,0-.05.2.2,0,0,0,0-.08l0,0s.11,0,.32,0l.32.06.35.08s0,0,0,0a.38.38,0,0,0,.05.15.5.5,0,0,0,.13.12l.06,0h0l.11,0,0,0s.1,0,.1-.07l0,0s0,0,0-.05,0-.09,0-.09l.34,0,.31,0,0,0,0,0v-.12A.37.37,0,0,0,365.14,367.71Zm-.94.28h0a.1.1,0,0,1-.07-.05s0,0,0-.11v-.08l0,0s-.05,0-.1,0l-.19,0-.21,0-.15,0-.06,0a.1.1,0,0,1,0,0s0,0,0-.05.13-.06.27,0h.19l.22,0c.18,0,.19,0,.21.06l0,0v.17C364.22,368,364.22,368,364.2,368Zm.72-.2a.15.15,0,0,1-.15,0,.07.07,0,0,1,0-.07.19.19,0,0,1,.1,0s0,0,0,0l0,.07S364.94,367.79,364.92,367.79Z" transform="translate(-287.93 -311.31)"/><path class="cls-7" d="M362.26,367.42a.07.07,0,0,1,0-.05v-.14a1.13,1.13,0,0,1,0-.14s0,0,0-.07a1.43,1.43,0,0,1,0-.28.22.22,0,0,0,0-.08s0-.06,0-.07l0,0,0,0s0,0-.08-.14l-.08-.11s0-.05-.05-.05,0,.05,0,.07a.43.43,0,0,0,0,.05s0,.07,0,.12a.32.32,0,0,1,0,.14.41.41,0,0,0,0,.11s0,.06,0,.07,0,.09,0,.16,0,.15,0,.18a.28.28,0,0,0,0,.1s0,.08,0,.1a.31.31,0,0,0,0,.11v.07l0,0a.12.12,0,0,0,.08,0s0,0,.06,0A.26.26,0,0,0,362.26,367.42Z" transform="translate(-287.93 -311.31)"/><path class="cls-7" d="M366.56,368a.39.39,0,0,1,0-.13.25.25,0,0,0,0-.12.62.62,0,0,1,0-.16c0-.12,0-.14,0-.16s-.07,0-.13,0l-.06,0s-.08.05-.07.07a.05.05,0,0,0,0,.06l.05.05a.21.21,0,0,1,0,.13c0,.14,0,.14-.09.14h-.09s-.13,0-.15-.09,0-.1,0-.18,0-.15,0-.17a1,1,0,0,1,0-.19,2.06,2.06,0,0,0,0-.21,1,1,0,0,0,0-.15.25.25,0,0,0,0-.12.09.09,0,0,0-.08-.05l-.18.16s0,.07,0,.07l0,0s0,0,0,.12a.62.62,0,0,1,0,.12l0,.06a.33.33,0,0,1,0,.12c0,.07,0,.08,0,.1h-.05l0,0h0a.2.2,0,0,0-.09.06l0,0s0,0,0,.06a.07.07,0,0,1,0,0s0,.05,0,.08a.41.41,0,0,1,0,.11c0,.05,0,.06,0,.09h0l0,0h.11c.09,0,.12,0,.13,0a4.53,4.53,0,0,1,.49,0h.23c.09,0,.1,0,.11,0a.43.43,0,0,1,0,0S366.57,368,366.56,368Zm-.82-.1h-.05l0,0s0-.05,0-.08,0,0,.06,0h0v.09Z" transform="translate(-287.93 -311.31)"/><path class="cls-7" d="M365.48,367.05a.1.1,0,0,0,0-.15.49.49,0,0,0-.11-.07c-.05,0-.12.07-.11.12a.21.21,0,0,0,.06.1A.17.17,0,0,0,365.48,367.05Z" transform="translate(-287.93 -311.31)"/><path class="cls-7" d="M359.8,366.85s0-.05,0-.06a.41.41,0,0,1,0-.07l0-.12a.5.5,0,0,1,0-.13.6.6,0,0,0,0-.12.24.24,0,0,1,0-.07.07.07,0,0,0,0-.08s-.08,0-.13,0a.28.28,0,0,1-.13,0c-.07,0-.09.05,0,.11a.15.15,0,0,1,0,.11l0,.07a.11.11,0,0,1,0,.07s0,0-.09,0l-.1,0a.13.13,0,0,0-.08,0l-.06,0,0,0s0-.05,0-.1a.19.19,0,0,0,0-.07.22.22,0,0,1,0-.08.14.14,0,0,0,0-.07l0-.05a.06.06,0,0,0,0-.06.31.31,0,0,1,0-.08.08.08,0,0,0,0-.07s-.05,0-.09,0l-.06,0,0,0h0s-.08,0-.09,0,0,0,0,.06,0,0,0,.08,0,.06,0,.07,0,.05,0,.07l0,.07s0,0-.09,0a.31.31,0,0,1-.2-.09s0,0,0,0a.12.12,0,0,0,0-.07.11.11,0,0,1,0-.06s0,0,0-.06a.19.19,0,0,1,0-.08l0-.06s0,0,0,0,0,0,0-.05,0-.05,0-.06a.12.12,0,0,0,0-.07l0-.07s0,0,0,0a.06.06,0,0,1,0,0s0,0,0-.06a.11.11,0,0,1,0-.06s0-.06,0-.09,0-.07,0-.09,0,0,0,0h0s0,0,0,0h0l-.05,0h-.11s-.06,0-.08,0a.27.27,0,0,0-.16,0,.12.12,0,0,0-.05,0,.09.09,0,0,0,0,.07.2.2,0,0,0,.13.08.17.17,0,0,0,.11,0s.06,0,.09,0a.07.07,0,0,1,.05,0s0,0,0,.06a.58.58,0,0,0-.05.18l0,.08a.43.43,0,0,0,0,.05.25.25,0,0,1,0,.07l0,0h-.2a.2.2,0,0,0-.14.06.24.24,0,0,0-.07.09l0,0a0,0,0,0,0,0,0l0,0a.09.09,0,0,0,0,.11.27.27,0,0,0,.15.09l.09,0,0,0,.06,0,.14.05a.64.64,0,0,1,.14.06l.17.06.1,0,.39.13.16.06C359.72,366.93,359.77,366.92,359.8,366.85Zm-1.26-.64,0,0c-.06,0-.07,0-.08,0s0,0,.05,0,0,0,.07,0A0,0,0,0,1,358.54,366.21Z" transform="translate(-287.93 -311.31)"/><path class="cls-7" d="M358.48,365.77h0s.05-.06.05-.09a.23.23,0,0,0-.11-.11c-.06,0-.12,0-.14.08a.13.13,0,0,0,.09.14S358.47,365.79,358.48,365.77Z" transform="translate(-287.93 -311.31)"/><path class="cls-7" d="M370.09,368c-.06,0-.09.06-.09.11s0,0,0,.07,0,0,.1,0,.07,0,.1,0,.05-.08,0-.16S370.17,368,370.09,368Z" transform="translate(-287.93 -311.31)"/><path class="cls-7" d="M359.33,366.92s-.05,0-.07,0,0,0,0,.07a.12.12,0,0,0,.07.11.15.15,0,0,0,.16,0s0-.09,0-.15A.11.11,0,0,0,359.33,366.92Z" transform="translate(-287.93 -311.31)"/><path class="cls-7" d="M358.43,366.59c-.09.06-.09.1,0,.16a.1.1,0,0,0,.08.05.08.08,0,0,0,.08,0c.06,0,.06-.08,0-.15S358.47,366.56,358.43,366.59Z" transform="translate(-287.93 -311.31)"/><path class="cls-7" d="M361.94,366.18s-.07,0-.08,0l-.05,0-.08,0s-.05,0-.05.05a.07.07,0,0,0,0,.06l0,0v.11c0,.09,0,.11,0,.13s0,0,0,.13a.7.7,0,0,1,0,.13.63.63,0,0,0,0,.11.49.49,0,0,1,0,.15.88.88,0,0,0,0,.15.38.38,0,0,1,0,.13l0,.05s0,0-.06,0l0,0h0v-.11c0-.11,0-.12,0-.14h-.05l0,0-.07,0c-.07,0-.09,0-.09-.11V367h.17c.11,0,.12,0,.12-.06s0-.1,0-.11h0l-.16-.18s0-.05,0-.08a.22.22,0,0,0-.06-.14l0-.06s0-.05-.08-.05a.25.25,0,0,0-.24.15l0,0-.09,0-.13,0s-.09.09-.09.12a.08.08,0,0,0,0,.09c.1,0,.23.11.23.15l-.06.06c-.05,0-.05,0-.1,0l-.12,0-.08,0a.13.13,0,0,1-.09-.07,1.81,1.81,0,0,1,0-.22.29.29,0,0,0,0-.1s0,0,0-.05,0-.08-.07-.08a.05.05,0,0,0-.06,0,.1.1,0,0,1,0,0c-.07.07-.08.11-.07.16l0,0a.25.25,0,0,1,0,.07c0,.06,0,.07,0,.1s0,.06,0,.08a.07.07,0,0,1,0,0l0,0a.15.15,0,0,1,0,.05s0,0-.05,0h0s0,0-.06,0h-.12s-.09,0-.09,0,0,.06.15.08l.11,0h.13a.31.31,0,0,0,.18-.14s.08,0,.22,0l.19,0,.09,0c.06,0,.06,0,.08,0l0,0a0,0,0,0,1,0,0h0s0,0,0,0a.22.22,0,0,1,0,.08s0,.06,0,.08,0,0,.13.05l.08,0s0,.05,0,.05,0,.06,0,.12a.45.45,0,0,1,0,.08l0,0a.52.52,0,0,1,.11.07l0,0a.22.22,0,0,0,.16,0l.05,0h0s0,0,0,0a.24.24,0,0,0,.06-.1.43.43,0,0,0,0-.05.17.17,0,0,0,0-.09s0-.08,0-.09,0-.07,0-.11,0-.12,0-.16a.66.66,0,0,0,0-.14s0-.07,0-.08a.92.92,0,0,0,0-.17c0-.09,0-.17,0-.19a.25.25,0,0,0,0-.1.1.1,0,0,1,0-.08.21.21,0,0,0,0-.14Zm-.77.64h-.09a.25.25,0,0,1-.16-.08l0,0,0,0,.07-.06q.11-.09.12,0s0,.09.05.1S361.19,366.81,361.17,366.82Z" transform="translate(-287.93 -311.31)"/><path class="cls-7" d="M367.1,367.89a.16.16,0,0,0,0-.09l0-.05a.56.56,0,0,0-.07-.13s0,0,0,0a.42.42,0,0,0-.07-.13s-.07,0-.09,0l-.05.11-.06.1a.07.07,0,0,0,0,.09c.06,0,.12.08.13.11a.23.23,0,0,1,0,.17c0,.1,0,.1,0,.13l0,0-.05.06a.38.38,0,0,1-.17.08l-.05,0,0,0h0s0,0,.14,0,.12,0,.13,0l0,0s.13-.05.16-.09l0,0,0,0a.66.66,0,0,0,0-.28A.24.24,0,0,1,367.1,367.89Z" transform="translate(-287.93 -311.31)"/><path class="cls-7" d="M358.81,366.72c-.08,0-.09,0-.1,0a.11.11,0,0,0,.08.14.11.11,0,0,0,.11,0s0,0,0-.08S358.9,366.73,358.81,366.72Z" transform="translate(-287.93 -311.31)"/><path class="cls-7" d="M370.45,367.62a.09.09,0,0,0-.08-.05l-.07,0a.27.27,0,0,1-.17.06c-.05,0-.15-.08-.15-.11s0,0,0,0a.22.22,0,0,1,0-.08.81.81,0,0,0,0-.11.68.68,0,0,1,0-.17,1.61,1.61,0,0,0-.05-.26.19.19,0,0,1,0-.07s0,0,0,0,0,0,0,0a.35.35,0,0,0-.14-.13l-.05,0a.86.86,0,0,0-.34,0l-.11,0h0l0,0s0,0,0,0,0,0,0,.06l0,.05,0,.05s0,0,.07,0,0,0,0,0,.06-.06.08-.06h0a.09.09,0,0,1,.1,0l.05,0a.26.26,0,0,1,.12.19.58.58,0,0,0,0,.1.8.8,0,0,1,0,.15.86.86,0,0,0,0,.13s0,.08,0,.12a.13.13,0,0,0,0,.08.58.58,0,0,1,.05.14s0,0,0,0l0,0s-.15,0-.2-.07,0-.05-.12-.09l-.1-.05a.16.16,0,0,0-.09.05l-.06.05c-.06.05-.08.08-.08.11l0,0s0,0-.09,0-.07,0-.13-.1a.47.47,0,0,0-.1-.16,0,0,0,0,1,0,0s0,0-.08-.07l0,0-.11,0-.1,0a.56.56,0,0,1,0-.07,1.88,1.88,0,0,0-.05-.2c0-.08,0-.09-.06-.1h-.06l0,0,0,.05a.24.24,0,0,0-.07.11.05.05,0,0,0,0,0c.06.06.09.1.09.14s0,.05,0,.05l0,0-.05,0a.33.33,0,0,0-.13.16s0,0,0,.06a.23.23,0,0,0,0,.11c0,.06,0,.08,0,.09a.25.25,0,0,1-.15,0,.12.12,0,0,1,0-.07l0-.09a.15.15,0,0,1,0-.06.25.25,0,0,0,0-.07s0-.05,0-.05h0l0,0a.3.3,0,0,0-.15.07l0,0s0,0,0,0l-.06.07,0,0v.27l0,0s0,0,.06,0a.61.61,0,0,1,.26,0,.1.1,0,0,1,0,0,.16.16,0,0,1-.17.14l-.06,0h-.07s0,0,0,.07h.26l.08,0a.24.24,0,0,0,.14-.12v0a.08.08,0,0,0,0-.06c0-.06,0-.08.07-.08l.07,0h.34a.09.09,0,0,1,.08,0l0,0a.4.4,0,0,0,.09.15.56.56,0,0,0,.15.08l.05,0s.06,0,.1,0l.09-.06,0-.05a.08.08,0,0,0,0,0,.23.23,0,0,0,0-.11V368h0a.18.18,0,0,1,.15,0,.09.09,0,0,1,0,0l0,0,.13,0a.26.26,0,0,0,.16,0,.34.34,0,0,0,.16-.15s0,0,.07,0h.05l.28-.05.22,0,.12,0h.07l.06,0h0s0-.06,0-.09A.38.38,0,0,1,370.45,367.62Zm-2.85.28a.2.2,0,0,1-.11,0l0,0s0,0,0,0v0l0,0c0-.05.11,0,.13,0S367.63,367.89,367.6,367.9Zm.74,0s0,0-.07,0-.09,0-.09-.1a.11.11,0,0,1,0-.08s.06,0,.09,0,0,0,0,.08A.11.11,0,0,1,368.34,367.85Zm.19-.06a.13.13,0,0,0,0-.05c0-.05,0-.05,0-.07s.05,0,.11,0a.19.19,0,0,1,.09.13s0,0,0,0l-.06,0A.24.24,0,0,1,368.53,367.79Zm.27.35a.23.23,0,0,1-.14,0l0,0s0,0,0,0a.14.14,0,0,1,.13,0S368.82,368.13,368.8,368.14Zm.64-.21h-.06l-.05,0s0,0,0-.06,0-.07.1-.07a.1.1,0,0,1,.09.06S369.49,367.91,369.44,367.93Z" transform="translate(-287.93 -311.31)"/><path class="cls-7" d="M360.76,355.05A10.76,10.76,0,0,0,364,360.1l0,0,0,0a7.51,7.51,0,0,0,3-4.36,9.07,9.07,0,0,0,.25-1.8,4.31,4.31,0,0,0,0-.51v-.06h-.16a7.82,7.82,0,0,1-3.3-1.36l0,0,0,0a6.78,6.78,0,0,1-3.28.61l-.1,0-.07,0v.07c0,.19,0,.38,0,.53A10.11,10.11,0,0,0,360.76,355.05Zm4.53,3.84a7.48,7.48,0,0,1-1.22,1.09,10.68,10.68,0,0,1-1.39-1.47l-.19-5.93a4.27,4.27,0,0,0,1.34-.46,4.82,4.82,0,0,0,1.26.74Z" transform="translate(-287.93 -311.31)"/></svg>