<svg id="Layer_12" data-name="Layer 12" xmlns="http://www.w3.org/2000/svg" viewBox="0 0 144 95.67"><defs><style>.cls-1{fill:#fff;}.cls-2{fill:#eceff3;}.cls-3{fill:#225aa9;}.cls-4{fill:#004c9c;}</style></defs><path class="cls-1" d="M430.66,388.87c-.39-2.92-.79-5.87-1.21-8.83l-.39-2.78c-2.17-15.47-4.56-31.4-6.52-46.62v0c-.25-2-.5-3.89-.73-5.82s-.51-4.15-.74-6.19a1.11,1.11,0,0,0-1.71-.8c-12.26,7.84-23.9,11-39.36,7.89a107.32,107.32,0,0,1-23.63-8.2,59.64,59.64,0,0,0-20.81-5.39c-.39,0-.78,0-1.17,0h0c-18.87-1-35.13,6.95-43.52,12.77l-.33.24c-.46.33-.93.65-1.34,1l-.85.65a1.1,1.1,0,0,0-.36,1.18c.34,1.09.67,2.21,1,3.35.1.33.19.68.29,1,.31,1.1.62,2.21.93,3.36.07.29.15.59.23.88.33,1.25.66,2.51,1,3.8,0,.17.08.34.13.5.36,1.47.73,3,1.09,4.47h0c4,16.67,7.89,36,13.16,53.47a1.12,1.12,0,0,0,1.57.67c8.45-4.09,21.08-7.21,41.09-3.06a137.94,137.94,0,0,1,18.12,5.13,106,106,0,0,0,24.14,5.71c17.9,1.95,30.9-2.29,40.64-7.38a1.1,1.1,0,0,0,.58-1.12C431.53,395.43,431.1,392.17,430.66,388.87Z" transform="translate(-287.93 -311.96)"/><path class="cls-2" d="M431.92,398.64a1.1,1.1,0,0,1-.58,1.12c-9.74,5.09-22.74,9.33-40.64,7.38a106,106,0,0,1-24.14-5.71,137.94,137.94,0,0,0-18.12-5.13c-20-4.15-32.64-1-41.09,3.06a1.12,1.12,0,0,1-1.57-.67c-5.27-17.48-9.14-36.8-13.16-53.47,9.15,17.46,29.55,18.4,52.05,25.31,9.63,3,19.64,7,29.32,14a81.1,81.1,0,0,0,14.66,8.42c15.42,6.76,31.57,7.3,42-4C431.11,392.21,431.53,395.45,431.92,398.64Zm-10.85-80.05a1.11,1.11,0,0,0-1.71-.8c-12.26,7.84-23.9,11-39.36,7.89a107.32,107.32,0,0,1-23.63-8.2,59.64,59.64,0,0,0-20.81-5.39c-.39,0-.78,0-1.17,0l1.23.38c11.95,3.91,26.5,13.84,34.27,22.44a48.45,48.45,0,0,0,12.31,9.45v0c12.76,6.94,30.44,9.21,40.34-13.7C422,326.55,421.52,322.53,421.07,318.59Z" transform="translate(-287.93 -311.96)"/><path class="cls-3" d="M362.83,400.18q-3.18-17.79-6.46-35.55c24.71,7.11,46.43,11,71.42,3.68-.93-6.46-1.85-12.94-2.77-19.4-26.38,7.62-46.74,0-72.87-6.78L346.82,314a60.19,60.19,0,0,0-11.26-1.92c-.39,0-.78,0-1.17,0h0a60.92,60.92,0,0,0-6.76,0l4.59,27.11c-13.46-.33-26.84,3.19-38.84,9.2,1.45,6.18,2.91,12.66,4.43,19.26,12-5.31,24.65-8.46,38-7.42,2,11.66,4.08,23.31,6.16,35,2.07.29,4.21.65,6.46,1.12A132.54,132.54,0,0,1,362.83,400.18Z" transform="translate(-287.93 -311.96)"/><path class="cls-4" d="M335.62,312.42a70.68,70.68,0,0,1,11.91,5.34l-.71-3.75h0q-2.82-.75-5.58-1.23l-.14,0c-.83-.14-1.65-.26-2.47-.36l-.36,0c-.9-.11-1.8-.2-2.7-.26h0l-.5,0-.67,0Z" transform="translate(-287.93 -311.96)"/><path class="cls-4" d="M358.37,375.61a121.92,121.92,0,0,0-13.7-5.08c-2.51-.77-5-1.45-7.42-2.11q2.34,13.4,4.73,26.76h0c1,.14,2.05.3,3.12.49s2.19.39,3.33.63,2.46.53,3.73.84c.65.15,1.32.33,2,.5l1.73.46c.89.24,1.79.5,2.71.77l1,.29c1.07.32,2.15.66,3.26,1Q360.63,387.9,358.37,375.61Z" transform="translate(-287.93 -311.96)"/><path class="cls-4" d="M294.26,348c-.3.15-.6.27-.89.42v.05q1.37,5.79,2.74,11.87c.55,2.43,1.11,4.87,1.68,7.34A93.63,93.63,0,0,1,314.23,362C305.92,359.1,299,355.1,294.26,348Z" transform="translate(-287.93 -311.96)"/></svg>