<?xml version="1.0" encoding="iso-8859-1"?>
<!-- Generator: Adobe Illustrator 24.0.1, SVG Export Plug-In . SVG Version: 6.00 Build 0)  -->
<svg version="1.1" id="Layer_1" xmlns="http://www.w3.org/2000/svg" xmlns:xlink="http://www.w3.org/1999/xlink" x="0px" y="0px"
	 viewBox="0 0 97.409 60.998" style="enable-background:new 0 0 97.409 60.998;" xml:space="preserve">
<g>
	<g>
		<path style="fill:#FFFFFF;" d="M70.229,59.573c-0.052-0.262-0.106-0.528-0.161-0.806c-0.028-0.14-0.056-0.285-0.085-0.429
			c-0.046-0.231-0.092-0.464-0.139-0.705c-0.039-0.2-0.079-0.403-0.12-0.609c-0.036-0.182-0.072-0.366-0.109-0.553
			c-0.056-0.284-0.112-0.571-0.169-0.866c-0.011-0.057-0.023-0.117-0.034-0.174c-2.118-10.862-5.449-28.696-7.516-40.642
			c-0.016-0.095-0.034-0.194-0.05-0.288c-0.074-0.431-0.146-0.849-0.217-1.264c-0.018-0.105-0.037-0.214-0.054-0.318
			c-0.062-0.366-0.122-0.718-0.181-1.069c-0.025-0.15-0.052-0.305-0.076-0.452c-0.056-0.331-0.108-0.646-0.161-0.963
			c-0.024-0.145-0.05-0.297-0.073-0.438c-0.15-0.905-0.286-1.748-0.407-2.515c-4.647-0.694-9.842-2.193-15.882-4.618
			c-4.797-1.925-9.48-2.76-13.92-2.855C33.47,11.39,37.92,33.494,41.047,49.22c0.037,0.186,0.073,0.366,0.109,0.55
			c0.089,0.448,0.177,0.892,0.264,1.329c0.033,0.167,0.066,0.333,0.099,0.498c0.247,1.244,0.485,2.444,0.71,3.579
			c3.653,0.564,7.668,1.449,12.139,2.779c6.003,1.786,11.338,2.678,16.129,2.952c-0.065-0.321-0.134-0.662-0.205-1.016
			C70.272,59.788,70.251,59.679,70.229,59.573z"/>
	</g>
	<g>
		<path style="fill:#0079C1;" d="M0.064,12.232c4.518,12.43,8.454,30.168,13.956,45.628c0.215,0.605,0.919,0.868,1.486,0.564
			c5.442-2.914,13.615-5.272,26.724-3.249C39.15,39.633,33.819,12.918,30.874,0.009C16.788-0.295,5.172,6.925,0.359,11.088
			C0.03,11.373-0.084,11.824,0.064,12.232z"/>
	</g>
	<g>
		<path style="fill:#ED1A3B;" d="M97.393,53.685c-2.924-16.608-6.995-35.167-9.758-51.787c-0.126-0.759-1-1.125-1.63-0.683
			c-7.692,5.395-15.185,7.782-25.33,6.267c1.906,12.082,7.604,42.488,9.822,53.425c11.77,0.674,20.162-2.496,26.398-6.14
			C97.272,54.547,97.469,54.115,97.393,53.685z"/>
	</g>
	<g>
		<path style="fill:#ECEFF3;" d="M63.794,25.475c0.02,0.112,0.041,0.226,0.061,0.338C63.835,25.701,63.814,25.588,63.794,25.475z"/>
	</g>
	<g>
		<path style="fill:#ECEFF3;" d="M36.777,27.962c-0.024-0.12-0.049-0.239-0.073-0.359C36.729,27.723,36.753,27.842,36.777,27.962z"
			/>
	</g>
	<g>
		<path style="fill:#ECEFF3;" d="M64.53,29.519c0.022,0.119,0.044,0.238,0.065,0.357C64.574,29.757,64.552,29.638,64.53,29.519z"/>
	</g>
	<g>
		<path style="fill:#ECEFF3;" d="M63.099,21.611c0.002,0.01,0.004,0.02,0.005,0.031C63.102,21.632,63.1,21.621,63.099,21.611z"/>
	</g>
	<g>
		<path style="fill:#ECEFF3;" d="M64.149,27.431c0.028,0.151,0.055,0.302,0.083,0.454C64.204,27.733,64.177,27.582,64.149,27.431z"
			/>
	</g>
	<g>
		<path style="fill:#ECEFF3;" d="M36.259,25.416c-0.024-0.12-0.049-0.24-0.073-0.36C36.21,25.176,36.234,25.296,36.259,25.416z"/>
	</g>
	<g>
		<path style="fill:#ECEFF3;" d="M34.127,15.081c-0.02-0.096-0.04-0.191-0.06-0.287C34.087,14.89,34.107,14.984,34.127,15.081z"/>
	</g>
	<g>
		<path style="fill:#ECEFF3;" d="M32.648,8.08c-0.011-0.051-0.022-0.102-0.033-0.153C32.626,7.978,32.637,8.028,32.648,8.08z"/>
	</g>
	<g>
		<path style="fill:#ECEFF3;" d="M31.332,2.044c-0.01-0.043-0.019-0.086-0.029-0.128C31.313,1.958,31.322,2.001,31.332,2.044z"/>
	</g>
	<g>
		<path style="fill:#ECEFF3;" d="M35.177,20.144c-0.02-0.095-0.039-0.191-0.059-0.286C35.138,19.953,35.157,20.048,35.177,20.144z"
			/>
	</g>
	<g>
		<path style="fill:#ECEFF3;" d="M32.193,5.967c-0.009-0.04-0.017-0.08-0.026-0.12C32.176,5.887,32.185,5.928,32.193,5.967z"/>
	</g>
	<g>
		<path style="fill:#ECEFF3;" d="M68.667,51.58c-3.404-1.289-7.29-3.047-10.759-4.895c-6.947-3.7-12.581-6.765-19.043-8.393
			c-0.002-0.011-0.005-0.022-0.007-0.033c1.248,6.216,2.418,12.102,3.372,16.916c3.653,0.564,7.668,1.449,12.139,2.779
			c6.003,1.786,11.338,2.678,16.129,2.952C70.023,58.568,69.389,55.332,68.667,51.58z"/>
	</g>
	<g>
		<path style="fill:#ECEFF3;" d="M65.701,35.872c0.005,0.028,0.01,0.056,0.015,0.084C65.712,35.928,65.707,35.9,65.701,35.872z"/>
	</g>
	<g>
		<path style="fill:#ECEFF3;" d="M33.638,12.747c-0.019-0.093-0.039-0.185-0.058-0.278C33.599,12.562,33.618,12.654,33.638,12.747z"
			/>
	</g>
	<g>
		<path style="fill:#ECEFF3;" d="M37.845,33.231c-0.016-0.08-0.032-0.159-0.048-0.239C37.813,33.071,37.829,33.151,37.845,33.231z"
			/>
	</g>
	<g>
		<path style="fill:#ECEFF3;" d="M38.381,35.888c-0.035-0.173-0.07-0.346-0.105-0.519C38.311,35.542,38.346,35.715,38.381,35.888z"
			/>
	</g>
	<g>
		<path style="fill:#ECEFF3;" d="M64.896,31.513c0.028,0.153,0.056,0.307,0.085,0.46C64.952,31.82,64.924,31.667,64.896,31.513z"/>
	</g>
	<g>
		<path style="fill:#ECEFF3;" d="M66.477,40.033c0.002,0.012,0.004,0.024,0.007,0.036C66.482,40.057,66.479,40.045,66.477,40.033z"
			/>
	</g>
	<g>
		<path style="fill:#ECEFF3;" d="M65.286,33.631c0.022,0.118,0.043,0.236,0.065,0.353C65.33,33.867,65.308,33.749,65.286,33.631z"/>
	</g>
	<g>
		<path style="fill:#FFFFFF;" d="M34.067,14.794c-0.144-0.691-0.287-1.373-0.429-2.047C33.779,13.42,33.922,14.103,34.067,14.794z"
			/>
	</g>
	<g>
		<path style="fill:#FFFFFF;" d="M38.858,38.259c-0.158-0.786-0.317-1.577-0.477-2.371C38.541,36.682,38.7,37.474,38.858,38.259z"/>
	</g>
	<g>
		<path style="fill:#FFFFFF;" d="M36.704,27.603c-0.149-0.731-0.297-1.46-0.446-2.187C36.407,26.143,36.556,26.873,36.704,27.603z"
			/>
	</g>
	<g>
		<path style="fill:#FFFFFF;" d="M35.118,19.858c-0.335-1.624-0.666-3.221-0.991-4.777C34.452,16.637,34.783,18.234,35.118,19.858z"
			/>
	</g>
	<g>
		<path style="fill:#FFFFFF;" d="M38.276,35.369c-0.143-0.71-0.287-1.423-0.431-2.138C37.989,33.946,38.133,34.658,38.276,35.369z"
			/>
	</g>
	<g>
		<path style="fill:#FFFFFF;" d="M37.797,32.992c-0.338-1.673-0.678-3.353-1.019-5.03C37.118,29.638,37.459,31.319,37.797,32.992z"
			/>
	</g>
	<g>
		<path style="fill:#FFFFFF;" d="M36.185,25.056c-0.338-1.655-0.675-3.296-1.008-4.912C35.51,21.76,35.847,23.401,36.185,25.056z"/>
	</g>
	<g>
		<path style="fill:#FFFFFF;" d="M64.232,27.884c0.099,0.543,0.198,1.088,0.298,1.635C64.43,28.972,64.331,28.427,64.232,27.884z"/>
	</g>
	<g>
		<path style="fill:#FFFFFF;" d="M64.981,31.973c0.102,0.552,0.204,1.105,0.306,1.658C65.184,33.078,65.082,32.526,64.981,31.973z"
			/>
	</g>
	<g>
		<path style="fill:#FFFFFF;" d="M65.352,33.985c0.116,0.63,0.233,1.259,0.35,1.888C65.585,35.244,65.468,34.614,65.352,33.985z"/>
	</g>
	<g>
		<path style="fill:#FFFFFF;" d="M64.596,29.877c0.1,0.545,0.2,1.09,0.3,1.637C64.796,30.967,64.695,30.421,64.596,29.877z"/>
	</g>
	<g>
		<path style="fill:#FFFFFF;" d="M63.855,25.813c0.097,0.536,0.195,1.075,0.294,1.617C64.05,26.889,63.953,26.349,63.855,25.813z"/>
	</g>
	<g>
		<path style="fill:#FFFFFF;" d="M68.667,51.58c-0.671-3.487-1.418-7.423-2.183-11.512C67.25,44.159,67.996,48.093,68.667,51.58
			L68.667,51.58z"/>
	</g>
	<g>
		<path style="fill:#FFFFFF;" d="M65.717,35.956c0.254,1.369,0.508,2.731,0.76,4.077C66.225,38.687,65.971,37.325,65.717,35.956z"/>
	</g>
	<g>
		<path style="fill:#FFFFFF;" d="M32.167,5.848c-0.292-1.347-0.571-2.617-0.835-3.804C31.596,3.23,31.875,4.502,32.167,5.848z"/>
	</g>
	<g>
		<path style="fill:#FFFFFF;" d="M63.104,21.642c0.224,1.251,0.454,2.532,0.69,3.833C63.558,24.174,63.328,22.892,63.104,21.642z"/>
	</g>
	<g>
		<path style="fill:#FFFFFF;" d="M32.615,7.927c-0.143-0.668-0.284-1.322-0.422-1.959C32.331,6.605,32.472,7.259,32.615,7.927z"/>
	</g>
	<g>
		<path style="fill:#FFFFFF;" d="M33.579,12.469c-0.319-1.518-0.631-2.985-0.932-4.39C32.949,9.484,33.26,10.952,33.579,12.469z"/>
	</g>
	<g>
		<path style="fill:#FFFFFF;" d="M30.923,0.228c0.123,0.539,0.25,1.104,0.38,1.687C31.173,1.332,31.046,0.767,30.923,0.228
			L30.923,0.228z"/>
	</g>
	<g>
		<path style="fill:#FFFFFF;" d="M62.767,19.753c0.108,0.611,0.219,1.231,0.331,1.858C62.986,20.984,62.876,20.364,62.767,19.753z"
			/>
	</g>
	<g>
		<path style="fill:#0084C8;" d="M38.864,38.293c-2.761-13.75-5.905-29.114-7.941-38.064c-0.279-0.076-0.553-0.143-0.827-0.209
			C16.366-0.008,5.086,7.002,0.36,11.087c-0.329,0.285-0.445,0.737-0.296,1.146c1.222,3.363,2.401,7.121,3.58,11.109
			C10.274,34.561,23.779,34.491,38.864,38.293z"/>
	</g>
	<g>
		<path style="fill:#DF1F33;" d="M68.667,51.58c0.722,3.752,1.356,6.987,1.831,9.327c11.77,0.674,20.161-2.496,26.397-6.14
			c0.377-0.22,0.573-0.652,0.498-1.081c-0.357-2.024-0.731-4.079-1.117-6.154C89.755,55.33,79.078,55.522,68.667,51.58z"/>
	</g>
</g>
</svg>
