<svg version="1.1" id="Layer_1" xmlns="http://www.w3.org/2000/svg" xmlns:xlink="http://www.w3.org/1999/xlink" x="0px" y="0px" viewBox="0 0 96.519 60.274" style="enable-background:new 0 0 96.519 60.274;" xml:space="preserve">
<g>
	<path d="M83.008,2.474c0.252-0.159,0.503-0.312,0.755-0.478C83.512,2.161,83.26,2.315,83.008,2.474z"/>
	<path d="M85.42,0.899c0.055-0.02,0.112-0.029,0.169-0.038C85.532,0.87,85.476,0.878,85.42,0.899z"/>
	<path d="M85.659,0.844c0.015-0.001,0.031,0.002,0.046,0.001C85.69,0.846,85.675,0.843,85.659,0.844z"/>
	<path d="M11.261,49.167c-0.379-1.199-0.751-2.403-1.117-3.61C10.51,46.764,10.882,47.968,11.261,49.167z"/>
	<path d="M14.009,57.364c-0.447-1.245-0.882-2.507-1.309-3.778C13.128,54.857,13.563,56.119,14.009,57.364z"/>
	<path d="M81.847,3.184c0.163-0.096,0.326-0.185,0.488-0.284C82.172,2.999,82.009,3.088,81.847,3.184z"/>
	<path d="M12.603,53.3c-0.407-1.216-0.805-2.442-1.196-3.674C11.798,50.858,12.196,52.084,12.603,53.3z"/>
	<path d="M70.899,7.324c3.004-0.512,5.818-1.464,8.564-2.833C76.717,5.859,73.903,6.811,70.899,7.324z"/>
	<path d="M85.192,1.019C85.192,1.019,85.192,1.019,85.192,1.019c0.061-0.043,0.125-0.073,0.191-0.101   C85.318,0.945,85.253,0.976,85.192,1.019z"/>
	<path d="M9.182,42.348c0.261,0.884,0.526,1.768,0.792,2.651c-0.267-0.884-0.528-1.768-0.789-2.653   C9.184,42.347,9.183,42.348,9.182,42.348z"/>
	<path d="M96.274,53.845c0.195-0.218,0.283-0.518,0.23-0.818l0,0C96.557,53.327,96.468,53.627,96.274,53.845z"/>
	<path d="M70.426,7.409c-3.185,0.489-6.591,0.48-10.371-0.076C63.835,7.889,67.242,7.899,70.426,7.409z"/>
	<path style="fill:#F2F2F2;" d="M85.192,1.019c-0.477,0.337-0.953,0.663-1.429,0.976C84.239,1.682,84.715,1.357,85.192,1.019   L85.192,1.019z"/>
	<path style="fill:#F2F2F2;" d="M85.589,0.86c0.024-0.004,0.047-0.014,0.071-0.016C85.636,0.846,85.612,0.856,85.589,0.86z"/>
	<path style="fill:#F2F2F2;" d="M86.506,1.197c-0.195-0.238-0.495-0.366-0.801-0.352C86.011,0.832,86.311,0.96,86.506,1.197z"/>
	<path style="fill:#F2F2F2;" d="M82.335,2.9c0.225-0.137,0.449-0.285,0.674-0.427C82.784,2.616,82.559,2.764,82.335,2.9z"/>
	<path style="fill:#F2F2F2;" d="M70.426,7.409c0.159-0.024,0.314-0.059,0.473-0.086C70.741,7.35,70.586,7.385,70.426,7.409z"/>
	<path style="fill:#F2F2F2;" d="M79.463,4.49c0.799-0.398,1.592-0.84,2.384-1.306C81.055,3.651,80.262,4.092,79.463,4.49z"/>
	<path style="fill:#F2F2F2;" d="M85.383,0.918c0.013-0.005,0.024-0.015,0.037-0.02C85.407,0.903,85.396,0.913,85.383,0.918z"/>
	<path style="fill:#251816;" d="M88.028,9.084c-0.001-0.008-0.003-0.017-0.005-0.025c-0.232-1.267-0.457-2.524-0.68-3.778   c-0.214-1.215-0.427-2.429-0.631-3.629c-0.03-0.177-0.103-0.33-0.206-0.455c-0.195-0.238-0.495-0.366-0.801-0.352   c-0.015,0.001-0.031-0.003-0.046-0.001c-0.024,0.002-0.047,0.012-0.071,0.016c-0.057,0.01-0.113,0.018-0.169,0.039   c-0.013,0.005-0.024,0.014-0.037,0.02c-0.065,0.027-0.13,0.058-0.191,0.101c-0.477,0.337-0.953,0.663-1.429,0.976   c-0.252,0.166-0.503,0.319-0.755,0.478c-0.224,0.142-0.449,0.29-0.674,0.427c-0.162,0.099-0.326,0.188-0.488,0.284   c-0.791,0.467-1.585,0.908-2.384,1.306c-2.745,1.369-5.56,2.321-8.564,2.833c-0.158,0.027-0.313,0.061-0.473,0.086   c-3.185,0.489-6.591,0.48-10.371-0.076c-4.601-0.676-9.746-2.15-15.729-4.536c-4.751-1.895-9.388-2.711-13.784-2.796   c-0.26-0.005-0.512,0.011-0.77,0.011c-0.001,0-0.001,0-0.002,0C17.401,0.015,7.054,5.78,1.777,9.876   c-0.052,0.04-0.862,0.71-1.431,1.189c-0.311,0.262-0.426,0.688-0.289,1.071c0.572,1.605,1.444,4.15,1.653,4.793   c0.061,0.187,0.122,0.381,0.183,0.57c0.259,0.804,0.518,1.617,0.775,2.449c0.033,0.107,0.066,0.216,0.1,0.324   c0.291,0.946,0.583,1.905,0.874,2.882c0.195,0.653,0.389,1.313,0.584,1.978c6.007-3.29,15.163-8.049,27.88-7.005   c7.686,0.631,23.346,6.466,30.744,6.926c11.279,0.7,19.896-1.693,26.975-6.482C89.204,15.38,88.599,12.209,88.028,9.084z"/>
	<path style="fill:#F2F2F2;" d="M12.7,53.586c-0.032-0.096-0.065-0.191-0.097-0.287C12.635,53.396,12.668,53.49,12.7,53.586z"/>
	<path style="fill:#F2F2F2;" d="M94.862,54.707c-2.013,1.112-4.242,2.159-6.725,3.039C90.621,56.867,92.85,55.82,94.862,54.707z"/>
	<path style="fill:#F2F2F2;" d="M10.144,45.557c-0.056-0.186-0.113-0.372-0.169-0.558C10.031,45.185,10.087,45.371,10.144,45.557z"/>
	<path style="fill:#F2F2F2;" d="M94.862,54.707c0.403-0.222,0.796-0.448,1.182-0.674c0.087-0.051,0.164-0.115,0.229-0.188   c-0.065,0.073-0.142,0.136-0.229,0.188C95.659,54.26,95.265,54.485,94.862,54.707z"/>
	<path style="fill:#F2F2F2;" d="M11.407,49.626c-0.049-0.153-0.098-0.306-0.146-0.459C11.309,49.32,11.358,49.473,11.407,49.626z"/>
	<path style="fill:#F2F2F2;" d="M96.503,53.028c-0.36-2.017-0.737-4.064-1.127-6.131l0,0C95.766,48.963,96.144,51.011,96.503,53.028   L96.503,53.028z"/>
	<path style="fill:#FFE300;" d="M95.377,46.896c-0.003-0.014-0.005-0.029-0.008-0.043c-0.356-1.892-0.725-3.807-1.099-5.73   c-0.116-0.598-0.234-1.198-0.351-1.799c-0.158-0.806-0.318-1.616-0.477-2.426c-7.133,4.899-15.799,7.299-27.199,6.425   c-7.243-0.555-22.508-6.496-30.031-7.223c-1.82-0.176-3.565-0.228-5.241-0.184c-9.54,0.25-16.77,3.707-21.785,6.429   c0.261,0.884,0.522,1.769,0.789,2.653c0.056,0.186,0.113,0.372,0.169,0.558c0.366,1.207,0.738,2.411,1.117,3.61   c0.049,0.153,0.098,0.306,0.146,0.459c0.391,1.232,0.789,2.458,1.196,3.674c0.032,0.096,0.065,0.191,0.097,0.287   c0.427,1.271,0.862,2.533,1.309,3.778c0.201,0.562,0.855,0.809,1.379,0.525c5.38-2.912,13.477-5.293,26.511-3.31   c3.617,0.55,7.593,1.418,12.021,2.725c5.946,1.755,11.227,2.626,15.971,2.887c5.838,0.322,10.834-0.31,15.142-1.476   c1.077-0.291,2.111-0.616,3.104-0.968c2.483-0.879,4.712-1.926,6.725-3.039c0.403-0.222,0.796-0.448,1.182-0.674   c0.087-0.051,0.164-0.115,0.229-0.188c0.195-0.218,0.283-0.518,0.23-0.818C96.144,51.011,95.766,48.963,95.377,46.896z"/>
	<path style="fill:#EF4130;" d="M8.912,41.427c0.09,0.307,0.179,0.614,0.27,0.921c0.001-0.001,0.002-0.001,0.003-0.002   C9.095,42.04,9.002,41.733,8.912,41.427z"/>
	<path style="fill:#EF4130;" d="M8.736,40.826c-0.348-1.191-0.692-2.381-1.032-3.565C8.044,38.445,8.388,39.634,8.736,40.826z"/>
	<path style="fill:#EF4130;" d="M7.53,36.656c-0.35-1.221-0.697-2.437-1.04-3.642C6.834,34.219,7.18,35.434,7.53,36.656z"/>
	<path style="fill:#EF4130;" d="M5.399,29.187c-0.025-0.088-0.05-0.174-0.075-0.262C5.349,29.013,5.374,29.1,5.399,29.187z"/>
	<path style="fill:#EF4130;" d="M6.49,33.013c-0.366-1.287-0.73-2.565-1.092-3.826C5.76,30.45,6.124,31.726,6.49,33.013z"/>
	<path style="fill:#EF4130;" d="M7.704,37.261c-0.058-0.202-0.116-0.403-0.173-0.605C7.588,36.858,7.646,37.058,7.704,37.261z"/>
	<path style="fill:#EF4130;" d="M8.912,41.427c-0.059-0.2-0.118-0.401-0.176-0.601C8.794,41.026,8.853,41.226,8.912,41.427z"/>
	<path style="fill:#EF4130;" d="M5.324,28.926c-0.358-1.248-0.714-2.483-1.069-3.697C4.609,26.443,4.966,27.678,5.324,28.926z"/>
	<path style="fill:#EF4130;" d="M89.824,18.57c-7.078,4.789-15.696,7.182-26.975,6.482c-7.398-0.459-23.058-6.295-30.744-6.926   c-12.717-1.044-21.873,3.715-27.88,7.005c0.009,0.032,0.019,0.065,0.029,0.097c0.355,1.214,0.712,2.449,1.07,3.697   c0.025,0.087,0.05,0.174,0.075,0.262c0.361,1.261,0.725,2.539,1.092,3.826c0.343,1.205,0.69,2.422,1.04,3.642   c0.058,0.202,0.115,0.403,0.173,0.605c0.34,1.184,0.684,2.374,1.032,3.565c0.059,0.2,0.117,0.401,0.176,0.601   c0.09,0.306,0.183,0.613,0.273,0.919c5.014-2.722,12.245-6.179,21.785-6.429c1.676-0.044,3.422,0.008,5.241,0.184   c7.523,0.727,22.788,6.668,30.031,7.223c11.4,0.873,20.066-1.526,27.199-6.425C92.244,30.818,91.006,24.658,89.824,18.57z"/>
</g>
<path style="fill:#EECA19;" d="M95.377,46.896c-6.437,7.732-22.083,7.576-37.197-0.926c-6.79-3.82-13.246-6.497-19.646-8.095  c-2.623-0.655-5.142-1.304-7.563-1.958c-9.54,0.25-16.77,3.707-21.785,6.429c0.261,0.884,0.522,1.769,0.789,2.653  c0.056,0.186,0.113,0.372,0.169,0.558c0.366,1.207,0.738,2.411,1.117,3.61c0.049,0.153,0.098,0.306,0.146,0.459  c0.391,1.232,0.789,2.458,1.196,3.674c0.032,0.096,0.065,0.191,0.097,0.287c0.427,1.271,0.862,2.533,1.309,3.778  c0.201,0.562,0.855,0.809,1.379,0.525c5.38-2.912,13.477-5.293,26.511-3.31c3.617,0.55,7.593,1.418,12.021,2.725  c5.946,1.755,11.227,2.626,15.971,2.887c5.838,0.322,10.834-0.31,15.142-1.476c1.077-0.291,2.111-0.616,3.104-0.968  c2.483-0.879,4.712-1.926,6.725-3.039c0.403-0.222,0.796-0.448,1.182-0.674c0.087-0.051,0.164-0.115,0.229-0.188  c0.195-0.218,0.283-0.518,0.23-0.818C96.144,51.011,95.766,48.963,95.377,46.896z"/>
<path style="fill:#DA2128;" d="M4.254,25.229c0.355,1.214,0.712,2.449,1.069,3.697c0.025,0.087,0.05,0.174,0.075,0.262  c0.361,1.261,0.725,2.539,1.092,3.826c0.343,1.205,0.69,2.422,1.04,3.642c0.058,0.202,0.115,0.403,0.173,0.605  c0.34,1.184,0.684,2.374,1.032,3.565c0.059,0.2,0.117,0.401,0.176,0.601c0.09,0.306,0.183,0.613,0.273,0.92  c5.014-2.722,12.245-6.179,21.785-6.429c-11.368-3.07-20.46-6.253-26.726-10.721C4.248,25.207,4.251,25.218,4.254,25.229z"/>
</svg>