<svg id="Layer_14" data-name="Layer 14" xmlns="http://www.w3.org/2000/svg" viewBox="0 0 144.01 96.33"><defs><style>.cls-1{fill:#ffe300;}.cls-2{fill:#352825;}.cls-3{fill:#f2f2f2;}.cls-4{fill:#231f20;}.cls-5{fill:#eeca19;}.cls-6{fill:#ef4130;}.cls-7{fill:#da2128;}.cls-8{fill:#fff;}.cls-9{fill:#eceff3;}.cls-10{fill:#225aa9;}.cls-11{fill:#004c9c;}</style></defs><path d="M415.11,320.42l1.19-.67Z" transform="translate(-287.94 -311.5)"/><path class="cls-1" d="M386.55,381.42c-11-1.38-33.82-11.56-45.23-13.23a64,64,0,0,0-8-.66q5.46,1.75,11.38,3.54a120.8,120.8,0,0,1,29.34,13.79c22.39,14.07,46.22,15.46,56.6,4.16V389q-.6-4.36-1.25-8.81c-.13-.92-.26-1.84-.4-2.77-.18-1.24-.36-2.48-.55-3.73C417.23,380.58,403.85,383.59,386.55,381.42Z" transform="translate(-287.94 -311.5)"/><path d="M418.9,318.2a1.32,1.32,0,0,1,.26-.05A1.32,1.32,0,0,0,418.9,318.2Z" transform="translate(-287.94 -311.5)"/><path d="M419.27,318.13h0Z" transform="translate(-287.94 -311.5)"/><path d="M302.34,386.26c-.49-1.86-1-3.72-1.43-5.59C301.38,382.54,301.85,384.4,302.34,386.26Z" transform="translate(-287.94 -311.5)"/><path d="M305.92,399c-.58-1.93-1.15-3.89-1.71-5.85C304.77,395.06,305.34,397,305.92,399Z" transform="translate(-287.94 -311.5)"/><path d="M413.29,321.42l.77-.4Z" transform="translate(-287.94 -311.5)"/><path d="M304.08,392.65c-.53-1.88-1-3.78-1.55-5.68C303,388.87,303.55,390.77,304.08,392.65Z" transform="translate(-287.94 -311.5)"/><path d="M396.3,326.91a46.57,46.57,0,0,0,13.26-3.68A46.57,46.57,0,0,1,396.3,326.91Z" transform="translate(-287.94 -311.5)"/><path d="M418.55,318.36h0a.91.91,0,0,1,.3-.14A1.14,1.14,0,0,0,418.55,318.36Z" transform="translate(-287.94 -311.5)"/><path d="M299.68,375.71c.33,1.37.67,2.73,1,4.1-.34-1.37-.67-2.73-1-4.1Z" transform="translate(-287.94 -311.5)"/><path class="cls-2" d="M336.4,340.5c11.66,1.53,35.09,11.58,46.33,12.83,17.13,1.9,30.44-1.11,41.58-7.88-.71-4.91-1.4-9.78-2-14.59v0c-.26-1.94-.51-3.88-.76-5.8s-.47-3.73-.69-5.58a1.66,1.66,0,0,0-.28-.71,1.66,1.66,0,0,1,.28.71c.44,3.74.94,7.55,1.45,11.4-9.77,22.91-27.43,20.74-40.2,13.86v0a48.53,48.53,0,0,1-12.34-9.36c-7.79-8.55-22.36-18.39-34.31-22.24l-1.24-.37h0c-18.85-.91-35,7.11-43.38,13l-2.27,1.7A1.5,1.5,0,0,0,288,329c.75,2.48,1.89,6.43,2.17,7.42.08.29.15.59.23.88.34,1.25.67,2.5,1,3.79,0,.17.09.34.13.5.37,1.46.75,2.95,1.12,4.46.25,1,.49,2,.74,3.05C302.8,344.55,317.1,338,336.4,340.5Z" transform="translate(-287.94 -311.5)"/><path d="M431.52,399.67a1.5,1.5,0,0,0,.42-1.23h0A1.5,1.5,0,0,1,431.52,399.67Z" transform="translate(-287.94 -311.5)"/><path d="M395.58,327a53,53,0,0,1-15.8-.88A53,53,0,0,0,395.58,327Z" transform="translate(-287.94 -311.5)"/><path class="cls-3" d="M418.55,318.37l-2.25,1.38,2.25-1.38Z" transform="translate(-287.94 -311.5)"/><path class="cls-3" d="M419.16,318.15l.11,0Z" transform="translate(-287.94 -311.5)"/><path class="cls-3" d="M420.54,318.73a1.51,1.51,0,0,0-1.2-.59A1.51,1.51,0,0,1,420.54,318.73Z" transform="translate(-287.94 -311.5)"/><path class="cls-3" d="M414.06,321l1.05-.6Z" transform="translate(-287.94 -311.5)"/><path class="cls-3" d="M395.58,327l.72-.1Z" transform="translate(-287.94 -311.5)"/><path class="cls-3" d="M409.56,323.23c1.25-.55,2.49-1.16,3.73-1.81C412.05,322.07,410.81,322.68,409.56,323.23Z" transform="translate(-287.94 -311.5)"/><path class="cls-3" d="M418.85,318.23s0,0,0,0S418.87,318.22,418.85,318.23Z" transform="translate(-287.94 -311.5)"/><path class="cls-4" d="M369.73,335.34a48.53,48.53,0,0,0,12.34,9.36v0c12.77,6.88,30.43,9.05,40.2-13.86-.51-3.85-1-7.66-1.45-11.4a1.66,1.66,0,0,0-.28-.71,1.51,1.51,0,0,0-1.2-.59h-.07l-.11,0a1.32,1.32,0,0,0-.26.05s0,0,0,0a.91.91,0,0,0-.3.14l-2.25,1.38-1.19.67-1.05.6-.77.4c-1.24.65-2.48,1.26-3.73,1.81a46.57,46.57,0,0,1-13.26,3.68l-.72.1a53,53,0,0,1-15.8-.88,107.7,107.7,0,0,1-23.63-8.08,59.54,59.54,0,0,0-20.79-5.28c-.4,0-.78,0-1.18,0l1.24.37C347.37,317,361.94,326.79,369.73,335.34Z" transform="translate(-287.94 -311.5)"/><path class="cls-3" d="M304.21,393.1c0-.15-.09-.3-.13-.45C304.12,392.8,304.17,393,304.21,393.1Z" transform="translate(-287.94 -311.5)"/><path class="cls-3" d="M429.31,400.88A67.18,67.18,0,0,1,418.84,405,67.18,67.18,0,0,0,429.31,400.88Z" transform="translate(-287.94 -311.5)"/><path class="cls-3" d="M300.91,380.67c-.07-.29-.15-.57-.22-.86C300.76,380.1,300.84,380.38,300.91,380.67Z" transform="translate(-287.94 -311.5)"/><path class="cls-3" d="M429.31,400.88c.63-.31,1.25-.62,1.85-.94a1.22,1.22,0,0,0,.36-.27,1.22,1.22,0,0,1-.36.27C430.56,400.26,429.94,400.57,429.31,400.88Z" transform="translate(-287.94 -311.5)"/><path class="cls-3" d="M302.53,387c-.06-.24-.12-.48-.19-.71C302.41,386.49,302.47,386.73,302.53,387Z" transform="translate(-287.94 -311.5)"/><path class="cls-3" d="M431.94,398.44c-.4-3.1-.83-6.24-1.27-9.42h0c.44,3.18.87,6.32,1.27,9.42Z" transform="translate(-287.94 -311.5)"/><path class="cls-5" d="M430.67,389c-10.38,11.3-34.21,9.91-56.6-4.16a120.8,120.8,0,0,0-29.34-13.79q-5.93-1.79-11.38-3.54c-14.55-.33-25.82,4.4-33.66,8.18.33,1.37.66,2.73,1,4.1.07.29.15.57.22.86.47,1.87.94,3.73,1.43,5.59.07.23.13.47.19.71.51,1.9,1,3.8,1.55,5.68,0,.15.09.3.13.45.56,2,1.13,3.92,1.71,5.85a1.49,1.49,0,0,0,2.07.9c8.41-4,20.92-7.07,40.64-3.08a137.25,137.25,0,0,1,18.11,5,106.76,106.76,0,0,0,24.12,5.58A72.37,72.37,0,0,0,414,406.26c1.66-.37,3.26-.78,4.8-1.25a67.18,67.18,0,0,0,10.47-4.13c.63-.31,1.25-.62,1.85-.94a1.22,1.22,0,0,0,.36-.27,1.5,1.5,0,0,0,.42-1.23C431.54,395.34,431.11,392.2,430.67,389Z" transform="translate(-287.94 -311.5)"/><path class="cls-6" d="M299.34,374.29c.11.47.22.95.34,1.42h0C299.57,375.24,299.45,374.76,299.34,374.29Z" transform="translate(-287.94 -311.5)"/><path class="cls-6" d="M299.11,373.36q-.66-2.76-1.31-5.51Q298.45,370.6,299.11,373.36Z" transform="translate(-287.94 -311.5)"/><path class="cls-6" d="M297.58,366.92q-.66-2.84-1.31-5.63Q296.91,364.08,297.58,366.92Z" transform="translate(-287.94 -311.5)"/><path class="cls-6" d="M294.89,355.38c0-.13-.06-.27-.1-.4C294.83,355.11,294.86,355.24,294.89,355.38Z" transform="translate(-287.94 -311.5)"/><path class="cls-6" d="M293.43,349.21c9.21,7.27,22.83,12.8,39.92,18.32a64,64,0,0,1,8,.66c11.41,1.67,34.23,11.85,45.23,13.23,17.3,2.17,30.68-.84,41.91-7.78-1.37-9.35-2.8-18.83-4.15-28.19-11.14,6.77-24.45,9.78-41.58,7.88-11.24-1.25-34.67-11.3-46.33-12.83-19.3-2.53-33.6,4.05-43,8.61l0,.15Z" transform="translate(-287.94 -311.5)"/><path class="cls-6" d="M296.27,361.29q-.69-3-1.38-5.91Q295.58,358.3,296.27,361.29Z" transform="translate(-287.94 -311.5)"/><path class="cls-6" d="M297.8,367.85c-.07-.31-.14-.62-.22-.93C297.66,367.23,297.73,367.54,297.8,367.85Z" transform="translate(-287.94 -311.5)"/><path class="cls-6" d="M299.34,374.29c-.08-.31-.15-.62-.23-.93C299.19,373.67,299.26,374,299.34,374.29Z" transform="translate(-287.94 -311.5)"/><path class="cls-6" d="M294.79,355q-.68-2.89-1.35-5.72Q294.12,352.08,294.79,355Z" transform="translate(-287.94 -311.5)"/><path class="cls-7" d="M293.44,349.26q.68,2.82,1.35,5.72c0,.13.07.27.1.4q.69,2.92,1.38,5.91.64,2.79,1.31,5.63c.08.31.15.62.22.93q.65,2.75,1.31,5.51c.08.31.15.62.23.93.11.47.23.95.35,1.42,7.84-3.78,19.11-8.51,33.66-8.18-17.09-5.52-30.71-11-39.92-18.32Z" transform="translate(-287.94 -311.5)"/><path class="cls-8" d="M420.54,317.49a1.11,1.11,0,0,0-1.72-.78c-12.2,7.91-23.76,10.89-39.29,8.16-20.26-3.58-26.37-12.64-45.69-13.33-19.91-.7-34.78,6.93-45.35,14.9a1.13,1.13,0,0,0-.51,1.18c3.81,11.12,11.27,48.84,17.76,70.05.2.67,1.05,1.33,1.68,1,15.52-7.15,33.69-6.9,59.2,2,23.5,8.17,44.34,8.61,64.74-2.12a1.1,1.1,0,0,0,.57-1.13C429.34,378.55,423.36,339.69,420.54,317.49Z" transform="translate(-287.94 -311.5)"/><path class="cls-9" d="M307.42,398.71c15.52-7.15,33.69-6.9,59.2,2,23.5,8.17,44.34,8.61,64.74-2.12a1.1,1.1,0,0,0,.57-1.13c-.38-2.78-.84-6-1.35-9.55-12.72,13.71-33.64,10.15-48.9.18-17.39-11.37-27.8-16.06-47.39-20.84-17-4.14-32.78-7.16-41.46-21.22,3.82,16.05,8.58,37.53,12.91,51.67C305.94,398.34,306.79,399,307.42,398.71Z" transform="translate(-287.94 -311.5)"/><path class="cls-9" d="M418.82,316.71c-12.2,7.91-23.76,10.89-39.29,8.16-19.71-3.48-26-12.16-44.15-13.25,29.92,9.86,31.33,27.94,51.46,34.43,12.65,4.07,26.36,3.35,35.43-15.63-.65-4.69-1.24-9.06-1.73-12.93A1.11,1.11,0,0,0,418.82,316.71Z" transform="translate(-287.94 -311.5)"/><path class="cls-8" d="M317.93,339.44a77.55,77.55,0,0,1,16.62-2.12l-1.65-8.62A76.08,76.08,0,0,0,316.15,331l-1.79-8.53-1.74-8.34a70.29,70.29,0,0,0-9.83,3.58l1.9,8.11L306.6,334a69.13,69.13,0,0,0-15.06,8.12h0l.42,1.68c0,.11.06.22.08.32.14.55.27,1.11.41,1.67l.1.38q.19.84.42,1.71c0,.11,0,.23.08.34l.45,1.87a67.88,67.88,0,0,1,15-7.8l1.93,8.3,2,8.59a63.15,63.15,0,0,1,9-2.57l-1.82-8.69Z" transform="translate(-287.94 -311.5)"/><path class="cls-10" d="M430.69,388.59c-20.8,11.71-43.79,10.19-65.37,1.75a98.44,98.44,0,0,0-21.76-6,62.6,62.6,0,0,0-16.31-.3,57.44,57.44,0,0,0-8.59,1.68A66.37,66.37,0,0,0,304,391.76c.58,2.08,1.15,4.06,1.72,5.91.2.67,1.05,1.33,1.68,1,13-6,27.79-6.76,47.18-1.7l2.41.64.53.15q4.4,1.23,9.12,2.86c23.5,8.16,44.34,8.59,64.73-2.15a1.07,1.07,0,0,0,.44-.43,1.11,1.11,0,0,0,.1-.65C431.58,394.84,431.15,391.85,430.69,388.59Z" transform="translate(-287.94 -311.5)"/><path class="cls-10" d="M338.54,337.34c19.32.67,26.41,10.48,46.67,14,14.18,2.49,26.37-.66,38.75-9q-.65-4.46-1.23-8.69c-12.69,8.51-25.87,11.23-40.25,8.7-20.26-3.56-26.38-13-45.7-13.7-1.3,0-2.59,0-3.88,0l1.65,8.62C335.88,337.29,337.21,337.29,338.54,337.34Z" transform="translate(-287.94 -311.5)"/><path class="cls-10" d="M319.7,347.93l1.82,8.69A68,68,0,0,1,338,355.31c.9,0,1.8.08,2.72.15,16.91,1.3,26,9.89,46.23,13.45,13.91,2.45,27.17-.8,39.57-8.82L425.2,351c-12.28,8-24.88,11.26-38.8,8.82-20.23-3.56-27-11.93-45.9-13.36-1.42-.1-2.83-.15-4.23-.18l-1.72-9a77.55,77.55,0,0,0-16.62,2.12Z" transform="translate(-287.94 -311.5)"/><path class="cls-10" d="M304.69,325.77l-1.87-8a79.26,79.26,0,0,0-14.33,8.67,1.13,1.13,0,0,0-.51,1.18c1,3.05,2.36,8.12,3.87,14.29A69.09,69.09,0,0,1,306.6,334Z" transform="translate(-287.94 -311.5)"/><path class="cls-10" d="M316.62,377a60,60,0,0,1,8.75-1.93,61.47,61.47,0,0,1,16.39-.1,91,91,0,0,1,20.73,5.35c22.06,8.29,45.65,10.61,66.75-1.66-.44-3-.89-6.07-1.36-9.25-21.3,12.76-45.27,10.07-67.24.78a71.28,71.28,0,0,0-20.84-5.45,61,61,0,0,0-16.47.6,60.15,60.15,0,0,0-8.9,2.27,64.78,64.78,0,0,0-14.79,7.24c.71,2.89,1.42,5.74,2.13,8.5A75.32,75.32,0,0,1,316.62,377Z" transform="translate(-287.94 -311.5)"/><path class="cls-10" d="M312.48,359.19l-2-8.59-1.93-8.3a68.07,68.07,0,0,0-14.78,7.63c1.26,5.36,2.61,11.17,4,17A61.17,61.17,0,0,1,312.48,359.19Z" transform="translate(-287.94 -311.5)"/><path class="cls-10" d="M379.53,324.87c-20.26-3.58-26.37-12.64-45.69-13.33a67.79,67.79,0,0,0-21.22,2.57l1.74,8.31,1.79,8.53a76.08,76.08,0,0,1,16.75-2.25l-1.71-8.93c1.65-.06,3.3-.08,5,0,19.32.68,25.43,10,45.69,13.6,14.17,2.49,27.16-.12,39.68-8.33-.36-2.66-.69-5.18-1-7.52a1.11,1.11,0,0,0-1.72-.78C406.62,324.62,395.06,327.6,379.53,324.87Z" transform="translate(-287.94 -311.5)"/><path class="cls-11" d="M297.76,367a60.77,60.77,0,0,1,12.27-6.8,37.26,37.26,0,0,1-15-11c-.42.27-.83.55-1.23.83C295,355.29,296.37,361.1,297.76,367Z" transform="translate(-287.94 -311.5)"/><path class="cls-11" d="M382.48,342.42c-1.89-.33-3.67-.72-5.34-1.14a36.71,36.71,0,0,0,9.7,4.77c11.29,3.63,23.42,3.44,32.34-10.13A52.25,52.25,0,0,1,382.48,342.42Z" transform="translate(-287.94 -311.5)"/><path class="cls-11" d="M431.93,397.43c-.35-2.6-.78-5.59-1.25-8.86-.59.34-1.13.64-1.29.72-6.49,6.79-15.66,8.71-25.1,7.46-13,1.14-26.22-1.43-39-6.41a98.44,98.44,0,0,0-21.76-6,62.6,62.6,0,0,0-16.31-.3,57.44,57.44,0,0,0-8.59,1.68A66.37,66.37,0,0,0,304,391.76c.58,2.08,1.15,4.06,1.72,5.91.2.67,1.05,1.33,1.68,1,15.52-7.15,33.69-6.9,59.2,2,23.5,8.17,44.34,8.61,64.74-2.12A1.1,1.1,0,0,0,431.93,397.43Z" transform="translate(-287.94 -311.5)"/><path class="cls-11" d="M316.62,377a60,60,0,0,1,8.75-1.93,61.47,61.47,0,0,1,16.39-.1,91,91,0,0,1,20.73,5.35,118.59,118.59,0,0,0,13.64,4.24c-14.26-8.86-24.43-13-41.84-17.29-3.08-.75-6.13-1.47-9.11-2.22-.62.09-1.23.18-1.85.29a60.15,60.15,0,0,0-8.9,2.27,64.78,64.78,0,0,0-14.79,7.24c.71,2.89,1.42,5.74,2.13,8.5A75.32,75.32,0,0,1,316.62,377Z" transform="translate(-287.94 -311.5)"/><path class="cls-11" d="M379.53,324.87c-18.95-3.35-25.52-11.5-42.11-13.09-.67-.06-1.34-.12-2-.16a66.84,66.84,0,0,1,25.71,14.93,82.09,82.09,0,0,0,20.76,6.79c14.17,2.49,27.16-.12,39.68-8.33-.36-2.66-.69-5.18-1-7.52a1.11,1.11,0,0,0-1.72-.78C406.62,324.62,395.06,327.6,379.53,324.87Z" transform="translate(-287.94 -311.5)"/></svg>