<?xml version="1.0" encoding="utf-8"?>
<!-- Generator: Adobe Illustrator 24.0.1, SVG Export Plug-In . SVG Version: 6.00 Build 0)  -->
<svg version="1.1" id="Layer_1" xmlns="http://www.w3.org/2000/svg" xmlns:xlink="http://www.w3.org/1999/xlink" x="0px" y="0px"
	 viewBox="0 0 97.4 60.9" style="enable-background:new 0 0 97.4 60.9;" xml:space="preserve">
<style type="text/css">
	.st0{fill:#FFFFFF;}
	.st1{fill:#EF4130;}
	.st2{fill:#225AA9;}
	.st3{fill:#ECEFF3;}
	.st4{fill:#DA2128;}
	.st5{fill:#004C9C;}
</style>
<g>
	<g>
		<path class="st0" d="M0.9,14.8c-0.3-0.9-0.6-1.8-0.9-2.6c-0.1-0.4,0-0.8,0.3-1.1C0.9,10.7,1.7,10,1.8,10C7.1,5.8,17.6,0,30.1,0
			l0,0c0.3,0,0.5,0,0.8,0c4.4,0.1,9.1,0.9,13.9,2.8c6,2.4,11.2,3.9,15.9,4.6C70.8,8.9,78.3,6.5,86,1.1c0.6-0.4,1.4-0.1,1.5,0.6
			c0.2,1.2,0.4,2.4,0.6,3.7c0.1,0.8,0.3,1.6,0.4,2.4c-15.1,9.7-31.7,6.1-40.1,3.4C40.6,8.7,31.7,6.5,28,6.3
			C16.7,5.8,6.7,11.6,0.9,14.8z M36.1,46.6c3.7,0.2,12.6,2.4,20.5,4.9c8.4,2.7,24.8,5.8,39.8-3.3c-0.1-0.3-0.1-0.6-0.2-0.9
			c-0.4-1.9-0.7-3.8-1.1-5.8c0-0.2-0.1-0.3-0.1-0.5c-15,8.9-31.1,5.7-39.5,3.1c-7.9-2.5-16.7-4.7-20.5-4.9
			c-10.3-0.5-19.1,3.4-24.9,6.4c0.7,2.3,1.4,4.5,2.1,6.7C18,49.5,26.4,46.2,36.1,46.6z M31.9,26.4c3.7,0.2,12.6,2.4,20.5,4.9
			c8.5,2.7,24.9,5.8,40.1-3.4c-0.5-2.3-0.9-4.6-1.4-6.9c-15.1,9.2-31.6,6.1-40,3.4c-7.9-2.5-16.7-4.7-20.5-4.9
			c-11-0.5-20.3,3.9-26,7c0.6,2.2,1.3,4.4,1.9,6.6C12.2,30,21.3,25.9,31.9,26.4z"/>
	</g>
	<g>
		<path class="st1" d="M8.3,39.7c-0.6-2.2-1.3-4.4-1.9-6.6c5.8-3.1,14.8-7.2,25.4-6.7c3.7,0.2,12.6,2.4,20.5,4.9
			c8.5,2.7,24.9,5.8,40.1-3.4c0.5,2.3,0.9,4.6,1.4,6.9c-14.9,8.5-30.8,5.4-39,2.8c-7.9-2.5-16.7-4.7-20.5-4.9
			C23.3,32.2,14.1,36.5,8.3,39.7z M15.5,58.5c5.4-2.9,13.6-5.3,26.8-3.3c3.7,0.6,7.7,1.4,12.1,2.8c6,1.8,11.3,2.7,16.1,2.9
			c11.8,0.7,20.2-2.5,26.4-6.2c0.4-0.2,0.5-0.6,0.5-1c-0.3-1.8-0.6-3.6-1-5.4c-15.1,9.1-31.4,5.9-39.8,3.3
			c-7.9-2.5-16.7-4.7-20.5-4.9c-9.7-0.5-18,2.9-23.8,5.8c0.6,1.8,1.2,3.7,1.9,5.5C14.3,58.5,15,58.8,15.5,58.5z M29.7,12.9
			c3.7,0.2,12.6,2.4,20.5,4.9c8.4,2.6,24.7,5.8,39.7-3.2c-0.3-1.8-0.7-3.6-1-5.4c0,0,0,0,0,0c-0.1-0.5-0.2-1-0.3-1.4
			c-15.1,9.7-31.7,6.1-40.1,3.4C40.6,8.7,31.7,6.5,28,6.3c-11.3-0.5-21.3,5.2-27,8.5c0.4,1,0.7,1.9,0.8,2.3c0.1,0.2,0.1,0.4,0.2,0.6
			c0.3,0.8,0.5,1.6,0.8,2.5c0,0.1,0.1,0.2,0.1,0.3C8.4,17.3,18.1,12.4,29.7,12.9z"/>
	</g>
	<g>
		<path class="st2" d="M4.6,26.5c-0.3-1-0.6-2.1-0.9-3.1c-0.3-1-0.6-2-0.9-2.9c0,0,0,0,0,0c5.6-3.1,15.3-8.1,26.9-7.5
			c3.7,0.2,12.6,2.4,20.5,4.9c8.4,2.6,24.7,5.8,39.7-3.2c0.4,2.1,0.8,4.2,1.2,6.3c-15.1,9.2-31.6,6.1-40,3.4
			c-7.9-2.5-16.7-4.7-20.5-4.9C19.6,18.9,10.3,23.3,4.6,26.5z M35.1,39.3c3.7,0.2,12.6,2.4,20.5,4.9c8.4,2.6,24.5,5.8,39.5-3.1
			c-0.1-0.5-0.2-0.9-0.3-1.4c-0.3-1.7-0.7-3.3-1-5c-14.9,8.5-30.8,5.4-39,2.8c-7.9-2.5-16.7-4.7-20.5-4.9c-10.9-0.5-20.2,3.8-25.9,7
			c0.6,2,1.2,4.1,1.8,6.1C15.9,42.7,24.7,38.8,35.1,39.3z"/>
	</g>
	<g>
		<g>
			<path class="st3" d="M96.1,46.8c-6.7,6.9-18.3,8.2-27.4,4.7c-1.8-0.7-7.2-3.5-13.3-7.3c-7.9-2.5-16.6-4.7-20.3-4.8
				c-10.3-0.5-19.1,3.4-24.9,6.4c0,0,0,0,0,0c0.7,2.2,1.4,4.5,2.1,6.7c0,0,0,0,0,0c5.8-2.9,14.1-6.3,23.8-5.8
				c3.7,0.2,12.6,2.4,20.5,4.9c8.4,2.7,24.8,5.8,39.8-3.3c0-0.2-0.1-0.3-0.1-0.5c0-0.1,0-0.2-0.1-0.4C96.2,47.2,96.2,47,96.1,46.8z"
				/>
		</g>
		<g>
			<path class="st3" d="M30.2,0c-0.1,0-0.1,0-0.2,0c0.3,0.1,0.5,0.1,0.8,0.2c7.3,2,16.2,7.2,21.8,12.2c9.1,2.2,23,3.6,35.9-4.6
				c-0.4-2-0.7-4.1-1.1-6.1c0-0.2-0.1-0.3-0.2-0.4c-0.2-0.3-0.5-0.4-0.9-0.4c0,0,0,0,0,0c0,0-0.1,0-0.1,0c-0.1,0-0.3,0.1-0.4,0.2
				c-5.7,4-11.2,6.4-17.8,6.7c-0.7,0-1.4,0.1-2.1,0.1c-0.9,0-1.8-0.1-2.7-0.1s-1.8-0.2-2.8-0.3C56,6.7,50.8,5.2,44.7,2.8
				c-0.6-0.2-1.2-0.5-1.8-0.7c-1.2-0.4-2.4-0.8-3.5-1c-1.2-0.3-2.3-0.5-3.5-0.7C34.2,0.2,32.5,0,30.8,0C30.6,0,30.4,0,30.2,0z"/>
		</g>
		<g>
			<path class="st3" d="M31.9,26.4c0.3,0,0.6,0,0.9,0.1c-3.6-2.9-7-5-10.2-6.6c-7.5,1.2-13.7,4.2-18,6.6c0.3,1,0.6,2.1,0.9,3.1
				c0.1,0.2,0.1,0.4,0.2,0.6c0.3,1,0.6,1.9,0.8,2.9C12.2,30,21.3,25.9,31.9,26.4z"/>
		</g>
	</g>
	<g>
		<g>
			<path class="st4" d="M34.3,32.7c1.6,0.1,4,0.5,6.9,1.2c-0.8-0.7-1.6-1.4-2.3-2c-2.1-2-4.1-3.8-6.1-5.3c-0.3,0-0.6-0.1-0.9-0.1
				C21.3,25.9,12.3,30,6.5,33.1c0,0,0,0.1,0,0.1c0.6,2.1,1.2,4.2,1.8,6.4c0,0,0,0,0,0.1C14.1,36.5,23.3,32.2,34.3,32.7z"/>
		</g>
		<g>
			<path class="st4" d="M10.7,16.6c-2.9-0.3-5.9-0.3-9.2-0.2c0,0.1,0.1,0.2,0.1,0.3c0,0,0,0.1,0,0.1c0,0.1,0.1,0.2,0.1,0.3
				c0,0,0,0,0,0.1c0.1,0.2,0.1,0.4,0.2,0.6c0.3,0.8,0.5,1.6,0.8,2.5c0,0,0,0.1,0,0.1c0,0.1,0,0.1,0,0.2C4.9,19.3,7.6,17.9,10.7,16.6
				z"/>
		</g>
		<g>
			<path class="st4" d="M97.4,53.6c-0.1-0.7-0.3-1.5-0.4-2.3c-0.2-1-0.4-2.1-0.6-3.1c-15.1,9.1-31.4,5.9-39.8,3.3
				c-7.9-2.5-16.7-4.7-20.5-4.9c-9.7-0.5-18,2.9-23.8,5.8c0,0,0,0,0,0c0.2,0.7,0.5,1.4,0.7,2.1c0.4,1.1,0.8,2.2,1.2,3.3c0,0,0,0,0,0
				c0.2,0.4,0.6,0.7,1,0.6c0.1,0,0.3,0,0.4-0.1c0.3-0.2,0.7-0.4,1.1-0.5c0.7-0.4,1.5-0.7,2.3-1c2-0.8,4.4-1.5,7.1-2
				c0.5-0.1,1.1-0.2,1.7-0.2c1.7-0.2,3.6-0.3,5.6-0.3c2.7,0,5.7,0.2,9,0.7c3.7,0.6,7.7,1.4,12.1,2.8c6,1.8,11.3,2.7,16.1,2.9
				c0.7,0,1.5,0.1,2.2,0.1c2.8,0,5.5-0.1,7.9-0.5c0.6-0.1,1.2-0.2,1.8-0.3c1.8-0.3,3.4-0.8,5-1.2c0.5-0.2,1-0.3,1.5-0.5
				c3-1.1,5.6-2.4,8-3.7c0.2-0.1,0.3-0.3,0.4-0.4C97.4,54,97.4,53.8,97.4,53.6z"/>
		</g>
		<g>
			<path class="st4" d="M52.7,12.4c0.5,0.5,1.1,1,1.5,1.4c1.9,1.9,4.9,4.1,8.5,5.8c0,0,0,0,0,0c0,0,0,0,0,0c0.7,0.3,1.3,0.6,2,0.9
				c5.9,0.3,12.5-0.3,19.1-3c1.9-2,3.6-4.7,4.9-8.4c-0.1-0.5-0.2-1-0.3-1.4C75.7,16,61.8,14.6,52.7,12.4z"/>
		</g>
	</g>
	<g>
		<g>
			<path class="st5" d="M35.1,39.3c3.7,0.2,12.5,2.4,20.3,4.8c-4.7-3-9.9-6.6-14.2-10.3c-2.9-0.7-5.3-1.1-6.9-1.2
				c-10.9-0.5-20.2,3.8-25.9,7c0,0,0,0,0,0c0.6,2,1.2,4,1.8,6.1c0,0,0,0,0,0C15.9,42.7,24.7,38.8,35.1,39.3z"/>
		</g>
		<g>
			<path class="st5" d="M22.6,19.9c-4-1.9-7.9-2.9-11.9-3.3c-3.1,1.3-5.8,2.7-7.9,3.9c0,0,0,0,0,0c0,0,0,0,0,0
				c0.3,1,0.6,1.9,0.9,2.9c0.1,0.2,0.1,0.5,0.2,0.8c0.2,0.8,0.5,1.6,0.7,2.3C8.9,24.1,15.1,21.1,22.6,19.9z"/>
		</g>
		<g>
			<path class="st5" d="M64.8,20.5c6.2,2.5,13.6,2.9,19.1-3C77.3,20.2,70.6,20.8,64.8,20.5z"/>
		</g>
	</g>
	<g>
		<path class="st2" d="M30.8,0c-0.3,0-0.5,0-0.8,0l0,0C17.6,0,7.1,5.8,1.8,10c-0.1,0-0.9,0.7-1.4,1.2c-0.3,0.3-0.4,0.7-0.3,1.1
			c0.6,1.6,1.5,4.2,1.7,4.8c0.1,0.2,0.1,0.4,0.2,0.6c0.3,0.8,0.5,1.6,0.8,2.5c0,0.1,0.1,0.2,0.1,0.3c0.3,1,0.6,1.9,0.9,2.9
			c0.9,3.1,1.9,6.4,2.8,9.7c5.8-3.1,14.8-7.2,25.4-6.7c3.7,0.2,12.6,2.4,20.5,4.9c0,0-5.1-21.9-6.6-28c-0.4-0.1-0.7-0.3-1.1-0.4
			C39.9,0.9,35.3,0.1,30.8,0z"/>
	</g>
	<g>
		<g>
			<path class="st5" d="M1.5,16.4C1.5,16.4,1.5,16.4,1.5,16.4c0.1,0.3,0.2,0.6,0.2,0.7c0.1,0.2,0.1,0.4,0.2,0.6
				c0.3,0.8,0.5,1.6,0.8,2.5c0,0.1,0.1,0.2,0.1,0.3c0.3,1,0.6,1.9,0.9,2.9c0.4,1.2,0.7,2.5,1.1,3.8c0.1,0.2,0.1,0.4,0.2,0.6
				C5.3,29,5.7,30.3,6,31.6c0.1,0.5,0.3,1,0.4,1.5c5.8-3.1,14.8-7.2,25.4-6.7c0.3,0,0.6,0,0.9,0.1C21.3,17.3,12.7,15.9,1.5,16.4z"/>
		</g>
		<g>
			<path class="st5" d="M30.2,0c-0.1,0-0.1,0-0.2,0c0.3,0.1,0.5,0.1,0.8,0.2c5.1,1.4,11,4.3,16,7.7c-0.4-1.9-0.8-3.6-1.1-4.7
				c-0.4-0.1-0.7-0.3-1.1-0.4c-0.6-0.2-1.2-0.5-1.8-0.7c-1.2-0.4-2.4-0.8-3.5-1c-1.2-0.3-2.3-0.5-3.5-0.7C34.2,0.2,32.5,0,30.8,0
				C30.6,0,30.4,0,30.2,0z"/>
		</g>
	</g>
	<g>
		<path class="st1" d="M37,17.2c4.7,2.6,9.4,6,14.4,10.1c0.2,0.7,0.3,1.5,0.5,2.2c-6.7-5.6-12.5-9.8-18.7-12.7
			C34.5,16.9,35.7,17,37,17.2z M0.4,11.1c4.3,0.1,8.4,0.5,12.6,1.2c0.9-0.3,1.9-0.6,2.9-0.9C11.3,10.5,6.7,10,2,9.8
			C2,9.8,1.9,9.9,1.8,10C1.7,10,1,10.7,0.4,11.1z M8.4,32.1c3.8-5,8.3-10.3,12.6-14.3c-0.1,0-0.3,0.1-0.4,0.1
			c-0.8,0.2-1.6,0.4-2.4,0.6C14,22.7,9.8,27.8,6.3,32.6c0.1,0.2,0.1,0.4,0.2,0.6C7.1,32.8,7.7,32.5,8.4,32.1z M28.1,9.3
			c0.9,0,1.9-0.1,2.8-0.1c5-3,9.4-5.3,13.1-6.7c-0.7-0.3-1.3-0.5-2-0.7C38.1,3.6,33.3,6.1,28.1,9.3z M26.5,11c-1-4-1.9-7.7-2.6-10.5
			c-1.4,0.2-2.8,0.5-4.2,0.8c0.7,2.7,1.6,6.3,2.6,10.2C13.6,13,6.9,16.4,2.4,19.2c0.1,0.3,0.2,0.6,0.3,1c0,0.1,0.1,0.2,0.1,0.3
			c0.3,0.9,0.6,1.9,0.9,2.9c4.3-2.6,10.9-6.2,19.7-7.6c0.9,3.8,1.8,7.6,2.6,10.9c1.4-0.1,2.8-0.2,4.3-0.2c-0.8-3.3-1.7-7.2-2.6-11.2
			c6.4-0.4,13.7,0.4,21.9,3.4c-0.4-1.7-0.7-3.3-1.1-4.9C40.2,11.1,32.9,10.5,26.5,11z"/>
	</g>
	<g>
		<path class="st0" d="M1.9,17.7c0,0,0-0.1,0-0.1c2.5-1.5,5.7-3.2,9.5-4.6C7.6,12.4,3.8,12.1,0,12c0-0.3,0.1-0.6,0.3-0.8
			c0,0,0,0,0,0c4.3,0.1,8.4,0.5,12.6,1.2c0.9-0.3,1.9-0.6,2.9-0.9C11.3,10.5,6.7,10,2,9.8c0.9-0.7,2-1.5,3.3-2.3
			c5,0.4,9.9,1.1,14.9,2.3c-0.8-3.1-1.5-5.9-2-8.1c0.5-0.1,1.1-0.3,1.6-0.4c0.7,2.7,1.6,6.3,2.6,10.2C13.6,13,6.9,16.4,2.4,19.2
			C2.2,18.7,2.1,18.2,1.9,17.7z M51.9,29.5c-6.7-5.6-12.5-9.8-18.7-12.7c1.3,0.1,2.5,0.2,3.8,0.4c4.7,2.6,9.4,6,14.4,10.1
			c-0.1-0.5-0.2-1.1-0.4-1.6c-3.5-2.8-7.2-5.6-11.1-8c3.3,0.6,6.6,1.6,9.9,2.9c-0.1-0.6-0.3-1.3-0.4-1.9c-8.3-3-15.6-3.8-21.9-3.4
			c0.9,4,1.9,7.9,2.6,11.2c0.6,0,1.1,0,1.7,0c-0.6-2.6-1.3-5.7-2.1-8.8c6.6,2.8,12.6,7,19.6,12.8c1,0.3,1.9,0.6,2.8,0.9
			C52.2,30.7,52,30.1,51.9,29.5z M23.3,15.7c-8.8,1.4-15.4,5-19.7,7.6c0,0,0,0,0,0C3.8,23.9,4,24.5,4.1,25c2.4-1.5,5.6-3.3,9.5-4.9
			c-3,3.2-5.8,6.7-8.1,9.8c0.3,0.9,0.5,1.8,0.8,2.7c3.5-4.8,7.7-9.9,11.9-14.1c0.8-0.2,1.6-0.4,2.4-0.6c0.1,0,0.3-0.1,0.4-0.1
			c-4.4,4-8.9,9.3-12.6,14.3c0.7-0.3,1.4-0.7,2.1-1.1c3.6-4.6,7.7-9.3,11.7-12.8c0.7,3,1.4,6,2,8.6c0.5-0.1,1.1-0.1,1.6-0.2
			C25.1,23.3,24.2,19.5,23.3,15.7z M26.5,11c6.4-0.5,13.7,0.1,21.9,2.8c-0.1-0.6-0.3-1.2-0.4-1.8c-4.5-1.4-8.7-2.1-12.6-2.5
			c4.2-2.3,7.9-4.1,10.9-5.1c-0.1-0.3-0.2-0.7-0.2-1c-0.4-0.2-0.8-0.3-1.3-0.5c-0.2-0.1-0.5-0.2-0.7-0.3C40.4,4,35.9,6.3,30.9,9.3
			c-1,0-1.9,0-2.8,0.1c5.2-3.2,10-5.8,14-7.5c-0.4-0.1-0.9-0.3-1.3-0.4c-3.8,1.7-8.3,4.1-13.1,7.1c-0.8-3.1-1.5-6-2.1-8.3
			c-0.6,0.1-1.1,0.1-1.6,0.2C24.7,3.3,25.6,7.1,26.5,11z"/>
	</g>
	<g>
		<g>
			<path class="st0" d="M21.1,19.2c-0.4-0.2-0.7-0.3-1.1-0.4c-4,3.8-8.1,8.7-11.6,13.3c0.7-0.3,1.4-0.7,2.1-1.1
				C13.8,26.8,17.5,22.6,21.1,19.2z"/>
		</g>
		<g>
			<path class="st0" d="M30.2,26.4c0.6,0,1.1,0,1.7,0c-0.1-0.3-0.1-0.6-0.2-0.9c-0.7-0.5-1.4-1-2-1.5C29.8,24.9,30,25.7,30.2,26.4z"
				/>
		</g>
		<g>
			<path class="st0" d="M13.6,20.1c-3,3.2-5.8,6.7-8.1,9.8c0.1,0.5,0.3,1,0.4,1.4c0.1,0.4,0.2,0.8,0.4,1.3
				c3.5-4.8,7.7-9.9,11.9-14.1c0.2-0.1,0.4-0.1,0.6-0.1c-1-0.3-1.9-0.6-2.9-0.9c-5.2,1.7-9.3,4-12.3,5.8c0,0,0,0,0,0
				C3.8,23.9,4,24.5,4.1,25C6.5,23.5,9.7,21.7,13.6,20.1z"/>
		</g>
		<g>
			<path class="st0" d="M42,1.9c-0.4-0.1-0.9-0.3-1.3-0.4l0,0c-0.9,0.4-1.9,0.9-2.9,1.4c0.3,0.2,0.7,0.3,1,0.5C40,2.8,41,2.3,42,1.9
				z"/>
		</g>
		<g>
			<path class="st0" d="M7.6,16.3c-1.1,0-2.3-0.1-3.5,0c-0.8,0.4-1.5,0.9-2.2,1.3c0,0,0,0.1,0,0.1c0.2,0.5,0.3,1,0.5,1.5
				C3.9,18.3,5.6,17.3,7.6,16.3z"/>
		</g>
		<g>
			<path class="st0" d="M24.2,26.8c0.5-0.1,1.1-0.1,1.6-0.2c-0.4-1.8-0.9-3.7-1.3-5.7c-0.6-0.4-1.3-0.7-1.9-1
				C23.2,22.3,23.8,24.7,24.2,26.8z"/>
		</g>
		<g>
			<path class="st0" d="M40.5,4.1c0.9,0.5,1.8,1,2.6,1.5c1.1-0.5,2.1-0.9,3.1-1.2c-0.1-0.3-0.2-0.7-0.2-1c-0.4-0.2-0.8-0.3-1.3-0.5
				c-0.1,0-0.1-0.1-0.2-0.1c-0.2-0.1-0.3-0.1-0.5-0.2C42.9,3,41.7,3.5,40.5,4.1z"/>
		</g>
	</g>
	<g>
		<path class="st3" d="M31.9,26.5c-0.1-0.3-0.1-0.6-0.2-0.9c-0.7-0.5-1.4-1-2-1.5c0.2,0.8,0.4,1.6,0.5,2.3
			C30.7,26.4,31.3,26.4,31.9,26.5z"/>
	</g>
	<g>
		<path class="st3" d="M42,1.9L42,1.9c-0.4-0.1-0.9-0.3-1.3-0.4l0,0c-0.9,0.4-1.9,0.9-2.9,1.4c0.3,0.2,0.7,0.3,1,0.5
			C40,2.8,41,2.3,42,1.9z"/>
	</g>
	<g>
		<path class="st3" d="M21.1,19.2c-0.4-0.2-0.7-0.3-1.1-0.4c-4,3.8-8.1,8.7-11.6,13.3c0.7-0.3,1.4-0.7,2.1-1.1
			C13.8,26.8,17.5,22.6,21.1,19.2z"/>
	</g>
	<g>
		<path class="st3" d="M13.6,20.1c-3,3.2-5.8,6.7-8.1,9.8c0.1,0.5,0.3,1,0.4,1.4c0.1,0.4,0.2,0.8,0.4,1.3c3.5-4.8,7.7-9.9,11.9-14.1
			c0.2-0.1,0.4-0.1,0.6-0.1c-1-0.3-1.9-0.6-2.9-0.9c-5.2,1.7-9.3,4-12.3,5.8c0,0,0,0,0,0C3.8,23.9,4,24.5,4.1,25
			C6.5,23.5,9.7,21.7,13.6,20.1z"/>
	</g>
	<g>
		<path class="st3" d="M7.6,16.3c-1.1,0-2.3-0.1-3.5,0c-0.8,0.4-1.5,0.9-2.2,1.3c0,0,0,0.1,0,0.1c0.2,0.5,0.3,1,0.5,1.5
			C3.9,18.3,5.6,17.3,7.6,16.3z"/>
	</g>
	<g>
		<path class="st3" d="M40.5,4.1c0.9,0.5,1.8,1,2.6,1.5c1.1-0.5,2.1-0.9,3.1-1.2c-0.1-0.3-0.2-0.7-0.2-1c-0.4-0.2-0.8-0.3-1.3-0.5
			c-0.2-0.1-0.5-0.2-0.7-0.3C42.9,3,41.7,3.5,40.5,4.1z"/>
	</g>
	<g>
		<path class="st3" d="M24.2,26.8c0.5-0.1,1.1-0.1,1.6-0.2c-0.4-1.8-0.9-3.7-1.3-5.7c-0.6-0.4-1.3-0.7-1.9-1
			C23.2,22.3,23.8,24.7,24.2,26.8z"/>
	</g>
	<g>
		<g>
			<path class="st4" d="M20,18.8c-0.4-0.2-0.8-0.3-1.2-0.4c-0.2,0.1-0.4,0.1-0.6,0.1C14,22.7,9.8,27.8,6.3,32.6
				c0.1,0.2,0.1,0.4,0.2,0.6c0.6-0.3,1.3-0.7,1.9-1C11.9,27.5,16,22.6,20,18.8z"/>
		</g>
		<g>
			<path class="st4" d="M25.9,26.6c1.4-0.1,2.8-0.2,4.3-0.2c-0.2-0.7-0.4-1.5-0.5-2.3c-1.8-1.2-3.4-2.3-5.1-3.2
				C25,22.9,25.5,24.8,25.9,26.6z"/>
		</g>
		<g>
			<path class="st4" d="M44,2.6C44,2.6,44,2.6,44,2.6c-0.7-0.3-1.3-0.5-2-0.7l0,0c-1,0.4-2,0.9-3.1,1.4c0.5,0.3,1.1,0.5,1.6,0.8
				C41.7,3.5,42.9,3,44,2.6z"/>
		</g>
		<g>
			<path class="st4" d="M16,17.5c-2.8-0.7-5.5-1-8.4-1.2c-1.9,1-3.7,1.9-5.2,2.8c0.1,0.3,0.2,0.6,0.3,1c0,0.1,0.1,0.2,0.1,0.3
				c0.3,0.9,0.6,1.9,0.9,2.9C6.7,21.5,10.8,19.2,16,17.5z"/>
		</g>
	</g>
</g>
</svg>
