<?xml version="1.0" encoding="UTF-8"?> <!-- Generator: Adobe Illustrator 25.3.1, SVG Export Plug-In . SVG Version: 6.00 Build 0) --> <svg xmlns="http://www.w3.org/2000/svg" xmlns:xlink="http://www.w3.org/1999/xlink" version="1.1" id="Layer_1" x="0px" y="0px" viewBox="0 0 99.7 65" style="enable-background:new 0 0 99.7 65;" xml:space="preserve"> <style type="text/css"> .st0{fill:#EE342E;} .st1{fill-rule:evenodd;clip-rule:evenodd;fill:#FFFFFF;} .st2{opacity:7.000000e-02;} </style> <g> <path class="st0" d="M98.7,51.8c-0.3-2-0.6-4-0.9-6.1c-0.1-0.6-0.2-1.3-0.3-1.9c-1.7-10.6-3.5-21.5-5-32c0,0,0,0,0,0 c-0.2-1.3-0.4-2.7-0.6-4c-0.2-1.3-0.4-2.6-0.5-3.8c-0.1-0.8-0.9-1.1-1.6-0.7c-8.2,5.4-16.1,7.6-26.6,5.6C58.4,8,53.1,6.3,46.9,3.5 C42,1.3,37.1,0.3,32.5,0c-0.3,0-0.5,0-0.8,0l0,0C18.7-0.5,7.6,5.2,1.9,9.3C1.9,9.3,1,10,0.4,10.5c-0.3,0.3-0.5,0.7-0.3,1.1 c0.5,1.7,1.4,4.4,1.5,5.1c0.1,0.2,0.1,0.4,0.2,0.6C2,18.1,2.2,19,2.5,19.9c0,0.1,0.1,0.2,0.1,0.3c0.3,1,0.5,2,0.8,3.1l0,0 c2.9,11.3,5.8,24.4,9.5,36.3c0.2,0.6,0.9,0.9,1.4,0.6c5.8-2.8,14.4-5,28-2.4c3.8,0.7,7.9,1.8,12.5,3.3c6.2,2.1,11.7,3.2,16.7,3.7 c12.2,1.1,21.1-1.9,27.7-5.4c0.4-0.2,0.6-0.6,0.5-1C99.4,56.2,99,54,98.7,51.8z"></path> </g> <path class="st1" d="M51.5,20.6l-0.7,0.6L50,20.6l0.3,0.9L49.6,22l0.9,0l0.3,0.9l0.3-0.9l0.9,0l-0.8-0.5L51.5,20.6L51.5,20.6z M46.7,40.8l0.9,0l0.3,0.9l0.3-0.9l0.9,0l-0.7-0.5l0.3-0.9l-0.7,0.5l-0.7-0.5l0.3,0.9L46.7,40.8L46.7,40.8L46.7,40.8z M41.2,43.1 c1.7,0.1,3-1,2.9-2.8c0-0.8,0.2-1.6,0.7-2.3c0.5-0.7,1.2-1.3,2.2-1.6c1.7-0.7,3.4,0.3,4.8-1.3c0.6-0.8,1-1.7,0.8-2.9 c0.4,1.5,0.4,2.9-0.1,4.1c-0.5,1.3-1.5,2.4-3.1,3.4l0.1,0.2c1.7-1,2.7-2.1,3.2-3.5c0.5-1.3,0.5-2.7,0-4.3c1.1,2.1,1.5,4,1.1,6.4 c-1.2,4.1-5,6.8-9.2,6.1C43.4,44.4,42.2,43.9,41.2,43.1L41.2,43.1L41.2,43.1z M62.3,27.2l-0.9,0l-0.3,0.9l-0.3-0.9l-0.9,0l0.7-0.5 l-0.3-0.9l0.7,0.6l0.7-0.5l-0.3,0.9L62.3,27.2L62.3,27.2L62.3,27.2z M68.1,28.6c-0.4-1.3-1-2.4-1.9-3.3c-3-3-7.7-3.2-11.1-0.5 c-1.7,1.7-2.5,3.4-2.8,5.8c0.6-1.5,1.4-2.7,2.5-3.4c1.2-0.8,2.7-1.1,4.6-0.9l0,0.2c-1.9-0.2-3.3,0.1-4.5,0.9 c-1.1,0.7-1.9,1.8-2.4,3.3c0.5-1,1.4-1.5,2.3-1.8c2.1-0.5,3,1.4,4.7,1.8c1,0.4,1.9,0.3,2.7,0c0.8-0.3,1.5-0.8,1.9-1.5 C65.1,27.6,66.8,27.5,68.1,28.6L68.1,28.6L68.1,28.6z M59.5,39.7l-0.3-0.9l-0.9,0l0.7-0.6l-0.3-0.9l0.8,0.5l0.7-0.6l-0.3,0.9 l0.8,0.5l-0.9,0L59.5,39.7L59.5,39.7L59.5,39.7z M60.1,45.7c1-0.8,1.8-1.8,2.4-2.9c1.8-3.9,0.3-8.4-3.3-10.7 c-2.2-1.1-4.1-1.2-6.3-0.8c1.6,0,3,0.4,4.1,1.3c1.1,0.9,1.9,2.2,2.4,4.1l-0.2,0c-0.5-1.8-1.2-3.1-2.3-4c-1-0.8-2.3-1.2-3.9-1.2 c1.1,0.2,1.9,0.8,2.5,1.6c1.2,1.9-0.2,3.3-0.1,5.1c0,1.1,0.4,1.9,0.9,2.5c0.5,0.7,1.3,1.1,2,1.3C60,42.4,60.7,44.1,60.1,45.7 L60.1,45.7L60.1,45.7z M42,29l0.8,0.5l0.7-0.6l-0.3,0.9l0.8,0.5l-0.9,0l-0.2,0.9l-0.3-0.9l-0.9,0l0.7-0.6L42,29L42,29L42,29z M38,24.6c-0.4,1.3-0.5,2.5-0.2,3.8c0.8,4.2,4.7,7,8.9,6.7c2.4-0.4,4-1.4,5.5-3.2c-1.3,0.9-2.6,1.4-4,1.4c-1.4,0-2.8-0.6-4.3-1.9 l0.1-0.2c1.4,1.2,2.8,1.8,4.2,1.8c1.3,0,2.6-0.5,3.8-1.3c-1,0.5-2,0.5-2.9,0.2c-2-0.8-1.7-2.8-2.9-4.1c-0.6-0.9-1.4-1.3-2.2-1.5 c-0.8-0.2-1.7-0.2-2.4,0.1C40,27.1,38.4,26.2,38,24.6L38,24.6L38,24.6z M54.5,15.4c-1.4,0.9-1.8,2.7-0.7,4c0.5,0.6,0.8,1.4,0.8,2.2 c0,0.9-0.1,1.7-0.7,2.6c-0.9,1.6-2.9,1.8-3,4c0,1,0.3,2,1.1,2.8c-1.2-0.9-2-2-2.4-3.3c-0.4-1.3-0.3-2.8,0.4-4.6l-0.2-0.1 c-0.7,1.8-0.8,3.3-0.4,4.7c0.4,1.3,1.3,2.5,2.5,3.5c-2.1-1-3.6-2.3-4.7-4.4c-1.5-4-0.1-8.5,3.6-10.6C51.9,15.7,53.2,15.4,54.5,15.4 L54.5,15.4L54.5,15.4z"></path> <g class="st2"> <path d="M98.7,51.8c-7.1,7.9-18.2,7.7-28.8,3.2c-3.5-1.5-6.9-3.4-10.2-5.6C53,44.7,46.1,42,39.4,40.1c-15.5-4.5-29.6-4.9-36-16.8 c2.9,11.3,5.8,24.4,9.5,36.3c0.2,0.6,0.9,0.9,1.4,0.6c5.8-2.8,14.4-5,28-2.4c3.8,0.7,7.9,1.8,12.5,3.3c6.2,2.1,11.7,3.2,16.7,3.7 c12.2,1.1,21.1-1.9,27.7-5.4c0.4-0.2,0.6-0.6,0.5-1C99.4,56.2,99,54,98.7,51.8z"></path> </g> <g class="st2"> <path d="M91.4,4c-0.1-0.8-0.9-1.1-1.6-0.7c-8.2,5.4-16.1,7.6-26.6,5.6C58.4,8,53.1,6.3,46.9,3.5C42,1.3,37.1,0.3,32.5,0 c-0.3,0-0.5,0-0.8,0c0.3,0.1,0.6,0.2,0.9,0.2c8.3,2.6,18.4,9.2,23.8,15.1c1.9,2,5,4.5,8.6,6.4c0,0,0,0,0,0c0,0,0,0,0,0 c8.8,4.6,21,6,27.6-9.9C92.1,9.2,91.7,6.6,91.4,4z"></path> </g> </svg> 