<svg id="Layer_17" data-name="Layer 17" xmlns="http://www.w3.org/2000/svg" viewBox="0 0 144.01 95.63"><defs><style>.cls-1{fill:#225aa9;}.cls-2{fill:#fff;}.cls-3{fill:#004c9c;}.cls-4{fill:#eceff3;}.cls-5{fill:#ef4130;}.cls-6{fill:#da2128;}</style></defs><path class="cls-1" d="M421,317.85a1.1,1.1,0,0,0-1.71-.8C407.05,324.89,395.48,327.8,380,325c-20.25-3.69-26.3-12.8-45.61-13.6-19.92-.83-35.4,6.75-46,14.66a1.05,1.05,0,0,0-.37,1.18c3.75,11.14,11.49,49.55,17.85,70.8a1.13,1.13,0,0,0,1.57.67c15.57-7.06,33.73-7,59.19,2,23.46,8.31,44.29,8.89,64.75-1.72a1.12,1.12,0,0,0,.59-1.13C429.44,379,423.7,340.06,421,317.85Z" transform="translate(-287.93 -311.31)"/><path class="cls-2" d="M425,347.62c-11.9,8.16-24.11,11.1-36.33,8.71-8.89-1.74-15.54-4.55-22-7.26a112.6,112.6,0,0,0-16.47-5.92L345.65,313a52.8,52.8,0,0,0-11.29-1.64,70.52,70.52,0,0,0-9.14.23l4.43,29.5a75.64,75.64,0,0,0-35.54,10c1.54,6.55,3.2,13.69,4.89,20.72A54.94,54.94,0,0,1,332.64,361l4.93,32.87a105.17,105.17,0,0,1,20.85,4.14l-4.92-32.78c1.73.69,3.5,1.43,5.37,2.23,7,3,15,6.32,25.9,8.46a63.9,63.9,0,0,0,12.32,1.21,65.33,65.33,0,0,0,30.87-8C427,362.16,425.94,354.81,425,347.62Z" transform="translate(-287.93 -311.31)"/><path class="cls-3" d="M430.62,388.18c.49,3.58.94,6.86,1.31,9.67a1.12,1.12,0,0,1-.59,1.13c-20.46,10.61-41.29,10-64.75,1.72-25.46-9-43.62-9.08-59.19-2a1.13,1.13,0,0,1-1.57-.67c-4.26-14.23-9.13-36.13-13-52.4C301.44,360,317.4,363,334.52,367.2c19.58,4.78,30,9.47,47.39,20.84C397.28,398.09,418.94,401.92,430.62,388.18ZM380,325c-20-3.65-26.15-12.58-44.93-13.56,30.49,9.81,31.78,28.1,52,34.62,12.69,4.09,26.45,3.35,35.52-15.83-.59-4.46-1.13-8.65-1.58-12.35a1.1,1.1,0,0,0-1.71-.8C407.05,324.89,395.48,327.8,380,325Z" transform="translate(-287.93 -311.31)"/><path class="cls-4" d="M346.09,315.9l-.44-2.89a52.72,52.72,0,0,0-10.62-1.6A76.67,76.67,0,0,1,346.09,315.9Z" transform="translate(-287.93 -311.31)"/><path class="cls-4" d="M358.42,398.05l-3.71-24.69a156,156,0,0,0-20.19-6.16l-1-.24,4,27A105.17,105.17,0,0,1,358.42,398.05Z" transform="translate(-287.93 -311.31)"/><path class="cls-4" d="M299,371.8a53.57,53.57,0,0,1,18.72-8.95c-8.56-2.65-16.14-6.24-21.72-12.81-.63.34-1.27.68-1.89,1C295.65,357.63,297.31,364.77,299,371.8Z" transform="translate(-287.93 -311.31)"/><path class="cls-5" d="M425.71,353.11c-12.39,7.9-25.18,10.65-38,8.13-9.4-1.84-16.29-4.75-23-7.56-6.1-2.58-11.93-5-19-6.41L340.44,312a54.85,54.85,0,0,0-6.08-.58c-1.4-.06-2.77-.06-4.13,0l5.22,34.79a71.15,71.15,0,0,0-40.14,10.06c.79,3.38,1.61,6.86,2.43,10.36,7.76-5.36,20.94-11.58,39.23-10.33l5.75,38.31a103.68,103.68,0,0,1,10.42,2.08l-5.8-38.69a103.62,103.62,0,0,1,13.48,5c6.8,2.87,14.5,6.12,24.91,8.16a58.88,58.88,0,0,0,11.3,1.11,61.21,61.21,0,0,0,30.19-8.29C426.72,360.32,426.21,356.71,425.71,353.11Z" transform="translate(-287.93 -311.31)"/><path class="cls-6" d="M297.74,366.54a58.55,58.55,0,0,1,12.34-6.48,41.15,41.15,0,0,1-10.38-6.32c-1.49.77-3,1.57-4.39,2.44C296.1,359.56,296.92,363,297.74,366.54Z" transform="translate(-287.93 -311.31)"/><path class="cls-6" d="M340.66,313.45l-.22-1.5c-1.69-.25-3.48-.44-5.41-.54C337,312.05,338.9,312.73,340.66,313.45Z" transform="translate(-287.93 -311.31)"/><path class="cls-6" d="M349.36,371.42c-3.27-1.1-6.75-2.13-10.58-3.13l3.94,26.23a103.68,103.68,0,0,1,10.42,2.08Z" transform="translate(-287.93 -311.31)"/></svg>