<svg id="Layer_18" data-name="Layer 18" xmlns="http://www.w3.org/2000/svg" viewBox="0 0 144.01 95.63"><defs><style>.cls-1{fill:#f58220;}.cls-2{fill:#00994c;}.cls-3{fill:#fff;}.cls-4{fill:#e1701e;}.cls-5{fill:#008f49;}.cls-6{fill:#eceff3;}.cls-7{fill:#183b7c;}</style></defs><path class="cls-1" d="M338.9,337.2c19.32.8,26.33,10.65,46.57,14.34,14.17,2.59,26.38-.48,38.82-8.72-1.26-9.22-2.42-17.94-3.28-25a1.1,1.1,0,0,0-1.71-.8C407.05,324.89,395.48,327.8,380,325c-20.25-3.69-26.3-12.8-45.61-13.6-19.92-.83-35.4,6.75-46,14.66a1.05,1.05,0,0,0-.37,1.18c1.44,4.29,3.48,12.62,5.8,22.45C305.26,341.75,321.78,336.49,338.9,337.2Z" transform="translate(-287.93 -311.31)"/><path class="cls-2" d="M428.05,369.79c-21.39,12.64-45.35,9.79-67.27.35-22.4-9.65-43.63-7-61.14,4.33,2.09,8.62,4.21,16.91,6.19,23.54a1.13,1.13,0,0,0,1.57.67c15.57-7.06,33.73-7,59.19,2,23.46,8.31,44.29,8.89,64.75-1.72a1.12,1.12,0,0,0,.59-1.13C431,390.7,429.58,380.68,428.05,369.79Z" transform="translate(-287.93 -311.31)"/><path class="cls-3" d="M360.78,370.14c21.92,9.44,45.88,12.29,67.27-.35-1.23-8.77-2.54-18.1-3.76-27-12.44,8.24-24.65,11.31-38.82,8.72-20.24-3.69-27.25-13.54-46.57-14.34-17.12-.71-33.64,4.55-45.12,12.46,1.82,7.75,3.83,16.43,5.86,24.81C317.15,363.11,338.38,360.49,360.78,370.14Z" transform="translate(-287.93 -311.31)"/><path class="cls-4" d="M295,348.84a33.32,33.32,0,0,1-2.21-3.23v0c.24,1,.49,2,.73,3.07v0c.07.3.14.61.22.92C294.18,349.38,294.61,349.11,295,348.84Z" transform="translate(-287.93 -311.31)"/><path class="cls-5" d="M431.93,397.85h0c-.08-.63-.17-1.29-.26-2l-.05-.41c-.3-2.23-.63-4.68-1-7.29-11.68,13.74-33.34,9.91-48.71-.14-17.4-11.37-27.81-16.06-47.39-20.84-3.29-.8-6.53-1.56-9.69-2.37a62.83,62.83,0,0,0-25.19,9.64l.15.6c.15.63.3,1.25.46,1.87s.24,1,.37,1.51.28,1.16.43,1.73.26,1.07.4,1.6.27,1.08.4,1.61l.42,1.64c.13.5.26,1,.39,1.5s.29,1.12.44,1.67.24.93.37,1.39.3,1.14.46,1.7.22.84.34,1.24c.17.63.34,1.24.51,1.85.09.32.18.65.27,1l.78,2.67a1.08,1.08,0,0,0,.63.69,1.18,1.18,0,0,0,.94,0,55.35,55.35,0,0,1,6-2.31,53.84,53.84,0,0,1,6.27-1.62,61.39,61.39,0,0,1,13.65-1.09c1.21,0,2.43.1,3.68.19a91.36,91.36,0,0,1,11.17,1.61c2,.4,4,.88,6.05,1.42,3.94,1,8.06,2.28,12.4,3.82a116.68,116.68,0,0,0,16.61,4.62l.9.18q2.81.51,5.57.86c.83.1,1.66.18,2.48.26a70.18,70.18,0,0,0,23.74-1.73,68.88,68.88,0,0,0,7.76-2.45c1.28-.49,2.57-1,3.85-1.6s2.56-1.2,3.84-1.86a1.11,1.11,0,0,0,.5-.55,1.22,1.22,0,0,0,.09-.57Z" transform="translate(-287.93 -311.31)"/><path class="cls-6" d="M324.83,364.83c-12-3.05-22.7-6.78-29.8-16-.42.27-.85.54-1.25.82.17.74.35,1.49.52,2.24l0,.07c1.16,4.92,2.38,10.15,3.62,15.41l.24,1c.16.7.33,1.39.49,2.08.11.44.21.87.31,1.3.16.64.31,1.27.46,1.91.07.27.14.55.2.82A62.83,62.83,0,0,1,324.83,364.83Z" transform="translate(-287.93 -311.31)"/><path class="cls-4" d="M380,325c-20-3.65-26.16-12.58-44.94-13.56,30.49,9.81,31.78,28.1,52,34.62,12.69,4.09,26.45,3.35,35.52-15.83-.59-4.46-1.13-8.65-1.58-12.35a1.1,1.1,0,0,0-1.71-.8C407.05,324.89,395.48,327.8,380,325Z" transform="translate(-287.93 -311.31)"/><path class="cls-7" d="M361.25,346.18a10.82,10.82,0,1,0,11.09,10.54A10.82,10.82,0,0,0,361.25,346.18Zm9.63,12.28a9.25,9.25,0,0,1-.36,1.49.48.48,0,0,0-.6.28.46.46,0,0,0,.26.6c-.1.24-.22.46-.34.69l-4.83-3-1.79-.71a1.36,1.36,0,0,0,.11-.28l1.8.67,5.6,1-5.45-1.64-1.9-.23a1.39,1.39,0,0,0,0-.3l1.91.18,5.67-.46-5.69-.18-1.9.27a1,1,0,0,0,0-.3l1.89-.32,5.35-1.91-5.54,1.29-1.76.76a1.31,1.31,0,0,0-.12-.27l1.74-.8,4.68-3.24c.13.22.26.44.37.67a.47.47,0,0,0,.39.86,10,10,0,0,1,.43,1.47.47.47,0,0,0-.38.54.47.47,0,0,0,.52.39c0,.25.05.51.06.77s0,.51,0,.76a.47.47,0,0,0-.5.42A.46.46,0,0,0,370.88,358.46Zm-1.44,3.72a.45.45,0,0,0-.64.11.46.46,0,0,0,.09.65c-.16.2-.33.39-.5.58l-3.9-4.15L363,358.22l.18-.24,1.56,1.11,5.14,2.43C369.72,361.74,369.58,362,369.44,362.18Zm-1.61,1.87a.47.47,0,0,0-.73.59c-.21.15-.42.3-.64.43l-2.68-5-1.19-1.5a1.5,1.5,0,0,0,.23-.2l1.23,1.48,4.34,3.68Zm.69-12.71a.47.47,0,0,0,.65.08c.15.21.29.42.43.64l-5,2.68-1.51,1.19a1.37,1.37,0,0,0-.19-.23l1.48-1.22,3.68-4.34c.18.17.36.36.53.55A.47.47,0,0,0,368.52,351.34Zm-.47-1.2L363.9,354l-1.15,1.53-.24-.18,1.11-1.55,2.43-5.15c.22.12.44.26.66.4a.47.47,0,0,0,.11.65.48.48,0,0,0,.65-.1C367.67,349.79,367.86,350,368.05,350.14Zm-6-2.59a.47.47,0,0,0,.94.1,8.28,8.28,0,0,1,1.49.35.47.47,0,0,0,.88.34l.69.34-3,4.83-.71,1.79a1.36,1.36,0,0,0-.28-.11l.67-1.8,1-5.6-1.64,5.45-.23,1.9a1.45,1.45,0,0,0-.3,0l.18-1.91-.47-5.67-.18,5.69.28,1.9a1,1,0,0,0-.3,0l-.32-1.89-1.92-5.35,1.3,5.54.76,1.76a1.39,1.39,0,0,0-.28.12l-.79-1.74-3.24-4.68a7.19,7.19,0,0,1,.67-.37.47.47,0,0,0,.61.23.49.49,0,0,0,.25-.62,10,10,0,0,1,1.47-.43.47.47,0,0,0,.54.38.47.47,0,0,0,.39-.52c.25,0,.51,0,.76-.06S361.8,347.53,362.05,347.55Zm-5.82,16.72a.47.47,0,0,0-.65.09c-.2-.16-.39-.33-.58-.5l4.15-3.9,1.15-1.53a1.5,1.5,0,0,0,.24.18l-1.11,1.56L357,365.31l-.66-.39A.47.47,0,0,0,356.23,364.27Zm-1.7-1.62a.47.47,0,0,0-.65-.08,7.14,7.14,0,0,1-.43-.64l5-2.68,1.5-1.19a2.31,2.31,0,0,0,.2.24l-1.48,1.22L355,363.86c-.18-.18-.36-.36-.53-.56A.47.47,0,0,0,354.53,362.65Zm-1.22-2a.49.49,0,0,0-.62-.25,10,10,0,0,1-.43-1.47.47.47,0,0,0-.15-.93c0-.25,0-.51-.05-.76a6.54,6.54,0,0,1,0-.77.47.47,0,0,0,.09-.94,9.25,9.25,0,0,1,.36-1.49.47.47,0,0,0,.6-.27.48.48,0,0,0-.26-.61c.1-.23.22-.46.34-.69l4.83,3,1.78.71a2.31,2.31,0,0,0-.1.28l-1.8-.67-5.6-1,5.45,1.64,1.89.23a2.83,2.83,0,0,0,0,.3l-1.91-.18-5.67.47,5.69.18,1.89-.28c0,.1,0,.2,0,.3l-1.88.32-5.35,1.92,5.53-1.3,1.77-.76a1.39,1.39,0,0,0,.12.28l-1.75.79-4.67,3.24c-.13-.21-.26-.44-.38-.66A.48.48,0,0,0,353.31,360.65Zm.29-8.84a.47.47,0,0,0,.65-.11.47.47,0,0,0-.09-.65c.16-.2.33-.39.5-.58l3.9,4.15,1.53,1.15a2.5,2.5,0,0,0-.18.24l-1.56-1.11-5.14-2.43Q353.39,352.14,353.6,351.81Zm1.62-1.87a.47.47,0,0,0,.73-.59c.2-.15.42-.29.64-.43l2.68,5,1.19,1.5a1.06,1.06,0,0,0-.23.19L359,354.15l-4.34-3.68Zm5.78,16.5a.47.47,0,0,0-.42-.5.46.46,0,0,0-.52.41,9.25,9.25,0,0,1-1.49-.36.47.47,0,0,0-.28-.6.46.46,0,0,0-.6.26c-.24-.1-.46-.22-.69-.34l3-4.83.71-1.78.28.1-.67,1.8-1,5.6,1.64-5.45.23-1.89.3,0-.18,1.91.46,5.67.18-5.69-.27-1.89.3,0,.32,1.88,1.92,5.35-1.3-5.53-.76-1.77a1.11,1.11,0,0,0,.27-.12l.8,1.75,3.24,4.67c-.21.13-.44.26-.67.38a.47.47,0,0,0-.61-.24.48.48,0,0,0-.25.62,8.9,8.9,0,0,1-1.47.43.47.47,0,0,0-.93.15l-.77,0A6.43,6.43,0,0,1,361,366.44Z" transform="translate(-287.93 -311.31)"/></svg>