<svg id="Layer_19" data-name="Layer 19" xmlns="http://www.w3.org/2000/svg" viewBox="0 0 144.01 95.63"><defs><style>.cls-1{fill:#fff;}.cls-2{fill:#ef4130;}.cls-3{fill:#eceff3;}.cls-4{fill:#da2128;}</style></defs><path class="cls-1" d="M421,317.85a1.1,1.1,0,0,0-1.71-.8C407.05,324.89,395.48,327.8,380,325c-20.25-3.69-26.3-12.8-45.61-13.6-19.92-.83-35.4,6.75-46,14.66a1.05,1.05,0,0,0-.37,1.18c3.75,11.14,11.49,49.55,17.85,70.8a1.13,1.13,0,0,0,1.57.67c15.57-7.06,33.73-7,59.19,2,23.46,8.31,44.29,8.89,64.75-1.72a1.12,1.12,0,0,0,.59-1.13C429.44,379,423.7,340.06,421,317.85Z" transform="translate(-287.93 -311.31)"/><path class="cls-2" d="M421,317.85a1.1,1.1,0,0,0-1.71-.8C407.05,324.89,395.48,327.8,380,325c-20.25-3.69-26.3-12.8-45.61-13.6-19.92-.83-35.4,6.75-46,14.66a1.05,1.05,0,0,0-.37,1.18c2,6,5.16,19.75,8.63,34.53C308,354,324,349.18,341,350.58c18.86,1.55,25.61,10,45.81,13.66,14.05,2.56,26.79-.69,39.23-8.82C424.13,341.75,422.25,328,421,317.85Z" transform="translate(-287.93 -311.31)"/><path class="cls-3" d="M381.91,388c-17.4-11.37-27.81-16.06-47.39-20.84-17.12-4.17-33.08-7.21-41.7-21.59,3.88,16.27,8.75,38.17,13,52.4a1.13,1.13,0,0,0,1.57.67c15.57-7.06,33.73-7,59.19,2,23.46,8.31,44.29,8.89,64.75-1.72a1.12,1.12,0,0,0,.59-1.13c-.37-2.81-.82-6.09-1.31-9.67C418.94,401.92,397.28,398.09,381.91,388Z" transform="translate(-287.93 -311.31)"/><path class="cls-4" d="M292.82,345.61c1.18,5,2.46,10.48,3.79,16.13a61.1,61.1,0,0,1,7.91-4.54A33.34,33.34,0,0,1,292.82,345.61Z" transform="translate(-287.93 -311.31)"/><path class="cls-4" d="M380,325c-20-3.65-26.15-12.58-44.93-13.56,30.49,9.81,31.78,28.1,52,34.62,12.69,4.09,26.45,3.35,35.52-15.83-.59-4.46-1.13-8.65-1.58-12.35a1.1,1.1,0,0,0-1.71-.8C407.05,324.89,395.48,327.8,380,325Z" transform="translate(-287.93 -311.31)"/></svg>