<svg id="Layer_20" data-name="Layer 20" xmlns="http://www.w3.org/2000/svg" viewBox="0 0 144 96.04"><defs><style>.cls-1{fill:#fff;}.cls-2{fill:#008f49;}.cls-3{fill:#f58220;}.cls-4{fill:#eceff3;}.cls-5{fill:#00994c;}.cls-6{fill:#e1701e;}</style></defs><path class="cls-1" d="M390.35,405.52l-.18-1.23-.09-.66c-.05-.35-.11-.71-.16-1.08s-.08-.61-.13-.93l-.12-.84c-.06-.44-.12-.88-.19-1.33l0-.26c-2.33-16.61-5.92-43.87-8.08-62.11l-.06-.44c-.07-.66-.15-1.3-.22-1.93l-.06-.49c-.06-.56-.12-1.09-.19-1.63,0-.23,0-.47-.08-.69-.05-.51-.11-1-.16-1.47,0-.22-.05-.45-.08-.67-.15-1.38-.29-2.67-.41-3.84a108.46,108.46,0,0,1-23.66-8.27,59.61,59.61,0,0,0-20.83-5.45c3,17.43,7.95,51.24,11.41,75.29l.12.84c.1.69.2,1.36.29,2,0,.26.07.51.11.76.27,1.91.54,3.74.78,5.48a137.51,137.51,0,0,1,18.15,5.18,106.73,106.73,0,0,0,24.17,5.78c-.08-.49-.15-1-.23-1.56C390.4,405.85,390.37,405.68,390.35,405.52Z" transform="translate(-287.94 -312.03)"/><path class="cls-2" d="M288,328.2c5.83,19.17,10.35,46.33,17.42,70.17a1.59,1.59,0,0,0,2.2,1c8.47-4,21-6.88,40.7-2.75-3.4-23.77-9.3-64.63-12.71-84.4-21.29-1.6-39.45,8.38-47.07,14.29A1.58,1.58,0,0,0,288,328.2Z" transform="translate(-287.94 -312.03)"/><path class="cls-3" d="M431.93,398.81c-3.08-25.37-7.74-53.78-10.57-79.15a1.58,1.58,0,0,0-2.41-1.17c-12.08,7.54-23.61,10.54-38.84,7.43,1.91,18.44,8.07,64.91,10.54,81.64,17.75,2,30.71-2.14,40.44-7.15A1.58,1.58,0,0,0,431.93,398.81Z" transform="translate(-287.94 -312.03)"/><path class="cls-4" d="M383.37,353.4c0,.17.05.34.07.52C383.42,353.74,383.39,353.57,383.37,353.4Z" transform="translate(-287.94 -312.03)"/><path class="cls-4" d="M342.29,355c0-.18-.05-.36-.08-.54C342.24,354.61,342.26,354.79,342.29,355Z" transform="translate(-287.94 -312.03)"/><path class="cls-4" d="M384.16,359.58c0,.18,0,.36.07.55C384.21,359.94,384.18,359.76,384.16,359.58Z" transform="translate(-287.94 -312.03)"/><path class="cls-4" d="M382.63,347.5v0Z" transform="translate(-287.94 -312.03)"/><path class="cls-4" d="M383.75,356.39l.09.69Z" transform="translate(-287.94 -312.03)"/><path class="cls-4" d="M341.71,351.08c0-.18,0-.37-.08-.55C341.66,350.71,341.68,350.9,341.71,351.08Z" transform="translate(-287.94 -312.03)"/><path class="cls-4" d="M339.32,335.27c0-.15,0-.29-.07-.44C339.28,335,339.3,335.12,339.32,335.27Z" transform="translate(-287.94 -312.03)"/><path class="cls-4" d="M337.65,324.55l0-.23Z" transform="translate(-287.94 -312.03)"/><path class="cls-4" d="M336.15,315.31l0-.19Z" transform="translate(-287.94 -312.03)"/><path class="cls-4" d="M340.5,343l-.06-.43Z" transform="translate(-287.94 -312.03)"/><path class="cls-4" d="M337.13,321.32l0-.18Z" transform="translate(-287.94 -312.03)"/><path class="cls-4" d="M388.63,393.3A146.42,146.42,0,0,1,372.75,385c-10.22-6.16-18.49-11.26-28.14-14.24v-.06c1.39,9.51,2.68,18.51,3.73,25.88a137.51,137.51,0,0,1,18.15,5.18,106.73,106.73,0,0,0,24.17,5.78C390.12,404,389.42,399,388.63,393.3Z" transform="translate(-287.94 -312.03)"/><path class="cls-4" d="M385.42,369.29v0Z" transform="translate(-287.94 -312.03)"/><path class="cls-4" d="M338.77,331.7l-.06-.43Z" transform="translate(-287.94 -312.03)"/><path class="cls-4" d="M343.48,363l-.06-.36Z" transform="translate(-287.94 -312.03)"/><path class="cls-4" d="M344.07,367.1c0-.27-.07-.53-.11-.8C344,366.57,344,366.83,344.07,367.1Z" transform="translate(-287.94 -312.03)"/><path class="cls-4" d="M384.55,362.63l.09.7Z" transform="translate(-287.94 -312.03)"/><path class="cls-4" d="M386.25,375.65v0Z" transform="translate(-287.94 -312.03)"/><path class="cls-4" d="M385,365.86c0,.18,0,.36.07.54C385,366.22,385,366,385,365.86Z" transform="translate(-287.94 -312.03)"/><path class="cls-1" d="M339.25,334.83c-.16-1.06-.32-2.1-.48-3.13C338.93,332.73,339.09,333.77,339.25,334.83Z" transform="translate(-287.94 -312.03)"/><path class="cls-1" d="M344.6,370.72c-.17-1.2-.35-2.41-.53-3.62C344.25,368.31,344.43,369.52,344.6,370.72Z" transform="translate(-287.94 -312.03)"/><path class="cls-1" d="M342.21,354.43c-.17-1.12-.33-2.24-.5-3.35C341.88,352.19,342,353.31,342.21,354.43Z" transform="translate(-287.94 -312.03)"/><path class="cls-1" d="M340.44,342.58q-.57-3.74-1.12-7.31Q339.88,338.84,340.44,342.58Z" transform="translate(-287.94 -312.03)"/><path class="cls-1" d="M344,366.3q-.24-1.62-.48-3.27Q343.72,364.68,344,366.3Z" transform="translate(-287.94 -312.03)"/><path class="cls-1" d="M343.42,362.67q-.56-3.84-1.13-7.7Q342.86,358.83,343.42,362.67Z" transform="translate(-287.94 -312.03)"/><path class="cls-1" d="M341.63,350.53q-.57-3.79-1.13-7.52Q341.06,346.73,341.63,350.53Z" transform="translate(-287.94 -312.03)"/><path class="cls-1" d="M383.84,357.08c.11.83.21,1.66.32,2.5C384.05,358.74,384,357.91,383.84,357.08Z" transform="translate(-287.94 -312.03)"/><path class="cls-1" d="M384.64,363.33l.33,2.53Z" transform="translate(-287.94 -312.03)"/><path class="cls-1" d="M385,366.4c.13,1,.25,1.93.38,2.89C385.29,368.33,385.17,367.37,385,366.4Z" transform="translate(-287.94 -312.03)"/><path class="cls-1" d="M384.23,360.13c.11.83.21,1.66.32,2.5C384.44,361.79,384.34,361,384.23,360.13Z" transform="translate(-287.94 -312.03)"/><path class="cls-1" d="M383.44,353.92c.1.82.21,1.64.31,2.47C383.65,355.56,383.54,354.74,383.44,353.92Z" transform="translate(-287.94 -312.03)"/><path class="cls-1" d="M388.63,393.3c-.73-5.33-1.54-11.35-2.37-17.6.83,6.25,1.64,12.27,2.37,17.6Z" transform="translate(-287.94 -312.03)"/><path class="cls-1" d="M385.43,369.42q.42,3.13.82,6.23Q385.85,372.56,385.43,369.42Z" transform="translate(-287.94 -312.03)"/><path class="cls-1" d="M337.11,321.14l-1-5.83Z" transform="translate(-287.94 -312.03)"/><path class="cls-1" d="M382.64,347.54q.36,2.88.73,5.86C383.12,351.41,382.88,349.45,382.64,347.54Z" transform="translate(-287.94 -312.03)"/><path class="cls-1" d="M337.61,324.32q-.24-1.53-.48-3Q337.37,322.79,337.61,324.32Z" transform="translate(-287.94 -312.03)"/><path class="cls-1" d="M338.71,331.27c-.36-2.32-.72-4.57-1.06-6.72C338,326.7,338.35,329,338.71,331.27Z" transform="translate(-287.94 -312.03)"/><path class="cls-1" d="M335.68,312.53c.14.83.29,1.69.44,2.59-.15-.9-.3-1.76-.44-2.59Z" transform="translate(-287.94 -312.03)"/><path class="cls-1" d="M382.28,344.66c.12.93.23,1.88.35,2.84C382.51,346.54,382.4,345.59,382.28,344.66Z" transform="translate(-287.94 -312.03)"/><path class="cls-5" d="M344.61,370.78c-3.06-21-6.58-44.54-8.93-58.25l-1.24-.38c-20.77-1.15-38.41,8.54-45.89,14.34a1.58,1.58,0,0,0-.54,1.71c1.58,5.19,3.06,11,4.52,17.1C301.65,362.81,322.09,363.8,344.61,370.78Z" transform="translate(-287.94 -312.03)"/><path class="cls-6" d="M388.63,393.3c.79,5.73,1.49,10.68,2,14.26,17.75,2,30.71-2.14,40.44-7.15a1.58,1.58,0,0,0,.84-1.6c-.38-3.09-.78-6.23-1.19-9.4C420.24,400.68,404.07,400.11,388.63,393.3Z" transform="translate(-287.94 -312.03)"/></svg>