<?xml version="1.0" encoding="utf-8"?>
<!-- Generator: Adobe Illustrator 25.1.0, SVG Export Plug-In . SVG Version: 6.00 Build 0)  -->
<svg version="1.1" id="Layer_1" xmlns="http://www.w3.org/2000/svg" xmlns:xlink="http://www.w3.org/1999/xlink" x="0px" y="0px"
	 viewBox="0 0 107.64 70.49" style="enable-background:new 0 0 107.64 70.49;" xml:space="preserve">
<style type="text/css">
	.st0{fill:#FFFFFF;}
	.st1{fill:#F1F2F2;}
	.st2{fill:#19468D;}
	.st3{fill:#183B7C;}
</style>
<g>
	<g>
		<path class="st0" d="M106.36,56.14c-0.32-2.15-0.64-4.33-0.98-6.52c-0.1-0.68-0.21-1.36-0.31-2.05
			c-1.75-11.42-3.67-23.17-5.26-34.41c0-0.01,0-0.02,0-0.03c-0.2-1.44-0.4-2.87-0.59-4.3c-0.21-1.53-0.41-3.06-0.6-4.57
			c-0.08-0.61-0.76-0.91-1.27-0.57c-8.99,5.91-17.56,8.37-29.03,6.2c-5.16-0.98-10.9-2.88-17.55-5.85
			c-5.28-2.36-10.47-3.49-15.43-3.79c-0.29-0.02-0.58-0.01-0.87-0.02h0C20.49-0.34,8.54,5.69,2.4,10.07
			c-0.09,0.06-0.16,0.12-0.24,0.18c-0.34,0.25-0.68,0.49-0.98,0.73c-0.22,0.17-0.42,0.33-0.62,0.49c-0.26,0.21-0.36,0.56-0.26,0.88
			c0.26,0.8,0.51,1.62,0.77,2.46c0.07,0.25,0.15,0.5,0.22,0.75c0.24,0.81,0.48,1.63,0.72,2.47c0.06,0.21,0.12,0.44,0.18,0.65
			c0.26,0.92,0.51,1.85,0.76,2.8c0.03,0.12,0.06,0.25,0.1,0.37c0.29,1.08,0.57,2.18,0.85,3.29v0c3.12,12.28,6.17,26.53,10.22,39.41
			c0.15,0.49,0.71,0.71,1.17,0.48c6.21-3.1,15.52-5.53,30.36-2.65c4.06,0.79,8.51,1.95,13.45,3.63c6.63,2.26,12.55,3.48,17.9,4
			c13.26,1.27,22.83-1.98,29.98-5.83c0.3-0.16,0.47-0.5,0.42-0.84C107.06,60.98,106.71,58.57,106.36,56.14z"/>
	</g>
	<g>
		<path class="st1" d="M106.36,56.19c-7.62,8.43-19.57,8.19-31.03,3.33c-3.75-1.59-7.45-3.66-10.92-6.09
			c-7.22-5.04-14.66-7.95-21.81-10.05c-16.69-4.9-31.79-5.41-38.71-18.23c3.12,12.28,6.17,26.53,10.22,39.41
			c0.15,0.49,0.71,0.71,1.17,0.48c6.21-3.1,15.52-5.53,30.36-2.65c4.06,0.79,8.51,1.95,13.45,3.63c6.63,2.26,12.55,3.48,17.9,4
			c13.26,1.27,22.83-1.98,29.98-5.83c0.3-0.16,0.47-0.5,0.42-0.84C107.06,60.99,106.72,58.6,106.36,56.19z"/>
	</g>
	<g>
		<path class="st1" d="M98.61,4.26c-0.08-0.61-0.76-0.91-1.27-0.57c-8.99,5.91-17.56,8.37-29.03,6.2
			c-5.16-0.98-10.9-2.88-17.55-5.85c-5.28-2.36-10.47-3.49-15.43-3.79c-0.29-0.02-0.58-0.01-0.87-0.02c0.3,0.09,0.61,0.17,0.92,0.27
			c8.87,2.78,19.72,9.99,25.55,16.27c2.02,2.18,5.31,4.82,9.19,6.87c0,0.02,0.01,0.04,0.01,0.06c0-0.02,0-0.04-0.01-0.06
			c9.5,5.02,22.59,6.53,29.7-10.5C99.38,10.14,98.98,7.17,98.61,4.26z"/>
	</g>
	<g>
		<path class="st2" d="M68.09,37l3.5-7.24l-7.88,0.5l-4.16-6.81l-3.37,7.29l-7.64,0.49l4.4,6.73l-3.51,7.3l7.64-0.49l4.26,6.74
			l3.26-7.22l7.88-0.5L68.09,37z M58.86,30.58l0.99-2.49l1.56,2.32L58.86,30.58z M66.97,39.29l1.42,2.34l-2.42,0.15L66.97,39.29z
			 M65.37,32.46l2.42-0.15l-1.11,2.57L65.37,32.46z M62.3,44.45l-1.25,2.5l-1.3-2.34L62.3,44.45z M58.32,42.28l-2.96-4.47l2.36-4.87
			l5.1-0.33l2.99,4.52l-2.39,4.81L58.32,42.28z M55.78,42.44l-2.67,0.17l1.24-2.51L55.78,42.44z M52.51,33.28l2.67-0.17l-1.12,2.57
			L52.51,33.28z"/>
	</g>
	<g>
		<path class="st2" d="M55.34,12.21C33.68,1.15,14.69,7.9,1.25,15.45c0.01,0.04,0.02,0.07,0.03,0.11c0.24,0.81,0.48,1.63,0.72,2.47
			c0.06,0.21,0.12,0.44,0.18,0.65c0.26,0.92,0.51,1.85,0.76,2.8c0.03,0.12,0.06,0.25,0.1,0.37c0.15,0.57,0.3,1.16,0.45,1.74
			c12.6-7.42,29.11-13.82,48.14-4.1c7.95,4.06,18.01,5.85,28.32,5.05c7.05-0.55,14.07-2.3,20.78-5.13c-0.31-2.1-0.62-4.19-0.91-6.26
			c0-0.01,0-0.02,0-0.03c-0.1-0.71-0.19-1.41-0.29-2.11C82.76,18.79,65.9,17.6,55.34,12.21z"/>
		<path class="st2" d="M55.17,59.35c7.53,3.07,16.62,5.13,26.08,5.13c8.47,0,17.25-1.67,25.48-5.74c-0.12-0.87-0.25-1.73-0.38-2.6
			c-0.29-1.98-0.59-3.98-0.9-5.98c-15.54,8.89-34.05,6.97-47.2,1.62c-18.65-7.59-35.14-4.94-47.7,0.35c0.7,2.68,1.44,5.34,2.2,7.96
			C23.85,55.22,38.57,52.58,55.17,59.35z"/>
	</g>
	<g>
		<path class="st3" d="M56.89,12.94c1.5,1.28,2.87,2.57,4.03,3.83c2.02,2.18,5.31,4.82,9.19,6.87c0,0.02,0.01,0.04,0.01,0.06
			c0-0.02-0.01-0.04-0.01-0.06c0.69,0.36,1.4,0.71,2.12,1.03c2.54,0.12,5.12,0.09,7.72-0.12c4.89-0.38,9.76-1.34,14.53-2.83
			c1.99-2.1,3.8-4.9,5.34-8.58c-0.1-0.71-0.2-1.41-0.29-2.12C83.55,18.42,67.5,17.69,56.89,12.94z"/>
		<path class="st3" d="M55.17,59.35c7.53,3.07,16.62,5.13,26.08,5.13c8.47,0,17.25-1.67,25.48-5.74c-0.12-0.85-0.24-1.7-0.37-2.55
			c-7.62,8.43-19.57,8.19-31.03,3.33c-3.33-1.41-6.62-3.21-9.75-5.3c-2.57-0.69-5.03-1.51-7.32-2.45
			c-18.65-7.59-35.14-4.94-47.7,0.35c0.7,2.68,1.44,5.34,2.2,7.96C23.85,55.22,38.57,52.58,55.17,59.35z"/>
	</g>
</g>
</svg>
