<svg id="Layer_22" data-name="Layer 22" xmlns="http://www.w3.org/2000/svg" viewBox="0 0 144 96.23"><defs><style>.cls-1{fill:#fff;}.cls-2{fill:#008f49;}.cls-3{fill:#ef4130;}.cls-4{fill:#eceff3;}.cls-5{fill:#00994c;}.cls-6{fill:#da2128;}</style></defs><path class="cls-1" d="M390.3,405.6c-.05-.4-.11-.8-.17-1.23,0-.21-.06-.44-.1-.66l-.15-1.07c0-.31-.08-.62-.13-.94l-.12-.84-.18-1.33,0-.27c-2.3-16.62-5.85-43.91-8-62.17,0-.14,0-.29-.05-.44-.08-.66-.15-1.3-.23-1.93,0-.16,0-.33,0-.49-.07-.56-.13-1.09-.19-1.63,0-.23-.05-.47-.08-.69-.05-.51-.1-1-.16-1.47,0-.22-.05-.46-.07-.67-.15-1.39-.29-2.67-.41-3.85a107.49,107.49,0,0,1-23.66-8.32,59.79,59.79,0,0,0-20.84-5.48c3,17.45,7.87,51.29,11.29,75.37l.12.84c.1.69.19,1.36.29,2,0,.26.07.51.1.77.27,1.9.53,3.74.78,5.47a138.75,138.75,0,0,1,18.15,5.23,107.49,107.49,0,0,0,24.18,5.82c-.07-.49-.15-1-.23-1.56C390.35,405.93,390.33,405.77,390.3,405.6Z" transform="translate(-287.94 -311.94)"/><path class="cls-2" d="M288,328.05c5.8,19.2,10.28,46.39,17.32,70.26a1.58,1.58,0,0,0,2.2,1c8.49-4,21.06-6.84,40.74-2.69-3.36-23.79-9.2-64.69-12.58-84.48-21.31-1.64-39.5,8.32-47.14,14.22A1.58,1.58,0,0,0,288,328.05Z" transform="translate(-287.94 -311.94)"/><path class="cls-3" d="M431.93,399c-3-25.39-7.65-53.84-10.45-79.24a1.58,1.58,0,0,0-2.41-1.17c-12.1,7.53-23.64,10.52-38.88,7.37,1.88,18.46,8,65,10.41,81.73,17.77,2,30.74-2.1,40.48-7.09A1.59,1.59,0,0,0,431.93,399Z" transform="translate(-287.94 -311.94)"/><path class="cls-4" d="M383.41,353.43l.06.52Z" transform="translate(-287.94 -311.94)"/><path class="cls-4" d="M342.29,354.94c0-.18-.05-.37-.08-.55C342.24,354.57,342.26,354.76,342.29,354.94Z" transform="translate(-287.94 -311.94)"/><path class="cls-4" d="M384.19,359.62l.06.54Z" transform="translate(-287.94 -311.94)"/><path class="cls-4" d="M382.68,347.52v0Z" transform="translate(-287.94 -311.94)"/><path class="cls-4" d="M383.78,356.42l.09.7Z" transform="translate(-287.94 -311.94)"/><path class="cls-4" d="M341.72,351c0-.18-.06-.37-.08-.55C341.66,350.67,341.69,350.86,341.72,351Z" transform="translate(-287.94 -311.94)"/><path class="cls-4" d="M339.35,335.21l-.06-.44Z" transform="translate(-287.94 -311.94)"/><path class="cls-4" d="M337.7,324.49l0-.24Z" transform="translate(-287.94 -311.94)"/><path class="cls-4" d="M336.21,315.24l0-.2Z" transform="translate(-287.94 -311.94)"/><path class="cls-4" d="M340.52,343l-.07-.44C340.48,342.67,340.5,342.82,340.52,343Z" transform="translate(-287.94 -311.94)"/><path class="cls-4" d="M337.19,321.25l0-.18Z" transform="translate(-287.94 -311.94)"/><path class="cls-4" d="M388.61,393.37a146.9,146.9,0,0,1-15.89-8.31c-10.21-6.19-18.48-11.3-28.13-14.3v-.05c1.37,9.51,2.65,18.52,3.69,25.89a138.75,138.75,0,0,1,18.15,5.23,107.49,107.49,0,0,0,24.18,5.82C390.07,404.06,389.38,399.11,388.61,393.37Z" transform="translate(-287.94 -311.94)"/><path class="cls-4" d="M385.43,369.34v0Z" transform="translate(-287.94 -311.94)"/><path class="cls-4" d="M338.81,331.64c0-.15-.05-.29-.07-.43C338.76,331.35,338.79,331.49,338.81,331.64Z" transform="translate(-287.94 -311.94)"/><path class="cls-4" d="M343.47,363l-.06-.37Z" transform="translate(-287.94 -311.94)"/><path class="cls-4" d="M344.05,367.07c0-.26-.07-.52-.11-.79C344,366.55,344,366.81,344.05,367.07Z" transform="translate(-287.94 -311.94)"/><path class="cls-4" d="M384.57,362.67l.09.7Z" transform="translate(-287.94 -311.94)"/><path class="cls-4" d="M386.25,375.7v0Z" transform="translate(-287.94 -311.94)"/><path class="cls-4" d="M385,365.91c0,.18,0,.36.07.54C385,366.27,385,366.09,385,365.91Z" transform="translate(-287.94 -311.94)"/><path class="cls-1" d="M339.29,334.77c-.17-1.06-.32-2.1-.48-3.13C339,332.67,339.12,333.71,339.29,334.77Z" transform="translate(-287.94 -311.94)"/><path class="cls-1" d="M344.58,370.71c-.17-1.21-.35-2.42-.53-3.64C344.23,368.29,344.41,369.5,344.58,370.71Z" transform="translate(-287.94 -311.94)"/><path class="cls-1" d="M342.21,354.39c-.17-1.12-.33-2.24-.49-3.35C341.88,352.15,342,353.27,342.21,354.39Z" transform="translate(-287.94 -311.94)"/><path class="cls-1" d="M340.45,342.53c-.37-2.49-.74-4.94-1.1-7.32C339.71,337.59,340.08,340,340.45,342.53Z" transform="translate(-287.94 -311.94)"/><path class="cls-1" d="M343.94,366.28c-.16-1.09-.32-2.18-.47-3.27C343.62,364.1,343.78,365.19,343.94,366.28Z" transform="translate(-287.94 -311.94)"/><path class="cls-1" d="M343.41,362.64q-.56-3.84-1.12-7.7Q342.86,358.79,343.41,362.64Z" transform="translate(-287.94 -311.94)"/><path class="cls-1" d="M341.64,350.49q-.57-3.81-1.12-7.52Q341.08,346.67,341.64,350.49Z" transform="translate(-287.94 -311.94)"/><path class="cls-1" d="M383.87,357.12c.1.83.21,1.66.32,2.5C384.08,358.78,384,358,383.87,357.12Z" transform="translate(-287.94 -311.94)"/><path class="cls-1" d="M384.66,363.37l.33,2.54Z" transform="translate(-287.94 -311.94)"/><path class="cls-1" d="M385.06,366.45c.12,1,.24,1.92.37,2.89C385.3,368.37,385.18,367.41,385.06,366.45Z" transform="translate(-287.94 -311.94)"/><path class="cls-1" d="M384.25,360.16c.11.84.22,1.67.32,2.51C384.47,361.83,384.36,361,384.25,360.16Z" transform="translate(-287.94 -311.94)"/><path class="cls-1" d="M383.47,354c.11.82.21,1.64.31,2.47C383.68,355.59,383.58,354.77,383.47,354Z" transform="translate(-287.94 -311.94)"/><path class="cls-1" d="M388.61,393.37c-.73-5.34-1.53-11.36-2.35-17.61.82,6.25,1.62,12.27,2.35,17.61Z" transform="translate(-287.94 -311.94)"/><path class="cls-1" d="M385.44,369.46c.27,2.1.55,4.18.81,6.24C386,373.64,385.71,371.56,385.44,369.46Z" transform="translate(-287.94 -311.94)"/><path class="cls-1" d="M337.16,321.07c-.33-2.07-.65-4-1-5.83C336.51,317.05,336.83,319,337.16,321.07Z" transform="translate(-287.94 -311.94)"/><path class="cls-1" d="M382.68,347.57c.24,1.91.48,3.87.73,5.86C383.16,351.44,382.92,349.48,382.68,347.57Z" transform="translate(-287.94 -311.94)"/><path class="cls-1" d="M337.66,324.25c-.16-1-.32-2-.47-3C337.34,322.23,337.5,323.23,337.66,324.25Z" transform="translate(-287.94 -311.94)"/><path class="cls-1" d="M338.74,331.21c-.35-2.32-.7-4.57-1-6.72C338,326.64,338.39,328.89,338.74,331.21Z" transform="translate(-287.94 -311.94)"/><path class="cls-1" d="M335.74,312.45c.14.83.29,1.69.44,2.59-.15-.9-.3-1.76-.44-2.59Z" transform="translate(-287.94 -311.94)"/><path class="cls-1" d="M382.33,344.68c.12.93.23,1.88.35,2.84C382.56,346.56,382.45,345.61,382.33,344.68Z" transform="translate(-287.94 -311.94)"/><path class="cls-5" d="M344.59,370.76c-3-21.06-6.51-44.58-8.85-58.31-.41-.14-.82-.26-1.23-.38-20.79-1.19-38.46,8.48-46,14.27a1.58,1.58,0,0,0-.54,1.71c1.57,5.19,3,11,4.49,17.12C301.6,362.72,322.06,363.74,344.59,370.76Z" transform="translate(-287.94 -311.94)"/><path class="cls-6" d="M388.61,393.37c.77,5.74,1.46,10.69,2,14.28,17.77,2,30.74-2.1,40.48-7.09a1.59,1.59,0,0,0,.85-1.6c-.37-3.1-.77-6.24-1.18-9.41C420.23,400.81,404,400.21,388.61,393.37Z" transform="translate(-287.94 -311.94)"/></svg>