<?xml version="1.0" encoding="utf-8"?>
<!-- Generator: Adobe Illustrator 25.1.0, SVG Export Plug-In . SVG Version: 6.00 Build 0)  -->
<svg version="1.1" id="Layer_1" xmlns="http://www.w3.org/2000/svg" xmlns:xlink="http://www.w3.org/1999/xlink" x="0px" y="0px"
	 viewBox="0 0 99.67 65.02" style="enable-background:new 0 0 99.67 65.02;" xml:space="preserve">
<style type="text/css">
	.st0{fill:#FFFFFF;}
	.st1{fill:#F1F2F2;}
	.st2{fill:#EF4130;}
	.st3{fill:#DA2128;}
</style>
<g>
	<g>
		<path class="st0" d="M98.71,51.78c-0.3-2-0.61-4.02-0.93-6.06c-0.1-0.63-0.2-1.27-0.3-1.9C95.82,33.21,94,22.29,92.5,11.85
			c0-0.01,0-0.02,0-0.03c-0.19-1.34-0.38-2.67-0.56-3.99C91.75,6.55,91.58,5.27,91.41,4c-0.1-0.75-0.94-1.14-1.57-0.73
			c-8.22,5.36-16.11,7.59-26.63,5.63c-4.8-0.89-10.14-2.64-16.33-5.38c-4.91-2.18-9.75-3.22-14.36-3.48
			c-0.27-0.02-0.54-0.01-0.81-0.02l0,0C18.73-0.46,7.64,5.19,1.94,9.28c-0.06,0.04-0.93,0.71-1.55,1.19
			c-0.34,0.26-0.47,0.71-0.35,1.11c0.54,1.71,1.35,4.41,1.55,5.1c0.06,0.2,0.11,0.4,0.17,0.61C2,18.14,2.24,19,2.48,19.88
			c0.03,0.11,0.06,0.23,0.09,0.34c0.27,1,0.54,2.02,0.8,3.06l0,0C6.29,34.6,9.14,47.72,12.91,59.6c0.19,0.6,0.87,0.88,1.43,0.6
			c5.76-2.84,14.35-5.02,27.96-2.43c3.77,0.72,7.91,1.79,12.51,3.33c6.17,2.08,11.68,3.2,16.65,3.66
			c12.23,1.14,21.07-1.86,27.69-5.43c0.37-0.2,0.58-0.62,0.52-1.04C99.36,56.16,99.04,53.98,98.71,51.78z"/>
	</g>
	<g>
		<path class="st1" d="M98.72,51.83c-7.06,7.86-18.16,7.67-28.83,3.19c-3.49-1.46-6.93-3.38-10.17-5.63
			c-6.72-4.67-13.65-7.34-20.3-9.27c-15.53-4.5-29.56-4.93-36.04-16.83C6.29,34.6,9.14,47.72,12.91,59.6
			c0.19,0.6,0.87,0.88,1.43,0.6c5.76-2.84,14.35-5.02,27.96-2.43c3.77,0.72,7.91,1.79,12.51,3.33c6.17,2.08,11.68,3.2,16.65,3.66
			c12.23,1.14,21.07-1.86,27.69-5.43c0.37-0.2,0.58-0.62,0.52-1.04C99.36,56.18,99.04,54.01,98.72,51.83z"/>
	</g>
	<g>
		<path class="st1" d="M91.41,4c-0.1-0.75-0.94-1.13-1.57-0.72c-8.22,5.36-16.11,7.59-26.63,5.63c-4.8-0.89-10.14-2.64-16.33-5.38
			c-4.91-2.18-9.75-3.22-14.36-3.48c-0.27-0.02-0.54-0.01-0.81-0.02c0.28,0.08,0.56,0.16,0.85,0.25
			c8.26,2.56,18.36,9.22,23.79,15.05c1.89,2.02,4.95,4.46,8.56,6.36c0,0.02,0,0.03,0.01,0.05c0-0.02,0-0.03-0.01-0.05
			c8.84,4.63,21.02,6,27.57-9.85C92.11,9.19,91.74,6.57,91.41,4z"/>
	</g>
	<g>
		<path class="st2" d="M71.05,31.52c0.03,10.16-8.18,18.43-18.34,18.46c-10.16,0.03-18.43-8.18-18.46-18.34
			c-0.03-10.16,8.18-18.43,18.34-18.46C62.75,13.14,71.02,21.35,71.05,31.52z"/>
	</g>
	<g>
		<g>
			<path class="st3" d="M54.26,13.25c0.76,0.7,1.46,1.39,2.1,2.08c1.89,2.02,4.95,4.46,8.56,6.36c0,0.02,0,0.03,0.01,0.05
				c0-0.02,0-0.03-0.01-0.05c1.36,0.71,2.8,1.35,4.29,1.86C66.45,17.86,60.85,13.82,54.26,13.25z"/>
		</g>
		<g>
			<path class="st3" d="M52.71,49.98c2.19-0.01,4.29-0.4,6.24-1.11c-6.48-4.35-13.13-6.9-19.54-8.76c-1.19-0.34-2.37-0.66-3.53-0.97
				C38.78,45.55,45.23,50,52.71,49.98z"/>
		</g>
	</g>
</g>
</svg>
