<?xml version="1.0" encoding="iso-8859-1"?>
<!-- Generator: Adobe Illustrator 24.0.1, SVG Export Plug-In . SVG Version: 6.00 Build 0)  -->
<svg version="1.1" id="Layer_1" xmlns="http://www.w3.org/2000/svg" xmlns:xlink="http://www.w3.org/1999/xlink" x="0px" y="0px"
	 viewBox="0 0 81.784 53.523" style="enable-background:new 0 0 81.784 53.523;" xml:space="preserve">
<g>
	<g>
		<path style="fill:#FFFFFF;" d="M80.999,42.711c-0.241-1.644-0.491-3.306-0.745-4.977c-0.079-0.52-0.159-1.041-0.239-1.563
			c-1.338-8.717-2.801-17.691-4.012-26.271C76.001,9.892,76,9.885,75.999,9.878c-0.155-1.1-0.305-2.192-0.453-3.28
			c-0.157-1.169-0.313-2.336-0.459-3.488c-0.059-0.464-0.582-0.696-0.972-0.439c-6.865,4.51-13.409,6.388-22.16,4.734
			C48.012,6.66,43.63,5.209,38.557,2.941c-4.029-1.801-7.996-2.667-11.782-2.895c-0.224-0.014-0.441-0.009-0.664-0.018H26.11
			C15.449-0.404,6.328,4.199,1.635,7.544C1.57,7.59,1.515,7.634,1.451,7.68C1.19,7.869,0.932,8.057,0.7,8.236
			C0.535,8.364,0.377,8.49,0.227,8.612c-0.2,0.162-0.275,0.427-0.196,0.671c0.197,0.611,0.391,1.239,0.584,1.878
			c0.056,0.187,0.112,0.383,0.168,0.573c0.183,0.62,0.366,1.244,0.547,1.887c0.046,0.164,0.092,0.333,0.137,0.498
			c0.195,0.702,0.389,1.412,0.582,2.138c0.025,0.094,0.049,0.189,0.074,0.283c0.218,0.826,0.435,1.663,0.652,2.514v0
			C5.157,28.43,7.482,39.308,10.58,49.14c0.117,0.373,0.54,0.542,0.889,0.368c4.74-2.37,11.846-4.221,23.173-2.022
			c3.098,0.601,6.494,1.489,10.264,2.772c5.063,1.722,9.584,2.659,13.663,3.051c10.119,0.973,17.427-1.513,22.886-4.454
			c0.231-0.125,0.358-0.378,0.323-0.638C81.532,46.406,81.27,44.568,80.999,42.711z"/>
		<path style="fill:#F1F2F2;" d="M81.004,42.748c-5.821,6.438-14.936,6.249-23.688,2.543c-2.861-1.212-5.684-2.795-8.339-4.651
			c-5.508-3.85-11.188-6.066-16.648-7.669C19.584,29.23,8.06,28.843,2.775,19.053C5.157,28.43,7.482,39.308,10.58,49.14
			c0.117,0.373,0.54,0.542,0.889,0.368c4.74-2.37,11.846-4.221,23.173-2.022c3.098,0.601,6.494,1.489,10.264,2.772
			c5.063,1.722,9.584,2.659,13.663,3.051c10.119,0.973,17.428-1.513,22.886-4.454c0.231-0.125,0.358-0.378,0.323-0.638
			C81.534,46.418,81.274,44.593,81.004,42.748z"/>
		<path style="fill:#F1F2F2;" d="M75.086,3.109c-0.058-0.464-0.581-0.694-0.971-0.438c-6.865,4.51-13.409,6.389-22.16,4.734
			C48.012,6.66,43.63,5.209,38.557,2.941c-4.029-1.801-7.996-2.667-11.782-2.895c-0.224-0.014-0.441-0.009-0.664-0.018
			c0.232,0.065,0.463,0.132,0.699,0.206c6.775,2.122,15.057,7.624,19.501,12.424c1.544,1.667,4.05,3.676,7.016,5.242
			c0.002,0.014,0.004,0.028,0.006,0.042c-0.002-0.014-0.004-0.028-0.006-0.042c7.251,3.83,17.246,4.984,22.672-8.016
			C75.677,7.597,75.366,5.328,75.086,3.109z"/>
	</g>
	<g>
		<polygon style="fill-rule:evenodd;clip-rule:evenodd;" points="32.182,11.11 25.007,19.372 23.673,18.233 30.848,9.971 
			32.182,11.11 		"/>
		<polygon style="fill-rule:evenodd;clip-rule:evenodd;" points="22.051,42.051 17.436,32.13 19.033,31.404 23.648,41.326 
			22.051,42.051 		"/>
		<polygon style="fill-rule:evenodd;clip-rule:evenodd;" points="57.158,13.2 61.806,23.127 63.369,22.396 58.754,12.474 
			57.158,13.2 		"/>
		<polygon style="fill-rule:evenodd;clip-rule:evenodd;" points="28.942,8.31 21.767,16.572 23.101,17.711 30.276,9.449 
			28.942,8.31 		"/>
		<polygon style="fill-rule:evenodd;clip-rule:evenodd;" points="59.482,24.192 61.079,23.466 58.972,18.89 57.37,19.649 
			59.482,24.192 		"/>
		<polygon style="fill-rule:evenodd;clip-rule:evenodd;" points="63.092,38.591 61.763,37.42 58.441,41.232 59.776,42.371 
			63.092,38.591 		"/>
		<polygon style="fill-rule:evenodd;clip-rule:evenodd;" points="24.342,40.982 25.938,40.255 23.798,35.674 22.197,36.434 
			24.342,40.982 		"/>
		<polygon style="fill-rule:evenodd;clip-rule:evenodd;" points="64.096,22.057 65.66,21.326 63.553,16.749 61.951,17.509 
			64.096,22.057 		"/>
		<polygon style="fill-rule:evenodd;clip-rule:evenodd;" points="59.252,35.232 57.952,34.098 54.629,37.91 55.964,39.049 
			59.252,35.232 		"/>
		<polygon style="fill-rule:evenodd;clip-rule:evenodd;" points="61.187,36.931 59.857,35.759 56.535,39.571 57.87,40.71 
			61.187,36.931 		"/>
		<polygon style="fill-rule:evenodd;clip-rule:evenodd;" points="57.007,18.851 58.604,18.125 56.464,13.544 54.862,14.303 
			57.007,18.851 		"/>
		<polygon style="fill-rule:evenodd;clip-rule:evenodd;" points="59.206,43.038 57.877,41.866 54.588,45.682 55.889,46.816 
			59.206,43.038 		"/>
		<polygon style="fill-rule:evenodd;clip-rule:evenodd;" points="21.834,35.636 23.43,34.909 21.324,30.333 19.727,31.059 
			21.834,35.636 		"/>
		<polygon style="fill-rule:evenodd;clip-rule:evenodd;" points="61.588,16.71 63.185,15.984 61.045,11.403 59.444,12.163 
			61.588,16.71 		"/>
		<polygon style="fill-rule:evenodd;clip-rule:evenodd;" points="55.394,39.716 54.065,38.544 50.743,42.356 52.077,43.494 
			55.394,39.716 		"/>
		<polygon style="fill-rule:evenodd;clip-rule:evenodd;" points="57.3,41.377 55.971,40.204 52.682,44.021 53.983,45.156 
			57.3,41.377 		"/>
		<polygon style="fill-rule:evenodd;clip-rule:evenodd;" points="28.37,7.788 21.162,16.045 19.861,14.911 27.036,6.649 
			28.37,7.788 		"/>
		<polygon style="fill-rule:evenodd;clip-rule:evenodd;" points="26.632,39.912 22.017,29.99 23.614,29.263 28.229,39.186 
			26.632,39.912 		"/>
		<path style="fill-rule:evenodd;clip-rule:evenodd;fill:#EF4130;" d="M40.172,15.723c-1.136,0.148-2.3,0.508-3.333,1.013
			c-1.067,0.512-1.996,1.203-2.841,1.981c-0.805,0.804-1.492,1.689-2.022,2.68s-0.875,2.05-1.103,3.19
			c-0.201,1.1-0.218,2.267-0.063,3.436c0.155,1.169,0.508,2.3,1.019,3.366c0.506,1.033,1.17,2.002,1.974,2.807
			c0.772,0.812,1.689,1.493,2.68,2.022c0.992,0.53,2.057,0.908,3.157,1.109c1.133,0.195,2.307,0.245,3.469,0.056
			c1.136-0.148,2.3-0.507,3.333-1.013c1.067-0.511,2.002-1.169,2.841-1.98c0.812-0.771,1.493-1.689,2.022-2.681
			c0.53-0.991,0.876-2.05,1.11-3.156c0.194-1.133,0.211-2.3,0.063-3.436c-0.155-1.169-0.508-2.3-1.019-3.367
			c-0.512-1.066-1.17-2.002-1.974-2.807c-0.81-0.838-1.695-1.525-2.68-2.022c-0.991-0.53-2.057-0.908-3.19-1.103
			C42.508,15.585,41.341,15.568,40.172,15.723L40.172,15.723z"/>
		<path style="fill-rule:evenodd;clip-rule:evenodd;fill:#0079C1;" d="M31.445,22.559c-0.256,0.631-0.434,1.315-0.572,2.027
			c-0.201,1.1-0.218,2.267-0.063,3.436c0.155,1.169,0.508,2.3,1.019,3.366c0.506,1.033,1.17,2.002,1.974,2.807
			c0.772,0.812,1.689,1.493,2.68,2.022c0.992,0.53,2.057,0.908,3.157,1.109c1.133,0.195,2.307,0.245,3.469,0.056
			c1.136-0.148,2.3-0.507,3.333-1.013c1.067-0.511,2.002-1.169,2.841-1.98c0.812-0.771,1.493-1.689,2.022-2.681
			c0.021-0.072,0.074-0.151,0.121-0.263c0,0-0.006-0.032,0.027-0.039c0.142-0.336,0.25-0.664,0.325-0.987
			c0.116-0.467,0.16-0.955,0.138-1.429c0.017-0.449-0.071-0.912-0.193-1.368c-0.077-0.225-0.154-0.449-0.231-0.675
			c-0.11-0.218-0.214-0.404-0.325-0.623c-0.137-0.179-0.247-0.397-0.417-0.571c-0.137-0.179-0.274-0.358-0.444-0.531
			c-0.163-0.14-0.367-0.306-0.53-0.447c-0.197-0.134-0.394-0.267-0.59-0.401c-0.42-0.228-0.828-0.39-1.295-0.506
			c-0.441-0.156-0.928-0.199-1.41-0.21c-0.442,0.016-0.91,0.071-1.367,0.193c-0.231,0.044-0.456,0.121-0.681,0.198
			c-0.225,0.077-0.443,0.188-0.629,0.291c-0.212,0.143-0.398,0.247-0.61,0.39c-0.179,0.137-0.359,0.274-0.585,0.523
			c-0.226,0.249-0.467,0.603-0.701,0.99c-0.267,0.393-0.534,0.787-0.754,1.069c-0.22,0.281-0.36,0.445-0.533,0.615
			c-0.173,0.169-0.352,0.307-0.532,0.444c-0.179,0.137-0.391,0.28-0.61,0.391c-0.186,0.103-0.404,0.213-0.629,0.291
			c-0.219,0.111-0.444,0.187-0.675,0.232c-0.423,0.115-0.892,0.17-1.373,0.16c-0.475,0.022-0.936-0.061-1.403-0.177
			c-0.467-0.117-0.881-0.311-1.301-0.539c-0.19-0.101-0.387-0.234-0.551-0.374c-0.197-0.134-0.367-0.307-0.537-0.48
			c-0.163-0.14-0.334-0.313-0.471-0.492c-0.143-0.212-0.28-0.392-0.39-0.61c-0.137-0.179-0.247-0.398-0.324-0.623
			c-0.11-0.219-0.188-0.444-0.258-0.636c-0.088-0.463-0.177-0.925-0.199-1.4c-0.003-0.376,0.022-0.963,0.105-1.424
			C31.47,22.692,31.457,22.625,31.445,22.559L31.445,22.559z"/>
	</g>
</g>
</svg>
