<svg id="Layer_24" data-name="Layer 24" xmlns="http://www.w3.org/2000/svg" viewBox="0 0 144.01 95.63"><defs><style>.cls-1{fill:#ef4130;}.cls-2{fill:#225aa9;}.cls-3{fill:#da2128;}.cls-4{fill:#004c9c;}.cls-5{fill:#ffe300;}.cls-6{fill:#010101;}</style></defs><path class="cls-1" d="M421,317.85a1.1,1.1,0,0,0-1.71-.8C407.05,324.89,395.48,327.8,380,325c-20.25-3.69-26.3-12.8-45.61-13.6-19.92-.83-35.4,6.75-46,14.66a1.05,1.05,0,0,0-.37,1.18c3.75,11.14,11.49,49.55,17.85,70.8a1.13,1.13,0,0,0,1.57.67c15.57-7.06,33.73-7,59.19,2,23.46,8.31,44.29,8.89,64.75-1.72a1.12,1.12,0,0,0,.59-1.13C429.44,379,423.7,340.06,421,317.85Z" transform="translate(-287.93 -311.31)"/><path class="cls-2" d="M421,317.85a1.1,1.1,0,0,0-1.71-.8C407.05,324.89,395.48,327.8,380,325c-20.25-3.69-26.3-12.8-45.61-13.6-19.92-.83-35.4,6.75-46,14.66a1.05,1.05,0,0,0-.37,1.18c2,6,5.16,19.75,8.63,34.53C308,354,324,349.18,341,350.58c18.86,1.55,25.61,10,45.81,13.66,14.05,2.56,26.79-.69,39.23-8.82C424.13,341.75,422.25,328,421,317.85Z" transform="translate(-287.93 -311.31)"/><path class="cls-3" d="M381.91,388c-17.4-11.37-27.81-16.06-47.39-20.84-17.12-4.17-33.08-7.21-41.7-21.59,3.88,16.27,8.75,38.17,13,52.4a1.13,1.13,0,0,0,1.57.67c15.57-7.06,33.73-7,59.19,2,23.46,8.31,44.29,8.89,64.75-1.72a1.12,1.12,0,0,0,.59-1.13c-.37-2.81-.82-6.09-1.31-9.67C418.94,401.92,397.28,398.09,381.91,388Z" transform="translate(-287.93 -311.31)"/><path class="cls-4" d="M292.82,345.61c1.18,5,2.46,10.48,3.79,16.13a61.1,61.1,0,0,1,7.91-4.54A33.34,33.34,0,0,1,292.82,345.61Z" transform="translate(-287.93 -311.31)"/><path class="cls-4" d="M380,325c-20-3.65-26.15-12.58-44.93-13.56,30.49,9.81,31.78,28.1,52,34.62,12.69,4.09,26.45,3.35,35.52-15.83-.59-4.46-1.13-8.65-1.58-12.35a1.1,1.1,0,0,0-1.71-.8C407.05,324.89,395.48,327.8,380,325Z" transform="translate(-287.93 -311.31)"/><g id="_71" data-name="71"><path class="cls-5" d="M321,328.08l1,9.39-9.48,1.28c-1.48-2.11-2.7-3.9-3-6.51a4,4,0,0,1,3.66-4.49C315.76,327.4,318.76,327.89,321,328.08Z" transform="translate(-287.93 -311.31)"/></g><g id="_70" data-name="70"><path class="cls-5" d="M310.32,330l.74,5.4" transform="translate(-287.93 -311.31)"/><path class="cls-6" d="M311.07,335.48a.12.12,0,0,1-.13-.1l-.73-5.39a.11.11,0,0,1,.1-.13.11.11,0,0,1,.13.1l.73,5.39A.12.12,0,0,1,311.07,335.48Z" transform="translate(-287.93 -311.31)"/></g><g id="_69" data-name="69"><path class="cls-5" d="M311,329.32l1,7.18" transform="translate(-287.93 -311.31)"/><path class="cls-6" d="M312,336.61a.11.11,0,0,1-.13-.09l-1-7.19a.11.11,0,0,1,.1-.13.12.12,0,0,1,.12.1l1,7.19A.12.12,0,0,1,312,336.61Z" transform="translate(-287.93 -311.31)"/></g><g id="_68" data-name="68"><path class="cls-5" d="M311.72,328.84l1.16,8.55" transform="translate(-287.93 -311.31)"/><path class="cls-6" d="M312.9,337.51a.12.12,0,0,1-.13-.1l-1.16-8.56a.11.11,0,1,1,.22,0l1.16,8.56A.11.11,0,0,1,312.9,337.51Z" transform="translate(-287.93 -311.31)"/></g><g id="_67" data-name="67"><path class="cls-5" d="M312.46,328.56l.91,6.71" transform="translate(-287.93 -311.31)"/><path class="cls-6" d="M313.38,335.38a.1.1,0,0,1-.12-.1l-.91-6.71a.11.11,0,0,1,.09-.13.12.12,0,0,1,.13.1l.91,6.71A.11.11,0,0,1,313.38,335.38Z" transform="translate(-287.93 -311.31)"/></g><g id="_66" data-name="66"><path class="cls-5" d="M313.22,328.42l.92,6.78" transform="translate(-287.93 -311.31)"/><path class="cls-6" d="M314.15,335.31a.11.11,0,0,1-.13-.1l-.91-6.78a.1.1,0,0,1,.09-.12.11.11,0,0,1,.13.09l.92,6.78A.11.11,0,0,1,314.15,335.31Z" transform="translate(-287.93 -311.31)"/></g><g id="_65" data-name="65"><path class="cls-5" d="M314,328.08l.95,7" transform="translate(-287.93 -311.31)"/><path class="cls-6" d="M314.91,335.2a.11.11,0,0,1-.13-.09l-.95-7a.12.12,0,0,1,.1-.12.11.11,0,0,1,.13.09l.95,7A.11.11,0,0,1,314.91,335.2Z" transform="translate(-287.93 -311.31)"/></g><g id="_64" data-name="64"><path class="cls-5" d="M314.71,328l1,7" transform="translate(-287.93 -311.31)"/><path class="cls-6" d="M315.67,335.1a.1.1,0,0,1-.12-.1l-.95-7a.11.11,0,0,1,.09-.13.12.12,0,0,1,.13.1l.95,7A.11.11,0,0,1,315.67,335.1Z" transform="translate(-287.93 -311.31)"/></g><g id="_63" data-name="63"><path class="cls-5" d="M315.48,327.94l.95,7" transform="translate(-287.93 -311.31)"/><path class="cls-6" d="M316.45,335.07a.12.12,0,0,1-.13-.1l-.95-7a.11.11,0,1,1,.22,0l1,7A.11.11,0,0,1,316.45,335.07Z" transform="translate(-287.93 -311.31)"/></g><g id="_62" data-name="62"><path class="cls-5" d="M316.25,327.91l.95,7" transform="translate(-287.93 -311.31)"/><path class="cls-6" d="M317.22,335a.11.11,0,0,1-.13-.1l-.95-7a.11.11,0,0,1,.1-.13.12.12,0,0,1,.12.1l.95,7A.11.11,0,0,1,317.22,335Z" transform="translate(-287.93 -311.31)"/></g><g id="_61" data-name="61"><path class="cls-5" d="M317.07,328.25l.95,7" transform="translate(-287.93 -311.31)"/><path class="cls-6" d="M318,335.37a.11.11,0,0,1-.13-.09l-1-7a.11.11,0,0,1,.1-.13.1.1,0,0,1,.12.09l1,7A.11.11,0,0,1,318,335.37Z" transform="translate(-287.93 -311.31)"/></g><g id="_60" data-name="60"><path class="cls-5" d="M317.84,328.22l1.08,7.9" transform="translate(-287.93 -311.31)"/><path class="cls-6" d="M318.93,336.23a.11.11,0,0,1-.13-.09l-1.07-7.91a.12.12,0,1,1,.23,0l1.07,7.91A.11.11,0,0,1,318.93,336.23Z" transform="translate(-287.93 -311.31)"/></g><g id="_59" data-name="59"><path class="cls-5" d="M318.61,328.11l.95,7" transform="translate(-287.93 -311.31)"/><path class="cls-6" d="M319.57,335.24a.12.12,0,0,1-.13-.1l-.95-7a.13.13,0,0,1,.1-.13.12.12,0,0,1,.13.1l.95,7A.12.12,0,0,1,319.57,335.24Z" transform="translate(-287.93 -311.31)"/></g><g id="_58" data-name="58"><path class="cls-5" d="M319.37,328l.95,7" transform="translate(-287.93 -311.31)"/><path class="cls-6" d="M320.33,335.13a.1.1,0,0,1-.12-.09l-.95-7a.1.1,0,0,1,.09-.12.11.11,0,0,1,.13.09l.95,7A.1.1,0,0,1,320.33,335.13Z" transform="translate(-287.93 -311.31)"/></g><g id="_57" data-name="57"><path class="cls-6" d="M315,328.24c1.65.05,5.41,1.22,5.31,3.52-.14,3.25-2.17,2.22-4.68,2.1l-1.78.87c-.57.77-1.46,1.52-2.23.79l-1.1.15.58,4.3,12.17-1.65-1.41-10.38Z" transform="translate(-287.93 -311.31)"/><path class="cls-6" d="M323.23,338.43l-12.17,1.65a.1.1,0,0,1-.12-.1l-.59-4.29a.13.13,0,0,1,.1-.13l1.1-.15a.12.12,0,0,1,.09,0,.84.84,0,0,0,.68.26,2.42,2.42,0,0,0,1.39-1l0,0,1.78-.87h.05c.49,0,.95.08,1.39.13,1.07.13,2,.24,2.54-.22a2.58,2.58,0,0,0,.64-1.91,2.14,2.14,0,0,0-.63-1.55,7.56,7.56,0,0,0-4.57-1.85.11.11,0,0,1-.11-.11.1.1,0,0,1,.11-.11l6.85-.3a.12.12,0,0,1,.12.1l1.41,10.38A.11.11,0,0,1,323.23,338.43Zm-12.08,1.41,11.94-1.62-1.38-10.16-5.51.24a7.12,7.12,0,0,1,3.48,1.75,2.29,2.29,0,0,1,.69,1.71,2.71,2.71,0,0,1-.72,2.07c-.62.53-1.59.41-2.7.28-.44-.06-.88-.11-1.35-.13l-1.72.84a2.65,2.65,0,0,1-1.49,1.1h-.05a1.06,1.06,0,0,1-.81-.29l-.94.13Z" transform="translate(-287.93 -311.31)"/></g><g id="_56" data-name="56"><path class="cls-5" d="M320.2,326a.75.75,0,1,1-.64.84A.76.76,0,0,1,320.2,326Z" transform="translate(-287.93 -311.31)"/><path class="cls-6" d="M320.42,327.65a.9.9,0,1,1,.77-1A.9.9,0,0,1,320.42,327.65Zm-.2-1.48a.61.61,0,0,0-.51.67.6.6,0,1,0,.51-.67Z" transform="translate(-287.93 -311.31)"/></g><g id="_55" data-name="55"><path class="cls-5" d="M318.49,325.85a.75.75,0,0,1,.84.64.76.76,0,0,1-.64.84.75.75,0,1,1-.2-1.48Z" transform="translate(-287.93 -311.31)"/><path class="cls-6" d="M318.71,327.48a.9.9,0,1,1,.77-1A.9.9,0,0,1,318.71,327.48Zm-.2-1.48a.58.58,0,0,0-.51.67.6.6,0,0,0,.67.51.61.61,0,0,0,.51-.67A.59.59,0,0,0,318.51,326Z" transform="translate(-287.93 -311.31)"/></g><g id="_54" data-name="54"><path class="cls-5" d="M316.74,325.65a.75.75,0,0,1,.84.64.74.74,0,1,1-1.47.2A.75.75,0,0,1,316.74,325.65Z" transform="translate(-287.93 -311.31)"/><path class="cls-6" d="M317,327.28a.89.89,0,0,1-1-.77.88.88,0,0,1,.76-1,.89.89,0,1,1,.25,1.77Zm-.21-1.48a.59.59,0,0,0-.5.67.59.59,0,1,0,1.17-.16A.6.6,0,0,0,316.76,325.8Z" transform="translate(-287.93 -311.31)"/></g><g id="_53" data-name="53"><path class="cls-5" d="M315,325.6a.75.75,0,1,1-.64.84A.74.74,0,0,1,315,325.6Z" transform="translate(-287.93 -311.31)"/><path class="cls-6" d="M315.24,327.23a.9.9,0,1,1,.76-1A.89.89,0,0,1,315.24,327.23Zm-.2-1.48a.59.59,0,0,0-.51.67.59.59,0,1,0,1.17-.16A.59.59,0,0,0,315,325.75Z" transform="translate(-287.93 -311.31)"/></g><g id="_52" data-name="52"><path class="cls-5" d="M313.3,325.66a.75.75,0,0,1,.84.64.75.75,0,0,1-1.48.2A.76.76,0,0,1,313.3,325.66Z" transform="translate(-287.93 -311.31)"/><path class="cls-6" d="M313.52,327.29a.89.89,0,1,1,.77-1A.9.9,0,0,1,313.52,327.29Zm-.2-1.48a.61.61,0,0,0-.51.67.59.59,0,0,0,.67.51.58.58,0,0,0,.51-.67A.6.6,0,0,0,313.32,325.81Z" transform="translate(-287.93 -311.31)"/></g><g id="_51" data-name="51"><path class="cls-5" d="M311.66,326a.75.75,0,1,1-.64.84A.74.74,0,0,1,311.66,326Z" transform="translate(-287.93 -311.31)"/><path class="cls-6" d="M311.88,327.61a.9.9,0,1,1,.76-1A.89.89,0,0,1,311.88,327.61Zm-.2-1.48a.59.59,0,0,0-.51.67.58.58,0,0,0,.67.51.6.6,0,0,0,.51-.67A.61.61,0,0,0,311.68,326.13Z" transform="translate(-287.93 -311.31)"/></g><g id="_50" data-name="50"><path class="cls-5" d="M310.15,326.74a.75.75,0,1,1-.64.84A.74.74,0,0,1,310.15,326.74Z" transform="translate(-287.93 -311.31)"/><path class="cls-6" d="M310.37,328.37a.9.9,0,1,1,.77-1A.91.91,0,0,1,310.37,328.37Zm-.2-1.48a.58.58,0,0,0-.51.67.6.6,0,0,0,.67.51.61.61,0,0,0,.51-.67A.59.59,0,0,0,310.17,326.89Z" transform="translate(-287.93 -311.31)"/></g><g id="_49" data-name="49"><path class="cls-5" d="M309,327.9a.75.75,0,1,1-.64.84A.74.74,0,0,1,309,327.9Z" transform="translate(-287.93 -311.31)"/><path class="cls-6" d="M309.17,329.53a.9.9,0,1,1,.77-1A.91.91,0,0,1,309.17,329.53Zm-.2-1.48a.59.59,0,0,0-.51.67.6.6,0,0,0,.67.51.61.61,0,0,0,.51-.67A.59.59,0,0,0,309,328.05Z" transform="translate(-287.93 -311.31)"/></g><g id="_48" data-name="48"><path class="cls-5" d="M308.19,329.39a.75.75,0,1,1-.64.84A.75.75,0,0,1,308.19,329.39Z" transform="translate(-287.93 -311.31)"/><path class="cls-6" d="M308.41,331a.9.9,0,1,1,.77-1A.9.9,0,0,1,308.41,331Zm-.2-1.48a.6.6,0,0,0-.51.67.58.58,0,0,0,.67.51.6.6,0,0,0,.51-.67A.61.61,0,0,0,308.21,329.54Z" transform="translate(-287.93 -311.31)"/></g><g id="_47" data-name="47"><path class="cls-5" d="M308,331.06a.75.75,0,1,1-.64.84A.75.75,0,0,1,308,331.06Z" transform="translate(-287.93 -311.31)"/><path class="cls-6" d="M308.17,332.69a.9.9,0,1,1,.77-1A.9.9,0,0,1,308.17,332.69Zm-.2-1.48a.61.61,0,0,0-.51.67.6.6,0,0,0,.67.51.58.58,0,0,0,.51-.67A.6.6,0,0,0,308,331.21Z" transform="translate(-287.93 -311.31)"/></g><g id="_46" data-name="46"><path class="cls-5" d="M308.19,332.73a.74.74,0,1,1-.63.84A.74.74,0,0,1,308.19,332.73Z" transform="translate(-287.93 -311.31)"/><path class="cls-6" d="M308.42,334.35a.89.89,0,1,1,.76-1A.89.89,0,0,1,308.42,334.35Zm-.21-1.47a.59.59,0,1,0,.67.51A.58.58,0,0,0,308.21,332.88Z" transform="translate(-287.93 -311.31)"/></g><g id="_45" data-name="45"><path class="cls-5" d="M308.73,334.32a.74.74,0,1,1-.63.83A.74.74,0,0,1,308.73,334.32Z" transform="translate(-287.93 -311.31)"/><path class="cls-6" d="M309,335.94a.89.89,0,1,1,.77-1A.89.89,0,0,1,309,335.94Zm-.2-1.47a.59.59,0,1,0,.16,1.17.59.59,0,1,0-.16-1.17Z" transform="translate(-287.93 -311.31)"/></g><g id="_44" data-name="44"><path class="cls-5" d="M320.76,327.7l.06,1c-1.87,0-4.62-.7-7.05-.37-2.24.3-3.86,1.43-3.56,3.7a12.47,12.47,0,0,0,3.06,6l-1.22.8c-1.48-2.11-2.7-3.91-3.06-6.52a4.46,4.46,0,0,1,4.09-5C315.7,327,318.5,327.5,320.76,327.7Z" transform="translate(-287.93 -311.31)"/><path class="cls-6" d="M312.07,339a.17.17,0,0,1-.15-.06c-1.39-2-2.71-3.89-3.07-6.59a4.58,4.58,0,0,1,4.21-5.13,25.07,25.07,0,0,1,6,.18l1.69.18a.14.14,0,0,1,.14.14l.06,1a.12.12,0,0,1,0,.11.16.16,0,0,1-.11.05c-.68,0-1.47-.1-2.31-.2a19.06,19.06,0,0,0-4.72-.17c-1.43.19-3.78.91-3.43,3.53a12.43,12.43,0,0,0,3,5.95.16.16,0,0,1,0,.12.14.14,0,0,1-.07.1l-1.22.8Zm1-11.48a4.31,4.31,0,0,0-4,4.79c.35,2.58,1.61,4.41,2.95,6.33l1-.62a12.48,12.48,0,0,1-3-6c-.28-2.11,1.06-3.52,3.69-3.87a19.19,19.19,0,0,1,4.8.17c.76.09,1.48.17,2.11.19l0-.67-1.57-.17A24.52,24.52,0,0,0,313.1,327.49Z" transform="translate(-287.93 -311.31)"/></g><g id="_43" data-name="43"><path class="cls-5" d="M322.7,327.86l1.54,9.31,9.48-1.29c.86-2.43,1.57-4.48,1.21-7.09a4,4,0,0,0-4.72-3.35C327.59,325.79,324.83,327.07,322.7,327.86Z" transform="translate(-287.93 -311.31)"/></g><g id="_42" data-name="42"><path class="cls-5" d="M333.51,326.83l.73,5.39" transform="translate(-287.93 -311.31)"/><path class="cls-6" d="M334.26,332.34a.13.13,0,0,1-.13-.1l-.73-5.4a.1.1,0,0,1,.1-.12.1.1,0,0,1,.12.09l.73,5.4A.11.11,0,0,1,334.26,332.34Z" transform="translate(-287.93 -311.31)"/></g><g id="_41" data-name="41"><path class="cls-5" d="M332.67,326.38l1,7.18" transform="translate(-287.93 -311.31)"/><path class="cls-6" d="M333.66,333.68a.11.11,0,0,1-.12-.1l-1-7.18a.11.11,0,0,1,.1-.13.11.11,0,0,1,.13.1l1,7.18A.11.11,0,0,1,333.66,333.68Z" transform="translate(-287.93 -311.31)"/></g><g id="_40" data-name="40"><path class="cls-5" d="M331.86,326.11l1.16,8.55" transform="translate(-287.93 -311.31)"/><path class="cls-6" d="M333,334.78a.11.11,0,0,1-.13-.1l-1.16-8.56a.11.11,0,1,1,.22,0l1.16,8.56A.11.11,0,0,1,333,334.78Z" transform="translate(-287.93 -311.31)"/></g><g id="_39" data-name="39"><path class="cls-5" d="M331.08,326l.91,6.72" transform="translate(-287.93 -311.31)"/><path class="cls-6" d="M332,332.86a.12.12,0,0,1-.13-.1l-.91-6.71a.13.13,0,0,1,.1-.13.12.12,0,0,1,.13.1l.91,6.71A.12.12,0,0,1,332,332.86Z" transform="translate(-287.93 -311.31)"/></g><g id="_38" data-name="38"><path class="cls-5" d="M330.31,326.1l.92,6.78" transform="translate(-287.93 -311.31)"/><path class="cls-6" d="M331.24,333a.1.1,0,0,1-.12-.09l-.92-6.78a.11.11,0,0,1,.09-.13.11.11,0,0,1,.13.1l.92,6.78A.1.1,0,0,1,331.24,333Z" transform="translate(-287.93 -311.31)"/></g><g id="_37" data-name="37"><path class="cls-5" d="M329.52,326l1,7" transform="translate(-287.93 -311.31)"/><path class="cls-6" d="M330.48,333.09a.11.11,0,0,1-.13-.09l-1-7a.12.12,0,0,1,.1-.12.11.11,0,0,1,.13.09l.95,7A.11.11,0,0,1,330.48,333.09Z" transform="translate(-287.93 -311.31)"/></g><g id="_36" data-name="36"><path class="cls-5" d="M328.75,326.07l.95,7" transform="translate(-287.93 -311.31)"/><path class="cls-6" d="M329.72,333.2a.13.13,0,0,1-.13-.1l-.95-7a.12.12,0,0,1,.1-.13.11.11,0,0,1,.13.1l.95,7A.13.13,0,0,1,329.72,333.2Z" transform="translate(-287.93 -311.31)"/></g><g id="_35" data-name="35"><path class="cls-5" d="M328,326.24l.95,7" transform="translate(-287.93 -311.31)"/><path class="cls-6" d="M329,333.37a.11.11,0,0,1-.13-.1l-.95-7a.11.11,0,0,1,.1-.13.11.11,0,0,1,.12.1l.95,7A.11.11,0,0,1,329,333.37Z" transform="translate(-287.93 -311.31)"/></g><g id="_34" data-name="34"><path class="cls-5" d="M327.25,326.42l.95,7" transform="translate(-287.93 -311.31)"/><path class="cls-6" d="M328.21,333.54a.1.1,0,0,1-.12-.1l-.95-7a.11.11,0,0,1,.09-.13.12.12,0,0,1,.13.1l.95,7A.11.11,0,0,1,328.21,333.54Z" transform="translate(-287.93 -311.31)"/></g><g id="_33" data-name="33"><path class="cls-5" d="M326.55,327l.95,7" transform="translate(-287.93 -311.31)"/><path class="cls-6" d="M327.51,334.09a.1.1,0,0,1-.12-.1l-.95-7a.11.11,0,0,1,.09-.13.13.13,0,0,1,.13.1l.95,7A.11.11,0,0,1,327.51,334.09Z" transform="translate(-287.93 -311.31)"/></g><g id="_32" data-name="32"><path class="cls-5" d="M325.79,327.14l1.08,7.9" transform="translate(-287.93 -311.31)"/><path class="cls-6" d="M326.88,335.16a.13.13,0,0,1-.13-.1l-1.07-7.91a.11.11,0,0,1,.1-.12.11.11,0,0,1,.13.09L327,335A.12.12,0,0,1,326.88,335.16Z" transform="translate(-287.93 -311.31)"/></g><g id="_31" data-name="31"><path class="cls-5" d="M325,327.24l1,7" transform="translate(-287.93 -311.31)"/><path class="cls-6" d="M326,334.37a.13.13,0,0,1-.13-.1l-.95-7a.11.11,0,0,1,.1-.13.11.11,0,0,1,.13.1l1,7A.13.13,0,0,1,326,334.37Z" transform="translate(-287.93 -311.31)"/></g><g id="_30" data-name="30"><path class="cls-5" d="M324.27,327.34l1,7" transform="translate(-287.93 -311.31)"/><path class="cls-6" d="M325.24,334.47a.11.11,0,0,1-.13-.1l-.95-7a.11.11,0,0,1,.1-.13.11.11,0,0,1,.12.1l.95,7A.11.11,0,0,1,325.24,334.47Z" transform="translate(-287.93 -311.31)"/></g><g id="_29" data-name="29"><path class="cls-6" d="M328.59,326.39c-1.58.49-4.89,2.62-4.18,4.8,1,3.1,2.68,1.57,5.07.79l1.94.36c.76.59,1.82,1.08,2.37.17l1.1-.15.58,4.3-12.16,1.65-1.41-10.38Z" transform="translate(-287.93 -311.31)"/><path class="cls-6" d="M335.49,336.77l-12.17,1.65a.1.1,0,0,1-.12-.1l-1.41-10.38a.11.11,0,0,1,.09-.12l6.68-1.54a.11.11,0,0,1,.14.08.12.12,0,0,1-.08.14,7.5,7.5,0,0,0-3.91,3,2.1,2.1,0,0,0-.19,1.66,2.59,2.59,0,0,0,1.12,1.67c.65.3,1.51-.05,2.5-.46.42-.17.85-.35,1.31-.5h.05l1.94.37.05,0a2.45,2.45,0,0,0,1.58.64h0a.84.84,0,0,0,.58-.44.11.11,0,0,1,.09-.05l1.1-.15a.11.11,0,0,1,.12.1l.59,4.29A.12.12,0,0,1,335.49,336.77Zm-12.09,1.41,12-1.62-.56-4.07-.93.13a1.1,1.1,0,0,1-.71.49h0a2.63,2.63,0,0,1-1.72-.67l-1.89-.36c-.44.15-.86.32-1.26.49-1,.43-1.94.8-2.68.45a2.73,2.73,0,0,1-1.25-1.8,2.3,2.3,0,0,1,.21-1.83,7.11,7.11,0,0,1,2.89-2.62L322,328Z" transform="translate(-287.93 -311.31)"/></g><g id="_28" data-name="28"><path class="cls-5" d="M322.94,325.65a.75.75,0,1,0,.84.64A.75.75,0,0,0,322.94,325.65Z" transform="translate(-287.93 -311.31)"/><path class="cls-6" d="M323.16,327.28a.9.9,0,1,1,.77-1A.9.9,0,0,1,323.16,327.28Zm-.2-1.48a.6.6,0,0,0-.51.67.58.58,0,0,0,.67.51.6.6,0,0,0,.51-.67A.61.61,0,0,0,323,325.8Z" transform="translate(-287.93 -311.31)"/></g><g id="_27" data-name="27"><path class="cls-5" d="M324.55,325a.75.75,0,1,0,.83.64A.74.74,0,0,0,324.55,325Z" transform="translate(-287.93 -311.31)"/><path class="cls-6" d="M324.77,326.66a.9.9,0,1,1-.24-1.78.9.9,0,0,1,.24,1.78Zm-.2-1.48a.58.58,0,0,0-.51.67.6.6,0,0,0,.67.51.61.61,0,0,0,.51-.67A.59.59,0,0,0,324.57,325.18Z" transform="translate(-287.93 -311.31)"/></g><g id="_26" data-name="26"><path class="cls-5" d="M326.17,324.38a.74.74,0,1,0,.2,1.47.74.74,0,1,0-.2-1.47Z" transform="translate(-287.93 -311.31)"/><path class="cls-6" d="M326.39,326a.89.89,0,0,1-1-.76.9.9,0,0,1,1.78-.24A.88.88,0,0,1,326.39,326Zm-.2-1.47a.6.6,0,0,0-.51.67.61.61,0,0,0,.67.51.59.59,0,0,0,.51-.67A.58.58,0,0,0,326.19,324.53Z" transform="translate(-287.93 -311.31)"/></g><g id="_25" data-name="25"><path class="cls-5" d="M327.83,323.87a.74.74,0,1,0,.2,1.47.74.74,0,1,0-.2-1.47Z" transform="translate(-287.93 -311.31)"/><path class="cls-6" d="M328.05,325.49a.89.89,0,1,1-.24-1.77.88.88,0,0,1,1,.76A.89.89,0,0,1,328.05,325.49Zm-.2-1.47a.59.59,0,1,0,.16,1.17.59.59,0,1,0-.16-1.17Z" transform="translate(-287.93 -311.31)"/></g><g id="_24" data-name="24"><path class="cls-5" d="M329.49,323.47a.75.75,0,1,0,.84.64A.74.74,0,0,0,329.49,323.47Z" transform="translate(-287.93 -311.31)"/><path class="cls-6" d="M329.72,325.1a.9.9,0,0,1-1-.77.89.89,0,1,1,1,.77Zm-.21-1.48a.58.58,0,0,0-.5.67.59.59,0,1,0,.5-.67Z" transform="translate(-287.93 -311.31)"/></g><g id="_23" data-name="23"><path class="cls-5" d="M331.17,323.34a.75.75,0,1,0,.83.64A.74.74,0,0,0,331.17,323.34Z" transform="translate(-287.93 -311.31)"/><path class="cls-6" d="M331.39,325a.9.9,0,1,1-.24-1.78.9.9,0,0,1,.24,1.78Zm-.2-1.48a.58.58,0,0,0-.51.67.6.6,0,0,0,.67.51.61.61,0,0,0,.51-.67A.6.6,0,0,0,331.19,323.49Z" transform="translate(-287.93 -311.31)"/></g><g id="_22" data-name="22"><path class="cls-5" d="M332.82,323.67a.74.74,0,1,0,.84.64A.75.75,0,0,0,332.82,323.67Z" transform="translate(-287.93 -311.31)"/><path class="cls-6" d="M333,325.29a.89.89,0,0,1-1-.76.9.9,0,1,1,1.78-.24A.89.89,0,0,1,333,325.29Zm-.2-1.47a.6.6,0,1,0,.67.51A.58.58,0,0,0,332.84,323.82Z" transform="translate(-287.93 -311.31)"/></g><g id="_21" data-name="21"><path class="cls-5" d="M334.28,324.47a.74.74,0,1,0,.84.63A.73.73,0,0,0,334.28,324.47Z" transform="translate(-287.93 -311.31)"/><path class="cls-6" d="M334.5,326.09a.89.89,0,1,1,.77-1A.89.89,0,0,1,334.5,326.09Zm-.2-1.48a.59.59,0,0,0-.5.67.59.59,0,1,0,1.17-.16A.6.6,0,0,0,334.3,324.61Z" transform="translate(-287.93 -311.31)"/></g><g id="_20" data-name="20"><path class="cls-5" d="M335.41,325.7a.75.75,0,1,0,.84.64A.74.74,0,0,0,335.41,325.7Z" transform="translate(-287.93 -311.31)"/><path class="cls-6" d="M335.64,327.33a.9.9,0,1,1,.76-1A.89.89,0,0,1,335.64,327.33Zm-.21-1.48a.59.59,0,0,0-.5.67.59.59,0,1,0,1.17-.16A.6.6,0,0,0,335.43,325.85Z" transform="translate(-287.93 -311.31)"/></g><g id="_19" data-name="19"><path class="cls-5" d="M336.09,327.25a.75.75,0,1,0,.2,1.48.75.75,0,0,0-.2-1.48Z" transform="translate(-287.93 -311.31)"/><path class="cls-6" d="M336.31,328.88a.9.9,0,1,1,.77-1A.91.91,0,0,1,336.31,328.88Zm-.2-1.48a.58.58,0,0,0-.51.67.6.6,0,0,0,.67.51.61.61,0,0,0,.51-.67A.59.59,0,0,0,336.11,327.4Z" transform="translate(-287.93 -311.31)"/></g><g id="_18" data-name="18"><path class="cls-5" d="M336.3,328.92a.74.74,0,0,0-.64.84.75.75,0,1,0,.64-.84Z" transform="translate(-287.93 -311.31)"/><path class="cls-6" d="M336.52,330.55a.9.9,0,1,1,.77-1A.9.9,0,0,1,336.52,330.55Zm-.2-1.48a.58.58,0,0,0-.51.67.6.6,0,0,0,.67.51.61.61,0,0,0,.51-.67A.59.59,0,0,0,336.32,329.07Z" transform="translate(-287.93 -311.31)"/></g><g id="_17" data-name="17"><path class="cls-5" d="M336.2,330.59a.75.75,0,1,0,.84.64A.75.75,0,0,0,336.2,330.59Z" transform="translate(-287.93 -311.31)"/><path class="cls-6" d="M336.42,332.22a.9.9,0,1,1,.77-1A.9.9,0,0,1,336.42,332.22Zm-.2-1.48a.61.61,0,0,0-.51.67.6.6,0,0,0,1.18-.16A.6.6,0,0,0,336.22,330.74Z" transform="translate(-287.93 -311.31)"/></g><g id="_16" data-name="16"><path class="cls-5" d="M322.85,327.42l.19.95c1.81-.53,4.27-1.91,6.7-2.24,2.25-.3,4.11.36,4.42,2.62a12.36,12.36,0,0,1-1.35,6.62l1.39.45c.86-2.43,1.57-4.49,1.21-7.1a4.44,4.44,0,0,0-5.26-3.69C327.53,325.38,325,326.63,322.85,327.42Z" transform="translate(-287.93 -311.31)"/><path class="cls-6" d="M334.22,336h-.06l-1.39-.44a.12.12,0,0,1-.09-.08.15.15,0,0,1,0-.13,12.45,12.45,0,0,0,1.33-6.54c-.36-2.62-2.81-2.68-4.25-2.49a19,19,0,0,0-4.5,1.42c-.78.32-1.52.62-2.17.81a.16.16,0,0,1-.12,0,.14.14,0,0,1-.07-.1l-.2-.95a.15.15,0,0,1,.09-.18c.51-.18,1-.4,1.59-.62a24.84,24.84,0,0,1,5.75-1.77,4.59,4.59,0,0,1,5.43,3.82c.37,2.7-.4,4.87-1.21,7.17A.17.17,0,0,1,334.22,336Zm-1.2-.69,1.09.35c.78-2.21,1.5-4.31,1.15-6.89a4.3,4.3,0,0,0-5.09-3.56,24.06,24.06,0,0,0-5.68,1.75l-1.47.58.14.67c.6-.19,1.27-.47,2-.76a20,20,0,0,1,4.58-1.44c2.63-.35,4.3.65,4.59,2.75A12.46,12.46,0,0,1,333,335.28Z" transform="translate(-287.93 -311.31)"/></g><g id="_15" data-name="15"><path class="cls-5" d="M320.46,317.62l-.58,1.55,1,1.34.57-1.55Zm.49,3.65-.57,1.54,1,1.34.58-1.54Z" transform="translate(-287.93 -311.31)"/><path class="cls-6" d="M321.36,324.3a.13.13,0,0,1-.14-.06l-1-1.34a.17.17,0,0,1,0-.14l.58-1.54a.15.15,0,0,1,.26,0l1,1.34a.14.14,0,0,1,0,.14l-.58,1.55A.13.13,0,0,1,321.36,324.3Zm-.82-1.51.76,1,.45-1.21-.76-1Zm.33-2.13a.14.14,0,0,1-.14-.06l-1-1.34a.14.14,0,0,1,0-.14l.58-1.55a.15.15,0,0,1,.26,0l1,1.34a.17.17,0,0,1,0,.14l-.58,1.54A.17.17,0,0,1,320.87,320.66Zm-.82-1.51.76,1,.44-1.2-.75-1.05Z" transform="translate(-287.93 -311.31)"/></g><g id="_14" data-name="14"><path class="cls-5" d="M318.15,321.26l1.32.61,1.11-.94-1.32-.6Zm3.07-.41,1.32.6,1.11-.93-1.32-.61Z" transform="translate(-287.93 -311.31)"/><path class="cls-6" d="M322.56,321.6a.14.14,0,0,1-.09,0l-1.31-.61a.14.14,0,0,1-.09-.11.15.15,0,0,1,.05-.14l1.11-.93a.16.16,0,0,1,.16,0l1.32.61a.16.16,0,0,1,.09.12.13.13,0,0,1-.05.13l-1.12.94A.09.09,0,0,1,322.56,321.6Zm-1.06-.79,1,.47.86-.73-1-.46Zm-2,1.21h-.08l-1.32-.61a.16.16,0,0,1-.09-.12.13.13,0,0,1,.05-.13l1.11-.94a.15.15,0,0,1,.17,0l1.31.61a.14.14,0,0,1,.09.11.16.16,0,0,1-.05.14l-1.11.93Zm-1.06-.8,1,.47.85-.72-1-.47Z" transform="translate(-287.93 -311.31)"/></g><g id="_13" data-name="13"><path class="cls-5" d="M320.82,320.32a.59.59,0,1,1,.16,1.17.59.59,0,0,1-.16-1.17Z" transform="translate(-287.93 -311.31)"/><path class="cls-6" d="M321,321.64a.73.73,0,0,1-.83-.63.74.74,0,1,1,.83.63Zm-.16-1.17a.44.44,0,0,0,.12.87.44.44,0,0,0,.38-.49A.45.45,0,0,0,320.84,320.47Z" transform="translate(-287.93 -311.31)"/></g><g id="_12" data-name="12"><circle class="cls-5" cx="321.41" cy="324.64" r="1.58" transform="translate(-295.24 330.55) rotate(-89.27)"/><path class="cls-6" d="M321.64,326.35a1.73,1.73,0,1,1,1.48-2A1.74,1.74,0,0,1,321.64,326.35Zm-.42-3.13a1.44,1.44,0,0,0-1.23,1.61,1.43,1.43,0,1,0,1.23-1.61Z" transform="translate(-287.93 -311.31)"/></g><g id="_11" data-name="11"><path class="cls-6" d="M323,324.93h0a9.19,9.19,0,0,0-3,.4.11.11,0,0,1-.14-.07.1.1,0,0,1,.07-.14,9.38,9.38,0,0,1,3.07-.42.11.11,0,0,1,.11.12A.14.14,0,0,1,323,324.93Zm-.11-.79h0a10.47,10.47,0,0,0-1.12,0,.11.11,0,0,1-.12-.1l-.13-1a.1.1,0,0,1,.09-.12.11.11,0,0,1,.13.09l.12.89a9,9,0,0,1,1,0,.11.11,0,0,1,.1.12A.12.12,0,0,1,322.88,324.14Zm-3,.41a.13.13,0,0,1-.13-.08.12.12,0,0,1,.08-.14,8.64,8.64,0,0,1,1-.26l0-.15c0-.19-.05-.42-.09-.73a.11.11,0,0,1,.09-.13.11.11,0,0,1,.13.1c0,.31.07.54.1.73l0,.26a.11.11,0,0,1-.09.13,7.73,7.73,0,0,0-1.08.26Z" transform="translate(-287.93 -311.31)"/></g><g id="_10" data-name="10"><path class="cls-5" d="M320.24,327.49a18.14,18.14,0,0,1-.49,7.24l1.53-.87a49.38,49.38,0,0,0,0-6.34Zm3.05-.42-1,.32a47,47,0,0,0,1.7,6.1l1.7.44A18.37,18.37,0,0,1,323.29,327.07Z" transform="translate(-287.93 -311.31)"/><path class="cls-6" d="M325.71,334.08h0l-1.71-.43a.15.15,0,0,1-.1-.09,31.84,31.84,0,0,1-1.39-4.8c-.12-.52-.22-1-.32-1.32a.17.17,0,0,1,.1-.19l1-.31a.17.17,0,0,1,.12,0,.16.16,0,0,1,.07.11c.46,2.35,1.1,5,2.38,6.79a.17.17,0,0,1,0,.17A.16.16,0,0,1,325.71,334.08Zm-1.61-.72,1.25.32a19.2,19.2,0,0,1-2.17-6.41l-.71.22c.09.33.18.73.29,1.19A32.16,32.16,0,0,0,324.1,333.36Zm-4.33,1.52a.13.13,0,0,1-.12,0,.14.14,0,0,1,0-.17c.75-2.06.66-4.79.48-7.18a.14.14,0,0,1,0-.12.15.15,0,0,1,.11,0l1.05,0a.15.15,0,0,1,.15.15c0,.36,0,.83,0,1.36a31.13,31.13,0,0,1-.05,5,.18.18,0,0,1-.08.11l-1.53.87Zm.63-7.24a19.26,19.26,0,0,1-.38,6.77l1.12-.64a33.19,33.19,0,0,0,0-4.87c0-.48,0-.89,0-1.23Z" transform="translate(-287.93 -311.31)"/></g><g id="_9" data-name="9"><path class="cls-5" d="M322.51,332.82c-1.93.26-3.22,1.36-3,3.69-.59-.77-2.94-3.11-4.76-2.51-1.08.36-1.85,2-1.44,3.77-1.28-2.51-4-2.58-5.77-.76,1.93,1.2,3.28,5.32,5,7l11.28-1.53,11.27-1.53c1.22-2,1.43-6.36,3-8-2.17-1.29-4.8-.5-5.36,2.26-.07-1.78-1.26-3.18-2.4-3.24-1.91-.1-3.55,2.78-3.91,3.68C326,333.27,324.45,332.55,322.51,332.82Z" transform="translate(-287.93 -311.31)"/><path class="cls-6" d="M335.11,341.06l-22.55,3.06a.17.17,0,0,1-.12,0,14.84,14.84,0,0,1-2.17-3.19c-.86-1.53-1.76-3.1-2.8-3.75a.12.12,0,0,1-.07-.11.14.14,0,0,1,0-.12,3.84,3.84,0,0,1,3.35-1.27,3.41,3.41,0,0,1,2.27,1.42,3.09,3.09,0,0,1,1.66-3.2c1.71-.57,3.76,1.26,4.62,2.21,0-1.92,1.08-3.12,3.15-3.4s3.46.58,3.95,2.44c.58-1.14,2.06-3.45,3.87-3.36a3.09,3.09,0,0,1,2.45,2.64,3.41,3.41,0,0,1,1.81-2,3.89,3.89,0,0,1,3.57.34.12.12,0,0,1,.07.11.11.11,0,0,1,0,.12c-.83.9-1.28,2.66-1.71,4.36a14.39,14.39,0,0,1-1.24,3.65A.12.12,0,0,1,335.11,341.06Zm-22.51,2.75,22.4-3a15,15,0,0,0,1.17-3.51,12,12,0,0,1,1.66-4.34,3.55,3.55,0,0,0-3.14-.23,3.29,3.29,0,0,0-1.84,2.48.15.15,0,0,1-.16.12.14.14,0,0,1-.14-.14c-.07-1.76-1.25-3-2.26-3.1-1.85-.1-3.46,2.85-3.76,3.59a.14.14,0,0,1-.15.09.16.16,0,0,1-.14-.13c-.44-2.53-2.26-2.83-3.71-2.63s-3.12,1-2.86,3.53a.16.16,0,0,1-.1.15.13.13,0,0,1-.17,0c-.48-.63-2.82-3-4.59-2.45-1,.32-1.75,1.87-1.35,3.59a.14.14,0,0,1-.09.17.15.15,0,0,1-.19-.07,3.31,3.31,0,0,0-2.43-1.91,3.55,3.55,0,0,0-3,1.06,12.09,12.09,0,0,1,2.76,3.75A14.58,14.58,0,0,0,312.6,343.81Z" transform="translate(-287.93 -311.31)"/></g><g id="_8" data-name="8"><path class="cls-6" d="M335.06,340.92c.11.83-4.8,2.43-11,3.27s-11.37.61-11.48-.23,4.86-1.95,11.07-2.79S335,340.08,335.06,340.92Z" transform="translate(-287.93 -311.31)"/><path class="cls-6" d="M324.07,344.3c-6,.82-11.47.67-11.6-.32,0-.31.25-.79,3.25-1.52,2-.48,4.77-1,7.91-1.4s6-.7,8-.76c3.09-.09,3.5.3,3.54.6C335.31,341.89,330.12,343.48,324.07,344.3Zm-.41-3c-7.3,1-11,2.09-11,2.67s4.9,1,11.35.13,11-2.49,10.91-3.15S331,340.29,323.66,341.28Z" transform="translate(-287.93 -311.31)"/></g><g id="_7" data-name="7"><path class="cls-5" d="M321.63,326.27a.53.53,0,1,1-.45.6A.53.53,0,0,1,321.63,326.27Z" transform="translate(-287.93 -311.31)"/><path class="cls-6" d="M321.79,327.43a.64.64,0,1,1,.55-.72A.64.64,0,0,1,321.79,327.43Zm-.15-1.05a.42.42,0,1,0,.47.36A.42.42,0,0,0,321.64,326.38Z" transform="translate(-287.93 -311.31)"/></g><g id="_6" data-name="6"><path class="cls-5" d="M321.78,327.37a.57.57,0,1,1-.48.64A.56.56,0,0,1,321.78,327.37Z" transform="translate(-287.93 -311.31)"/><path class="cls-6" d="M322,328.6a.68.68,0,1,1,.57-.76A.68.68,0,0,1,322,328.6Zm-.16-1.12a.45.45,0,0,0,.12.9.46.46,0,0,0,.39-.51A.45.45,0,0,0,321.79,327.48Z" transform="translate(-287.93 -311.31)"/></g><g id="_5" data-name="5"><path class="cls-5" d="M321.94,328.54a.62.62,0,0,1,.69.53.62.62,0,0,1-.53.69.61.61,0,0,1-.69-.53A.62.62,0,0,1,321.94,328.54Z" transform="translate(-287.93 -311.31)"/><path class="cls-6" d="M322.12,329.87a.73.73,0,1,1,.62-.82A.72.72,0,0,1,322.12,329.87Zm-.17-1.22a.5.5,0,1,0,.14,1,.5.5,0,1,0-.14-1Z" transform="translate(-287.93 -311.31)"/></g><g id="_4" data-name="4"><path class="cls-5" d="M322.11,329.81a.7.7,0,0,1,.19,1.39.69.69,0,0,1-.79-.6A.7.7,0,0,1,322.11,329.81Z" transform="translate(-287.93 -311.31)"/><path class="cls-6" d="M322.31,331.32a.82.82,0,0,1-.91-.7.81.81,0,1,1,1.61-.22A.82.82,0,0,1,322.31,331.32Zm-.19-1.4a.6.6,0,0,0-.5.67.58.58,0,0,0,.66.5.59.59,0,0,0,.51-.66A.6.6,0,0,0,322.12,329.92Z" transform="translate(-287.93 -311.31)"/></g><g id="_3" data-name="3"><path class="cls-5" d="M322.3,331.26a.76.76,0,0,1,.87.66.77.77,0,1,1-1.53.2A.77.77,0,0,1,322.3,331.26Z" transform="translate(-287.93 -311.31)"/><path class="cls-6" d="M322.53,332.9a.89.89,0,1,1-.24-1.76.89.89,0,0,1,.24,1.76Zm-.21-1.53a.66.66,0,1,0,.74.56A.65.65,0,0,0,322.32,331.37Z" transform="translate(-287.93 -311.31)"/></g><g id="_2" data-name="2"><path class="cls-6" d="M322.3,333.53c-.08,0-.15.09-.11.22s.12.44.17.64.19.14.2,0a3.53,3.53,0,0,0-.06-.61C322.49,333.58,322.39,333.52,322.3,333.53Zm.61-.08c-.08,0-.16.1-.14.26a4.11,4.11,0,0,0,.12.6c.05.17.19.21.19,0v-.66A.16.16,0,0,0,322.91,333.45Zm-1.14.24a.18.18,0,0,0-.12.19c0,.15.09.32.14.54s.2.12.19,0a3,3,0,0,0-.06-.58c0-.1-.06-.13-.11-.13Zm1.66-.22c-.05,0-.08.06-.08.15a3.91,3.91,0,0,0,.1.59c0,.13.21.19.2,0s0-.41,0-.56a.19.19,0,0,0-.18-.15Zm-2.27.57a.17.17,0,0,0-.09.21,2.51,2.51,0,0,1,.16.58c0,.17.16.09.15,0s0-.36-.05-.58S321.23,334,321.16,334Zm2.94-.4s-.08.08-.06.21.08.47.1.58.17.16.15,0a2.41,2.41,0,0,1,0-.6.18.18,0,0,0-.14-.19Zm-8.83,1.22c-.09,0-.13.13,0,.25s.23.3.35.5.22,0,.16-.08a5.48,5.48,0,0,0-.29-.54C315.38,334.89,315.32,334.86,315.27,334.86Zm14.78-2c-.05,0-.1.06-.14.17a4.82,4.82,0,0,0-.13.59c0,.14.12.24.18,0s.14-.37.2-.58S330.13,332.85,330.05,332.86Zm-14.18,1.93a.14.14,0,0,0,0,.2c.1.17.23.34.34.53s.23.09.16-.06-.1-.24-.24-.52S315.93,334.77,315.87,334.79ZM329.4,333s-.1.07-.12.19c-.06.31-.06.41-.09.57s.12.19.17,0,.13-.41.18-.6,0-.17-.09-.18Zm-12.76,1.88c-.08,0-.12.15-.05.28s.21.34.32.53.24.14.19,0-.12-.34-.27-.66C316.77,334.86,316.69,334.82,316.64,334.84Zm12.08-1.64c-.06,0-.12.06-.15.21-.05.34-.06.57-.08.7s.13.16.19-.05.12-.41.16-.6S328.8,333.2,328.72,333.2Zm-13.92,2a.19.19,0,0,0-.08.26c.11.16.17.21.27.37s.18,0,.13-.09-.11-.24-.17-.4S314.85,335.18,314.8,335.19Zm15.79-2.14s-.1.05-.11.17-.05.31-.06.43.09.25.15.06.1-.25.16-.43A.18.18,0,0,0,330.59,333.05Zm-10,1.78a.18.18,0,0,0-.12.24c.07.17.17.31.26.53s.2.07.17-.06a3.14,3.14,0,0,0-.17-.58C320.73,334.86,320.67,334.82,320.62,334.83Zm4.26-.58c-.05,0-.1.06-.11.17a5.76,5.76,0,0,0,0,.6c0,.14.16.21.18,0s.08-.4.11-.58A.18.18,0,0,0,324.88,334.25Zm-2.11.47c-.1,0-.1.16-.09.27a1.87,1.87,0,0,1-.18,1c-.11.21-.32.18-.52.11a2.64,2.64,0,0,1-.54-.26c-.21-.12-.35,0-.07.29a5.49,5.49,0,0,1,1.9,3.24c0,.21.08.27.17.25s.12-.08.09-.28a5.43,5.43,0,0,1,1-3.63c.19-.37,0-.44-.15-.26a3.78,3.78,0,0,1-.45.39c-.17.12-.37.2-.53,0a1.8,1.8,0,0,1-.43-.9C322.92,334.84,322.88,334.7,322.77,334.72Zm-5.31.47h0s-.06.07,0,.15.2.43.26.56.23.08.16-.1-.07-.24-.15-.45S317.53,335.18,317.46,335.19ZM328,333.76c-.07,0-.14.09-.15.22s0,.27,0,.47.16.2.18.06.09-.46.1-.61,0-.13-.07-.14Zm-13.68,1.92c-.09,0-.14.13,0,.28s.31.36.4.47.21,0,.1-.13-.17-.32-.3-.53S314.39,335.66,314.34,335.68Zm16.82-2.28c-.05,0-.11,0-.14.13-.07.24-.08.42-.15.59s.07.24.13.1.19-.37.26-.56S331.25,333.39,331.16,333.4Zm-21.5,3.42c-.1,0-.1.19,0,.3a2.94,2.94,0,0,0,.44.35c.14.09.15-.06.08-.16s-.18-.2-.33-.37S309.71,336.81,309.66,336.82ZM336,333.25c-.05,0-.1.06-.15.17a4.36,4.36,0,0,0-.22.45c-.05.12,0,.26.11.13a3.22,3.22,0,0,0,.34-.46C336.12,333.41,336.07,333.23,336,333.25Zm-25.53,3.61c-.08,0-.13.08-.05.21l.36.53c.09.14.33.16.21-.06s-.16-.34-.27-.54A.26.26,0,0,0,310.44,336.86Zm24.8-3.36a.26.26,0,0,0-.21.2c0,.22,0,.34-.11.59s.16.16.21,0,.14-.39.2-.6S335.32,333.49,335.24,333.5ZM309,337.11c-.12,0-.11.14,0,.2l.5.27c.21.13.26,0,.15-.13a1.3,1.3,0,0,0-.5-.32A.5.5,0,0,0,309,337.11Zm27.71-3.75a.27.27,0,0,0-.14.06,1.22,1.22,0,0,0-.39.43c-.09.14,0,.27.17.09s.29-.28.41-.4S336.82,333.34,336.7,333.36Zm-16.38,2.33c-.07,0-.11.1-.07.19s.15.34.21.52.26.14.2,0a4.78,4.78,0,0,0-.19-.58c0-.09-.08-.13-.13-.13Zm5.05-.69s-.08.06-.09.16,0,.44,0,.6.19.14.2,0a5,5,0,0,1,.07-.56.13.13,0,0,0-.12-.16Zm-9.6,1s-.06.12,0,.25a4,4,0,0,1,.42,1.31c0,.19-.11.23-.26.19a2.49,2.49,0,0,1-.45-.18c-.14-.07-.25.05-.06.17a4.93,4.93,0,0,1,2.14,2.39c.08.2.21.21.14,0a5.84,5.84,0,0,1-.34-3.05c.08-.27-.07-.49-.2-.06s-.28.43-.47.21a7,7,0,0,1-.75-1.07c-.05-.1-.1-.14-.14-.14Zm14.07-1.91s-.08.07-.1.18a6.89,6.89,0,0,1-.44,1.23c-.13.26-.34.18-.5-.07s-.33-.13-.18.1a5.86,5.86,0,0,1,.48,3c0,.24.12.2.14,0a4.94,4.94,0,0,1,1.42-2.86c.16-.17,0-.26-.09-.16a2.71,2.71,0,0,1-.39.3c-.13.08-.24.07-.3-.11a4,4,0,0,1,.06-1.38c0-.14,0-.23-.08-.24ZM311.27,337c-.08,0-.14.08-.09.2s.24.39.3.5.18.05.14-.12-.08-.28-.14-.46A.2.2,0,0,0,311.27,337Zm23.19-3.14a.19.19,0,0,0-.17.17c0,.19,0,.3,0,.47s.14.22.17.09.12-.36.15-.57S334.55,333.83,334.46,333.84ZM314,336.34c-.09,0-.07.24,0,.33l.47.42c.15.13.2,0,.11-.13s-.22-.23-.46-.52C314.12,336.37,314.08,336.34,314,336.34ZM331.62,334s-.07.05-.11.14c-.15.34-.24.48-.3.62s0,.25.14.09.25-.38.34-.53S331.71,333.93,331.62,334ZM312,337.22c-.06,0-.11.06-.07.18s.13.29.19.44.17.12.15,0a2.7,2.7,0,0,0-.12-.47A.16.16,0,0,0,312,337.22Zm21.91-3a.17.17,0,0,0-.12.16,2.55,2.55,0,0,0,0,.48c0,.15.13.16.15,0s0-.31.06-.48S333.93,334.24,333.87,334.25Zm-19.93,2.92c-.09,0-.16.13,0,.25s.42.33.49.41.24,0,.11-.14-.33-.35-.42-.48A.15.15,0,0,0,313.94,337.17Zm18-2.43a.11.11,0,0,0-.09.07c-.06.14-.2.38-.28.57s.08.2.14.11.22-.28.37-.52,0-.24-.1-.24Zm-21,3.47c-.08,0-.09.07,0,.19a2.85,2.85,0,0,1,.62.9c0,.2-.05.21-.15.22-.27,0-.43-.14-.68-.17s-.28.12-.08.22a8,8,0,0,1,2.46,1.77c.19.26.4.33.26.08a3.58,3.58,0,0,1-.61-1.83,5.65,5.65,0,0,0,0-.95c0-.23-.18-.19-.2,0a1.8,1.8,0,0,1-.1.44c0,.09-.24.15-.46-.08a7,7,0,0,0-.95-.76A.35.35,0,0,0,310.94,338.21Zm24.17-3.27a.39.39,0,0,0-.15.1,6.92,6.92,0,0,0-.71,1c-.15.28-.36.26-.42.2a2,2,0,0,1-.22-.4c-.08-.22-.22-.21-.2,0a5.25,5.25,0,0,0,.29.9,3.62,3.62,0,0,1-.09,1.93c-.08.28.11.15.22-.14a8.2,8.2,0,0,1,1.91-2.37c.16-.15.1-.28-.14-.18s-.34.3-.62.34c-.09,0-.19,0-.2-.17a3,3,0,0,1,.36-1C335.22,335,335.18,334.92,335.11,334.94Z" transform="translate(-287.93 -311.31)"/></g><g id="_1" data-name="1"><path class="cls-5" d="M313,342.94l.41.89m.16-1.14.39.89m.25-1.09.3.93m.28-1.13.32.92m.44-1.1.29.93m.53-1,.3.93m.47-1.31.25.94m.51-1,.25.94m.46-1.14.25.94m.47-1.12.2,1m.58-1.06.19,1m.52-1.11.18,1m.59-1.11.17,1m.73-1.11.17,1M334.44,340l-.17,1m-.46-1.05-.13,1m-.53-1,0,1m-.57-1-.06,1m-.72-.94,0,1m-.8-.86,0,1m-.8-1.13v1m-.75-.82v1m-.76-1v1m-.75-1,.07,1m-.85-.87.07,1m-.79-.93.09,1m-.87-.92.09,1m-1-.88.09,1m-1.21-.88.14,1.06" transform="translate(-287.93 -311.31)"/><path class="cls-6" d="M334.28,341.1h0a.11.11,0,0,1-.09-.13l.16-1a.13.13,0,0,1,.14-.09.11.11,0,0,1,.09.13l-.17,1A.11.11,0,0,1,334.28,341.1Zm-20.9,2.84a.12.12,0,0,1-.12-.07l-.42-.88a.12.12,0,0,1,.21-.1l.41.89a.11.11,0,0,1,0,.15ZM333.7,341h0a.11.11,0,0,1-.1-.13l.13-1a.12.12,0,0,1,.13-.1.11.11,0,0,1,.09.13l-.13,1A.11.11,0,0,1,333.7,341Zm-19.78,2.68a.12.12,0,0,1-.12-.07l-.38-.9a.11.11,0,0,1,.06-.15.12.12,0,0,1,.15.06l.38.9a.11.11,0,0,1-.06.15Zm19.2-2.7h0a.12.12,0,0,1-.11-.12l.05-1a.12.12,0,0,1,.12-.11.11.11,0,0,1,.1.12l0,1A.12.12,0,0,1,333.12,341Zm-18.64,2.53a.11.11,0,0,1-.13-.08l-.3-.92a.12.12,0,0,1,.07-.15.12.12,0,0,1,.14.08l.31.92a.12.12,0,0,1-.07.15Zm.59-.21a.11.11,0,0,1-.12-.07l-.32-.92a.12.12,0,0,1,.22-.08l.32.93a.12.12,0,0,1-.07.14ZM332.49,341h0a.11.11,0,0,1-.1-.12l.06-1a.12.12,0,0,1,.12-.11.13.13,0,0,1,.11.12l-.07,1A.1.1,0,0,1,332.49,341Zm-.75,0h0a.13.13,0,0,1-.11-.12l0-1a.11.11,0,0,1,.11-.11.11.11,0,0,1,.11.12l0,1A.1.1,0,0,1,331.74,341Zm-15.94,2.17a.12.12,0,0,1-.12-.08l-.29-.94a.11.11,0,1,1,.22-.06l.28.93a.11.11,0,0,1-.07.14Zm15.11-2.05h0a.12.12,0,0,1-.11-.12l0-1a.11.11,0,0,1,.12-.11.11.11,0,0,1,.1.12l0,1A.13.13,0,0,1,330.91,341.11ZM316.63,343a.11.11,0,0,1-.12-.08l-.3-.93a.11.11,0,0,1,.08-.14.11.11,0,0,1,.14.07l.3.94a.12.12,0,0,1-.08.14Zm12.74-1.94h0a.12.12,0,0,1-.12-.12v-1a.12.12,0,0,1,.12-.12.11.11,0,0,1,.11.12v1A.12.12,0,0,1,329.37,341.1Zm-11.26,1.52a.11.11,0,0,1-.12-.08l-.25-1a.11.11,0,0,1,.21,0l.26.94a.12.12,0,0,1-.08.14Zm12-1.67h0a.11.11,0,0,1-.11-.12v-1a.11.11,0,0,1,.11-.12.11.11,0,0,1,.12.11v1A.13.13,0,0,1,330.12,341Zm-12.77,1.73a.12.12,0,0,1-.12-.09l-.25-.94a.11.11,0,1,1,.22-.06l.25.94a.11.11,0,0,1-.08.14Zm11.28-1.58h0a.11.11,0,0,1-.12-.11v-1a.13.13,0,0,1,.11-.12.12.12,0,0,1,.12.12v1A.12.12,0,0,1,328.63,341.1Zm-9.8,1.33a.13.13,0,0,1-.13-.09l-.25-.94a.12.12,0,0,1,.08-.14.11.11,0,0,1,.14.08l.25,1a.1.1,0,0,1-.08.13Zm8.34-1.21h0a.11.11,0,0,1-.12-.1l-.07-1a.11.11,0,0,1,.1-.13.12.12,0,0,1,.12.11l.08,1A.11.11,0,0,1,327.17,341.22Zm-6.9.94a.11.11,0,0,1-.13-.09l-.19-1A.11.11,0,0,1,320,341h0a.12.12,0,0,1,.13.09l.18,1a.1.1,0,0,1-.08.13Zm7.67-1h0a.12.12,0,0,1-.13-.11l-.06-1a.11.11,0,0,1,.11-.12.11.11,0,0,1,.12.1l.06,1A.12.12,0,0,1,327.94,341.12Zm-8.45,1.14a.11.11,0,0,1-.12-.09l-.2-.95a.13.13,0,0,1,.09-.14.11.11,0,0,1,.13.09l.2,1a.11.11,0,0,1-.09.13Zm7-1h0a.11.11,0,0,1-.13-.1l-.08-1a.11.11,0,0,1,.11-.12.12.12,0,0,1,.12.11l.08,1A.11.11,0,0,1,326.46,341.27ZM321,342a.12.12,0,0,1-.12-.09l-.18-1a.1.1,0,0,1,.09-.13.12.12,0,0,1,.13.09l.18,1a.13.13,0,0,1-.09.14Zm2.75-.41a.13.13,0,0,1-.13-.1l-.14-1.07a.1.1,0,0,1,.09-.12.11.11,0,0,1,.13.09l.14,1.07A.11.11,0,0,1,323.71,341.61Zm2-.28h0a.13.13,0,0,1-.13-.1l-.09-1a.12.12,0,0,1,.1-.12h0a.11.11,0,0,1,.12.1l.09,1A.11.11,0,0,1,325.68,341.33Zm-3.95.53a.11.11,0,0,1-.13-.09l-.17-1a.11.11,0,0,1,.09-.13h0a.1.1,0,0,1,.12.09l.18,1a.11.11,0,0,1-.1.13Zm3-.44h0a.1.1,0,0,1-.12-.1l-.09-1a.12.12,0,0,1,.1-.12h0a.11.11,0,0,1,.13.1l.09,1A.11.11,0,0,1,324.78,341.42Zm-2.15.3a.13.13,0,0,1-.13-.1l-.17-1a.11.11,0,0,1,.09-.13h0a.11.11,0,0,1,.13.09l.17,1a.12.12,0,0,1-.09.14Z" transform="translate(-287.93 -311.31)"/></g></svg>