<svg id="Layer_26" data-name="Layer 26" xmlns="http://www.w3.org/2000/svg" viewBox="0 0 144.01 95.63"><defs><style>.cls-1{fill:#ef4130;}.cls-2{fill:#da2128;}.cls-3{fill:#004c9c;}.cls-4{fill:#fff;}.cls-5{fill:#eceff3;}.cls-6{fill:#225aa9;}.cls-7{fill:#ffe300;}</style></defs><path class="cls-1" d="M421,317.85a1.1,1.1,0,0,0-1.71-.8C407.05,324.89,395.48,327.8,380,325c-20.25-3.69-26.3-12.8-45.61-13.6-19.92-.83-35.4,6.75-46,14.66a1.05,1.05,0,0,0-.37,1.18c3.75,11.14,11.49,49.55,17.85,70.8a1.13,1.13,0,0,0,1.57.67c15.57-7.06,33.73-7,59.19,2,23.46,8.31,44.29,8.89,64.75-1.72a1.12,1.12,0,0,0,.59-1.13C429.44,379,423.7,340.06,421,317.85Z" transform="translate(-287.93 -311.31)"/><path class="cls-2" d="M430.62,388.18c.49,3.58.94,6.86,1.31,9.67a1.12,1.12,0,0,1-.59,1.13c-20.46,10.61-41.29,10-64.75,1.72-25.46-9-43.62-9.08-59.19-2a1.13,1.13,0,0,1-1.57-.67c-4.26-14.23-9.13-36.13-13-52.4C301.44,360,317.4,363,334.52,367.2c19.58,4.78,30,9.47,47.39,20.84C397.28,398.09,418.94,401.92,430.62,388.18ZM380,325c-20-3.65-26.15-12.58-44.93-13.56,30.49,9.81,31.78,28.1,52,34.62,12.69,4.09,26.45,3.35,35.52-15.83-.59-4.46-1.13-8.65-1.58-12.35a1.1,1.1,0,0,0-1.71-.8C407.05,324.89,395.48,327.8,380,325Z" transform="translate(-287.93 -311.31)"/><path class="cls-3" d="M356.88,322.75l-.81-6c-6.05-2.64-12.12-4.9-21-5.36A67.81,67.81,0,0,1,356.88,322.75Z" transform="translate(-287.93 -311.31)"/><path class="cls-2" d="M430.62,388.18c.49,3.58.94,6.86,1.31,9.67a1.12,1.12,0,0,1-.59,1.13c-20.46,10.61-41.29,10-64.75,1.72-25.46-9-43.62-9.08-59.19-2a1.13,1.13,0,0,1-1.57-.67c-4.26-14.23-9.13-36.13-13-52.4C301.44,360,317.4,363,334.52,367.2c19.58,4.78,30,9.47,47.39,20.84C397.28,398.09,418.94,401.92,430.62,388.18ZM380,325c-20-3.65-26.15-12.58-44.93-13.56,30.49,9.81,31.78,28.1,52,34.62,12.69,4.09,26.45,3.35,35.52-15.83-.59-4.46-1.13-8.65-1.58-12.35a1.1,1.1,0,0,0-1.71-.8C407.05,324.89,395.48,327.8,380,325Z" transform="translate(-287.93 -311.31)"/><path class="cls-4" d="M382.12,337.06c14.34,2.62,27.51-.17,40.24-8.59q-.39-3-.74-5.76c-12.75,8.43-25.93,11.06-40.3,8.44-20.24-3.7-26.29-13.1-45.61-13.9a75.88,75.88,0,0,0-46.47,14.16c.45,1.61.93,3.44,1.44,5.45a75.92,75.92,0,0,1,45.83-13.7C355.83,324,361.88,333.37,382.12,337.06Z" transform="translate(-287.93 -311.31)"/><path class="cls-4" d="M339.54,335c19.32.8,26.34,10.65,46.58,14.35,13.82,2.52,25.79-.5,37.92-8.33-.29-2.1-.57-4.17-.84-6.19-12.62,8.23-25.67,10.94-39.87,8.35-20.24-3.69-26.29-13.2-45.61-14-17.49-.72-34.19,5.07-45.66,13.34.44,1.8.89,3.69,1.35,5.65C304.93,339.82,321.92,334.22,339.54,335Z" transform="translate(-287.93 -311.31)"/><path class="cls-4" d="M431.34,399a1.12,1.12,0,0,0,.59-1.13c-.2-1.48-.41-3.09-.65-4.8-20.91,11.73-44,10.5-65.54,1.9-23.57-9.4-42.75-10.11-60.85-.18.32,1.11.63,2.2.94,3.24a1.13,1.13,0,0,0,1.57.67c15.57-7.06,33.73-7,59.19,2C390.05,409,410.88,409.59,431.34,399Z" transform="translate(-287.93 -311.31)"/><path class="cls-4" d="M362.63,376.18c21.87,8.38,44.41,11.72,66.22-.68q-.39-2.81-.8-5.71c-21.39,12.64-45.35,9.79-67.27.35-22.34-9.62-44.49-6.48-61.14,4.32q.6,2.48,1.2,4.91C320,368.69,338.37,366.88,362.63,376.18Z" transform="translate(-287.93 -311.31)"/><path class="cls-4" d="M341.32,347.12c18.86,1.55,25.61,10,45.82,13.66,13.82,2.52,26.23-.66,38.45-8.53-.26-1.85-.51-3.7-.76-5.53-12.12,7.82-24.08,10.82-37.89,8.3-20.24-3.69-27.26-13.54-46.57-14.34-17.39-.72-34.18,4.71-45.69,12.83.41,1.73.82,3.5,1.24,5.29C307.33,350.67,323.81,345.68,341.32,347.12Z" transform="translate(-287.93 -311.31)"/><path class="cls-4" d="M365.33,389c21.59,8.61,44.22,9.57,65.09-2.22l-.78-5.63c-21.17,12.08-44.74,9.43-66.73,1C339,373,321.06,374.5,302.2,384.74c.45,1.78.91,3.52,1.36,5.2C322.62,379.4,341.32,379.4,365.33,389Z" transform="translate(-287.93 -311.31)"/><path class="cls-4" d="M341.57,358.85c16.9,1.41,25.91,10,46.15,13.66,13.6,2.48,28.48-1.06,39.54-8.34-.27-1.91-.54-3.82-.81-5.75-12.32,7.79-25.33,10.94-39.09,8.43-20.24-3.69-29.24-12.34-46.14-13.76-18.08-1.51-33.12,3.38-44,11.31q.61,2.64,1.25,5.28C309.31,362.18,324.15,357.39,341.57,358.85Z" transform="translate(-287.93 -311.31)"/><path class="cls-5" d="M383.33,343.13c-1.64-.3-3.18-.64-4.65-1a36,36,0,0,0,8.39,3.91c10.74,3.46,22.24,3.46,31-8.23A51.88,51.88,0,0,1,383.33,343.13Z" transform="translate(-287.93 -311.31)"/><path class="cls-5" d="M431.34,399a1.12,1.12,0,0,0,.59-1.13c-.2-1.48-.41-3.09-.65-4.8-20.91,11.73-44,10.5-65.54,1.9-23.57-9.4-42.75-10.11-60.85-.18.32,1.11.63,2.2.94,3.24a1.13,1.13,0,0,0,1.57.67c15.57-7.06,33.73-7,59.19,2C390.05,409,410.88,409.59,431.34,399Z" transform="translate(-287.93 -311.31)"/><path class="cls-5" d="M292.82,345.61c.19.82.39,1.66.59,2.51l.71-.51C293.67,347,293.23,346.3,292.82,345.61Z" transform="translate(-287.93 -311.31)"/><path class="cls-5" d="M381.32,331.15c-11.12-2-18-5.79-25.07-8.89a115.26,115.26,0,0,1,11.62,10.68,72.65,72.65,0,0,0,14.25,4.12c14.34,2.62,27.51-.17,40.24-8.59q-.39-3-.74-5.76C408.87,331.14,395.69,333.77,381.32,331.15Z" transform="translate(-287.93 -311.31)"/><path class="cls-5" d="M301.59,355.25a34.76,34.76,0,0,1-4.12-3.58c-1,.6-1.89,1.21-2.79,1.84l1.24,5.29A56.09,56.09,0,0,1,301.59,355.25Z" transform="translate(-287.93 -311.31)"/><path class="cls-5" d="M314.53,361.8a58.32,58.32,0,0,1-7.44-3.16,57.2,57.2,0,0,0-9.85,5.76q.61,2.64,1.25,5.28A61,61,0,0,1,314.53,361.8Z" transform="translate(-287.93 -311.31)"/><path class="cls-5" d="M365.33,389a85.15,85.15,0,0,0,33.12,6.53A58,58,0,0,1,381.91,388l-.79-.51a117,117,0,0,1-18.21-5.41C339,373,321.06,374.5,302.2,384.74c.45,1.78.91,3.52,1.36,5.2C322.62,379.4,341.32,379.4,365.33,389Z" transform="translate(-287.93 -311.31)"/><path class="cls-5" d="M356,373.88a151,151,0,0,0-21.5-6.68c-3.12-.76-6.21-1.48-9.22-2.24a62.37,62.37,0,0,0-25.66,9.5q.6,2.48,1.2,4.91C318.25,369.69,335,367.3,356,373.88Z" transform="translate(-287.93 -311.31)"/><path class="cls-6" d="M341.57,358.85c8.2.68,14.55,3,21.21,5.73l-6.54-47.75c-6.26-2.73-12.51-5.07-21.88-5.46-19.92-.83-35.4,6.75-46,14.66a1.05,1.05,0,0,0-.37,1.18c2.37,7,6.32,24.9,10.51,42.47C309.31,362.18,324.15,357.39,341.57,358.85Z" transform="translate(-287.93 -311.31)"/><path class="cls-3" d="M357.07,322.9l-.83-6.06c-6.11-2.67-12.21-5-21.21-5.43A67.63,67.63,0,0,1,357.07,322.9Z" transform="translate(-287.93 -311.31)"/><path class="cls-3" d="M298.49,369.68a61.08,61.08,0,0,1,16.05-7.88c-9-3.15-16.62-7.68-21.72-16.19C294.56,352.9,296.5,361.32,298.49,369.68Z" transform="translate(-287.93 -311.31)"/><path id="_2" data-name="2" class="cls-7" d="M319.88,320.86a16.33,16.33,0,1,0,10.48,29.54,14.48,14.48,0,1,1-1.18-27.25A16.28,16.28,0,0,0,319.88,320.86Z" transform="translate(-287.93 -311.31)"/><path id="_1" data-name="1" class="cls-7" d="M348.35,344.19,341.27,341l2.43,7.25-4.94-5.91-1,7.57-1.81-7.42-4.3,6.39,1.66-7.47-6.71,3.95,4.82-6-7.79.72,7-3.4L323.27,334l7.83-.09-5.42-5.5,7.08,3.23-2.43-7.25,4.94,5.91,1-7.57,1.82,7.42,4.3-6.39-1.66,7.46,6.71-3.95-4.82,6,7.79-.72-7,3.4,7.34,2.65-7.83.1Z" transform="translate(-287.93 -311.31)"/></svg>