<svg id="Layer_27" data-name="Layer 27" xmlns="http://www.w3.org/2000/svg" viewBox="0 0 144 95.56"><defs><style>.cls-1{fill:#fff;}.cls-2{fill:#ef4130;}.cls-3{fill:#2fac4a;}.cls-4{fill:#00994c;}.cls-5{fill:#f2f2f2;}.cls-6{fill:#da2128;}.cls-7{fill:#008f49;}.cls-8{fill:#86c4cd;}.cls-9{fill:#eeca19;}.cls-10{fill:#806112;}.cls-11{fill:#ffe300;}.cls-12{fill:#f69b8d;}.cls-13{fill:#f37467;}</style></defs><path class="cls-1" d="M430.68,388.77c-.39-2.91-.8-5.86-1.22-8.83l-.39-2.77c-2.2-15.47-4.62-31.39-6.59-46.61v0q-.37-2.92-.74-5.82c-.23-1.87-.46-3.74-.67-5.59a1.49,1.49,0,0,0-2.27-1.08c-12.07,7.62-23.59,10.7-38.86,7.64a108,108,0,0,1-23.64-8.17,59.56,59.56,0,0,0-20.81-5.36c-.4,0-.78,0-1.18,0h0c-18.87-1-35.12,7-43.5,12.83-.08.06-1.37,1-2.27,1.7a1.47,1.47,0,0,0-.53,1.61c.75,2.49,1.87,6.45,2.14,7.45l.24.88c.33,1.25.66,2.51,1,3.8l.12.5c.37,1.47.74,2.95,1.11,4.47h0c4,16.52,7.87,35.66,13.11,53a1.48,1.48,0,0,0,2.06.91c8.44-4,21-7,40.71-2.95a139.29,139.29,0,0,1,18.13,5.11,106.31,106.31,0,0,0,24.14,5.67c17.77,1.91,30.7-2.27,40.4-7.32a1.49,1.49,0,0,0,.78-1.5C431.53,395.16,431.12,392,430.68,388.77Z" transform="translate(-287.94 -312.02)"/><path class="cls-2" d="M393.73,407.36a67.83,67.83,0,0,0,37.42-7.58,1.49,1.49,0,0,0,.78-1.5c-.4-3.12-.81-6.3-1.25-9.51-.39-2.91-.8-5.86-1.22-8.83l-.39-2.77c-2.2-15.47-4.62-31.39-6.59-46.61v0q-.37-2.92-.74-5.82c-.23-1.87-.46-3.74-.67-5.59a1.49,1.49,0,0,0-2.27-1.08c-11.43,7.22-22.37,10.35-36.45,8.07C384.23,341.08,390,380,393.73,407.36Z" transform="translate(-287.94 -312.02)"/><path class="cls-3" d="M331.35,312c-17.61-.06-32.61,7.38-40.55,12.91-.08.06-1.37,1-2.27,1.7a1.47,1.47,0,0,0-.53,1.61c.75,2.49,1.87,6.45,2.14,7.45l.24.88c.33,1.25.66,2.51,1,3.8l.12.5c.37,1.47.74,2.95,1.11,4.47,4,16.52,7.87,35.66,13.11,53a1.48,1.48,0,0,0,2.06.91c7.79-3.71,19.09-6.53,36.29-3.75C340.94,374.4,334.41,328.89,331.35,312Z" transform="translate(-287.94 -312.02)"/><path class="cls-2" d="M387.6,326.71l1.92.09Z" transform="translate(-287.94 -312.02)"/><path class="cls-2" d="M385,326.47c.7.08,1.39.14,2.08.2C386.4,326.61,385.71,326.55,385,326.47Z" transform="translate(-287.94 -312.02)"/><path class="cls-2" d="M392.61,326.8c.57,0,1.13-.05,1.69-.09C393.74,326.75,393.18,326.78,392.61,326.8Z" transform="translate(-287.94 -312.02)"/><path class="cls-2" d="M402.64,407.49l-.86,0Z" transform="translate(-287.94 -312.02)"/><path class="cls-2" d="M382.34,326.1h0c.79.13,1.56.23,2.33.32C383.9,326.33,383.13,326.23,382.34,326.1Z" transform="translate(-287.94 -312.02)"/><path class="cls-2" d="M396.8,407.52l-.59,0Z" transform="translate(-287.94 -312.02)"/><path class="cls-2" d="M395,326.66c.53-.05,1.07-.1,1.59-.17C396.11,326.56,395.57,326.61,395,326.66Z" transform="translate(-287.94 -312.02)"/><path class="cls-2" d="M402.06,325.49c.47-.11.93-.23,1.39-.36C403,325.26,402.53,325.38,402.06,325.49Z" transform="translate(-287.94 -312.02)"/><path class="cls-2" d="M404.35,324.86l1.32-.42Z" transform="translate(-287.94 -312.02)"/><path class="cls-2" d="M397.42,326.39l1.52-.23Z" transform="translate(-287.94 -312.02)"/><path class="cls-2" d="M399.76,326c.48-.09,1-.19,1.45-.3Z" transform="translate(-287.94 -312.02)"/><path class="cls-2" d="M410.7,406.66l-.94.14Z" transform="translate(-287.94 -312.02)"/><path class="cls-2" d="M424.52,402.82l-1,.39Z" transform="translate(-287.94 -312.02)"/><path class="cls-2" d="M426.59,402l-1,.46Z" transform="translate(-287.94 -312.02)"/><path class="cls-2" d="M422.4,403.62l-1,.35Z" transform="translate(-287.94 -312.02)"/><path class="cls-2" d="M420.22,404.36l-1,.31Z" transform="translate(-287.94 -312.02)"/><path class="cls-2" d="M428.64,401c-.38.18-.77.37-1.16.54C427.87,401.39,428.26,401.2,428.64,401Z" transform="translate(-287.94 -312.02)"/><path class="cls-2" d="M431,399.85l-1.66.84Z" transform="translate(-287.94 -312.02)"/><path class="cls-2" d="M405.42,407.31l-.9.07Z" transform="translate(-287.94 -312.02)"/><path class="cls-2" d="M406.61,324.11l1.25-.46Z" transform="translate(-287.94 -312.02)"/><path class="cls-2" d="M408.11,407l-.93.11Z" transform="translate(-287.94 -312.02)"/><path class="cls-2" d="M413.2,406.2l-.94.18Z" transform="translate(-287.94 -312.02)"/><path class="cls-2" d="M418,405.05l-.95.26Z" transform="translate(-287.94 -312.02)"/><path class="cls-2" d="M415.62,405.66l-.94.22Z" transform="translate(-287.94 -312.02)"/><path class="cls-2" d="M399.77,407.56h0Z" transform="translate(-287.94 -312.02)"/><path class="cls-2" d="M413.42,321.11l1-.51Z" transform="translate(-287.94 -312.02)"/><path class="cls-2" d="M419.52,317.8h0Z" transform="translate(-287.94 -312.02)"/><path class="cls-2" d="M391.93,326.82h0Z" transform="translate(-287.94 -312.02)"/><path class="cls-2" d="M415.81,319.81l.78-.44Z" transform="translate(-287.94 -312.02)"/><path class="cls-2" d="M418.79,318h0a1.54,1.54,0,0,1,.6-.21A1.28,1.28,0,0,0,418.79,318Z" transform="translate(-287.94 -312.02)"/><path class="cls-2" d="M411.13,322.24l1.1-.52Z" transform="translate(-287.94 -312.02)"/><path class="cls-2" d="M431.93,398.28a1.51,1.51,0,0,1-.34,1.13,1.51,1.51,0,0,0,.34-1.13Z" transform="translate(-287.94 -312.02)"/><path class="cls-2" d="M408.87,323.24l1.18-.5Z" transform="translate(-287.94 -312.02)"/><path class="cls-2" d="M430.69,388.84v-.07c-.39-2.91-.8-5.86-1.22-8.83l-.39-2.77c-2.2-15.47-4.62-31.39-6.59-46.61v0q-.37-2.92-.74-5.82c-.23-1.87-.46-3.74-.67-5.59a1.44,1.44,0,0,0-.28-.71,1.54,1.54,0,0,1,.28.71c.43,3.75.91,7.57,1.41,11.42-9.14,21.25-25,20.87-37.44,15.18,2,14.23,4.63,32.25,6.89,48.48C406.34,399.62,421,399.34,430.69,388.84Z" transform="translate(-287.94 -312.02)"/><path class="cls-3" d="M310,398.3l-.63.26Z" transform="translate(-287.94 -312.02)"/><path class="cls-3" d="M315.7,396.33l-1.17.34Z" transform="translate(-287.94 -312.02)"/><path class="cls-3" d="M311.83,397.57l-.85.32Z" transform="translate(-287.94 -312.02)"/><path class="cls-3" d="M313.73,396.92l-1,.33Z" transform="translate(-287.94 -312.02)"/><path class="cls-3" d="M319.92,395.37l-1.48.29Z" transform="translate(-287.94 -312.02)"/><path class="cls-3" d="M327.06,394.51c-.73,0-1.45.1-2.15.17C325.61,394.61,326.33,394.55,327.06,394.51Z" transform="translate(-287.94 -312.02)"/><path class="cls-4" d="M340.21,369.27c-3.12-21.24-6.79-45.82-8.86-57.25-17.61-.06-32.61,7.38-40.55,12.91-.08.06-1.37,1-2.27,1.7a1.47,1.47,0,0,0-.53,1.61c.75,2.49,1.87,6.45,2.14,7.45l.24.88c.33,1.25.66,2.51,1,3.8l.12.5c.37,1.47.74,2.95,1.11,4.47C301.16,361.62,319.51,363.5,340.21,369.27Z" transform="translate(-287.94 -312.02)"/><path class="cls-3" d="M324.57,394.71c-.64.06-1.26.13-1.87.22C323.31,394.85,323.93,394.77,324.57,394.71Z" transform="translate(-287.94 -312.02)"/><path class="cls-3" d="M322.19,395c-.56.08-1.12.17-1.66.27C321.07,395.16,321.63,395.07,322.19,395Z" transform="translate(-287.94 -312.02)"/><path class="cls-3" d="M327.11,394.51a78.22,78.22,0,0,1,16.95,1A77.59,77.59,0,0,0,327.11,394.51Z" transform="translate(-287.94 -312.02)"/><path class="cls-3" d="M317.76,395.81l-1.32.32Z" transform="translate(-287.94 -312.02)"/><path class="cls-5" d="M419.39,317.82l.13,0Z" transform="translate(-287.94 -312.02)"/><path class="cls-5" d="M412.23,321.72c.4-.19.79-.4,1.19-.61C413,321.32,412.63,321.53,412.23,321.72Z" transform="translate(-287.94 -312.02)"/><path class="cls-5" d="M394.3,326.71l.74,0Z" transform="translate(-287.94 -312.02)"/><path class="cls-5" d="M396.63,326.49l.79-.1Z" transform="translate(-287.94 -312.02)"/><path class="cls-5" d="M420.78,318.4a1.5,1.5,0,0,0-1.22-.6A1.5,1.5,0,0,1,420.78,318.4Z" transform="translate(-287.94 -312.02)"/><path class="cls-5" d="M403.45,325.13l.9-.27Z" transform="translate(-287.94 -312.02)"/><path class="cls-5" d="M414.41,320.6l1.4-.79Z" transform="translate(-287.94 -312.02)"/><path class="cls-5" d="M405.67,324.44l.94-.33Z" transform="translate(-287.94 -312.02)"/><path class="cls-5" d="M398.94,326.16l.82-.16Z" transform="translate(-287.94 -312.02)"/><path class="cls-5" d="M410.05,322.74l1.08-.5Z" transform="translate(-287.94 -312.02)"/><path class="cls-5" d="M401.21,325.7l.85-.21Z" transform="translate(-287.94 -312.02)"/><path class="cls-5" d="M390.14,326.82l-.62,0Z" transform="translate(-287.94 -312.02)"/><path class="cls-5" d="M418.79,318c-.74.46-1.47.91-2.2,1.34.73-.43,1.47-.88,2.2-1.34Z" transform="translate(-287.94 -312.02)"/><path class="cls-5" d="M384.67,326.42l.34.05Z" transform="translate(-287.94 -312.02)"/><path class="cls-5" d="M387.09,326.67l.51,0Z" transform="translate(-287.94 -312.02)"/><path class="cls-5" d="M407.86,323.65l1-.41Z" transform="translate(-287.94 -312.02)"/><path class="cls-5" d="M391.93,326.82l.68,0Z" transform="translate(-287.94 -312.02)"/><path class="cls-5" d="M379.93,325.67a108,108,0,0,1-23.64-8.17,59.56,59.56,0,0,0-20.81-5.36c-.4,0-.78,0-1.18,0,.41.12.82.24,1.24.38,12,3.89,26.52,13.79,34.3,22.38a48.5,48.5,0,0,0,12.32,9.43v.07s0-.05,0-.07c.93.5,1.89,1,2.87,1.42-1.15-8.11-2.1-15-2.69-19.61C381.55,326,380.75,325.83,379.93,325.67Z" transform="translate(-287.94 -312.02)"/><path class="cls-6" d="M422.47,330.53c-.5-3.85-1-7.67-1.41-11.42a1.54,1.54,0,0,0-.28-.71,1.5,1.5,0,0,0-1.22-.6h0l-.13,0a1.54,1.54,0,0,0-.6.21c-.73.46-1.47.91-2.2,1.34l-.78.44-1.4.79-1,.51c-.4.21-.79.42-1.19.61l-1.1.52-1.08.5-1.18.5-1,.41-1.25.46-.94.33-1.32.42-.9.27c-.46.13-.92.25-1.39.36l-.85.21c-.48.11-1,.21-1.45.3l-.82.16-1.52.23-.79.1c-.52.07-1.06.12-1.59.17l-.74,0c-.56,0-1.12.07-1.69.09l-.68,0h-1.79l-.62,0-1.92-.09-.51,0c-.69-.06-1.38-.12-2.08-.2l-.34-.05c-.77-.09-1.54-.19-2.33-.32.59,4.61,1.54,11.5,2.69,19.61C397.47,351.4,413.33,351.78,422.47,330.53Z" transform="translate(-287.94 -312.02)"/><path class="cls-5" d="M419.26,404.67l-1.3.38Z" transform="translate(-287.94 -312.02)"/><path class="cls-5" d="M414.68,405.88l-1.48.32Z" transform="translate(-287.94 -312.02)"/><path class="cls-5" d="M417,405.31l-1.39.35Z" transform="translate(-287.94 -312.02)"/><path class="cls-5" d="M311,397.89c-.35.13-.68.27-1,.41C310.3,398.16,310.63,398,311,397.89Z" transform="translate(-287.94 -312.02)"/><path class="cls-5" d="M312.71,397.25l-.88.32Z" transform="translate(-287.94 -312.02)"/><path class="cls-5" d="M391.92,394.19c-1.08-.41-2.16-.84-3.23-1.31a82,82,0,0,1-14.68-8.4c-9.68-6.93-19.7-11-29.34-13.91-1.5-.46-3-.89-4.46-1.3,1.49,10.1,2.85,19.44,3.85,26.25h0c1.44.23,2.9.49,4.42.8a139.29,139.29,0,0,1,18.13,5.11,106.31,106.31,0,0,0,24.14,5.67c1.88.2,3.69.32,5.46.4-.82,0-1.64-.08-2.48-.14C393.17,403.2,392.56,398.76,391.92,394.19Z" transform="translate(-287.94 -312.02)"/><path class="cls-5" d="M431.15,399.78l-.14.07.14-.07a1.58,1.58,0,0,0,.44-.37A1.58,1.58,0,0,1,431.15,399.78Z" transform="translate(-287.94 -312.02)"/><path class="cls-5" d="M320.53,395.26l-.61.11Z" transform="translate(-287.94 -312.02)"/><path class="cls-5" d="M429.35,400.69l-.71.33Z" transform="translate(-287.94 -312.02)"/><path class="cls-5" d="M421.43,404l-1.21.39Z" transform="translate(-287.94 -312.02)"/><path class="cls-5" d="M423.52,403.21l-1.12.41Z" transform="translate(-287.94 -312.02)"/><path class="cls-5" d="M425.54,402.41l-1,.41Z" transform="translate(-287.94 -312.02)"/><path class="cls-5" d="M427.48,401.56c-.29.14-.6.26-.89.39C426.89,401.82,427.19,401.7,427.48,401.56Z" transform="translate(-287.94 -312.02)"/><path class="cls-5" d="M412.26,406.38l-1.56.28Z" transform="translate(-287.94 -312.02)"/><path class="cls-5" d="M399,407.56c-.72,0-1.45,0-2.19,0C397.54,407.55,398.27,407.55,399,407.56Z" transform="translate(-287.94 -312.02)"/><path class="cls-5" d="M401.78,407.52c-.66,0-1.33,0-2,0C400.45,407.56,401.12,407.54,401.78,407.52Z" transform="translate(-287.94 -312.02)"/><path class="cls-5" d="M316.44,396.13l-.74.2Z" transform="translate(-287.94 -312.02)"/><path class="cls-5" d="M318.44,395.66l-.68.15Z" transform="translate(-287.94 -312.02)"/><path class="cls-5" d="M327.11,394.51h0Z" transform="translate(-287.94 -312.02)"/><path class="cls-5" d="M324.91,394.68l-.34,0Z" transform="translate(-287.94 -312.02)"/><path class="cls-5" d="M409.76,406.8c-.54.09-1.09.16-1.65.23C408.67,407,409.22,406.89,409.76,406.8Z" transform="translate(-287.94 -312.02)"/><path class="cls-5" d="M322.7,394.93l-.51.06Z" transform="translate(-287.94 -312.02)"/><path class="cls-5" d="M309.33,398.56c-.53.23-1.06.47-1.56.71C308.27,399,308.8,398.79,309.33,398.56Z" transform="translate(-287.94 -312.02)"/><path class="cls-5" d="M407.18,407.14l-1.76.17Z" transform="translate(-287.94 -312.02)"/><path class="cls-5" d="M404.52,407.38l-1.88.11Z" transform="translate(-287.94 -312.02)"/><path class="cls-5" d="M431.93,398.28c-.39-3.1-.81-6.26-1.24-9.44h0c.43,3.18.85,6.34,1.24,9.44Z" transform="translate(-287.94 -312.02)"/><path class="cls-5" d="M314.53,396.67l-.8.25Z" transform="translate(-287.94 -312.02)"/><path class="cls-6" d="M430.69,388.84c-9.71,10.5-24.35,10.78-38.77,5.35.64,4.57,1.25,9,1.81,13.17.84.06,1.66.1,2.48.14l.59,0c.74,0,1.47,0,2.19,0h.78c.68,0,1.35,0,2,0l.86,0,1.88-.11.9-.07,1.76-.17.93-.11c.56-.07,1.11-.14,1.65-.23l.94-.14,1.56-.28.94-.18,1.48-.32.94-.22,1.39-.35.95-.26,1.3-.38,1-.31,1.21-.39,1-.35,1.12-.41,1-.39,1-.41,1-.46c.29-.13.6-.25.89-.39s.78-.36,1.16-.54l.71-.33,1.66-.84.14-.07a1.58,1.58,0,0,0,.44-.37,1.51,1.51,0,0,0,.34-1.13C431.54,395.18,431.12,392,430.69,388.84Z" transform="translate(-287.94 -312.02)"/><path class="cls-7" d="M340.21,369.27c-20.7-5.77-39-7.65-47.61-23.93,4,16.52,7.87,35.66,13.11,53a1.48,1.48,0,0,0,2.06.91c.5-.24,1-.48,1.56-.71l.63-.26c.34-.14.67-.28,1-.41l.85-.32.88-.32,1-.33.8-.25,1.17-.34.74-.2,1.32-.32.68-.15,1.48-.29.61-.11c.54-.1,1.1-.19,1.66-.27l.51-.06c.61-.09,1.23-.16,1.87-.22l.34,0c.7-.07,1.42-.13,2.15-.17h.05a77.59,77.59,0,0,1,16.95,1h0C343.06,388.71,341.7,379.37,340.21,369.27Z" transform="translate(-287.94 -312.02)"/><path class="cls-8" d="M362,370.32c-.42-.12-.83-.26-1.24-.4a.35.35,0,0,0-.28-.36,4.34,4.34,0,0,1-3.13-2.47c-.18-.45-.79-.11-.73.3,0,.12.16.59,0,.72-.69-.34-1.38-.7-2.06-1.05l-.3-.25a.32.32,0,0,0-.31-.07l-.75-.39c-.45-.23-.87.45-.41.69s1,.49,1.42.74c.21.27.18.62-.11,1.07a.4.4,0,0,0,0,.8l.27,0a5.33,5.33,0,0,1,1.9.19c.71.22,1.94,1,.56,1.44-.4.14-.38.8.1.78a20.37,20.37,0,0,0,3.32-.1c.43-.09.82-.23,1-.68a1.45,1.45,0,0,0,.06-.33l.49.16A.4.4,0,0,0,362,370.32Z" transform="translate(-287.94 -312.02)"/><path class="cls-8" d="M371.61,368.78l-.29.06a.37.37,0,0,0-.25,0l-.17.07q-2.34.49-4.71.87c-.41.06-.35.56-.06.72a1.38,1.38,0,0,0,.14,1.09c.65,1,2.5.14,3.5.07h.16a.4.4,0,0,0,0-.8c-.18,0-.66-.12-.61-.39,0-.11.59-.26.7-.31l1.13-.48.66-.13C372.31,369.45,372.11,368.67,371.61,368.78Z" transform="translate(-287.94 -312.02)"/><path class="cls-8" d="M365.43,371.6a3,3,0,0,0-1.16.15c-.57,0-1.13,0-1.69-.07a.42.42,0,0,0-.3-.06l-.49-.05h-.09a.33.33,0,0,0-.55.1c-.41.92.2,1.57,1.11,1.7a15.49,15.49,0,0,0,2.36.12,1.9,1.9,0,0,0,1.14-.27A.89.89,0,0,0,365.43,371.6Z" transform="translate(-287.94 -312.02)"/><path class="cls-9" d="M367.37,371.3a1.44,1.44,0,0,0,.12-1.51.85.85,0,0,0-.66-1.38c-.35,0-.67.22-1,.24a3,3,0,0,1-.6,0,.34.34,0,0,0-.37-.34c-1.09,0-2.79.43-3.86.16-.5-.13-.71-.59-1.29-.43a.78.78,0,0,0-.41,1.29,1.88,1.88,0,0,0,0,2c-.72.81.59,2,1.34,1.12a5.06,5.06,0,0,0,2.31.14c1.07,0,2.17.36,3.16-.06A.89.89,0,0,0,367.37,371.3Z" transform="translate(-287.94 -312.02)"/><path class="cls-10" d="M364.56,363.58c-.33,0-1.49.32-1,1.34a1.17,1.17,0,0,1,1.19-.59C364.64,364,364.56,363.58,364.56,363.58Z" transform="translate(-287.94 -312.02)"/><path class="cls-10" d="M365.45,364.9c-.28.18-1.21.93-.35,1.66,0-.46.32-.81.81-1.05C365.71,365.28,365.45,364.9,365.45,364.9Z" transform="translate(-287.94 -312.02)"/><path class="cls-10" d="M370.19,364c.31.09,1.41.56.78,1.49-.09-.44-.52-.68-1.07-.78C370,364.44,370.19,364,370.19,364Z" transform="translate(-287.94 -312.02)"/><path class="cls-11" d="M370.43,363.83c-.07-.1-.18-.12-.28-.17a6.74,6.74,0,0,1-1.52-.7,2.28,2.28,0,0,1-.95-1.39,1.56,1.56,0,0,0-.26-.65.19.19,0,0,0-.2-.05c-.3.05-.91.26-1,.62a.36.36,0,0,0,.23.43c.31.55.46,1.11-.38,1.3-.44.1-.85-.11-1.28,0a.81.81,0,0,0-.61.42.76.76,0,0,0,.19.84.9.9,0,0,0,.93.13.58.58,0,0,0-.33.58.71.71,0,0,0,.71.63c.57,0,.72-.45,1.07-.79a1.75,1.75,0,0,1,1.85-.3c.25.11.39.34.68.4C369.86,365.22,370.83,364.36,370.43,363.83Z" transform="translate(-287.94 -312.02)"/><path class="cls-11" d="M359,345.47a.74.74,0,0,0-.44.06h-.15a2.11,2.11,0,0,0-1.76,1.76c0,.2.16.46.27.13a.62.62,0,0,1,.14-.25l.12-.09a5.07,5.07,0,0,1,1.11-.44l.35-.16h0c.25-.07.62-.2.7-.48A.42.42,0,0,0,359,345.47Z" transform="translate(-287.94 -312.02)"/><path class="cls-3" d="M359,356.21a2,2,0,0,0-1.12-1.57,2.71,2.71,0,0,0-1.23-.24,4.41,4.41,0,0,1-1.62,0l0,0a1.71,1.71,0,0,1-.51-1.92,2.09,2.09,0,0,1,1.15-1.22,4.48,4.48,0,0,0,2.33-2.85,1.89,1.89,0,0,0-.8-2c-1.22-.77-3.64.11-4-1.15a.33.33,0,0,0,0-.06.52.52,0,0,0-.14-.3.18.18,0,0,0-.1-.28c-.3-.07-.65-.08-.8.24a.36.36,0,0,0,0,.32c0,.76-.13,1.74.69,2.06.62.24,3.74-.3,3.54,1.29a.52.52,0,0,0,0,.11c-.35.73-1.24.94-1.86,1.44a4.83,4.83,0,0,0-1.6,1.75,3.5,3.5,0,0,0,.13,3,1.84,1.84,0,0,0,1.32,1,2.59,2.59,0,0,0,.42.09c.86.09,3.18-.6,2.5,1.19a.18.18,0,0,0,.05.2.85.85,0,0,0,1,.35A1.23,1.23,0,0,0,359,356.21Z" transform="translate(-287.94 -312.02)"/><path class="cls-10" d="M379.73,354.34c0-.4-.25-2.84-.37-3.33a14.81,14.81,0,0,0-2.05-4.46,19.68,19.68,0,0,0-7.07-6.74,10,10,0,0,0-4.54-1.27c-.86,0-2.06.06-2.08,1.15,0,1.66,1.57,2.15,2.38,3.31,1.16,1.62,1.25,3.78-.28,5.05-.12-.61-.25-1.22-.43-1.82a6.55,6.55,0,0,0-1.66-3.1A5.41,5.41,0,0,0,360,341.9c0-.36-.15-.7-.18-1.07a.2.2,0,0,0-.08-.15c-.11-.12-.36-.08-.35.12a.75.75,0,0,1,0,.15.33.33,0,0,0-.05.12,1.71,1.71,0,0,1-.6,1.07,7.66,7.66,0,0,0-.12-1,.19.19,0,0,0-.36,0,.22.22,0,0,0-.08.14,5,5,0,0,1-.43,1.48,3.52,3.52,0,0,0-.15-.66.24.24,0,0,0-.13-.13.2.2,0,0,0-.27.12,3.58,3.58,0,0,1-1,1.77c-.21.21-.53.38-.65.68s.11.68.47.95a2.69,2.69,0,0,0,2,.65c.69-.11.43-.27,1.21.13.43,0,.64.22.63.53a.16.16,0,0,0-.05.08,4.45,4.45,0,0,1-.62,1.37c-.17.27-.52.64-.55,1a.34.34,0,0,0,.3.39,3.78,3.78,0,0,0-.45,1.4,8.27,8.27,0,0,0,.34,2.92.21.21,0,0,0,.3.12l.24-.13a6.45,6.45,0,0,0,1.16,2.79,16.22,16.22,0,0,0,.58,1.83,3.72,3.72,0,0,0-1.5-.29.21.21,0,0,0-.2.25,1.57,1.57,0,0,0,.17.39.88.88,0,0,0-.79.46.24.24,0,0,0,0,.23,3.13,3.13,0,0,0,1.49.7,3.79,3.79,0,0,0-.2.34.21.21,0,0,0,.23.3,4.82,4.82,0,0,0,1.64-.55c0,.34,0,.74.3.92a.19.19,0,0,0,.19,0,2.73,2.73,0,0,0,1.1-1.71,5.41,5.41,0,0,1,1.27,1.21c.38.54.51,1.55,1.2,1.8.08,0,.17,0,.22-.09a1.26,1.26,0,0,0,.22-.5c.05.07.09.14.15.21s.42.65.72.57.28-.53.3-.77v-.26l.33.22v0a.21.21,0,0,0,.35,0,.22.22,0,0,0,.12-.18c.06-.44.1-.88.13-1.31l1.5,1.59a5.67,5.67,0,0,0,1,1v0c.12.2.25.3.42.29a1,1,0,0,0,1.37-.44h0c.35-.09.66.1,1,0a1.58,1.58,0,0,0,.88-.68,1.2,1.2,0,0,0,1.75-.34c.35-.75-1-1.38-1.46-1.72a61.54,61.54,0,0,1-6.62-4.94,8.35,8.35,0,0,0-.4-1.62,1.65,1.65,0,0,0,.4-.48.45.45,0,0,1,.74-.07c.8,1,1.69,2,2.58,2.95a.21.21,0,0,0,.34-.09,2.68,2.68,0,0,0-.21-1.27l-.24-.79c-.06-.21.2-.21.36,0a7.05,7.05,0,0,1,.76,1.47c.22.6.26,1.37.73,1.83a.2.2,0,0,0,.32,0,3.18,3.18,0,0,0,0-1.81,12.39,12.39,0,0,0-.26-1.48c-.07-.33.26-.4.45-.05s.46,1,.67,1.46a8.18,8.18,0,0,1,.49,1.64c.13.52.13.94.29,1.46.06.17.52.32.56.11a10.84,10.84,0,0,0-.12-3.31c-.05-.38-.11-.74-.19-1.11s.16-.41.33,0a12.31,12.31,0,0,1,.52,1.51,15,15,0,0,1,.42,3c0,.14.37.65.5.55.34-.24.17-.4.21-.82a21.74,21.74,0,0,0,.1-2.28,12.35,12.35,0,0,0-.26-2.29c-.11-.52.34-.67.54-.08a12.53,12.53,0,0,1,.38,3.83c0,.64-.4,2.34.37,2.67a.2.2,0,0,0,.24-.14A16.89,16.89,0,0,0,379.73,354.34Z" transform="translate(-287.94 -312.02)"/><path class="cls-11" d="M360.13,358.51c-.69-.23-.85-1.14-1.33-1.59a2.27,2.27,0,0,0-.9-.49,3,3,0,0,0-2.41.35c-.2.18-.24.38-.4.58s-.3.25-.43.42a.92.92,0,0,0-.2,1c.13.42.51,1.27,1,1.32.22,0,.45-.19.6-.3.53-.39.43-.3,1-.24a1.87,1.87,0,0,0,.88-.2c.61-.2-.2-.63,1-.14.12.05.23.16.36.2a.56.56,0,0,0,.79-.5A.2.2,0,0,0,360.13,358.51Z" transform="translate(-287.94 -312.02)"/><path class="cls-11" d="M356.28,344.56c-.47.25-.67.67-1.07,1a2.06,2.06,0,0,0-.8.95c-.24.77.59,1.64,1.35,1.7.15,0,.24-.05.15-.17-.33-.48-.68-1.12.17-1.44.2-.07,1.22-.31,2-.48A3.17,3.17,0,0,0,356.28,344.56Z" transform="translate(-287.94 -312.02)"/><path class="cls-3" d="M354.49,344.37c-.09.09-.19.19-.3.28a2.93,2.93,0,0,1-.64.25c-.11,0-.18-.14-.19-.37l.22-.24c.22-.29.29-.65.52-.93.09-.1.2-.18.23-.29a.37.37,0,0,0,.14-.32.19.19,0,0,0-.29-.16.2.2,0,0,0-.2,0l0,0a4.77,4.77,0,0,0-2,1.24,1.63,1.63,0,0,0,0,1.6c.23.47.66.35,1,.12a3,3,0,0,1,.51-.25,2.43,2.43,0,0,0,.73-.31,1.46,1.46,0,0,0,.43-.32l.08-.07h0s0,0,0,0C354.94,344.44,354.64,344.21,354.49,344.37Z" transform="translate(-287.94 -312.02)"/><path class="cls-3" d="M355.32,358.87a1.93,1.93,0,0,0,0-.25c0-.15-.08-.49-.11-.64s-.68.69-1.26.27-.62-.84-.87-1.49a5.55,5.55,0,0,0-.8-1.12c-.51-.57-1-.88-.85-1.6s.5-1.54.08-2.15-1-.75-1.66-1.09a.21.21,0,0,0-.29.25.2.2,0,0,0,.09.38,1.24,1.24,0,0,1,1.08,1.55c-.09.33-.26.63-.35,1a2.36,2.36,0,0,0,0,1.15c.28,1.14,1.55,1.52,1.76,2.66a2.17,2.17,0,0,0,1.23,1.89,2,2,0,0,0,2.08-.44A.19.19,0,0,0,355.32,358.87Z" transform="translate(-287.94 -312.02)"/><path class="cls-11" d="M350.54,350.81a.46.46,0,0,0-.24-.42c-.21-.1-.3.08-.43.14,0-.14,0-.29-.23-.35a.42.42,0,0,0-.27,0l-.12.08a.28.28,0,0,0-.33-.22.57.57,0,0,0-.43.35l-.14,0a.27.27,0,0,0-.17.08.32.32,0,0,0-.09.39.76.76,0,0,0,.27.37c.15.09.34,0,.45.11s.14.29.37.3.22-.15.36-.11.15.18.18.2a.33.33,0,0,0,.21.07.29.29,0,0,0,.29-.24v0A.9.9,0,0,0,350.54,350.81Z" transform="translate(-287.94 -312.02)"/><path class="cls-8" d="M369.9,364.72c-.8-1.52-3.08-1.36-4.4-.57-1.9,1.13-1.93,3.42-1.78,5.38a.38.38,0,0,0,.24.34l0,0c.47.21,1.24.37,1.64-.08.19-.21.13-.47.2-.73a2.58,2.58,0,0,1,1.79-1.56c.6-.21,1.86-.25,2.24-.85A2.33,2.33,0,0,0,369.9,364.72Z" transform="translate(-287.94 -312.02)"/><path class="cls-8" d="M365.47,365c-1.6.07-2.73-.95-4.06-1.66a2.81,2.81,0,0,0-2.11-.45c-1.67.51-1.57,2.59-.56,3.68,1.32,1.45,3.52.88,5.18.45a1.08,1.08,0,0,0,.88-1.23,4.1,4.1,0,0,0,.61,0C365.92,365.74,366,364.93,365.47,365Z" transform="translate(-287.94 -312.02)"/><path class="cls-8" d="M358.8,364c-.78,0-1.76-1.21-2.49-1.51a4,4,0,0,0-2.17-.42c-1.13.25-1.94,1.95-.9,2.76s3.79,1,5.17.37c.45-.19.59-.19.58-.45A.41.41,0,0,0,358.8,364Z" transform="translate(-287.94 -312.02)"/><path class="cls-8" d="M354,363.09c-.76-1.46-1.27-3-2.91-3.69-1.34-.52-2.24.37-2.18,1.76a2.83,2.83,0,0,0,1.09,1.7,3,3,0,0,0,1.9,1c.42.05,1.29.3,1.65-.06a.42.42,0,0,0,.09-.14A.41.41,0,0,0,354,363.09Z" transform="translate(-287.94 -312.02)"/><path class="cls-8" d="M375.1,364.62a.94.94,0,0,0-.67-.39.31.31,0,0,0-.1-.05,1.39,1.39,0,0,0-1.54.48c-1.09.68-1.89,2.17-3.28,1.06a.46.46,0,0,0-.68.16.41.41,0,0,0-.27.68,4.9,4.9,0,0,0,2.34,1.17,3.14,3.14,0,0,0,1.32.24,5.43,5.43,0,0,0,1.36-.22,2.17,2.17,0,0,0,1.67-1.17,1.37,1.37,0,0,0,.08-.35A1.66,1.66,0,0,0,375.1,364.62Z" transform="translate(-287.94 -312.02)"/><path class="cls-12" d="M376,363.79a.93.93,0,0,0-.9.26c-.32.23-1.32,1.17-.56,1.46h0a.42.42,0,0,0,.2.1,1.63,1.63,0,0,0,1.51-1.12A.58.58,0,0,0,376,363.79Z" transform="translate(-287.94 -312.02)"/><path class="cls-12" d="M357,361.46a.45.45,0,0,0-.35-.34.16.16,0,0,0-.26,0c-.39.44-1.3,2-.37,2.38S357.19,362,357,361.46Z" transform="translate(-287.94 -312.02)"/><path class="cls-12" d="M349.24,357.57a.66.66,0,0,0-.9.17c-.65.86.69,3.19,1.7,2.32C350.73,359.47,350,357.86,349.24,357.57Z" transform="translate(-287.94 -312.02)"/><path class="cls-13" d="M376,363.51a.34.34,0,0,0-.63.11.28.28,0,0,0,.15.3l0,0C375.76,364.24,376.1,363.79,376,363.51Z" transform="translate(-287.94 -312.02)"/><path class="cls-13" d="M376.47,363.57a.21.21,0,0,0-.23,0,.37.37,0,0,0-.2.53h0a.32.32,0,0,0,.34.18A.35.35,0,0,0,376.47,363.57Z" transform="translate(-287.94 -312.02)"/><path class="cls-13" d="M376.63,364.53l0,0a.36.36,0,0,0-.7.09C375.88,365.14,376.8,365,376.63,364.53Z" transform="translate(-287.94 -312.02)"/><path class="cls-13" d="M357,360.69a.22.22,0,0,0-.21,0,.43.43,0,0,0-.24.77C357,361.81,357.48,361,357,360.69Z" transform="translate(-287.94 -312.02)"/><path class="cls-13" d="M357.37,361.43l-.05-.05a.19.19,0,0,0-.27,0,.38.38,0,0,0-.24.19.37.37,0,0,0,.15.49c.29.16.51-.1.52-.36A.24.24,0,0,0,357.37,361.43Z" transform="translate(-287.94 -312.02)"/><path class="cls-13" d="M356.25,361.19a.22.22,0,0,0-.15-.08.3.3,0,0,0-.41.26h0a.34.34,0,0,0,0,.2.36.36,0,0,0,.56.19A.33.33,0,0,0,356.25,361.19Z" transform="translate(-287.94 -312.02)"/><path class="cls-13" d="M349,357.38a.27.27,0,0,0-.08-.07.19.19,0,0,0-.18-.17h-.08a.37.37,0,0,0-.18,0,.15.15,0,0,0-.17.06l-.1.08a.23.23,0,0,0,0,.24.42.42,0,0,0,.12.39.34.34,0,0,0,.36.07l.12,0A.39.39,0,0,0,349,357.38Z" transform="translate(-287.94 -312.02)"/><path class="cls-13" d="M349.81,357.21a.18.18,0,0,0-.26-.06l-.14.11c-.24.14-.39.45-.15.67a.33.33,0,0,0,.27.09.31.31,0,0,0,.17,0A.44.44,0,0,0,349.81,357.21Z" transform="translate(-287.94 -312.02)"/><path class="cls-13" d="M348.4,358.46a.37.37,0,0,0-.07-.12.18.18,0,0,0-.13-.2.41.41,0,0,0-.48.62C348,359.09,348.56,358.88,348.4,358.46Z" transform="translate(-287.94 -312.02)"/><path class="cls-11" d="M375,373.84l0,0a.43.43,0,0,0-.29,0l-.05,0a5.84,5.84,0,0,1-1.17-.59h0a8.37,8.37,0,0,0-.12-1.11l0,0a.4.4,0,0,0,0-.41.18.18,0,0,0-.11-.28.57.57,0,0,0-.51.07.46.46,0,0,0-.16.45.43.43,0,0,0,.3.31c0,.39,0,.77,0,1.16a.21.21,0,0,0,.07.13.19.19,0,0,0,.16.1h0c.07,0,.22.15.28.18l.33.18c.18.1.37.18.55.26a.32.32,0,0,0,0,.14.43.43,0,0,0,.77.15A.41.41,0,0,0,375,373.84Z" transform="translate(-287.94 -312.02)"/><path class="cls-11" d="M381,368.5h-.05a.31.31,0,0,0-.27.07l-.06,0a6.36,6.36,0,0,1-1.3-.18h0a9.26,9.26,0,0,0-.47-1s0,0,0-.05a.39.39,0,0,0-.1-.4.18.18,0,0,0-.2-.23.56.56,0,0,0-.45.23.46.46,0,0,0,0,.48.42.42,0,0,0,.38.2c.13.36.27.72.42,1.07a.23.23,0,0,0,.11.11.19.19,0,0,0,.19,0h0l.32.09.38.06.6.07a.38.38,0,0,0,.06.13.43.43,0,0,0,.78-.12A.42.42,0,0,0,381,368.5Z" transform="translate(-287.94 -312.02)"/><path class="cls-11" d="M384.11,361.46h0a.37.37,0,0,0-.21.17h-.06a6,6,0,0,1-1.18.38h0a7.48,7.48,0,0,0-.81-.68v0a.39.39,0,0,0-.25-.3.17.17,0,0,0-.26-.12.51.51,0,0,0-.29.38.41.41,0,0,0,.59.43c.25.26.52.51.79.74a.19.19,0,0,0,.14.05.17.17,0,0,0,.17,0h0a2.1,2.1,0,0,1,.31-.06l.35-.1.54-.18a.39.39,0,0,0,.1.08.41.41,0,0,0,.62-.41A.39.39,0,0,0,384.11,361.46Z" transform="translate(-287.94 -312.02)"/><path class="cls-3" d="M373.08,375.47a2.19,2.19,0,0,0-1.53-.57,3.26,3.26,0,0,0,1.57-.84.2.2,0,0,0-.09-.33,5.84,5.84,0,0,0-1.64-.2c.15-.16.61-.46.7-.71a.2.2,0,0,0-.19-.25,4.64,4.64,0,0,0-2.95.5,4.21,4.21,0,0,0-.71.75,2.2,2.2,0,0,1-2.29.84l-.46-.05a4.83,4.83,0,0,0-1.86-.05,6.82,6.82,0,0,0-3.38,1.28l0,0-.09.06c-.22.13,0,.48.19.35a8.9,8.9,0,0,1,3.31-1.29,7.48,7.48,0,0,1,2,.11c.75.24,1.42.65,2.18,1a3.74,3.74,0,0,0,1.86.36c1.21-.11,2.07-.85,3.31-.62C373.21,375.84,373.27,375.63,373.08,375.47Z" transform="translate(-287.94 -312.02)"/><path class="cls-3" d="M379.08,370.13c-.2.07-.55.43-.75.5.22-.43.54-1.25.72-1.69.05-.13-.12-.24-.26-.19a13.36,13.36,0,0,0-1.71.81,5.92,5.92,0,0,0,.13-1,.2.2,0,0,0-.37-.11c-.44.69-1,1.23-1.55,1.87s-.68,1.89-1.32,2.49a5.71,5.71,0,0,0-1.65,1.17c-.18.18.11.48.28.29a6.87,6.87,0,0,1,2.35-1.38c.66-.15,1.35-.05,2-.2a3.72,3.72,0,0,0,2.35-2.23A.21.21,0,0,0,379.08,370.13Z" transform="translate(-287.94 -312.02)"/><path class="cls-3" d="M384.61,357c-.12.18-.16.68-.26.86-.12-.47-.38-1.31-.52-1.76,0-.14-.24-.11-.32,0a13.29,13.29,0,0,0-.82,1.7,5.14,5.14,0,0,0-.55-.88.2.2,0,0,0-.35.15c.09.82,0,1.62,0,2.43s.67,1.89.55,2.76a5.45,5.45,0,0,0-.54,1.95c0,.26.38.31.4.05a6.69,6.69,0,0,1,.95-2.55c.42-.54,1-.9,1.43-1.43a3.7,3.7,0,0,0,.41-3.21C384.93,356.89,384.71,356.8,384.61,357Z" transform="translate(-287.94 -312.02)"/><path class="cls-3" d="M383.85,363.75a3,3,0,0,0-1.38.86l.21-1.94c0-.19-.29-.27-.38-.1a6.6,6.6,0,0,1-1.11,1.44c0-.22,0-.51.05-.9s-.08-.39-.3-.28a2.81,2.81,0,0,0-1.55,2.22,7.32,7.32,0,0,0,.1,1.75,3.62,3.62,0,0,1-1.37,2.7c-.18.18.1.47.28.29a6.67,6.67,0,0,0,.92-1.07l.06-.06a2.91,2.91,0,0,1,1.77-1.24,1.9,1.9,0,0,0,.89-.58,4.48,4.48,0,0,0,.58-1,6,6,0,0,1,1.33-1.75C384.11,363.91,384.07,363.68,383.85,363.75Z" transform="translate(-287.94 -312.02)"/><path class="cls-11" d="M352,373.58l0,0a.35.35,0,0,1,.28,0s0,0,0,0a5.91,5.91,0,0,0,1.19-.57h0a7,7,0,0,1,.15-1.11l0,0a.38.38,0,0,1,0-.41.18.18,0,0,1,.11-.28.55.55,0,0,1,.5.08.47.47,0,0,1,.16.46.43.43,0,0,1-.31.3c0,.39,0,.77-.08,1.16a.2.2,0,0,1-.06.13.19.19,0,0,1-.17.09h0a1.89,1.89,0,0,0-.28.17l-.34.17-.56.25a.61.61,0,0,1,0,.14.44.44,0,0,1-.78.13A.42.42,0,0,1,352,373.58Z" transform="translate(-287.94 -312.02)"/><path class="cls-11" d="M346.25,368.12h0a.31.31,0,0,1,.27.07h.06a6.42,6.42,0,0,0,1.31-.15h0a9.4,9.4,0,0,1,.49-1,.08.08,0,0,1,0-.05.39.39,0,0,1,.11-.39.18.18,0,0,1,.2-.23.54.54,0,0,1,.45.24.44.44,0,0,1,0,.48.42.42,0,0,1-.39.19c-.13.36-.28.71-.44,1.06a.23.23,0,0,1-.11.11.21.21,0,0,1-.19,0h0a3.2,3.2,0,0,0-.33.07l-.37.06-.61.05a.31.31,0,0,1-.06.13.43.43,0,0,1-.78-.13A.42.42,0,0,1,346.25,368.12Z" transform="translate(-287.94 -312.02)"/><path class="cls-11" d="M343.24,361h0a.38.38,0,0,1,.21.18h.05a6.08,6.08,0,0,0,1.18.4h0a7.4,7.4,0,0,1,.82-.66v-.05a.37.37,0,0,1,.26-.29.17.17,0,0,1,.26-.12.53.53,0,0,1,.29.39.45.45,0,0,1-.2.41.38.38,0,0,1-.4,0c-.27.25-.53.5-.81.73a.27.27,0,0,1-.14.05.21.21,0,0,1-.17-.05h0c-.07,0-.26-.05-.31-.07l-.34-.1c-.19-.06-.37-.13-.54-.2l-.11.08a.4.4,0,0,1-.6-.42A.38.38,0,0,1,343.24,361Z" transform="translate(-287.94 -312.02)"/><path class="cls-3" d="M354,375.6c1.25-.2,2.09.56,3.3.69a3.68,3.68,0,0,0,1.87-.32c.76-.31,1.44-.7,2.2-.93a7,7,0,0,1,2-.06,8.7,8.7,0,0,1,3.28,1.36c.22.14.42-.21.21-.35l-.1-.05,0,0a6.94,6.94,0,0,0-3.35-1.36,5,5,0,0,0-1.85,0l-.47,0a2.23,2.23,0,0,1-2.27-.89,3.92,3.92,0,0,0-.69-.77,4.69,4.69,0,0,0-2.94-.57c-.12,0-.24.12-.19.25s.54.57.68.72a5.9,5.9,0,0,0-1.65.17.2.2,0,0,0-.09.33,3.39,3.39,0,0,0,1.55.88,2.14,2.14,0,0,0-1.54.53C353.77,375.41,353.82,375.63,354,375.6Z" transform="translate(-287.94 -312.02)"/><path class="cls-3" d="M347.84,370.08a3.69,3.69,0,0,0,2.3,2.28c.66.17,1.34.08,2,.25a6.74,6.74,0,0,1,2.31,1.43c.17.19.47-.1.29-.28a5.33,5.33,0,0,0-1.63-1.21c-.62-.61-.72-1.8-1.26-2.52s-1.08-1.2-1.5-1.9a.2.2,0,0,0-.38.1,5.9,5.9,0,0,0,.11,1,13.29,13.29,0,0,0-1.69-.84c-.14-.06-.32,0-.26.18.17.44.47,1.26.67,1.71-.2-.08-.53-.45-.74-.52S347.78,369.93,347.84,370.08Z" transform="translate(-287.94 -312.02)"/><path class="cls-3" d="M342.48,356.58a3.68,3.68,0,0,0,.34,3.22c.4.54,1,.91,1.4,1.46a6.76,6.76,0,0,1,.89,2.57c0,.26.42.22.4,0a5.45,5.45,0,0,0-.5-2c-.09-.87.58-1.85.62-2.75s-.08-1.61,0-2.42a.2.2,0,0,0-.35-.17,5.2,5.2,0,0,0-.57.87,14,14,0,0,0-.78-1.72c-.07-.13-.27-.16-.32,0-.15.45-.43,1.28-.56,1.75-.1-.19-.13-.69-.24-.87A.2.2,0,0,0,342.48,356.58Z" transform="translate(-287.94 -312.02)"/><path class="cls-3" d="M343.34,363.62a5.8,5.8,0,0,1,1.29,1.78,4.88,4.88,0,0,0,.56,1,2,2,0,0,0,.87.6,2.94,2.94,0,0,1,1.75,1.28.12.12,0,0,0,.06.06,6.23,6.23,0,0,0,.89,1.09.2.2,0,0,0,.29-.28,3.62,3.62,0,0,1-1.31-2.73,6.86,6.86,0,0,0,.14-1.75,2.8,2.8,0,0,0-1.5-2.25c-.22-.12-.38-.12-.31.27s0,.68,0,.9a6.62,6.62,0,0,1-1.09-1.46.2.2,0,0,0-.37.09c.05.65.11,1.3.16,1.94a3.06,3.06,0,0,0-1.36-.89C343.23,363.23,343.19,363.46,343.34,363.62Z" transform="translate(-287.94 -312.02)"/><path class="cls-3" d="M364.79,376.34l-.78-.74a.5.5,0,0,1-.15-.37c0-.49,0-1.08,0-1.33h.62v.33c0,.3,0,.76,0,1.1l.1.11.13.11.28.26.32.29.32.28c.16.16.33.33.5.53a5.36,5.36,0,0,1,.33.43l.15.25h0l-.65,0A7.8,7.8,0,0,0,364.79,376.34Z" transform="translate(-287.94 -312.02)"/><path class="cls-2" d="M362.6,374.05v-.15h.57c0,.3,0,.72,0,1,0,1.05.23,1,.86,1.69a7.14,7.14,0,0,1,1.3,1.34l-.35.62c-.07-.11-.13-.21-.2-.3l-.22-.26c-.16-.16-.32-.31-.5-.46l-.38-.35-.23-.21-.15-.14a2.49,2.49,0,0,1-.45-.51,1.69,1.69,0,0,1-.26-1.05C362.59,374.91,362.59,374.33,362.6,374.05Z" transform="translate(-287.94 -312.02)"/><path class="cls-1" d="M363.86,375.23a.5.5,0,0,0,.15.37l.78.74a7.8,7.8,0,0,1,1.17,1.27l-.48,0-.17.3a7.14,7.14,0,0,0-1.3-1.34c-.63-.7-.89-.64-.86-1.69,0-.28,0-.7,0-1h.72C363.89,374.15,363.88,374.74,363.86,375.23Z" transform="translate(-287.94 -312.02)"/><path class="cls-3" d="M362.12,376.35l.83-.76a.52.52,0,0,0,.17-.38c0-.51,0-1.13,0-1.39l-.64,0h0s0,.15,0,.34,0,.8,0,1.16l-.11.11-.13.11-.3.26c-.11.11-.23.2-.35.31l-.33.28a6.87,6.87,0,0,0-.54.54,4.12,4.12,0,0,0-.35.45,2.33,2.33,0,0,0-.17.26h0l.68,0A7.86,7.86,0,0,1,362.12,376.35Z" transform="translate(-287.94 -312.02)"/><path class="cls-2" d="M364.47,374a1,1,0,0,1,0-.15h-.61v1.05c0,1.09-.26,1-.93,1.75a7.36,7.36,0,0,0-1.4,1.37l.36.65.21-.3c.08-.1.16-.18.24-.27l.53-.47.41-.36.25-.22.15-.13a2.74,2.74,0,0,0,.48-.53,1.74,1.74,0,0,0,.3-1.09C364.46,374.9,364.47,374.29,364.47,374Z" transform="translate(-287.94 -312.02)"/><path class="cls-1" d="M363.12,375.21a.52.52,0,0,1-.17.38l-.83.76a7.86,7.86,0,0,0-1.25,1.3l.5,0,.17.32a7.36,7.36,0,0,1,1.4-1.37c.67-.72.94-.66.93-1.75v-1.05h-.74C363.12,374.08,363.11,374.7,363.12,375.21Z" transform="translate(-287.94 -312.02)"/></svg>