<?xml version="1.0" encoding="UTF-8"?> <!-- Generator: Adobe Illustrator 25.3.1, SVG Export Plug-In . SVG Version: 6.00 Build 0) --> <svg xmlns="http://www.w3.org/2000/svg" xmlns:xlink="http://www.w3.org/1999/xlink" version="1.1" id="Layer_1" x="0px" y="0px" viewBox="0 0 99.7 65" style="enable-background:new 0 0 99.7 65;" xml:space="preserve"> <style type="text/css"> .st0{fill:#E70013;} .st1{fill:#008400;stroke:#000000;stroke-width:0.2471;stroke-miterlimit:10;} .st2{opacity:0.1;} </style> <g> <path class="st0" d="M98.7,51.8c-0.3-2-0.6-4-0.9-6.1c-0.1-0.6-0.2-1.3-0.3-1.9c-1.7-10.6-3.5-21.5-5-32c0,0,0,0,0,0 c-0.2-1.3-0.4-2.7-0.6-4c-0.2-1.3-0.4-2.6-0.5-3.8c-0.1-0.8-0.9-1.1-1.6-0.7c-8.2,5.4-16.1,7.6-26.6,5.6C58.4,8,53.1,6.3,46.9,3.5 C42,1.3,37.1,0.3,32.5,0c-0.3,0-0.5,0-0.8,0l0,0C18.7-0.5,7.6,5.2,1.9,9.3C1.9,9.3,1,10,0.4,10.5c-0.3,0.3-0.5,0.7-0.3,1.1 c0.5,1.7,1.4,4.4,1.5,5.1c0.1,0.2,0.1,0.4,0.2,0.6C2,18.1,2.2,19,2.5,19.9c0,0.1,0.1,0.2,0.1,0.3c0.3,1,0.5,2,0.8,3.1l0,0 c2.9,11.3,5.8,24.4,9.5,36.3c0.2,0.6,0.9,0.9,1.4,0.6c5.8-2.8,14.4-5,28-2.4c3.8,0.7,7.9,1.8,12.5,3.3c6.2,2.1,11.7,3.2,16.7,3.7 c12.2,1.1,21.1-1.9,27.7-5.4c0.4-0.2,0.6-0.6,0.5-1C99.4,56.2,99,54,98.7,51.8z"></path> </g> <g> <polygon class="st1" points="47.6,31.1 50.4,16.2 54.4,26.1 52.3,26.3 51.1,23.1 49.4,32.2 "></polygon> <polygon class="st1" points="50.1,28.7 58.2,27.9 56,30 56.8,32.2 64.1,25 50.5,26.4 "></polygon> <polygon class="st1" points="48.4,26.6 38.6,27.7 50.8,35.3 52.3,33.8 44.8,29.3 48,29.1 "></polygon> <polygon class="st1" points="53.3,28.4 56.6,36.9 53.9,34.9 52.5,36.5 60.9,42 55.2,28.2 "></polygon> <polygon class="st1" points="49,34.2 47.1,33 45.1,43.6 55.4,33.9 54.5,31.6 48.3,37.7 "></polygon> </g> <g class="st2"> <path d="M98.7,51.8c-7.1,7.9-18.2,7.7-28.8,3.2c-3.5-1.5-6.9-3.4-10.2-5.6C53,44.7,46.1,42,39.4,40.1c-15.5-4.5-29.6-4.9-36-16.8 c2.9,11.3,5.8,24.4,9.5,36.3c0.2,0.6,0.9,0.9,1.4,0.6c5.8-2.8,14.4-5,28-2.4c3.8,0.7,7.9,1.8,12.5,3.3c6.2,2.1,11.7,3.2,16.7,3.7 c12.2,1.1,21.1-1.9,27.7-5.4c0.4-0.2,0.6-0.6,0.5-1C99.4,56.2,99,54,98.7,51.8z"></path> </g> <g class="st2"> <path d="M91.4,4c-0.1-0.8-0.9-1.1-1.6-0.7c-8.2,5.4-16.1,7.6-26.6,5.6C58.4,8,53.1,6.3,46.9,3.5C42,1.3,37.1,0.3,32.5,0 c-0.3,0-0.5,0-0.8,0c0.3,0.1,0.6,0.2,0.9,0.2c8.3,2.6,18.4,9.2,23.8,15.1c1.9,2,5,4.5,8.6,6.4c0,0,0,0,0,0c0,0,0,0,0,0 c8.8,4.6,21,6,27.6-9.9C92.1,9.2,91.7,6.6,91.4,4z"></path> </g> </svg> 