<svg id="Layer_29" data-name="Layer 29" xmlns="http://www.w3.org/2000/svg" viewBox="0 0 144 95.54"><defs><style>.cls-1{fill:#0084c8;}.cls-2{fill:#ef4130;}.cls-3{fill:#f2f2f2;}.cls-4{fill:#ed1c24;}.cls-5{fill:#0079c1;}.cls-6{fill:#fff;}.cls-7{fill:#eceff3;}</style></defs><path d="M415.34,320.54c.4-.22.79-.43,1.19-.67C416.13,320.11,415.74,320.32,415.34,320.54Z" transform="translate(-287.95 -312.5)"/><path class="cls-1" d="M386.53,381.55c-11-1.42-33.83-11.69-45.25-13.4a64.55,64.55,0,0,0-8-.69q5.46,1.79,11.38,3.58A121.08,121.08,0,0,1,374,385c22.39,14.17,46.25,15.64,56.68,4.35v-.06c-.39-2.92-.8-5.87-1.22-8.83l-.39-2.78-.54-3.73C417.27,380.81,403.86,383.78,386.53,381.55Z" transform="translate(-287.95 -312.5)"/><path d="M419.15,318.33l.26,0A1.09,1.09,0,0,0,419.15,318.33Z" transform="translate(-287.95 -312.5)"/><path d="M419.52,318.27h0Z" transform="translate(-287.95 -312.5)"/><path d="M302.18,386.12q-.74-2.79-1.42-5.6Q301.45,383.33,302.18,386.12Z" transform="translate(-287.95 -312.5)"/><path d="M305.72,398.84q-.87-2.89-1.69-5.87Q304.86,395.94,305.72,398.84Z" transform="translate(-287.95 -312.5)"/><path d="M413.51,321.54l.77-.4Z" transform="translate(-287.95 -312.5)"/><path d="M303.9,392.53q-.79-2.83-1.54-5.7Q303.11,389.7,303.9,392.53Z" transform="translate(-287.95 -312.5)"/><path d="M396.48,327a46.71,46.71,0,0,0,13.29-3.65A46.71,46.71,0,0,1,396.48,327Z" transform="translate(-287.95 -312.5)"/><path d="M418.79,318.5h0a1.64,1.64,0,0,1,.3-.14A2,2,0,0,0,418.79,318.5Z" transform="translate(-287.95 -312.5)"/><path d="M299.55,375.55c.32,1.37.66,2.74,1,4.11l-1-4.11Z" transform="translate(-287.95 -312.5)"/><path class="cls-2" d="M336.44,340.4c11.67,1.57,35.11,11.72,46.36,13,17.15,2,30.49-1,41.67-7.76-.69-4.91-1.37-9.8-2-14.61v0q-.37-2.92-.74-5.82c-.23-1.87-.46-3.74-.67-5.59a1.44,1.44,0,0,0-.28-.71,1.66,1.66,0,0,1,.28.71c.43,3.75.91,7.57,1.41,11.42-9.86,22.92-27.54,20.68-40.3,13.76v0a48.39,48.39,0,0,1-12.33-9.42c-7.78-8.59-22.34-18.49-34.3-22.38-.41-.14-.82-.26-1.23-.38h0c-18.88-1-35.12,7-43.5,12.84-.08.05-1.37,1-2.27,1.7a1.47,1.47,0,0,0-.53,1.61c.75,2.49,1.88,6.45,2.14,7.44l.24.89c.33,1.24.66,2.51,1,3.8l.12.5c.37,1.46.74,2.95,1.11,4.46.24,1,.49,2,.73,3.07C302.77,344.34,317.12,337.81,336.44,340.4Z" transform="translate(-287.95 -312.5)"/><path d="M431.52,400a1.5,1.5,0,0,0,.42-1.23h0A1.5,1.5,0,0,1,431.52,400Z" transform="translate(-287.95 -312.5)"/><path d="M395.75,327.08a52.53,52.53,0,0,1-15.81-.94A52.53,52.53,0,0,0,395.75,327.08Z" transform="translate(-287.95 -312.5)"/><path class="cls-3" d="M418.79,318.5c-.76.47-1.51.93-2.26,1.37.75-.44,1.5-.9,2.26-1.37Z" transform="translate(-287.95 -312.5)"/><path class="cls-3" d="M419.41,318.29l.11,0Z" transform="translate(-287.95 -312.5)"/><path class="cls-3" d="M420.78,318.87a1.52,1.52,0,0,0-1.19-.6A1.55,1.55,0,0,1,420.78,318.87Z" transform="translate(-287.95 -312.5)"/><path class="cls-3" d="M414.28,321.14l1.06-.6Z" transform="translate(-287.95 -312.5)"/><path class="cls-3" d="M395.75,327.08c.25,0,.49-.06.73-.09C396.24,327,396,327.06,395.75,327.08Z" transform="translate(-287.95 -312.5)"/><path class="cls-3" d="M409.77,323.34c1.25-.54,2.5-1.15,3.74-1.8C412.27,322.19,411,322.8,409.77,323.34Z" transform="translate(-287.95 -312.5)"/><path class="cls-3" d="M419.09,318.36l.06,0Z" transform="translate(-287.95 -312.5)"/><path class="cls-4" d="M369.84,335.34a48.39,48.39,0,0,0,12.33,9.42v0c12.76,6.92,30.44,9.16,40.3-13.76-.5-3.85-1-7.67-1.41-11.42a1.66,1.66,0,0,0-.28-.71,1.55,1.55,0,0,0-1.19-.6h-.07l-.11,0-.26,0-.06,0a1.64,1.64,0,0,0-.3.14c-.76.47-1.51.93-2.26,1.37-.4.24-.79.45-1.19.67l-1.06.6-.77.4c-1.24.65-2.49,1.26-3.74,1.8A46.71,46.71,0,0,1,396.48,327c-.24,0-.48.07-.73.09a52.53,52.53,0,0,1-15.81-.94A107.81,107.81,0,0,1,356.29,318a59.56,59.56,0,0,0-20.81-5.36l-1.17,0c.41.12.82.24,1.23.38C347.5,316.85,362.06,326.75,369.84,335.34Z" transform="translate(-287.95 -312.5)"/><path class="cls-3" d="M304,393c0-.14-.09-.29-.13-.44C303.94,392.68,304,392.83,304,393Z" transform="translate(-287.95 -312.5)"/><path class="cls-3" d="M429.3,401.18a67.57,67.57,0,0,1-10.5,4.1A67.57,67.57,0,0,0,429.3,401.18Z" transform="translate(-287.95 -312.5)"/><path class="cls-3" d="M300.76,380.52c-.07-.29-.14-.58-.22-.86C300.62,379.94,300.69,380.23,300.76,380.52Z" transform="translate(-287.95 -312.5)"/><path class="cls-3" d="M429.3,401.18c.63-.31,1.25-.62,1.86-.94a1.58,1.58,0,0,0,.36-.26,1.58,1.58,0,0,1-.36.26C430.55,400.56,429.93,400.87,429.3,401.18Z" transform="translate(-287.95 -312.5)"/><path class="cls-3" d="M302.36,386.83l-.18-.71Z" transform="translate(-287.95 -312.5)"/><path class="cls-3" d="M431.94,398.75c-.39-3.11-.81-6.26-1.24-9.45h0c.43,3.19.85,6.34,1.24,9.45Z" transform="translate(-287.95 -312.5)"/><path class="cls-5" d="M430.7,389.3c-10.43,11.29-34.29,9.82-56.68-4.35A121.08,121.08,0,0,0,344.68,371q-5.93-1.8-11.38-3.58c-14.58-.37-25.88,4.33-33.75,8.09l1,4.11c.08.28.15.57.22.86q.69,2.81,1.42,5.6l.18.71q.75,2.87,1.54,5.7c0,.15.08.3.13.44q.83,3,1.69,5.87a1.49,1.49,0,0,0,2.07.91c8.44-4,21-7,40.71-2.95a138.43,138.43,0,0,1,18.13,5.1,106.36,106.36,0,0,0,24.13,5.67A72.88,72.88,0,0,0,414,406.52c1.66-.36,3.26-.78,4.81-1.24a67.57,67.57,0,0,0,10.5-4.1c.63-.31,1.25-.62,1.86-.94a1.58,1.58,0,0,0,.36-.26,1.5,1.5,0,0,0,.42-1.23C431.55,395.64,431.13,392.49,430.7,389.3Z" transform="translate(-287.95 -312.5)"/><path class="cls-2" d="M299.21,374.12c.11.48.22.95.34,1.43h0C299.44,375.07,299.32,374.6,299.21,374.12Z" transform="translate(-287.95 -312.5)"/><path class="cls-2" d="M299,373.19l-1.29-5.52Q298.34,370.42,299,373.19Z" transform="translate(-287.95 -312.5)"/><path class="cls-2" d="M297.48,366.73c-.44-1.89-.88-3.77-1.3-5.64C296.6,363,297,364.84,297.48,366.73Z" transform="translate(-287.95 -312.5)"/><path class="cls-2" d="M294.81,355.17l-.09-.41Z" transform="translate(-287.95 -312.5)"/><path class="cls-6" d="M293.37,349c9.2,7.31,22.82,12.89,39.93,18.47a64.55,64.55,0,0,1,8,.69c11.42,1.71,34.24,12,45.25,13.4,17.33,2.23,30.74-.74,42-7.65-1.35-9.38-2.75-18.88-4.07-28.26-11.18,6.75-24.52,9.72-41.67,7.76-11.25-1.28-34.69-11.43-46.36-13-19.32-2.59-33.67,3.94-43.1,8.49l0,.15Z" transform="translate(-287.95 -312.5)"/><path class="cls-2" d="M296.18,361.09l-1.37-5.92C295.27,357.12,295.72,359.1,296.18,361.09Z" transform="translate(-287.95 -312.5)"/><path class="cls-2" d="M297.69,367.67l-.21-.94Z" transform="translate(-287.95 -312.5)"/><path class="cls-2" d="M299.21,374.12c-.08-.31-.15-.62-.23-.93C299.06,373.5,299.13,373.81,299.21,374.12Z" transform="translate(-287.95 -312.5)"/><path class="cls-2" d="M294.72,354.76c-.45-1.93-.89-3.84-1.34-5.72C293.83,350.92,294.27,352.83,294.72,354.76Z" transform="translate(-287.95 -312.5)"/><path class="cls-7" d="M293.38,349c.45,1.88.89,3.79,1.34,5.72l.09.41,1.37,5.92c.42,1.87.86,3.75,1.3,5.64l.21.94,1.29,5.52c.08.31.15.62.23.93.11.48.23.95.34,1.43,7.87-3.76,19.17-8.46,33.75-8.09-17.11-5.58-30.73-11.16-39.93-18.47Z" transform="translate(-287.95 -312.5)"/></svg>