<svg id="Layer_30" data-name="Layer 30" xmlns="http://www.w3.org/2000/svg" viewBox="0 0 144 96.08"><defs><style>.cls-1{fill:#225aa9;}.cls-2{fill:#004c9c;}.cls-3{fill:#ef4130;}.cls-4{fill:#fff;}.cls-5{fill:#eceff3;}.cls-6{fill:#da2128;}</style></defs><path class="cls-1" d="M430.73,389.15c-.39-2.93-.78-5.89-1.19-8.86-.13-.92-.25-1.85-.38-2.78C427,362,424.68,346,422.76,330.77v0c-.25-2-.48-3.9-.71-5.84s-.45-3.75-.66-5.6a1.48,1.48,0,0,0-2.26-1.1c-12.14,7.59-23.7,10.62-39,7.48a108.28,108.28,0,0,1-23.66-8.29,59.66,59.66,0,0,0-20.83-5.47c-.4,0-.79,0-1.18-.05h0c-18.92-1.06-35.23,6.86-43.66,12.67l-2.29,1.69a1.5,1.5,0,0,0-.53,1.61c.73,2.51,1.85,6.47,2.11,7.48.08.29.16.59.23.88.33,1.25.66,2.52,1,3.81l.12.51c.37,1.47.73,3,1.09,4.48h0c3.94,16.58,7.73,35.77,12.9,53.2a1.48,1.48,0,0,0,2.06.92c8.48-4,21.06-6.93,40.82-2.77a137.72,137.72,0,0,1,18.14,5.2,106.87,106.87,0,0,0,24.17,5.8c17.8,2,30.77-2.14,40.52-7.16a1.49,1.49,0,0,0,.79-1.5C431.55,395.55,431.15,392.36,430.73,389.15Z" transform="translate(-287.94 -311.77)"/><path class="cls-2" d="M431.14,400.18c-9.75,5-22.72,9.15-40.52,7.16a106.87,106.87,0,0,1-24.17-5.8,137.72,137.72,0,0,0-18.14-5.2c-19.76-4.16-32.34-1.22-40.82,2.77a1.48,1.48,0,0,1-2.06-.92c-5.17-17.43-9-36.62-12.9-53.2-.36-1.52-.72-3-1.09-4.48l-.12-.51c-.32-1.29-.65-2.56-1-3.81-.07-.29-.15-.59-.23-.88s-.16-.62-.29-1.09c19.94.24,34.12,4,55.33,26.5,14.05,14.88,38.42,30.12,43.47,32.35,13.5,6,31.21,5.07,42-4.85,0,.31.09.62.13.93.42,3.21.82,6.4,1.2,9.53A1.49,1.49,0,0,1,431.14,400.18Zm-9.75-80.89a1.49,1.49,0,0,0-2.27-1.1c-12.13,7.59-23.69,10.62-39,7.48a108.28,108.28,0,0,1-23.66-8.29,59.66,59.66,0,0,0-20.83-5.47c-.4,0-.79,0-1.18-.05l1.23.39c12,3.95,26.52,13.95,34.28,22.59a48.37,48.37,0,0,0,12.31,9.5v0c12.76,7,30.47,9.33,40.46-13.6C422.28,326.88,421.81,323,421.39,319.29Z" transform="translate(-287.94 -311.77)"/><path class="cls-3" d="M343.54,338.47a144.67,144.67,0,0,1,21,16.5c.19,1.13.37,2.27.56,3.41-9.66-9-18.15-15.84-27.3-20.77C339.7,337.82,341.62,338.1,343.54,338.47Zm-55-12.28a147.78,147.78,0,0,1,19,2.86c1.44-.41,2.93-.8,4.47-1.16a150.81,150.81,0,0,0-20.87-3.62l-.39.26ZM299,358.59A158.93,158.93,0,0,1,319.34,338c-.2,0-.41.05-.61.09-1.26.21-2.48.46-3.67.73a176,176,0,0,0-19.29,20.28c.06.29.12.56.19.85C296.91,359.53,297.93,359.06,299,358.59Zm31.71-32.76c1.41,0,2.84,0,4.3.13a145.9,145.9,0,0,1,20.43-9c-1-.44-2-.84-2.95-1.22A169.94,169.94,0,0,0,330.71,325.83Zm-2.49,2.39c-1.12-6.06-2.21-11.78-3.09-16.16-2.18.2-4.31.51-6.37.9.84,4.15,1.9,9.71,3,15.69a85.76,85.76,0,0,0-30.84,9.85l.39,1.5.12.51c.36,1.45.72,2.93,1.08,4.43a80.4,80.4,0,0,1,30.42-9.88c1.06,5.81,2.1,11.66,3,16.72a62.08,62.08,0,0,1,6.52.07c-.86-5-1.93-11.08-3-17.15a80.9,80.9,0,0,1,32.95,7c-.42-2.54-.83-5-1.24-7.44A85.14,85.14,0,0,0,328.22,328.22Z" transform="translate(-287.94 -311.77)"/><path class="cls-4" d="M290.34,336.19l0-.16a97.56,97.56,0,0,1,14.79-6.21,144.15,144.15,0,0,0-17.15-2.42,1.53,1.53,0,0,1,.59-1.18l.05,0a147.78,147.78,0,0,1,19,2.86c1.44-.41,2.93-.8,4.47-1.16a150.81,150.81,0,0,0-20.87-3.62c1.5-1,3.21-2.08,5.14-3.15a151.9,151.9,0,0,1,22.35,4.71c-.88-4.7-1.71-9-2.39-12.36.81-.18,1.62-.35,2.45-.51.84,4.15,1.9,9.71,3,15.69a85.76,85.76,0,0,0-30.84,9.85C290.74,337.73,290.54,337,290.34,336.19Z" transform="translate(-287.94 -311.77)"/><path class="cls-4" d="M365.1,358.38c-9.66-9-18.15-15.84-27.3-20.77,1.9.21,3.82.49,5.74.86a144.67,144.67,0,0,1,21,16.5c-.14-.84-.27-1.68-.41-2.51a158.82,158.82,0,0,0-16.09-13,89.65,89.65,0,0,1,14.81,5.2c-.16-1-.33-2-.49-3a80.9,80.9,0,0,0-32.95-7c1.1,6.07,2.17,12.11,3,17.15.85,0,1.71.12,2.57.21-.68-4-1.5-8.67-2.37-13.53,9.73,4.76,18.56,11.69,28.65,21l4.24,1.53C365.39,360.18,365.24,359.28,365.1,358.38Z" transform="translate(-287.94 -311.77)"/><path class="cls-4" d="M322.94,335.06a80.4,80.4,0,0,0-30.42,9.88V345c.19.81.39,1.64.58,2.47a92.43,92.43,0,0,1,14.78-6.6A188.57,188.57,0,0,0,294.83,355c.31,1.38.63,2.76.94,4.15a176,176,0,0,1,19.29-20.28c1.19-.27,2.41-.52,3.67-.73.2,0,.41-.06.61-.09A158.93,158.93,0,0,0,299,358.59c1.05-.47,2.16-.95,3.32-1.42a149.12,149.12,0,0,1,18.75-18.45c.83,4.63,1.63,9.17,2.34,13.22.82-.07,1.66-.12,2.51-.16C325,346.72,324,340.87,322.94,335.06Z" transform="translate(-287.94 -311.77)"/><path class="cls-4" d="M328.22,328.22a85.14,85.14,0,0,1,32.9,6c-.16-.95-.32-1.89-.47-2.82a93.45,93.45,0,0,0-18.93-4.8,112.88,112.88,0,0,1,16.92-6.84c-.09-.52-.19-1-.28-1.55l-1.87-.85-1.05-.46A145.9,145.9,0,0,0,335,326c-1.46-.09-2.89-.13-4.3-.13a169.94,169.94,0,0,1,21.78-10.13c-.65-.25-1.29-.49-1.94-.71a180.17,180.17,0,0,0-20.47,9.58c-.88-4.73-1.73-9.14-2.44-12.71-.85.05-1.68.12-2.51.2C326,316.44,327.1,322.16,328.22,328.22Z" transform="translate(-287.94 -311.77)"/><path class="cls-5" d="M335,352.06c-.07-.43-.15-.89-.23-1.33-1-.85-2-1.68-3-2.45.22,1.23.43,2.43.62,3.57C333.29,351.9,334.15,352,335,352.06Z" transform="translate(-287.94 -311.77)"/><path class="cls-5" d="M352.49,315.7h0c-.65-.25-1.29-.48-1.94-.71h0q-2.15.83-4.46,1.81l1.52.82Q350.16,316.56,352.49,315.7Z" transform="translate(-287.94 -311.77)"/><path class="cls-5" d="M319.28,340.2c-.54-.27-1.07-.52-1.61-.76A165.19,165.19,0,0,0,299,358.59c1.05-.47,2.16-.95,3.32-1.42A153.51,153.51,0,0,1,319.28,340.2Z" transform="translate(-287.94 -311.77)"/><path class="cls-5" d="M307.89,340.86A188.57,188.57,0,0,0,294.83,355c.17.73.33,1.47.5,2.21s.29,1.29.44,1.94a176,176,0,0,1,19.29-20.28l.85-.17c-1.42-.58-2.84-1.09-4.27-1.54a87.53,87.53,0,0,0-19.12,7.8V345c.19.81.39,1.64.58,2.47A92.43,92.43,0,0,1,307.89,340.86Z" transform="translate(-287.94 -311.77)"/><path class="cls-5" d="M299,334.68c-1.72-.17-3.47-.28-5.26-.36-1.23.59-2.39,1.16-3.47,1.71l0,.16c.2.76.4,1.54.59,2.31C293.27,337.28,296,336,299,334.68Z" transform="translate(-287.94 -311.77)"/><path class="cls-5" d="M350,319q1.95,1.17,3.87,2.43c1.71-.63,3.33-1.18,4.82-1.61-.09-.52-.19-1-.28-1.55l-1.87-.85-1.05-.46C353.73,317.49,351.88,318.18,350,319Z" transform="translate(-287.94 -311.77)"/><path class="cls-5" d="M323.41,351.94c.82-.07,1.66-.12,2.51-.16-.48-2.73-1-5.7-1.55-8.76-.94-.59-1.89-1.14-2.83-1.65C322.21,345.07,322.84,348.66,323.41,351.94Z" transform="translate(-287.94 -311.77)"/><path class="cls-6" d="M317.67,339.44c-.59-.27-1.17-.52-1.76-.76l-.85.17a176,176,0,0,0-19.29,20.28c.06.28.13.57.19.85,1-.45,2-.92,3-1.39A165.19,165.19,0,0,1,317.67,339.44Z" transform="translate(-287.94 -311.77)"/><path class="cls-6" d="M325.92,351.78a62.08,62.08,0,0,1,6.52.07c-.19-1.14-.4-2.34-.62-3.57a74.53,74.53,0,0,0-7.45-5.26C324.92,346.08,325.44,349.05,325.92,351.78Z" transform="translate(-287.94 -311.77)"/><path class="cls-6" d="M355.44,316.92h0c-1-.44-2-.84-2.95-1.22h0q-2.33.85-4.88,1.92c.78.44,1.56.88,2.34,1.34C351.88,318.18,353.73,317.49,355.44,316.92Z" transform="translate(-287.94 -311.77)"/><path class="cls-6" d="M311.64,337.14A60.65,60.65,0,0,0,299,334.68c-3,1.27-5.76,2.6-8.1,3.82l.39,1.5.12.51c.36,1.45.72,2.93,1.08,4.43A87.53,87.53,0,0,1,311.64,337.14Z" transform="translate(-287.94 -311.77)"/><polygon class="cls-3" points="107.06 67.86 108.71 71.93 113.09 71.61 109.73 74.44 111.38 78.5 107.66 76.18 104.3 79.01 105.36 74.75 101.63 72.43 106.01 72.12 107.06 67.86"/><path class="cls-4" d="M391.66,391.71l1.25-5-4.4-2.75,5.17-.36,1.24-5,1.95,4.81L402,383l-4,3.34,1.95,4.8-4.4-2.74Zm-1-7.25,3,1.9-.86,3.48,2.74-2.31,3.05,1.9-1.35-3.32,2.75-2.32-3.58.26-1.35-3.33-.86,3.49Z" transform="translate(-287.94 -311.77)"/><polygon class="cls-3" points="92.61 50.43 93.89 53.59 97.29 53.35 94.68 55.54 95.97 58.7 93.07 56.9 90.46 59.1 91.28 55.79 88.39 53.98 91.79 53.74 92.61 50.43"/><path class="cls-4" d="M377.82,371.79l1-4.08-3.57-2.22,4.2-.3,1-4.09,1.58,3.9,4.2-.3L383,367.41l1.58,3.9L381,369.09Zm-.43-5.78,2.22,1.39-.63,2.53,2-1.68,2.22,1.38-1-2.42,2-1.68-2.6.18-1-2.42-.63,2.54Z" transform="translate(-287.94 -311.77)"/><polygon class="cls-3" points="116.9 47.06 118 49.78 120.93 49.57 118.69 51.46 119.79 54.17 117.3 52.62 115.06 54.51 115.76 51.67 113.27 50.12 116.2 49.91 116.9 47.06"/><path class="cls-4" d="M402.41,367.21l.9-3.62-3.16-2,3.72-.27.89-3.62,1.4,3.46,3.73-.27L407,363.33l1.4,3.45-3.16-2Zm-.13-5.06,1.81,1.13-.52,2.07,1.64-1.38L407,365.1l-.8-2,1.63-1.37-2.13.15-.8-2-.51,2.08Z" transform="translate(-287.94 -311.77)"/><polygon class="cls-3" points="104.02 37.06 105.12 39.77 108.05 39.57 105.81 41.45 106.91 44.17 104.42 42.62 102.17 44.51 102.88 41.66 100.39 40.11 103.32 39.9 104.02 37.06"/><path class="cls-4" d="M389.53,357.21l.9-3.62-3.16-2,3.72-.26.89-3.62,1.4,3.46,3.73-.27-2.86,2.4,1.4,3.46-3.16-2Zm-.13-5.07,1.81,1.13-.52,2.07,1.64-1.37,1.81,1.13-.8-2,1.63-1.37-2.13.15-.8-2-.51,2.07Z" transform="translate(-287.94 -311.77)"/></svg>