<svg id="Layer_1" data-name="Layer 1" xmlns="http://www.w3.org/2000/svg" viewBox="0 0 147.26 97.36"><defs><style>.cls-1{fill:#0d4121;}.cls-2{fill:#fff;}.cls-3{opacity:0.1;}</style></defs><path class="cls-1" d="M18,87.46a1.48,1.48,0,0,0,1.92,1c15.31-6.58,27.42-3.85,38.78-3.18,9.72.57,29.3,9.67,41.64,11.16,19,2.3,34.31-.06,46.05-6.93a1.59,1.59,0,0,0,.76-1.58c-1.65-11.81-8.09-59.31-9.23-68.45v0q-.37-3-.72-6c-.23-1.92-.46-3.84-.67-5.73a1.53,1.53,0,0,0-2.32-1.13C121.81,14.34,110,17.44,94.34,14.23a110.88,110.88,0,0,1-24.2-8.49A61.17,61.17,0,0,0,48.82.15c-.4,0-.8,0-1.2,0h0c-19.35-1.09-36,7-44.67,13L.61,14.79a1.51,1.51,0,0,0-.55,1.64C.81,19,2,23.05,2.23,24.08c.08.3.15.61.23.91.34,1.28.67,2.57,1,3.9l.12.51c.38,1.51.75,3,1.12,4.59C7.26,38.91,15.11,78.55,18,87.46Z"/><path class="cls-2" d="M31.44,1.22A77.64,77.64,0,0,0,3,13.05L.61,14.79a1.51,1.51,0,0,0-.55,1.64C.81,19,2,23.05,2.23,24.08c.08.3.15.61.23.91.34,1.28.67,2.57,1,3.9l.12.51c.38,1.51.75,3,1.12,4.59C7.26,38.91,15.11,78.55,18,87.46a1.48,1.48,0,0,0,1.92,1c11.48-4.94,23.34-4.55,32.26-3.8"/><path class="cls-3" d="M15.68,45.1a31.22,31.22,0,0,1-11-12C5.8,38,7,43.13,8.14,48.39,10.36,47.35,12.88,46.21,15.68,45.1Z"/><path class="cls-2" d="M121.55,51.9a27.88,27.88,0,0,1-5,11.76,28.1,28.1,0,0,1-47.3-3.18,27.73,27.73,0,0,1-3.39-13.29,26.71,26.71,0,0,1,3.31-13.25,25.79,25.79,0,0,1,9.32-10.22,10,10,0,0,1-.93,1.47,28.08,28.08,0,0,0-2,3.75,19.36,19.36,0,0,0-1.18,3.3A23.37,23.37,0,0,0,73.8,35c-.1.72-.22,1.44-.28,2.16a22,22,0,0,0,0,3.72c.09.82.11,1.67.28,2.48s.34,1.68.57,2.51.55,1.76.88,2.63a21.45,21.45,0,0,0,1.26,2.71c.35.62.7,1.23,1.09,1.83a26.72,26.72,0,0,0,1.85,2.52c.45.53.92,1,1.4,1.55s1.09,1,1.67,1.54a28.17,28.17,0,0,0,4.21,2.91,21.85,21.85,0,0,0,3.8,1.68c.84.28,1.69.57,2.56.8a19.16,19.16,0,0,0,2.92.5c.73.08,1.46.18,2.2.19a29.81,29.81,0,0,0,3.13-.08,23.89,23.89,0,0,0,3-.44c.9-.19,1.8-.44,2.68-.71.66-.2,1.29-.45,1.92-.7a14.49,14.49,0,0,0,2-.91l1.65-.92a26.13,26.13,0,0,0,6.29-5.37,26,26,0,0,0,2.49-3.55A1.14,1.14,0,0,1,121.55,51.9Z"/><path class="cls-2" d="M98.34,24.22c1,.66,2,1.3,2.94,1.9a23,23,0,0,0,2.52,1.62.37.37,0,0,0,.48,0c1.17-1,2.39-1.91,3.57-2.88.45-.37,1-.66,1.39-1.08-.46,1.81-.92,3.61-1.4,5.42-.1.36-.41.75-.24,1.08s.6.4.9.62c1,.73,2.12,1.37,3.16,2.09.46.31,1,.58,1.4.92-.27.25-.63.09-.93.11-1.26.1-2.52.07-3.77.17-.58,0-1.16,0-1.74.1-.21,0-.27.11-.32.31-.22.92-.47,1.83-.72,2.74l-.75,2.78a.89.89,0,0,1-.28.58l-.75-2c-.34-.9-.73-1.8-1-2.72a7.59,7.59,0,0,1-.4-1.13c0-.26-.15-.41-.49-.38-1.31.11-2.62.17-3.94.23-.82,0-1.64,0-2.47.07l2.61-2.12a24,24,0,0,1,2.19-1.72.63.63,0,0,0,.27-.92c-.36-.93-.69-1.88-1.08-2.8s-.64-1.86-1.08-2.74A1.19,1.19,0,0,1,98.34,24.22Z"/><path class="cls-3" d="M19.94,88.42c8.67-4.08,19.09-5.6,41.76-2.83,5.69.69,11.89,3.31,20.57,6,9.27,2.9,15.32,4.4,22.72,5.23,18.2,2,31.48-2.19,41.45-7.32a1.51,1.51,0,0,0,.81-1.53q-.58-4.78-1.22-9.69c-10.76,11.52-27.3,10.92-43.09,3.94a83.25,83.25,0,0,1-15-8.68c-9.89-7.15-20.14-11.33-30-14.4-16.24-5-31.42-7-42.23-14.07-2.8,1.1-5.32,2.25-7.54,3.29,2.89,12.88,5.94,26.44,9.69,39.1A1.52,1.52,0,0,0,19.94,88.42Z"/><path class="cls-3" d="M136.46,7.6a1.52,1.52,0,0,0-2.32-1.12c-12.41,7.76-24.24,10.86-39.88,7.65a110.18,110.18,0,0,1-24.2-8.49A61.18,61.18,0,0,0,48.75.05c-.41,0-.81,0-1.21,0,.42.13.84.25,1.26.39C61.05,4.44,75.93,14.67,83.87,23.51a49.69,49.69,0,0,0,12.59,9.72v0c13.06,7.16,31.18,9.54,41.4-13.91C137.36,15.36,136.89,11.44,136.46,7.6Z"/></svg>