<svg id="Layer_33" data-name="Layer 33" xmlns="http://www.w3.org/2000/svg" viewBox="0 0 144 95.86"><defs><style>.cls-1{fill:#0084c8;}.cls-2{fill:#0079c1;}.cls-3{fill:#ef4130;}.cls-4{fill:#da2128;}.cls-5{fill:#fff;}.cls-6{fill:#eceff3;}.cls-7{fill:#ffe300;}.cls-8{fill:#eeca19;}</style></defs><path class="cls-1" d="M430.71,389c-.39-2.92-.79-5.88-1.2-8.84l-.39-2.78c-2.16-15.5-4.54-31.45-6.48-46.69v0q-.37-2.92-.72-5.83c-.23-1.87-.45-3.74-.67-5.59a1.48,1.48,0,0,0-2.26-1.1c-12.11,7.61-23.66,10.66-38.93,7.55a108.31,108.31,0,0,1-23.65-8.24A59.76,59.76,0,0,0,335.58,312c-.39,0-.78,0-1.17-.05h0c-18.89-1-35.18,6.92-43.58,12.74-.09.05-1.38,1-2.29,1.69A1.48,1.48,0,0,0,288,328c.74,2.5,12.35,52.86,17.54,70.26a1.49,1.49,0,0,0,2.07.92c8.46-4,21-7,40.77-2.85a137.68,137.68,0,0,1,18.14,5.17,107.47,107.47,0,0,0,24.16,5.74c17.78,2,30.74-2.19,40.46-7.23a1.48,1.48,0,0,0,.79-1.49Q431.35,393.81,430.71,389Z" transform="translate(-287.94 -311.87)"/><path class="cls-2" d="M421.25,319.21a1.49,1.49,0,0,0-2.27-1.09c-12.1,7.61-23.65,10.66-38.92,7.55a108.31,108.31,0,0,1-23.65-8.24A59.76,59.76,0,0,0,335.58,312c-.39,0-.78,0-1.17-.05l1.23.38c12,3.93,26.52,13.89,34.28,22.51a48.77,48.77,0,0,0,12.32,9.47v0c12.77,7,30.46,9.26,40.4-13.67Q421.91,324.86,421.25,319.21Z" transform="translate(-287.94 -311.87)"/><path class="cls-3" d="M307.61,399.18c8.46-4,21-7,40.77-2.85a137.68,137.68,0,0,1,18.14,5.17,107.47,107.47,0,0,0,24.16,5.74c17.78,2,30.74-2.19,40.46-7.23a1.48,1.48,0,0,0,.79-1.49q-.58-4.71-1.22-9.53c-.39-2.92-.79-5.88-1.2-8.84l-.39-2.78c-.85-6.13-1.74-12.33-2.62-18.53-11.46,7.09-26,9.82-43.42,6.16-14.57-3.07-24.27-18.36-43.86-15.78-19.3,2.54-34,6.53-43.21,10.88,2.85,12.57,5.85,25.81,9.53,38.16A1.49,1.49,0,0,0,307.61,399.18Z" transform="translate(-287.94 -311.87)"/><path class="cls-4" d="M430.72,389.06c-10.48,11.27-26.64,10.72-42.07,3.93A81.68,81.68,0,0,1,374,384.54c-9.68-7-19.69-11-29.34-14-22.51-6.94-42.94-7.9-52.07-25.4,4,16.56,7.79,35.73,13,53.13a1.49,1.49,0,0,0,2.07.92c8.46-4,21-7,40.77-2.85a137.68,137.68,0,0,1,18.14,5.17,107.47,107.47,0,0,0,24.16,5.74c17.78,2,30.74-2.19,40.46-7.23a1.48,1.48,0,0,0,.79-1.49C431.55,395.41,431.14,392.25,430.72,389.06Z" transform="translate(-287.94 -311.87)"/><path class="cls-5" d="M305.54,398.26c-5.19-17.4-16.8-67.76-17.54-70.26,0,0,29.87,7.19,55.84,20.82-15.47,14-31.42,40.16-38.3,49.44" transform="translate(-287.94 -311.87)"/><path class="cls-6" d="M292.2,345.13c2.66,11.09,5.61,23.35,8.59,35.47,1.55,6.07,3,11.56,4.18,15.7l.57,2c4.55-6.14,13.06-19.65,22.79-32.15C312.64,362.08,299.06,358.26,292.2,345.13Z" transform="translate(-287.94 -311.87)"/><path class="cls-7" d="M324.07,353.56l.63-1-1-.63-6.19,1.9c0-.14-.09-.28-.14-.41l5.57-2.11-.84-.52L317.18,353a6.52,6.52,0,0,0-1.5-2.08l3.66-3.93-.22-1-3.77,4.62c-.11-.09-.22-.18-.34-.26l3.76-5.28-.28-1.18-1.17.28-3,5.72c-.13-.06-.25-.13-.38-.18l2.44-5.43-1,.22-1.88,5a6.32,6.32,0,0,0-2.53-.41l-.19-5.37-.84-.52.6,5.92-.42.06L309,342.86l-1-.64-.64,1,1.9,6.2-.41.13L306.76,344l-.52.84,2.24,4.88a6.56,6.56,0,0,0-2.08,1.5l-3.94-3.66-.95.23,4.61,3.76-.26.34-5.28-3.76-1.17.28.27,1.17,5.73,3c-.07.13-.13.26-.19.39l-5.43-2.44.22,1,5,1.88a6.56,6.56,0,0,0-.41,2.53l-5.37.19-.52.84,5.92-.6.06.43-6.39,1.07-.63,1,1,.63,6.2-1.9c0,.14.09.28.14.41l-5.57,2.11.84.52,4.89-2.23a6.37,6.37,0,0,0,1.5,2.08l-3.67,3.93.23,1,3.76-4.62.35.27-3.77,5.27.28,1.18,1.18-.28,3-5.72.38.19-2.44,5.43,1-.23,1.88-5a6.51,6.51,0,0,0,2.53.42l.19,5.37.83.51-.6-5.92a3,3,0,0,0,.43-.06l1.07,6.39,1,.64.63-1-1.89-6.2.4-.13,2.11,5.56.52-.84-2.23-4.88a6.68,6.68,0,0,0,2.08-1.5l3.93,3.66,1-.23-4.61-3.76c.09-.11.18-.22.26-.34l5.28,3.76L323,363l-.28-1.17-5.72-3c.07-.13.13-.26.19-.39l5.43,2.44-.23-1-5-1.88a6.72,6.72,0,0,0,.41-2.53l5.37-.19.52-.84-5.93.6a3.41,3.41,0,0,0-.06-.43Z" transform="translate(-287.94 -311.87)"/><g id="_3" data-name="3"><polygon class="cls-7" points="4.67 27.21 7.68 26.88 9.04 29.59 9.66 26.62 12.66 26.17 10.03 24.66 10.52 21.67 8.27 23.71 5.58 22.31 6.83 25.08 4.67 27.21"/></g><g id="_2" data-name="2"><polygon class="cls-8" points="15.69 72.79 18.58 73.71 18.72 76.74 20.5 74.28 23.42 75.08 21.63 72.64 23.3 70.1 20.41 71.05 18.52 68.68 18.53 71.72 15.69 72.79"/></g><g id="_1" data-name="1"><polygon class="cls-7" points="41.06 36.6 43.29 38.66 42.13 41.47 44.78 39.98 47.09 41.95 46.5 38.98 49.09 37.39 46.07 37.03 45.36 34.08 44.09 36.83 41.06 36.6"/></g><path class="cls-8" d="M298.75,357l3.93-.4c-.27-.17-.53-.35-.79-.53l-2.62.09Z" transform="translate(-287.94 -311.87)"/><path class="cls-8" d="M307,366.91l1.88-5a6.51,6.51,0,0,0,2.53.42l.19,5.37.83.51-.6-5.92a3,3,0,0,0,.43-.06l1.07,6.39,1,.64.63-1-1.89-6.2.4-.13,2.11,5.56.52-.84L314.07,362a57.17,57.17,0,0,1-9-4v0l-5.57,2.11.84.52,4.89-2.23a6.37,6.37,0,0,0,1.5,2.08l-3.67,3.93.23,1,3.76-4.62.35.27-3.77,5.27.28,1.18,1.18-.28,3-5.72.38.19-2.44,5.43Z" transform="translate(-287.94 -311.87)"/><path class="cls-8" d="M320,363.86h0Z" transform="translate(-287.94 -311.87)"/><path class="cls-8" d="M304.57,357.75c-.4-.23-.8-.47-1.19-.72l-5,.85-.63,1,1,.63Z" transform="translate(-287.94 -311.87)"/></svg>