<svg id="Layer_34" data-name="Layer 34" xmlns="http://www.w3.org/2000/svg" viewBox="0 0 144 96.09"><defs><style>.cls-1{fill:#fff;}.cls-2{fill:#ef4130;}.cls-3{fill:#f2f2f2;}.cls-4{fill:#da2128;}.cls-5{fill:#eceff3;}</style></defs><path class="cls-1" d="M430.73,389.15c-.38-2.92-.78-5.88-1.19-8.85-.12-.93-.25-1.86-.38-2.79C427,362,424.68,346,422.77,330.77v0q-.36-2.94-.71-5.83t-.65-5.61a1.49,1.49,0,0,0-2.27-1.1c-12.13,7.59-23.7,10.62-39,7.48a108.28,108.28,0,0,1-23.66-8.29,59.66,59.66,0,0,0-20.83-5.47c-.4,0-.78,0-1.18-.05h0c-18.91-1.06-35.23,6.86-43.66,12.66l-2.29,1.7a1.48,1.48,0,0,0-.53,1.61c.73,2.5,1.85,6.47,2.11,7.47.08.29.16.59.23.89.33,1.25.65,2.52,1,3.81l.12.5c.36,1.48.73,3,1.09,4.49h0c3.94,16.57,7.73,35.77,12.89,53.2a1.5,1.5,0,0,0,2.07.92c8.47-4,21.06-6.93,40.82-2.77a136.79,136.79,0,0,1,18.14,5.21,107.34,107.34,0,0,0,24.17,5.79c17.8,2,30.77-2.14,40.52-7.15a1.5,1.5,0,0,0,.79-1.5Q431.36,394,430.73,389.15Z" transform="translate(-287.94 -311.76)"/><path class="cls-1" d="M430.73,389.15c-.38-2.92-.78-5.88-1.19-8.85-.12-.93-.25-1.86-.38-2.79C427,362,424.68,346,422.77,330.77v0q-.36-2.94-.71-5.83t-.65-5.61a1.49,1.49,0,0,0-2.27-1.1c-12.13,7.59-23.7,10.62-39,7.48a108.28,108.28,0,0,1-23.66-8.29,59.66,59.66,0,0,0-20.83-5.47c-.4,0-.78,0-1.18-.05h0c-18.91-1.06-35.23,6.86-43.66,12.66l-2.29,1.7a1.48,1.48,0,0,0-.53,1.61c.73,2.5,1.85,6.47,2.11,7.47.08.29.16.59.23.89.33,1.25.65,2.52,1,3.81l.12.5c.36,1.48.73,3,1.09,4.49h0c3.94,16.57,7.73,35.77,12.89,53.2a1.5,1.5,0,0,0,2.07.92c8.47-4,21.06-6.93,40.82-2.77a136.79,136.79,0,0,1,18.14,5.21,107.34,107.34,0,0,0,24.17,5.79c17.8,2,30.77-2.14,40.52-7.15a1.5,1.5,0,0,0,.79-1.5Q431.36,394,430.73,389.15Z" transform="translate(-287.94 -311.76)"/><path class="cls-2" d="M307.49,399.11c8.47-4,21.06-6.93,40.82-2.77a138.16,138.16,0,0,1,18.14,5.2,106.87,106.87,0,0,0,24.17,5.8c17.8,2,30.77-2.14,40.52-7.15a1.5,1.5,0,0,0,.79-1.5q-.57-4.71-1.2-9.54c-.38-2.92-.78-5.88-1.19-8.85-.12-.93-.25-1.86-.38-2.79-.84-6.13-1.72-12.34-2.59-18.55-11.49,7.08-25.11,10-42.74,7.54-10.95-1.56-33.57-12.09-44.93-13.94-19.23-3.12-33.7,3.07-42.94,7.41,2.82,12.59,5.8,25.85,9.46,38.22A1.5,1.5,0,0,0,307.49,399.11Z" transform="translate(-287.94 -311.76)"/><path class="cls-1" d="M303.33,356.76a65.83,65.83,0,0,1,35.57-4.2c11.36,1.85,34,12.38,44.93,13.94,17.63,2.5,31.25-.46,42.74-7.54-1.33-9.48-2.65-19-3.8-28.19v0q-.36-2.94-.71-5.83t-.65-5.61a1.49,1.49,0,0,0-2.27-1.1c-12.13,7.59-23.7,10.62-39,7.48a108.28,108.28,0,0,1-23.66-8.29,59.66,59.66,0,0,0-20.83-5.47c-.4,0-.78,0-1.18-.05h0c-18.91-1.06-35.23,6.86-43.66,12.66l-2.29,1.7a1.48,1.48,0,0,0-.53,1.61c.73,2.5,1.85,6.47,2.11,7.47.08.29.16.59.23.89.33,1.25.65,2.52,1,3.81l.12.5c.36,1.48.73,3,1.09,4.49A30.57,30.57,0,0,0,303.33,356.76Z" transform="translate(-287.94 -311.76)"/><path class="cls-2" d="M383.83,366.5c-10.95-1.56-33.57-12.09-44.93-13.94a65.83,65.83,0,0,0-35.57,4.2c10.56,6.86,25.4,8.82,41.27,13.75,9.65,3,19.67,7.09,29.34,14.08a81.85,81.85,0,0,0,14.68,8.48c15.43,6.83,31.6,7.41,42.12-3.85v-.07h0c-.19-1.46-.39-2.93-.59-4.41s-.4-3-.6-4.44c-.12-.93-.25-1.86-.38-2.79-.38-2.79-.78-5.59-1.17-8.4-.15-1.06-.29-2.11-.44-3.16l-.1-.67c-.29-2.11-.59-4.21-.88-6.32C415.08,366,401.46,369,383.83,366.5Z" transform="translate(-287.94 -311.76)"/><path class="cls-3" d="M303.33,356.76A30.57,30.57,0,0,1,292.53,345c1.14,4.81,2.27,9.84,3.43,15C298.13,359,300.59,357.84,303.33,356.76Z" transform="translate(-287.94 -311.76)"/><path class="cls-4" d="M307.49,399.11c8.47-4,21.06-6.93,40.82-2.77a138.16,138.16,0,0,1,18.14,5.2,106.87,106.87,0,0,0,24.17,5.8c17.8,2,30.77-2.14,40.52-7.15a1.5,1.5,0,0,0,.79-1.5q-.57-4.68-1.19-9.47c-10.52,11.26-26.69,10.68-42.12,3.85a81.85,81.85,0,0,1-14.68-8.48c-9.67-7-19.69-11.08-29.34-14.08-15.87-4.93-30.71-6.89-41.27-13.75-2.74,1.08-5.2,2.2-7.37,3.21,2.82,12.59,5.8,25.85,9.46,38.22A1.5,1.5,0,0,0,307.49,399.11Z" transform="translate(-287.94 -311.76)"/><path class="cls-5" d="M421.4,319.29a1.49,1.49,0,0,0-2.27-1.1c-12.13,7.59-23.7,10.62-39,7.48a108.28,108.28,0,0,1-23.66-8.29,59.66,59.66,0,0,0-20.83-5.47c-.4,0-.78,0-1.18-.05l1.24.39c12,3.95,26.51,13.95,34.27,22.59a48.55,48.55,0,0,0,12.31,9.5v0c12.76,7,30.47,9.33,40.46-13.6C422.28,326.88,421.81,323.05,421.4,319.29Z" transform="translate(-287.94 -311.76)"/><path class="cls-1" d="M430.73,389.15h0c-.19-1.46-.39-2.93-.59-4.41.2,1.48.4,2.95.59,4.41Z" transform="translate(-287.94 -311.76)"/><path class="cls-1" d="M428,369.11c.39,2.81.79,5.61,1.17,8.4C428.78,374.72,428.38,371.92,428,369.11Z" transform="translate(-287.94 -311.76)"/><path class="cls-1" d="M427.45,365.28l.1.67C427.52,365.73,427.49,365.5,427.45,365.28Z" transform="translate(-287.94 -311.76)"/><path class="cls-2" d="M430.14,384.74c-.19-1.48-.4-3-.6-4.44-.12-.93-.25-1.86-.38-2.79.13.93.26,1.86.38,2.79C429.74,381.78,430,383.26,430.14,384.74Z" transform="translate(-287.94 -311.76)"/><path class="cls-2" d="M427.55,366c.15,1.05.29,2.1.44,3.16C427.84,368.05,427.7,367,427.55,366Z" transform="translate(-287.94 -311.76)"/><path class="cls-2" d="M426.57,359h0c.29,2.11.59,4.21.88,6.32C427.16,363.17,426.86,361.07,426.57,359Z" transform="translate(-287.94 -311.76)"/><path class="cls-2" d="M430.74,389.22a.29.29,0,0,0,0,.09.76.76,0,0,1,0-.16v.07Z" transform="translate(-287.94 -311.76)"/></svg>