<svg id="Layer_36" data-name="Layer 36" xmlns="http://www.w3.org/2000/svg" viewBox="0 0 144.01 95.63"><defs><style>.cls-1{fill:#00994c;}.cls-2{fill:#008f49;}.cls-3{fill:#fff;}.cls-4{fill:#eae3da;}</style></defs><path class="cls-1" d="M421,317.85a1.1,1.1,0,0,0-1.71-.8C407.05,324.89,395.48,327.8,380,325c-20.25-3.69-26.3-12.8-45.61-13.6-19.92-.83-35.4,6.75-46,14.66a1.05,1.05,0,0,0-.37,1.18c3.75,11.14,11.49,49.55,17.85,70.8a1.13,1.13,0,0,0,1.57.67c15.57-7.06,33.73-7,59.19,2,23.46,8.31,44.29,8.89,64.75-1.72a1.12,1.12,0,0,0,.59-1.13C429.44,379,423.7,340.06,421,317.85Z" transform="translate(-287.93 -311.31)"/><path class="cls-2" d="M430.62,388.18c.49,3.58.94,6.86,1.31,9.67a1.12,1.12,0,0,1-.59,1.13c-20.46,10.61-41.29,10-64.75,1.72-25.46-9-43.62-9.08-59.19-2a1.13,1.13,0,0,1-1.57-.67c-4.26-14.23-9.13-36.13-13-52.4C301.44,360,317.4,363,334.52,367.2c19.58,4.78,30,9.47,47.39,20.84C397.28,398.09,418.94,401.92,430.62,388.18ZM380,325c-20-3.65-26.15-12.58-44.93-13.56,30.49,9.81,31.78,28.1,52,34.62,12.69,4.09,26.45,3.35,35.52-15.83-.59-4.46-1.13-8.65-1.58-12.35a1.1,1.1,0,0,0-1.71-.8C407.05,324.89,395.48,327.8,380,325Z" transform="translate(-287.93 -311.31)"/><path class="cls-3" d="M355.52,333.94a.69.69,0,0,0-.31.08,2.13,2.13,0,0,0-1.08,1.4c-.07.4-.15.39.08.67s.35.29.75.14a.78.78,0,0,0,.43-.49c.15-.44-.5.16-.51-.35s.32-.63.72-1c0-.21,0-.39-.08-.41Zm5.72,1.11c-.11,0-.26.12-.48.42a2,2,0,0,0-.51,1.89,5.83,5.83,0,0,1-.06,3,5.18,5.18,0,0,1-.68.75,1,1,0,0,1-1.24,0,1.32,1.32,0,0,1-.6-1.12,14.1,14.1,0,0,0,.29-3.33.61.61,0,0,0-1-.33,7.64,7.64,0,0,0-2.27,3.52c-.4.87-1,.54-1.22.15-.45-.55-.35-4.36-1-3.82-1.34,2.71-.3,6,1.67,5.92.74.42,1.41-1,1.93-2.59.27-.43.45-.46.53-.21-.29,2.16-.17,2.66.31,3.38a1.79,1.79,0,0,0,2.33.33l1.08-.85a.59.59,0,0,1,.81.06c.26.31.17.76.76,1.16a2,2,0,0,0,2-.17c.43-.56.54-.76.74-1s.7-.1.69,0-.34.34-.21.7.36.12.55.09c.66-.22,1.3-1.52,1.3-1.52.09-.51-.2-.51-.4-.42s-.28.16-.54.28-.93.14-1.17-.35a18.87,18.87,0,0,1-.31-1.93s-.29-.92.09-.93c.18.06.57.21.67-.12s-.27-1.31-.63-1.83a.92.92,0,0,0-1.36-.21c-.38.28-.37.63-.48,1a1.56,1.56,0,0,0,.15,1.41,4.17,4.17,0,0,1,.42,2.86,1.1,1.1,0,0,1-1.06.38c-.26-.09-.68-.25-.7-2,0-1.31.42-3.08,0-4-.08-.33-.15-.65-.33-.65Zm-1.77-.08c-.16,0-.37.16-.56.52a9.27,9.27,0,0,0-.48,1.72c-.15.43.38.69.71.15a5.42,5.42,0,0,0,.64-1.86c0-.34-.14-.52-.31-.53Zm27.26,5.13c-.08,0-.18,0-.29.15a1.15,1.15,0,0,0-.48.83c0,.7,0,1.43,0,2.13a2.83,2.83,0,0,1,0,.29l-.15-.23c-1.23-1.56.64-.17-.13-1.36a10.23,10.23,0,0,0-1.46-1.73c-.3-.24-.45-.66-.62,0a13.55,13.55,0,0,0-.22,1.77,2.35,2.35,0,0,0,.42,1.16q1.2,1.81,2.42,3.81c-.05,2.54-.22,4.86-.27,7.41-.13,1.08-.6,2.48-.93,2.59,0,0-.51.23-.8-.11a9.54,9.54,0,0,1-1-1.68.72.72,0,0,0-1.14-.11c-1,.82-1.61,2.48-2.37,3.59-.19.24-.67.42-1.14-.14a5.44,5.44,0,0,1-.35-3.75,4.11,4.11,0,0,0-.77,3.93,3.1,3.1,0,0,0,1.29,1.78,1,1,0,0,0,1.52,0c.75-.64.94-2.46,1.29-2.78a.61.61,0,0,1,1.1-.16,2.52,2.52,0,0,0,.89.94,1.64,1.64,0,0,0,2.14.37,2.54,2.54,0,0,0,1.29-1.3c.4-.83.68-5.37.86-7.9q.62,1.1,1.23,2.22a52.64,52.64,0,0,1-.4,6.5c-.09.41,1.57-1.1,1.64-1.88s.13-1.31.18-1.89c.61,1.23,1.2,2.48,1.75,3.74.43-.18.52-2.52.29-2.87-.58-1.24-1.35-2.59-1.95-3.63,0-1.24-.06-2.72-.1-3.17-.06-.71-.09-1.76-.21-2.61a9.33,9.33,0,0,1,0-1.46c.11-.22.39,0,.57-.21s-.51-2.94-.95-3.73c-.15-.36-.49-.27-1,.23-.42.32-.36,1.15-.29,1.94.19,2,.33,4.07.4,6.11-.42-.79-.94-1.74-1.45-2.66,0-.08,0-.39,0-.4s.08-1.63,0-2c0-.15,0-.2.13-.17a1.07,1.07,0,0,0,.28.23c.17.05.35-.23.27-.51-.43-1-.87-2.07-1.31-3.1a.39.39,0,0,0-.2-.16Zm-55.2-6.28c-.29,0-.59.25-.42.59-.05.2.68.77.84,1.11s0,1.09.26,1.14.4-.63.42-1.25c0-.33-.17-1.46-1-1.59Zm62.25,6.49c-.06,0-.15.11-.28.37a3.48,3.48,0,0,0-.34,2.17,121.91,121.91,0,0,1,1,14.12,4.86,4.86,0,0,1-.31,1.15,9.26,9.26,0,0,1-1.39,1.54c-.46.32-1.42.62-1.74.85-1,.55-1,1.21-.22,1.25,1.38-.12,3-.19,4.17-1.86a6.62,6.62,0,0,0,.74-2.53,60.16,60.16,0,0,0-.42-12.48,6.62,6.62,0,0,1-.11-1.17c.1-.23.54,0,.71-.22s-1.11-2.07-1.58-2.84c-.09-.2-.15-.36-.24-.35ZM380,339.5c-.06,0-.15.08-.33.26a6.75,6.75,0,0,0-.77,3c.31,5.24.7,10-.09,14.87.46.07,1.14-.93,1.5-1.95a17.46,17.46,0,0,0,.3-3.21c.07-.86.05-7.91-.05-8.58-.07-1.25.92,0,.89-.76-.27-.95-1.07-2.38-1.28-3.2-.09-.22-.07-.42-.17-.42Zm-41.35-6.41a.35.35,0,0,0-.24.32c0,.11.08.28,0,.34s-.26.06-.29-.24a.52.52,0,0,0-.15-.24.22.22,0,0,0-.15,0c-.09,0-.09,0-.13.13a1,1,0,0,0,0,.25.15.15,0,0,1-.11.18c-.09,0-.06,0-.14,0s-.1-.05-.11-.13a.88.88,0,0,0-.08-.26.29.29,0,0,0-.17-.07c-.37.05-.34.47-.3.63s.06.77.58.91c.71.24,1.94-.06,1.75-1.13,0-.09-.07-.41-.09-.49a.29.29,0,0,0-.34-.16Zm37.45,5.26c-.06,0-.16.09-.31.34a4.32,4.32,0,0,0-.73,2.1c.15,4.59-.09,8.57-.17,13.14a1.83,1.83,0,0,1-.46,1.29,12.92,12.92,0,0,1-4.66,2.66c-.21.18.33,1.12,1.15,1.21,1.38,0,2.67-.64,4-2.54a5.28,5.28,0,0,0,1.09-2.17,49.35,49.35,0,0,0,.36-11.57,2,2,0,0,1,.13-.8c.1-.1.39.05.58-.2s-.38-2.29-.78-3.1c-.08-.2-.12-.36-.21-.36Zm-41.33-4.6a.6.6,0,0,0-.4.44,12.63,12.63,0,0,0,.32,2.1,22.77,22.77,0,0,1,1,3.32c.25,1.6-.84.81-.89,0a7.29,7.29,0,0,0-.43-3.06c-.22-.39-.41-.47-.79-.36s-1,1-1,2.43a12.53,12.53,0,0,0-.08,1.41c0,.75-.44,1.33-1,0-.42-.94-.91-3.35-1.33-2.71.11,1.91.37,5.26,2,5.39,2-.06.45-3.4,1.07-4.12.09-.33.34-.37.41,0l.38,3a1.43,1.43,0,0,0,1.29,1.3c.51-.1.85-.13,1.11.34l.9,5.08s1.23.18.87-3c-.19-1.89-.82-3.41-.62-3.81,0-.37.43-.44.77-.31.55.29.83.71,1.6.43,1.16-.49,1.81-1.16,1.71-2.09a8,8,0,0,0-.89-2.56c0-.17-.3-.55-.27-.72.26.32.58.24.62-.08a2.7,2.7,0,0,0-1.25-1.46c-.47-.32-1.09-.16-1.21.65a4.27,4.27,0,0,0,1.35,2.71,2.89,2.89,0,0,1,.43,1.39.77.77,0,0,1-1-.07s-1.05-.59-1.07-.75c.05-1.66-.17-1.82-.37-2.25-.18-.61-.5-.77-.8-1.17a.44.44,0,0,0-.72.1,4.36,4.36,0,0,0,.47,3c.31.62.7,1,.54,1-.09.39-.37.34-.62-.06a10.69,10.69,0,0,1-.7-2.72c-.18-.72-.47-2.27-1-2.6a.45.45,0,0,0-.46-.16Zm38.62,4.4c-.34-.06-.75.11-.66.56-.12.22.6,1.12.67,1.57.15.7-.35,1.28-.12,1.4s.64-.61.86-1.33a2.25,2.25,0,0,0-.61-2.17l-.14,0Zm-23.48-2.72a1,1,0,0,0,0-1.56,1.55,1.55,0,0,0-.77-.11h0a1.42,1.42,0,0,0-.61.2,1.16,1.16,0,0,0-.12,1.54c.35.15.71.47.49.67-.91,1.08-3.33,2.93-3.44,3.25v0h0a7,7,0,0,0,1.87-.09h0a25.94,25.94,0,0,0,2.94-3.28l-.41-.3C349.75,335.68,349.75,335.56,349.88,335.43Zm-.46,0a.48.48,0,0,1-.49-.29c-.11-.22-.07-.43.09-.48h0a.51.51,0,0,1,.45.31C349.61,335.19,349.58,335.4,349.42,335.45Zm42,7.15a.5.5,0,0,0-.57.65c-.1.25.58,1.17.67,1.65s-.27,1.4-.06,1.52.56-.71.73-1.5c.1-.43-.11-2-.64-2.29a.31.31,0,0,0-.13,0Zm-17.09,9c-.66-2.11-1.67-4.23-2-5-.11-.29-.51-1.11-1-2.06,0-1.27.08-2.34,0-2.67,0-1.34.52.22.52-.56a8.6,8.6,0,0,0-1.36-3.66c-.23-.43-.21-.51-.71,0a2.43,2.43,0,0,0-.38,1.49c-.09-.18-.21-.39-.37-.66-.66-.74-.7-.78-1.25-1.38a1.49,1.49,0,0,0-.8-.43h0a.38.38,0,0,0-.4.31,3.68,3.68,0,0,0-.12,1.41,4.76,4.76,0,0,0,.62,1.29c.92,1.65,1.79,3.31,2.62,5,0,1.18,0,2.33-.09,3.47a71.83,71.83,0,0,1-1,8.17c.46.08,1.31-.59,1.72-1.68A55,55,0,0,0,371,349c0-.38.07-.84.11-1.32,1,2.13,1.84,4.38,2.68,6.83C374.28,354.38,374.5,352,374.3,351.65Zm-5.13-11.25c-.47-.73.07-.43.35-.47,0,.13,0,.26,0,.39,0,.29,0,.58.07.86C369.41,340.81,369.24,340.51,369.17,340.4ZM374.1,343a.41.41,0,0,0-.32.25c0,.11,0,.29-.09.33s-.27,0-.23-.31a.5.5,0,0,0-.07-.27.26.26,0,0,0-.14-.05c-.1,0-.1,0-.16.08a1,1,0,0,0-.08.24c0,.11-.07.14-.15.14s-.07,0-.14,0-.08-.08-.07-.15a.78.78,0,0,0,0-.27c0-.06-.09-.08-.15-.11-.37-.05-.44.36-.44.52s-.15.77.32,1.05,1.89.43,2-.65c0-.1,0-.42,0-.51a.3.3,0,0,0-.29-.24ZM349,338.88a.51.51,0,0,0-.31.11,1.37,1.37,0,0,0-.36,1.85.87.87,0,0,0,1,.26c.59,0,.87-1.13.87-1.13s0-.33-.66.32c-.28.07-.33,0-.41-.19a1.45,1.45,0,0,1,0-.92c.06-.19,0-.3-.15-.3Zm35.1,6.48a.75.75,0,0,0-.83.57c0,.26.08.42,0,.66s-.2.21-.52,0c.06,0-.17-.45-.17-.45a.86.86,0,0,0-.86.08,1.29,1.29,0,0,0-.18,1c.31.74,1.49,2.05,2.11,2.13.07-.63.21-1.46.3-2,0-.2.1-.41.29-.44s.5.24.52,0a2.65,2.65,0,0,0-.21-1.31.65.65,0,0,0-.48-.32Zm-22.87-1.22a.37.37,0,0,0-.31.25c0,.1,0,.29-.09.33s-.28,0-.23-.3a.61.61,0,0,0-.08-.28.23.23,0,0,0-.14-.05c-.09,0-.1,0-.16.09a1,1,0,0,0-.08.24c0,.11-.07.14-.15.14s-.06,0-.13-.05-.09-.07-.08-.15a.8.8,0,0,0,0-.27.35.35,0,0,0-.15-.11c-.37,0-.44.37-.44.53s-.14.77.33,1c.63.4,2.25.41,2-.67a4.32,4.32,0,0,0,0-.5.29.29,0,0,0-.29-.24Zm24.2,5.37h-.06s-3.32,1.9-3.4,2c-.33.25-.27,1.22-.11,1.13a12.83,12.83,0,0,0,3.51-2c.13,0,.3-1.07.06-1.14Zm-50.09-5.76c-1.6.24-3.68,2.61-3.59,3.77,1.58-1,3.14-2,4.75-3.09-.33-.38-.12-.78-1.16-.68Zm13.79-1.26a.27.27,0,0,0-.06.12c0,.25-.05.5-.07.75a.08.08,0,0,1,0,.05s0,.06-.08.08-.42.06-.44-.16c-.26-.94-1.12-1-1.57.48-.34.3-1,.39-1.06,0,0-1-.37-1.1-1.14-.6-.36-1.94-.71-3.79-1.06-5.72.33,0,.64.19.93-.2-.38-1-1.18-3-1.58-3.22h0l-.06-.05,0,0,0,0,0,0h-.11c-.09,0-.2.08-.32.11a1,1,0,0,0-.62,1.23c.64,3,1.08,5.24,1.73,8.2.09.35-.18.83-.56.8-.67-.4-.87-1.28-2-1.18a2.15,2.15,0,0,0-1.73,1.8,4.41,4.41,0,0,0,.1,2,1.6,1.6,0,0,0,1.84.35c.48-.22.85-.72,1-.61h0c.12.18.08,1.74-2.12,3.06-1.36.7-2.46.91-3.12-.2-.4-.69-.15-3.42-1-2.74-2.33,7.07,6.7,7.57,7.32-.1.05-.21.24-.44.38-.39s.12.1.15.25c.15,6.91-6.57,7.73-7.83,5.62a6.64,6.64,0,0,1-.52-2.31,1.18,1.18,0,0,0-.31-.73c-.29-.19-.63.36-.66,1.3a8.46,8.46,0,0,0,0,1.67c.64,5.43,9.2,2.64,10.38-1.93.57-2.36-.23-4.08,0-4.3h.06c.91.89,2.08,0,2.33-.32a.38.38,0,0,1,.59-.09,1.4,1.4,0,0,0,2.07-.7,20.06,20.06,0,0,0,.16-2.6A2.69,2.69,0,0,0,349.12,342.49Zm-7.88,3.06h0c-.07.09-.31.07-.48.07a.43.43,0,0,1-.43-.18c-.07-.19.1-.38.17-.52h0l0-.05a.49.49,0,0,1,.27-.13h.07a.44.44,0,0,1,.43.28A.51.51,0,0,1,341.24,345.55Zm43.35,6.15a.54.54,0,0,0-.5.69c-.1.25.28,1.18.35,1.66s-.26,1.27-.05,1.4.81-.49.88-1.34c.1-.43,0-2.05-.48-2.38a.64.64,0,0,0-.2,0Zm-37.42-5.06c-.25,0-.47.18-.35.53s.74.54.82,1.14c.12.24-.1,1,.12,1.1s.44-.57.52-1.16c0-.32-.33-1.43-.86-1.6a1,1,0,0,0-.25,0ZM368.12,350l-.28-.21-5.79-.73-.15-.1h0a.48.48,0,0,1,.2-.08c1.4,0,3.91-.12,4.36-2.47a2,2,0,1,0-3.82-.38c-.09.31,0,.95-.34,1-2.15-.07-4.64,1-4.84,1.92h-.09a.54.54,0,0,1-.22-.62,11.61,11.61,0,0,0-.85-5.14c-.27-.33-.38-.47-.47-.5h-.08a3.09,3.09,0,0,1-.35.24c-.33.3-.41.52-.48,1.19,0,.07.36,1.62.69,2.72a8.18,8.18,0,0,1-.05,3.55,8.72,8.72,0,0,1-4,3.27,1.84,1.84,0,0,1-1.48-.19h0a.9.9,0,0,1-.29-.89h0a8.48,8.48,0,0,0,4-3.24,3.81,3.81,0,0,0,.42-2.64,2.54,2.54,0,0,0-.45-1.3h0c.21-.07.68.37.79.14a4,4,0,0,0-.79-2,.88.88,0,0,0-1.25-.22c-.45.18-.65,1-.54,1.81.16.59.77.77,1.08,2h0c0,.07,0,.86-.22,1.15-.25.54-2.79,2.09-3,2.18h-.05c0-.05,0-.16,0-.35,0-.34.26-1.1.27-1.24h0c-.83.4-1.27,1.88-1.46,2.32-2.11,1.1-4.44,1.83-5.87,3-.79,1,4.7-.63,5.34-.83v0a4.33,4.33,0,0,0,.36,1,2.79,2.79,0,0,0,2.71,1.25,9,9,0,0,0,4.48-2.89c.19-.21.46-.36.66-.16.55,1.79,2.59,3.27,5.41,3.74.75-.71.48-1.14.24-1.34-.08-.07-1.34-.75-1.48-1.29s.29-.88,1-1.12a28.38,28.38,0,0,0,5.46-.36,4.69,4.69,0,0,1,.81-1.76.93.93,0,0,1,.34-.29h0A.07.07,0,0,0,368.12,350Zm-4.36-4.15,0-.05v0h0l0,0a.24.24,0,0,1,.15,0,.81.81,0,0,1,.44.18c.21.16.33.38.29.52v0h0v0h0l0,0c-.12.09-.37,0-.6-.13s-.33-.38-.29-.52Zm-3,5.52c-.65.14-1.27.23-1.38,1.13a1.28,1.28,0,0,1-.1.79l0,0h-.09c-.15,0-.35-.16-.5-.26a3.33,3.33,0,0,1-1.32-2.57A.61.61,0,0,1,358,350h.07a19.08,19.08,0,0,0,2.39.58C361.13,350.68,361.39,351.25,360.74,351.39ZM332,350.68s-.1.15-.18.3c-.64,1.69-.28,3.95.38,4.51a1.11,1.11,0,0,0,1.14.14,2,2,0,0,0,.33-2c-.26-.27-.43-.29-.57,0-.25.93-.54.39-.67-.08a10.94,10.94,0,0,1-.35-2.39c0-.35,0-.47-.08-.46Zm32.82,3.26a.46.46,0,0,0-.23,0,4,4,0,0,0-1,.66c-.14.08-.14.17-.12.35s.26.19.48.11.38.19.32.51a.6.6,0,0,0,0,.59.45.45,0,0,0,.56.14,10.12,10.12,0,0,1,2-.44c.23,0,.3-.62-.07-.69a2.31,2.31,0,0,0-1.49.26c-.31,0-.34-.15-.39-.33,0-.41.26-.67.24-1a.7.7,0,0,0-.34-.19Zm22.61,5.62H387c-.21,0-.28.11-.34.35s.21.37.43.53a.4.4,0,0,1-.05.6c-.24.18-.4.28-.63.47s-.2.43.11.54c.56.2,2-.57,2-.59a.41.41,0,0,0,.16-.46c-.12-.16-.41-.09-.6-.13s-.39-.07-.23-.33a1.37,1.37,0,0,0,.28-.45c.11-.19,0-.33-.28-.46a1.68,1.68,0,0,0-.4-.07Zm-3.32,17.57c-.4.06-1.53.17-1.53.17-1.3-.16-2.26-.18-3.72-.23.13-.17.37-.87.08-1.12a.51.51,0,0,0-.35-.09h0l0,0h0c-.07-.11-.11-.38-.16-.44h0a.92.92,0,0,0-.32,1.69c-10.23,0-23.23-5.8-37-4.66,1.44,1.78,3.23,2.25,5.65,2.25,10.22,0,19.23,3.44,31.18,4.14a2.27,2.27,0,0,0,.47,2.3l0,0h.06c.4.1.57-.19.7-.4a39.11,39.11,0,0,0,4.6,0h0c.22.33.44.64.87.59.75-.16,1.33-.24,1.36-1.76C385.86,379.55,385.78,377,384.09,377.13Zm-.74,2.76h0a0,0,0,0,1,0,0s0,0,0,0l-1.26,0a.15.15,0,0,0,0-.07c-.11-.35-.94-.32-1.14-.06v.06a.06.06,0,0,1,0,0v0a11,11,0,0,1-1.9-.05c-.19-.24-.17-.67.06-.78h0c1.49.08,2.9,0,4.39.1A.52.52,0,0,1,383.35,379.89Z" transform="translate(-287.93 -311.31)"/><path class="cls-4" d="M373.5,338.18l-.13,0,.47.4A1.11,1.11,0,0,0,373.5,338.18Z" transform="translate(-287.93 -311.31)"/><path class="cls-4" d="M376.07,338.35h0c-.06,0-.16.09-.31.34a3.28,3.28,0,0,0-.5,1c.58.46,1.18.9,1.79,1.33a11.68,11.68,0,0,0-.77-2.32C376.2,338.51,376.16,338.35,376.07,338.35Z" transform="translate(-287.93 -311.31)"/><polygon class="cls-4" points="105.86 29 105.86 29 105.86 29 105.86 29"/><path class="cls-4" d="M387.56,346.18l0-.36s.08-1.63,0-2c0-.15,0-.2.13-.17a1.07,1.07,0,0,0,.28.23c.17.05.35-.23.27-.51-.43-1-.87-2.07-1.31-3.1a.39.39,0,0,0-.2-.16c-.08,0-.18,0-.29.15a1.15,1.15,0,0,0-.48.83c0,.7,0,1.43,0,2.13a2.83,2.83,0,0,1,0,.29l-.15-.23c-1.23-1.56.64-.17-.13-1.36a10.23,10.23,0,0,0-1.46-1.73c-.3-.24-.45-.66-.62,0a13.55,13.55,0,0,0-.22,1.77,2.35,2.35,0,0,0,.42,1.16c.49.74,1,1.51,1.48,2.3.57.21,1.15.42,1.76.61Z" transform="translate(-287.93 -311.31)"/><path class="cls-4" d="M390.27,346a9.33,9.33,0,0,1,0-1.46c.11-.22.39,0,.57-.21s-.51-2.94-.95-3.73c-.15-.36-.49-.27-1,.23-.42.32-.36,1.15-.29,1.94.12,1.26.21,2.53.29,3.81q.74.21,1.47.39C390.34,346.64,390.31,346.31,390.27,346Z" transform="translate(-287.93 -311.31)"/><path class="cls-4" d="M378.89,342.25c.58.37,1.19.72,1.81,1.05.27-.11.74.32.72-.18-.27-.95-1.07-2.38-1.28-3.2-.09-.22-.07-.42-.17-.42h0c-.06,0-.15.08-.33.26A7.85,7.85,0,0,0,378.89,342.25Z" transform="translate(-287.93 -311.31)"/><path class="cls-4" d="M353.82,373a55.62,55.62,0,0,0-12.88-.61c1.44,1.78,3.23,2.25,5.65,2.25a81.3,81.3,0,0,1,15.49,1.91C359.36,375.26,356.65,374.09,353.82,373Z" transform="translate(-287.93 -311.31)"/><path class="cls-4" d="M391.49,344.9c.08.34-.27,1.4-.06,1.52s.56-.71.73-1.5c.1-.43-.11-2-.64-2.29l-.13,0a.51.51,0,0,0-.57.66C390.72,343.5,391.4,344.42,391.49,344.9Z" transform="translate(-287.93 -311.31)"/><path class="cls-4" d="M394.89,343.72c.1-.23.54,0,.71-.22s-1.11-2.07-1.58-2.84c-.09-.2-.15-.36-.24-.35s-.15.11-.28.37a3.48,3.48,0,0,0-.34,2.17c.19,1.62.36,3.21.51,4.78.56.09,1.13.17,1.7.23-.09-1.06-.21-2.06-.37-3A6.62,6.62,0,0,1,394.89,343.72Z" transform="translate(-287.93 -311.31)"/></svg>