<svg id="Layer_37" data-name="Layer 37" xmlns="http://www.w3.org/2000/svg" viewBox="0 0 144.01 95.63"><defs><style>.cls-1{fill:#fff;}.cls-2{fill:#ef4130;}.cls-3{fill:#eceff3;}.cls-4{fill:#da2128;}</style></defs><path class="cls-1" d="M421,317.85a1.1,1.1,0,0,0-1.71-.8C407.05,324.89,395.48,327.8,380,325c-20.25-3.69-26.3-12.8-45.61-13.6-19.92-.83-35.4,6.75-46,14.66a1.05,1.05,0,0,0-.37,1.18c3.75,11.14,11.49,49.55,17.85,70.8a1.13,1.13,0,0,0,1.57.67c15.57-7.06,33.73-7,59.19,2,23.46,8.31,44.29,8.89,64.75-1.72a1.12,1.12,0,0,0,.59-1.13C429.44,379,423.7,340.06,421,317.85Z" transform="translate(-287.93 -311.31)"/><path class="cls-2" d="M421,317.85a1.1,1.1,0,0,0-1.71-.8C407.05,324.89,395.48,327.8,380,325c-20.25-3.69-26.3-12.8-45.61-13.6-19.92-.83-35.4,6.75-46,14.66a1.05,1.05,0,0,0-.37,1.18c2,6,5.16,19.75,8.63,34.53C308,354,324,349.18,341,350.58c18.86,1.55,25.61,10,45.81,13.66,14.05,2.56,26.79-.69,39.23-8.82C424.13,341.75,422.25,328,421,317.85Z" transform="translate(-287.93 -311.31)"/><path class="cls-3" d="M381.91,388c-17.4-11.37-27.81-16.06-47.39-20.84-17.12-4.17-33.08-7.21-41.7-21.59,3.88,16.27,8.75,38.17,13,52.4a1.13,1.13,0,0,0,1.57.67c15.57-7.06,33.73-7,59.19,2,23.46,8.31,44.29,8.89,64.75-1.72a1.12,1.12,0,0,0,.59-1.13c-.37-2.81-.82-6.09-1.31-9.67C418.94,401.92,397.28,398.09,381.91,388Z" transform="translate(-287.93 -311.31)"/><path class="cls-4" d="M292.82,345.61c1.18,5,2.46,10.48,3.79,16.13a61.1,61.1,0,0,1,7.91-4.54A33.34,33.34,0,0,1,292.82,345.61Z" transform="translate(-287.93 -311.31)"/><path class="cls-4" d="M380,325c-20-3.65-26.15-12.58-44.93-13.56,30.49,9.81,31.78,28.1,52,34.62,12.69,4.09,26.45,3.35,35.52-15.83-.59-4.46-1.13-8.65-1.58-12.35a1.1,1.1,0,0,0-1.71-.8C407.05,324.89,395.48,327.8,380,325Z" transform="translate(-287.93 -311.31)"/><path class="cls-1" d="M304.56,335.36a14,14,0,0,1,10.87-16,14.78,14.78,0,1,0,4.67,27.48A14,14,0,0,1,304.56,335.36Z" transform="translate(-287.93 -311.31)"/><path id="_5" data-name="5" class="cls-1" d="M314.82,334l-2.24-1.18-1.72,1.86.34-2.58L309,330.91l2.45-.41.34-2.58,1.17,2.32,2.44-.42-1.72,1.84Z" transform="translate(-287.93 -311.31)"/><path id="_4" data-name="4" class="cls-1" d="M330.35,331.34l-2.24-1.18L326.39,332l.34-2.58-2.24-1.17,2.45-.41.34-2.58,1.17,2.32,2.45-.42L329.17,329Z" transform="translate(-287.93 -311.31)"/><path id="_3" data-name="3" class="cls-1" d="M321.61,326.9l-2.24-1.18-1.72,1.85L318,325l-2.25-1.17,2.46-.41.33-2.58,1.17,2.32,2.45-.42-1.73,1.85Z" transform="translate(-287.93 -311.31)"/><path id="_2" data-name="2" class="cls-1" d="M319.29,342.71l-2.24-1.18-1.72,1.86.35-2.58-2.25-1.17,2.46-.42.33-2.58,1.17,2.33,2.45-.42-1.73,1.84Z" transform="translate(-287.93 -311.31)"/><path id="_1" data-name="1" class="cls-1" d="M329,341.06l-2.24-1.18-1.72,1.85.35-2.57L323.15,338l2.45-.41.34-2.58,1.17,2.33,2.45-.43-1.73,1.85Z" transform="translate(-287.93 -311.31)"/></svg>