<?xml version="1.0" encoding="utf-8"?>
<!-- Generator: Adobe Illustrator 25.1.0, SVG Export Plug-In . SVG Version: 6.00 Build 0)  -->
<svg version="1.1" id="Layer_1" xmlns="http://www.w3.org/2000/svg" xmlns:xlink="http://www.w3.org/1999/xlink" x="0px" y="0px"
	 viewBox="0 0 98.62 62.52" style="enable-background:new 0 0 98.62 62.52;" xml:space="preserve">
<style type="text/css">
	.st0{fill:#EF4130;}
	.st1{fill:#DA2128;}
	.st2{fill:#225AA9;}
	.st3{fill:#323A34;}
	.st4{fill:#004C9C;}
	.st5{fill:#FFFFFF;}
	.st6{fill:#FFE300;}
	.st7{fill:#EAE3DA;}
	.st8{fill:#EECA19;}
	.st9{fill:#00994C;}
	.st10{fill:#008F49;}
</style>
<g>
	<path class="st0" d="M97.1,49.08c-0.33-1.94-0.67-3.89-1.02-5.86c-0.11-0.61-0.22-1.23-0.33-1.84c-1.82-10.27-3.8-20.83-5.47-30.94
		c0-0.01,0-0.02,0-0.03c-0.21-1.3-0.42-2.58-0.63-3.86c-0.22-1.38-0.43-2.75-0.64-4.11c-0.08-0.55-0.71-0.81-1.16-0.49
		C79.87,7.47,72.19,9.87,61.8,8.15c-4.68-0.77-9.9-2.37-15.96-4.91c-4.81-2.02-9.52-2.93-14.01-3.1c-0.26-0.01-0.52,0-0.79,0l0,0
		C18.44-0.07,7.78,5.62,2.33,9.7C2.25,9.76,2.19,9.81,2.12,9.87c-0.3,0.23-0.6,0.46-0.87,0.68c-0.19,0.16-0.38,0.31-0.55,0.46
		c-0.23,0.2-0.31,0.51-0.21,0.8c0.25,0.72,0.5,1.45,0.74,2.2c0.07,0.22,0.14,0.45,0.21,0.67c0.23,0.73,0.47,1.46,0.7,2.21
		c0.06,0.19,0.12,0.39,0.18,0.58c0.25,0.82,0.5,1.66,0.75,2.51c0.03,0.11,0.06,0.22,0.1,0.33c0.28,0.97,0.56,1.95,0.84,2.95l0,0
		c3.07,11.02,6.12,23.81,10.05,35.35c0.15,0.44,0.65,0.63,1.06,0.41c5.54-2.93,13.88-5.32,27.33-3.03
		c3.68,0.63,7.72,1.58,12.21,2.99c6.03,1.9,11.4,2.88,16.23,3.23c11.99,0.87,20.56-2.27,26.93-5.9c0.27-0.15,0.41-0.46,0.36-0.76
		C97.84,53.44,97.47,51.27,97.1,49.08z"/>
	<path class="st1" d="M97.11,49.13c-6.7,7.77-17.48,7.8-27.93,3.66c-3.42-1.35-6.8-3.15-9.98-5.27c-6.62-4.4-13.39-6.86-19.89-8.61
		c-15.17-4.07-28.8-4.21-35.32-15.64c3.07,11.02,6.12,23.81,10.05,35.35c0.15,0.44,0.65,0.63,1.06,0.41
		c5.54-2.93,13.88-5.32,27.33-3.03c3.68,0.63,7.72,1.58,12.21,2.99c6.03,1.9,11.4,2.88,16.23,3.23c11.99,0.87,20.56-2.27,26.93-5.9
		c0.27-0.15,0.41-0.46,0.36-0.76C97.84,53.45,97.48,51.3,97.11,49.13z"/>
	<path class="st1" d="M89.02,2.44c-0.08-0.55-0.71-0.8-1.16-0.49C79.87,7.47,72.19,9.87,61.8,8.15c-4.68-0.77-9.9-2.37-15.96-4.91
		c-4.81-2.02-9.52-2.93-14.01-3.1c-0.26-0.01-0.52,0-0.79,0c0.28,0.07,0.55,0.14,0.83,0.22c8.07,2.32,18.01,8.6,23.39,14.15
		c1.87,1.93,4.89,4.23,8.44,6c0,0.02,0.01,0.03,0.01,0.05c0-0.02-0.01-0.03-0.01-0.05c8.68,4.33,20.52,5.42,26.58-10.1
		C89.85,7.73,89.42,5.05,89.02,2.44z"/>
	<path class="st2" d="M69.64,41.11c-2.79-0.58-5.71-1.71-8.81-2.9c-5.34-2.06-11.23-4.33-17.34-4.33c-1.1,1.37-2.42,3.12-3.89,5.11
		c6.41,1.74,13.09,4.19,19.61,8.53c3.19,2.12,6.57,3.91,9.98,5.27c10.45,4.14,21.23,4.11,27.93-3.66c0-0.01,0-0.03-0.01-0.04
		c-0.33-1.94-0.67-3.89-1.02-5.86c-0.11-0.61-0.22-1.23-0.33-1.84c-0.09-0.5-0.18-1.01-0.27-1.51c-4.29,1.46-8.61,2.26-13.06,2.42
		C78.3,42.44,74.07,42.04,69.64,41.11z"/>
	<path class="st0" d="M81.37,5.72c-3.85,1.8-7.82,2.83-12.24,2.96C73.55,8.55,77.52,7.52,81.37,5.72z"/>
	<path class="st3" d="M21.78,34.83c1.45-2.01,2.86-3.95,4.19-5.74c-6.35-2.73-14.99-5.97-22.82-8.75c0.28,0.96,0.56,1.94,0.83,2.94
		l0,0C7.83,30.01,14.14,32.82,21.78,34.83z"/>
	<path class="st0" d="M66.88,22.5c2.44,0.94,4.74,1.83,6.19,2.13c7.07,1.47,13.15,1.08,19.39-1.59c-0.75-4.24-1.49-8.46-2.17-12.59
		c0-0.01,0-0.02,0-0.03c-0.21-1.3-0.42-2.58-0.63-3.86c-0.22-1.38-0.43-2.75-0.64-4.11c-0.01-0.07-0.03-0.13-0.06-0.19
		c0.03,0.06,0.04,0.12,0.05,0.19c0.39,2.62,0.82,5.29,1.27,7.98c-6.05,15.51-17.9,14.43-26.58,10.1c0,0.02,0.01,0.03,0.01,0.05
		c0-0.02-0.01-0.03-0.01-0.05c-3.55-1.77-6.57-4.08-8.44-6C49.89,8.97,39.95,2.69,31.88,0.37c-0.28-0.08-0.56-0.15-0.83-0.22l0,0
		c-8.02-0.14-15.24,2.11-20.84,4.82c9.71,3.46,22.55,8.31,29.95,12.22C50.84,16.32,60.28,19.96,66.88,22.5z"/>
	<path class="st0" d="M83.38,4.72c0.04-0.02,0.09-0.05,0.13-0.07C83.47,4.67,83.42,4.69,83.38,4.72z"/>
	<path class="st0" d="M65.74,8.61c1.11,0.07,2.18,0.1,3.24,0.07C67.92,8.71,66.84,8.69,65.74,8.61z"/>
	<path class="st4" d="M97.57,51.86c-0.15-0.91-0.3-1.82-0.46-2.73c-6.7,7.77-17.48,7.8-27.93,3.66c-3.42-1.35-6.8-3.15-9.98-5.27
		c-6.52-4.34-13.2-6.79-19.61-8.53c-3.44,4.64-7.67,10.6-11.67,16.31c4.04-0.39,8.82-0.27,14.52,0.7c3.68,0.63,7.72,1.58,12.21,2.99
		c6.03,1.9,11.4,2.88,16.23,3.23c3,0.22,5.78,0.19,8.37-0.04c7.12-0.63,12.77-2.74,17.34-5.18c0.42-0.22,0.82-0.45,1.22-0.67
		c0.27-0.15,0.41-0.46,0.36-0.76c-0.17-1.06-0.35-2.14-0.52-3.22C97.63,52.19,97.6,52.03,97.57,51.86z"/>
	<path d="M3.99,23.28c2.3,8.26,4.59,17.51,7.25,26.49c3.23-4.65,6.98-10,10.54-14.94C14.14,32.82,7.83,30.01,3.99,23.28z"/>
	<path class="st1" d="M61.8,8.15c1.36,0.22,2.67,0.37,3.94,0.46C64.47,8.53,63.16,8.38,61.8,8.15z"/>
	<path class="st1" d="M88.97,2.25c-0.18-0.41-0.71-0.58-1.11-0.3c-1.45,1-2.9,1.9-4.35,2.7c1.45-0.79,2.9-1.69,4.35-2.7
		C88.26,1.67,88.79,1.84,88.97,2.25z"/>
	<path class="st1" d="M69.13,8.68c-0.05,0-0.11,0-0.16,0C69.03,8.68,69.08,8.69,69.13,8.68z"/>
	<path class="st1" d="M81.37,5.72c0.67-0.31,1.34-0.64,2.01-1C82.71,5.08,82.04,5.41,81.37,5.72z"/>
	<path class="st1" d="M55.28,14.52c1.87,1.93,4.89,4.23,8.44,6c0,0.02,0.01,0.03,0.01,0.05c0-0.02-0.01-0.03-0.01-0.05
		c8.68,4.33,20.52,5.42,26.58-10.1c-0.44-2.7-0.87-5.37-1.27-7.98c-0.01-0.07-0.03-0.13-0.05-0.19c-0.18-0.41-0.71-0.58-1.11-0.3
		c-1.45,1-2.9,1.9-4.35,2.7c-0.04,0.02-0.09,0.05-0.13,0.07c-0.67,0.36-1.34,0.69-2.01,1c-3.85,1.8-7.82,2.83-12.24,2.96
		c-0.05,0-0.11,0-0.16,0c-1.05,0.03-2.13,0-3.24-0.07c-1.27-0.09-2.58-0.24-3.94-0.46c-4.68-0.77-9.9-2.37-15.96-4.91
		c-4.81-2.02-9.52-2.93-14.01-3.1c-0.26-0.01-0.52,0-0.79,0c0.28,0.07,0.55,0.14,0.83,0.22C39.95,2.69,49.89,8.97,55.28,14.52z"/>
	<path class="st5" d="M39.48,20.47c10.27-1.12,19.37,2.38,26.24,5.03c2.68,1.03,4.99,1.92,6.69,2.28c7.46,1.55,14,1.16,20.63-1.53
		c-0.19-1.07-0.38-2.15-0.57-3.22c-6.24,2.67-12.32,3.07-19.39,1.59c-1.45-0.3-3.75-1.19-6.19-2.13
		c-6.59-2.54-16.04-6.18-26.72-5.31c-7.39-3.9-20.24-8.76-29.95-12.22C8.82,5.63,7.54,6.33,6.36,7.03
		C16.4,10.56,31.88,16.28,39.48,20.47z"/>
	<path class="st6" d="M21.78,34.83c1.1,0.29,2.23,0.56,3.38,0.83c2.09-2.89,4.08-5.59,5.81-7.86c-7.43-3.49-19.83-8.06-28.95-11.27
		c0.04,0.12,0.08,0.24,0.11,0.37c0.06,0.19,0.12,0.39,0.18,0.58c0.25,0.82,0.5,1.66,0.75,2.51c0.03,0.11,0.06,0.22,0.1,0.33
		c0,0.01,0,0.01,0,0.02c7.82,2.78,16.47,6.02,22.82,8.75C24.64,30.88,23.23,32.82,21.78,34.83z"/>
	<path class="st5" d="M82.2,39.06c-3.85,0.14-7.79-0.24-11.91-1.1c-2.53-0.53-5.21-1.56-8.31-2.75c-5.78-2.23-12.74-4.9-20.07-4.49
		c-1.46,1.76-3.45,4.37-5.69,7.41c1.02,0.25,2.05,0.51,3.09,0.78c0.09,0.03,0.19,0.05,0.28,0.08c1.47-1.99,2.8-3.73,3.89-5.11
		c6.11,0,12,2.27,17.34,4.33c3.1,1.19,6.02,2.32,8.81,2.9c4.43,0.92,8.67,1.33,12.79,1.18c4.46-0.16,8.78-0.95,13.06-2.42
		c-0.19-1.08-0.39-2.16-0.58-3.24C90.73,38.11,86.53,38.91,82.2,39.06z"/>
	<path class="st7" d="M39.31,38.91c-1.04-0.28-2.07-0.54-3.09-0.78c-3.93,5.34-8.65,12.03-12.7,17.85c1.36-0.29,2.82-0.53,4.4-0.68
		c4-5.72,8.23-11.68,11.67-16.31C39.5,38.96,39.4,38.94,39.31,38.91z"/>
	<path class="st8" d="M25.16,35.66c-1.15-0.26-2.28-0.54-3.38-0.83c-3.55,4.94-7.31,10.29-10.54,14.94c0.39,1.32,0.79,2.63,1.2,3.93
		C16.16,48.33,20.86,41.6,25.16,35.66z"/>
	<path class="st9" d="M61.98,35.21c3.1,1.19,5.78,2.22,8.31,2.75c4.12,0.86,8.06,1.23,11.91,1.1c4.33-0.15,8.53-0.95,12.71-2.43
		c-0.62-3.45-1.25-6.92-1.87-10.38c-6.63,2.68-13.17,3.08-20.63,1.53c-1.7-0.36-4.02-1.25-6.69-2.28
		c-6.87-2.65-15.97-6.15-26.24-5.03c-7.6-4.2-23.07-9.91-33.11-13.45C4.82,7.94,3.46,8.86,2.33,9.7C2.25,9.76,2.19,9.81,2.12,9.87
		c-0.3,0.23-0.6,0.46-0.87,0.68c-0.19,0.16-0.38,0.31-0.55,0.46c-0.23,0.2-0.31,0.51-0.21,0.8c0.25,0.72,0.5,1.45,0.74,2.2
		c0.07,0.22,0.14,0.45,0.21,0.67c0.2,0.61,0.39,1.22,0.58,1.85c9.12,3.2,21.52,7.78,28.95,11.27c-1.74,2.27-3.73,4.97-5.81,7.86
		c3.5,0.81,7.21,1.54,11.06,2.47c2.24-3.04,4.23-5.65,5.69-7.41C49.24,30.31,56.2,32.98,61.98,35.21z"/>
	<path class="st10" d="M12.44,53.7c0.52,1.66,1.05,3.31,1.6,4.93c0.15,0.44,0.65,0.63,1.06,0.41c2.28-1.2,5.03-2.32,8.41-3.05
		c4.05-5.82,8.77-12.51,12.7-17.85c-3.85-0.93-7.56-1.67-11.06-2.47C20.86,41.6,16.16,48.33,12.44,53.7z"/>
</g>
</svg>
