<svg id="Layer_40" data-name="Layer 40" xmlns="http://www.w3.org/2000/svg" viewBox="0 0 144 95.48"><defs><style>.cls-1{fill:#fff;}.cls-2{fill:#eceff3;}.cls-3{fill:#231f20;}.cls-3,.cls-4,.cls-5{fill-rule:evenodd;}.cls-4{fill:#ef4130;}.cls-5{fill:#0079c1;}</style></defs><path class="cls-1" d="M430.65,388.73c-.4-2.91-.81-5.86-1.23-8.82l-.39-2.77c-2.2-15.46-4.62-31.37-6.59-46.58v0c-.25-1.95-.5-3.88-.74-5.81s-.51-4.14-.74-6.18a1.11,1.11,0,0,0-1.72-.8c-12.23,7.85-23.85,11-39.31,7.95a107.86,107.86,0,0,1-23.63-8.16,59.65,59.65,0,0,0-20.79-5.35c-.4,0-.79,0-1.18,0h0c-18.86-1-35.1,7-43.47,12.83l-.32.24c-.47.33-.93.65-1.34,1l-.85.65A1.1,1.1,0,0,0,288,328c.34,1.08.67,2.2,1,3.33.1.33.19.68.29,1,.31,1.1.62,2.21.93,3.35.07.29.15.59.23.88.33,1.25.66,2.51,1,3.8,0,.16.08.33.13.5l1.1,4.46h0c4,16.64,7.94,35.94,13.24,53.4a1.11,1.11,0,0,0,1.56.67c8.44-4.1,21.05-7.24,41.06-3.13a137.78,137.78,0,0,1,18.11,5.1,106.78,106.78,0,0,0,24.13,5.67c17.89,1.91,30.87-2.35,40.59-7.45a1.1,1.1,0,0,0,.58-1.12C431.52,395.28,431.09,392,430.65,388.73Z" transform="translate(-287.93 -312.05)"/><path class="cls-2" d="M430.66,388.8c-10.43,11.28-26.56,10.77-42,4A81.61,81.61,0,0,1,374,384.45c-9.68-6.92-19.69-10.95-29.32-13.9-22.48-6.86-42.87-7.77-52-25.2,4,16.64,7.94,35.94,13.24,53.4a1.11,1.11,0,0,0,1.56.67c8.44-4.1,21.05-7.24,41.06-3.13a137.78,137.78,0,0,1,18.11,5.1,106.78,106.78,0,0,0,24.13,5.67c17.89,1.91,30.87-2.35,40.59-7.45a1.1,1.1,0,0,0,.58-1.12Q431.32,393.71,430.66,388.8Z" transform="translate(-287.93 -312.05)"/><path class="cls-2" d="M420.94,318.52a1.1,1.1,0,0,0-1.71-.79c-12.23,7.85-23.85,11-39.31,7.95a107.86,107.86,0,0,1-23.63-8.16,59.65,59.65,0,0,0-20.79-5.35c-.4,0-.79,0-1.18,0,.41.12.82.24,1.23.38,11.95,3.88,26.51,13.78,34.28,22.36a48.49,48.49,0,0,0,12.32,9.42v0c12.76,6.91,30.43,9.15,40.28-13.76C421.9,326.48,421.4,322.46,420.94,318.52Z" transform="translate(-287.93 -312.05)"/><polygon class="cls-3" points="56.92 19.81 44.06 34.3 41.72 32.26 54.58 17.77 56.92 19.81 56.92 19.81"/><polygon class="cls-3" points="38.4 74.38 30.42 56.73 33.26 55.48 41.23 73.13 38.4 74.38 38.4 74.38"/><polygon class="cls-3" points="101.09 23.99 109.12 41.65 111.91 40.39 103.93 22.74 101.09 23.99 101.09 23.99"/><polygon class="cls-3" points="51.24 14.79 38.38 29.28 40.72 31.32 53.58 16.84 51.24 14.79 51.24 14.79"/><polygon class="cls-3" points="104.99 43.49 107.83 42.24 104.19 34.1 101.34 35.41 104.99 43.49 104.99 43.49"/><polygon class="cls-3" points="111.1 69.05 108.77 66.95 102.82 73.63 105.16 75.67 111.1 69.05 111.1 69.05"/><polygon class="cls-3" points="42.47 72.53 45.31 71.28 41.61 63.13 38.76 64.44 42.47 72.53 42.47 72.53"/><polygon class="cls-3" points="113.2 39.8 115.98 38.54 112.34 30.4 109.49 31.71 113.2 39.8 113.2 39.8"/><polygon class="cls-3" points="104.37 63.03 102.09 61 96.14 67.68 98.48 69.72 104.37 63.03 104.37 63.03"/><polygon class="cls-3" points="107.76 66.07 105.43 63.97 99.48 70.66 101.82 72.7 107.76 66.07 107.76 66.07"/><polygon class="cls-3" points="100.71 33.99 103.55 32.74 99.85 24.59 97 25.9 100.71 33.99 100.71 33.99"/><polygon class="cls-3" points="104.14 76.84 101.81 74.74 95.91 81.44 98.19 83.47 104.14 76.84 104.14 76.84"/><polygon class="cls-3" points="38.13 63.02 40.97 61.77 37.33 53.63 34.49 54.88 38.13 63.02 38.13 63.02"/><polygon class="cls-3" points="108.86 30.29 111.7 29.04 108 20.89 105.15 22.2 108.86 30.29 108.86 30.29"/><polygon class="cls-3" points="97.45 70.89 95.13 68.79 89.17 75.47 91.51 77.51 97.45 70.89 97.45 70.89"/><polygon class="cls-3" points="100.8 73.87 98.47 71.77 92.57 78.46 94.85 80.49 100.8 73.87 100.8 73.87"/><polygon class="cls-3" points="50.24 13.86 37.32 28.34 35.04 26.3 47.9 11.82 50.24 13.86 50.24 13.86"/><polygon class="cls-3" points="46.54 70.68 38.57 53.03 41.41 51.78 49.38 69.43 46.54 70.68 46.54 70.68"/><path class="cls-4" d="M358.91,340.18a19.2,19.2,0,0,0-5.92,1.73,20.46,20.46,0,0,0-5.07,3.45,19,19,0,0,0-5.64,10.33,19.72,19.72,0,0,0,1.56,12.05,18.46,18.46,0,0,0,3.44,5,18.66,18.66,0,0,0,4.7,3.63,19.21,19.21,0,0,0,5.57,2,18.86,18.86,0,0,0,6.14.16,19.55,19.55,0,0,0,11-5.17,18.71,18.71,0,0,0,3.63-4.71,20.88,20.88,0,0,0,2-5.57,20.66,20.66,0,0,0,.18-6.08,20.09,20.09,0,0,0-1.74-6,18.21,18.21,0,0,0-3.44-5,17.7,17.7,0,0,0-4.71-3.63,18.6,18.6,0,0,0-5.62-2,18.23,18.23,0,0,0-6.09-.23Z" transform="translate(-287.93 -312.05)"/><path class="cls-5" d="M343.33,352.11a18.36,18.36,0,0,0-1.05,3.58,19.72,19.72,0,0,0,1.56,12.05,18.46,18.46,0,0,0,3.44,5,18.66,18.66,0,0,0,4.7,3.63,19.21,19.21,0,0,0,5.57,2,18.86,18.86,0,0,0,6.14.16,19.55,19.55,0,0,0,11-5.17,18.71,18.71,0,0,0,3.63-4.71c0-.13.14-.27.22-.46a.06.06,0,0,1,.05-.07,9.66,9.66,0,0,0,.59-1.74,8.7,8.7,0,0,0,.28-2.53,8.14,8.14,0,0,0-.32-2.42l-.39-1.2c-.2-.39-.38-.72-.57-1.11a11.15,11.15,0,0,0-.72-1,9.56,9.56,0,0,0-.78-.95l-.93-.8-1-.72a9.24,9.24,0,0,0-2.28-.92,8,8,0,0,0-2.49-.4,11.39,11.39,0,0,0-2.42.31,10.37,10.37,0,0,0-1.21.34,6,6,0,0,0-1.12.51l-1.09.67a7.07,7.07,0,0,0-1.05.92,12.52,12.52,0,0,0-1.26,1.74c-.48.69-1,1.38-1.35,1.87a8.54,8.54,0,0,1-1.91,1.86,7.32,7.32,0,0,1-1.08.68,7.16,7.16,0,0,1-1.12.5,4.84,4.84,0,0,1-1.2.4,8.79,8.79,0,0,1-2.44.25,8.43,8.43,0,0,1-2.48-.34,9.25,9.25,0,0,1-2.29-1,5.4,5.4,0,0,1-1-.67,6.89,6.89,0,0,1-.94-.86,5.74,5.74,0,0,1-.82-.88,9.8,9.8,0,0,1-.68-1.09,3.86,3.86,0,0,1-.56-1.11,8.28,8.28,0,0,1-.45-1.13,17.17,17.17,0,0,1-.32-2.48,14.57,14.57,0,0,1,.21-2.52l0-.23Z" transform="translate(-287.93 -312.05)"/></svg>