<svg id="Layer_1" data-name="Layer 1" xmlns="http://www.w3.org/2000/svg" viewBox="0 0 76.05 49.77"><defs><style>.cls-1{fill:#005b8e;}.cls-2{fill:#005484;}.cls-3{fill:#ffe300;}.cls-4{fill:#eeca19;}</style></defs><path class="cls-1" d="M75.32,39.72c-.23-1.53-.46-3.08-.69-4.63-.08-.49-.15-1-.23-1.46-1.24-8.1-2.6-16.45-3.73-24.42v0c-.15-1-.28-2-.42-3S70,4,69.82,2.89a.58.58,0,0,0-.9-.41c-6.39,4.2-12.47,5.94-20.61,4.41A57.67,57.67,0,0,1,35.85,2.74,31.28,31.28,0,0,0,24.9,0h-.62C14.37-.38,5.88,3.9,1.52,7l-.17.13-.7.52L.21,8A.58.58,0,0,0,0,8.63c.18.57.36,1.15.54,1.75l.16.53c.17.58.34,1.16.51,1.76l.12.46c.19.65.37,1.31.55,2l.06.26c.21.77.41,1.54.61,2.34h0C4.8,26.44,7,36.55,9.84,45.69a.58.58,0,0,0,.82.35c4.41-2.21,11-3.93,21.55-1.88a71.6,71.6,0,0,1,9.55,2.57,55.87,55.87,0,0,0,12.7,2.84,36,36,0,0,0,21.28-4.14.57.57,0,0,0,.3-.6C75.81,43.15,75.57,41.44,75.32,39.72Z" transform="translate(0 0)"/><path class="cls-2" d="M76,44.83a.57.57,0,0,1-.3.6,36,36,0,0,1-21.28,4.14,55.87,55.87,0,0,1-12.7-2.84,71.6,71.6,0,0,0-9.55-2.57c-10.53-2-17.14-.33-21.55,1.88a.58.58,0,0,1-.82-.35c-2.88-9.14-5-19.25-7.26-28,4.91,9.1,15.63,9.46,27.48,12.94a51.73,51.73,0,0,1,15.48,7.13,42.15,42.15,0,0,0,7.76,4.32c8.13,3.45,16.61,3.63,22-2.36C75.57,41.47,75.82,43.16,76,44.83ZM69.82,2.89a.58.58,0,0,0-.9-.41c-6.39,4.2-12.47,5.94-20.61,4.41A57.67,57.67,0,0,1,35.85,2.74,31.28,31.28,0,0,0,24.9,0h-.62l.65.19A47.76,47.76,0,0,1,43.06,11.77a25.64,25.64,0,0,0,6.53,4.88v0c6.74,3.56,16,4.63,21.08-7.46C70.37,7.06,70.08,5,69.82,2.89Z" transform="translate(0 0)"/><path class="cls-3" d="M43.52,20.44c-3.06-.94-6.13-2-9.38-2.85l-1.83-.45L30.1,6.21,29,.55A32,32,0,0,0,24.9,0h-.62c-.6,0-1.2,0-1.79,0l1.34,7.4,1.61,8.71c-.54,0-1.08-.07-1.62-.08A40.21,40.21,0,0,0,3.6,21l-.18.09q.8,3.27,1.61,6.68l1.6-.71A43,43,0,0,1,15,24.28a38.24,38.24,0,0,1,8.66-.82c.72,0,1.45.06,2.18.12l1,.1c.85,4.65,1.74,9.3,2.62,14l1.2,6.25c.51.08,1,.17,1.56.28,1.79.34,3.68.79,5.69,1.37-.58-3.05-1.17-6.09-1.77-9.14Q35,30.73,33.9,25.07c2.5.63,5,1.37,7.61,2.09,1.56.44,3.13.88,4.74,1.29s3.24.82,5,1.12a39.15,39.15,0,0,0,5.34.42,47.15,47.15,0,0,0,5.2-.28,59.1,59.1,0,0,0,10-2c.53-.15,1-.32,1.57-.49q-.51-3.33-1-6.66C63.1,23.48,56.77,24.48,43.52,20.44Z" transform="translate(0 0)"/><path class="cls-4" d="M28,30.09c.48,2.51.95,5,1.43,7.54l1.2,6.25c.51.08,1,.17,1.56.28,1.79.34,3.68.79,5.69,1.37-.58-3.05-1.17-6.09-1.77-9.14l-.78-4c-1.78-.69-3.54-1.27-5.29-1.78Q29,30.36,28,30.09Z" transform="translate(0 0)"/><path class="cls-4" d="M29,.55A32,32,0,0,0,24.9,0h-.62l.65.19a32.37,32.37,0,0,1,4.3,1.72Z" transform="translate(0 0)"/><path class="cls-4" d="M4.49,20.51c-.3.16-.6.31-.89.48l-.18.09q.8,3.27,1.61,6.68l1.6-.71a48.6,48.6,0,0,1,4.56-1.75A18.23,18.23,0,0,1,4.49,20.51Z" transform="translate(0 0)"/></svg>