<svg id="Layer_43" data-name="Layer 43" xmlns="http://www.w3.org/2000/svg" viewBox="0 0 144 94.82"><defs><style>.cls-1{fill:#ef4130;}.cls-2{fill:#da2128;}.cls-3{fill:#fff;}</style></defs><path class="cls-1" d="M430.59,388.26q-.61-4.36-1.27-8.8c-.13-.91-.27-1.83-.41-2.76-2.28-15.4-4.78-31.25-6.84-46.4v0q-.39-2.91-.76-5.79c-.27-2.07-.54-4.13-.78-6.17a1.11,1.11,0,0,0-1.72-.78c-12.15,7.9-23.72,11.16-39.15,8.16a107.42,107.42,0,0,1-23.61-8,59.29,59.29,0,0,0-20.77-5.22c-.39,0-.78,0-1.17,0h0c-18.82-.86-35,7.19-43.27,13.05l-.33.24c-.46.33-.92.66-1.33,1l-.84.66a1.1,1.1,0,0,0-.35,1.18c.34,1.08.68,2.19,1,3.32.09.33.19.68.29,1,.32,1.09.63,2.19.95,3.33.08.29.15.59.23.88.34,1.24.68,2.5,1,3.78,0,.16.09.33.13.5.38,1.46.75,2.94,1.13,4.44h0c4.12,16.57,8.12,35.79,13.5,53.18a1.11,1.11,0,0,0,1.57.65c8.39-4.14,20.95-7.34,40.92-3.36a137.36,137.36,0,0,1,18.09,5,106.61,106.61,0,0,0,24.09,5.51c17.85,1.81,30.77-2.51,40.43-7.66a1.1,1.1,0,0,0,.58-1.12Q431.29,393.18,430.59,388.26Z" transform="translate(-287.93 -312.36)"/><path class="cls-2" d="M430.6,388.32c-10.33,11.31-27,12.7-43,7.67-11.59-3.64-29.87-18.39-44.79-24.08-21.9-8.35-40.87-8.79-50.11-26.12,4.12,16.57,8.12,35.79,13.5,53.18a1.11,1.11,0,0,0,1.57.65c8.39-4.14,20.95-7.34,40.92-3.36a137.36,137.36,0,0,1,18.09,5,106.61,106.61,0,0,0,24.09,5.51c17.85,1.81,30.77-2.51,40.43-7.66a1.1,1.1,0,0,0,.58-1.12Q431.29,393.21,430.6,388.32Z" transform="translate(-287.93 -312.36)"/><path class="cls-2" d="M420.51,318.3a1.1,1.1,0,0,0-1.71-.78c-12.15,7.9-23.72,11.16-39.15,8.16a107.42,107.42,0,0,1-23.61-8,59.29,59.29,0,0,0-20.77-5.22c-.39,0-.78,0-1.17,0l1.23.37c21.84,6.34,36.08,24.55,47.46,29.16,15.47,6.28,33.39,8.51,39.28-11.68C421.52,326.23,421,322.22,420.51,318.3Z" transform="translate(-287.93 -312.36)"/><path class="cls-3" d="M383.41,367.21c1.33,0,2.67-.08,4-.19L385,352.37c-5.13.26-10.58-.57-16.27-1.68l-2.4-13.7-4.61-.94c-3.74-.77-7.4-1.52-10.92-2l2.39,13.66a62.86,62.86,0,0,0-16.08-.76l2.35,14.64c5.07-.36,10.62.49,16.44,1.63l2.51,14.3q3.11.64,6.18,1.34c3.2.71,6.34,1.41,9.41,1.95l-2.56-14.58A73.85,73.85,0,0,0,383.41,367.21Z" transform="translate(-287.93 -312.36)"/></svg>