<svg id="Layer_44" data-name="Layer 44" xmlns="http://www.w3.org/2000/svg" viewBox="0 0 144.01 95.63"><defs><style>.cls-1{fill:#ef4130;}.cls-2{fill:#da2128;}.cls-3{fill:#225aa9;}.cls-4{fill:#004c9c;}.cls-5{fill:#fff;}</style></defs><path class="cls-1" d="M421,317.85a1.1,1.1,0,0,0-1.71-.8C407.05,324.89,395.48,327.8,380,325c-20.25-3.69-26.3-12.8-45.61-13.6-19.92-.83-35.4,6.75-46,14.66a1.05,1.05,0,0,0-.37,1.18c3.75,11.14,11.49,49.55,17.85,70.8a1.13,1.13,0,0,0,1.57.67c15.57-7.06,33.73-7,59.19,2,23.46,8.31,44.29,8.89,64.75-1.72a1.12,1.12,0,0,0,.59-1.13C429.44,379,423.7,340.06,421,317.85Z" transform="translate(-287.93 -311.31)"/><path class="cls-2" d="M381.91,388c-17.4-11.37-27.81-16.06-47.39-20.84-17.12-4.17-33.08-7.21-41.7-21.59,3.88,16.27,8.75,38.17,13,52.4a1.13,1.13,0,0,0,1.57.67c15.57-7.06,33.73-7,59.19,2,23.46,8.31,44.29,8.89,64.75-1.72a1.12,1.12,0,0,0,.59-1.13c-.37-2.81-.82-6.09-1.31-9.67C418.94,401.92,397.28,398.09,381.91,388Z" transform="translate(-287.93 -311.31)"/><path class="cls-2" d="M380,325c-20-3.65-26.15-12.58-44.93-13.56,30.49,9.81,31.78,28.1,52,34.62,12.69,4.09,26.45,3.35,35.52-15.83-.59-4.46-1.13-8.65-1.58-12.35a1.1,1.1,0,0,0-1.71-.8C407.05,324.89,395.48,327.8,380,325Z" transform="translate(-287.93 -311.31)"/><path class="cls-3" d="M356.07,316.76c-6.2-2.7-12.42-5-21.71-5.39-19.92-.83-35.4,6.75-46,14.66a1.05,1.05,0,0,0-.37,1.18c2,6,5.16,19.75,8.63,34.53C308,354,324,349.18,341,350.58a64,64,0,0,1,20.34,5.17Z" transform="translate(-287.93 -311.31)"/><path class="cls-4" d="M292.82,345.61c1.18,5,2.46,10.48,3.79,16.13a61.1,61.1,0,0,1,7.91-4.54A33.34,33.34,0,0,1,292.82,345.61Z" transform="translate(-287.93 -311.31)"/><path id="_13" data-name="13" class="cls-5" d="M324.55,340.16a8,8,0,1,0-8.61-7.29A8,8,0,0,0,324.55,340.16Z" transform="translate(-287.93 -311.31)"/><path id="_12" data-name="12" class="cls-5" d="M325,322.89l-2.5-7-1.32,7.3A9.39,9.39,0,0,1,325,322.89Z" transform="translate(-287.93 -311.31)"/><path id="_11" data-name="11" class="cls-5" d="M320.23,323.57l-5.65-4.79,2.51,7A9.38,9.38,0,0,1,320.23,323.57Z" transform="translate(-287.93 -311.31)"/><path id="_10" data-name="10" class="cls-5" d="M316.4,326.56l-7.28-1.32,5.65,4.79A9.24,9.24,0,0,1,316.4,326.56Z" transform="translate(-287.93 -311.31)"/><path id="_9" data-name="9" class="cls-5" d="M314.57,331.06l-7,2.5,7.3,1.32A9.39,9.39,0,0,1,314.57,331.06Z" transform="translate(-287.93 -311.31)"/><path id="_8" data-name="8" class="cls-5" d="M315.24,335.87l-4.78,5.65,7-2.5A9.7,9.7,0,0,1,315.24,335.87Z" transform="translate(-287.93 -311.31)"/><path id="_7" data-name="7" class="cls-5" d="M318.23,339.71,316.91,347l4.8-5.66A9.48,9.48,0,0,1,318.23,339.71Z" transform="translate(-287.93 -311.31)"/><path id="_6" data-name="6" class="cls-5" d="M322.74,341.53l2.5,7,1.32-7.29A9.39,9.39,0,0,1,322.74,341.53Z" transform="translate(-287.93 -311.31)"/><path id="_5" data-name="5" class="cls-5" d="M327.55,340.86l5.65,4.78-2.51-7A9.4,9.4,0,0,1,327.55,340.86Z" transform="translate(-287.93 -311.31)"/><path id="_4" data-name="4" class="cls-5" d="M331.38,337.87l7.28,1.32-5.65-4.8A9.35,9.35,0,0,1,331.38,337.87Z" transform="translate(-287.93 -311.31)"/><path id="_3" data-name="3" class="cls-5" d="M333.21,333.36l7-2.49-7.3-1.33A9.39,9.39,0,0,1,333.21,333.36Z" transform="translate(-287.93 -311.31)"/><path id="_2" data-name="2" class="cls-5" d="M332.54,328.55l4.78-5.65-7,2.51A9.54,9.54,0,0,1,332.54,328.55Z" transform="translate(-287.93 -311.31)"/><path id="_1" data-name="1" class="cls-5" d="M329.55,324.72l1.32-7.28-4.8,5.66A9.32,9.32,0,0,1,329.55,324.72Z" transform="translate(-287.93 -311.31)"/><path class="cls-4" d="M356.88,322.75l-.81-6c-6.05-2.64-12.12-4.9-21-5.36A67.81,67.81,0,0,1,356.88,322.75Z" transform="translate(-287.93 -311.31)"/></svg>