<svg id="Layer_1" data-name="Layer 1" xmlns="http://www.w3.org/2000/svg" viewBox="0 0 96.51 60.27"><defs><style>.cls-1{fill:#d3202a;}.cls-2{fill:#ec2028;}.cls-3{fill:#fff;}.cls-4{fill:#25215a;}.cls-5{fill:#005484;}.cls-6{fill:#e2e2e2;}.cls-7{fill:#181942;}</style></defs><path class="cls-1" d="M205.59,53a1,1,0,0,1,0,.17,1,1,0,0,1-.24.65,1,1,0,0,1-.19.16s0,0,0,0h0l-1.15.66a45,45,0,0,1-6.72,3c-1,.35-2,.67-3.11,1A47.67,47.67,0,0,1,179,60.19a70,70,0,0,1-16-2.88,90.31,90.31,0,0,0-12-2.73c-13-2-21.13.4-26.51,3.31a1,1,0,0,1-1.38-.52c-.45-1.25-.88-2.51-1.31-3.78,0-.1-.07-.19-.1-.29-.33-1-.65-2-1-3,6-3.12,14.45-6.77,25.72-5.84,7.69.63,23.35,6.47,30.75,6.93,1.47.09,2.88.13,4.26.11,9.9,2.24,18.6.64,23-4.64Q205,50,205.59,53Z" transform="translate(-109.09 0)"/><path class="cls-2" d="M204.46,46.86v0c-4.4,5.28-13.1,6.88-23,4.64,9.22-.06,16.49-2.39,22.64-6.55Z" transform="translate(-109.09 0)"/><path class="cls-3" d="M203.36,41.13c.25,1.29.5,2.58.74,3.86-6.15,4.16-13.42,6.49-22.64,6.55A52.81,52.81,0,0,1,167.27,46a79.26,79.26,0,0,0-19.65-8.09q-3.93-1-7.56-2a44.77,44.77,0,0,1,5.24.18c7.52.73,22.79,6.67,30,7.23,11.4.87,20.07-1.53,27.2-6.43l.48,2.43C203.12,39.93,203.24,40.53,203.36,41.13Z" transform="translate(-109.09 0)"/><path class="cls-4" d="M198.91,18.57c1.18,6.09,2.42,12.25,3.62,18.33-7.13,4.9-15.8,7.3-27.2,6.43-7.24-.56-22.51-6.5-30-7.23a44.77,44.77,0,0,0-5.24-.18c-11.37-3.07-20.46-6.25-26.73-10.72a.64.64,0,0,1,0-.07c6-3.29,15.17-8,27.88-7,7.69.63,23.35,6.46,30.75,6.92a51.26,51.26,0,0,0,12.89-.71A37.08,37.08,0,0,0,198.91,18.57Z" transform="translate(-109.09 0)"/><path class="cls-3" d="M197.29,10c.43,2.28,1.08,5.75,1.62,8.55a37.08,37.08,0,0,1-14.08,5.77l-.48-2.54c4.77-.85,9.25-4.08,12.29-11.35Z" transform="translate(-109.09 0)"/><path class="cls-2" d="M197.29,10l-.65.43c.17-.4.34-.81.5-1.24C197.18,9.46,197.24,9.73,197.29,10Z" transform="translate(-109.09 0)"/><path class="cls-1" d="M197.12,9.12s0,.06,0,.09c-.16.43-.33.84-.5,1.24-6.87,4.51-13.85,6.8-24.79,6.12a42.38,42.38,0,0,1-7.27-1.36c-.64-.53-1.21-1.05-1.7-1.54A59.71,59.71,0,0,0,139.66.22c-.28-.07-.45-.16-.72-.21h.69l1,0a39,39,0,0,1,10.09,1.81l.07,0c.85.28,1.7.59,2.56.93h0c1.14.45,2.25.88,3.33,1.27.69.26,1.38.49,2,.71a60.68,60.68,0,0,0,8.6,2.27q.47.09.93.15c.28.06.55.1.82.14a34.73,34.73,0,0,0,10.37.07l.24,0,.24,0,.29-.06a27,27,0,0,0,4.09-1c.35-.11.7-.24,1.06-.38s.48-.18.72-.28l.63-.26c.47-.2.93-.41,1.39-.64.13,0,.25-.12.38-.18l.46-.24.73-.39c.35-.19.71-.39,1.08-.61l.11-.06.49-.29c.23-.13.45-.28.68-.42l.75-.48.14-.1.85-.57.42-.29.09-.05.08,0s0,0,0,0l.06,0,.09,0h.22l.17,0h0l.09,0,0,0,.06,0a.31.31,0,0,1,.1,0l.09.06h0a1.06,1.06,0,0,1,.15.15,1.06,1.06,0,0,1,.21.51c.21,1.2.42,2.36.63,3.57s.45,2.51.68,3.78Z" transform="translate(-109.09 0)"/><path class="cls-5" d="M195.78,1.57a.68.68,0,0,1,0,.14,1.06,1.06,0,0,0-.21-.51A.66.66,0,0,1,195.78,1.57Z" transform="translate(-109.09 0)"/><path class="cls-5" d="M195.59,1.2a1.06,1.06,0,0,0-.15-.15A.43.43,0,0,1,195.59,1.2Z" transform="translate(-109.09 0)"/><path class="cls-5" d="M195.23.93l-.06,0A.11.11,0,0,1,195.23.93Z" transform="translate(-109.09 0)"/><path class="cls-2" d="M195.12.89l-.09,0Z" transform="translate(-109.09 0)"/><path class="cls-5" d="M194.8.85h0Z" transform="translate(-109.09 0)"/><path class="cls-5" d="M194.75.86h-.08a0,0,0,0,0,0,0h.07Z" transform="translate(-109.09 0)"/><path class="cls-5" d="M194.63.88l-.09,0-.06,0A.44.44,0,0,1,194.63.88Z" transform="translate(-109.09 0)"/><path class="cls-5" d="M194.43,1l-.08,0,.06,0Z" transform="translate(-109.09 0)"/><path class="cls-5" d="M193.84,1.33,193,1.9Z" transform="translate(-109.09 0)"/><path class="cls-5" d="M193,1.9l-.14.1-.75.48c-.23.14-.45.29-.68.42l-.49.29C191.61,2.79,192.29,2.36,193,1.9Z" transform="translate(-109.09 0)"/><path class="cls-2" d="M189.74,3.86c.36-.19.72-.4,1.08-.61C190.45,3.47,190.09,3.67,189.74,3.86Z" transform="translate(-109.09 0)"/><path class="cls-2" d="M189,4.25c.25-.12.49-.25.73-.39Z" transform="translate(-109.09 0)"/><path class="cls-5" d="M189,4.25l-.46.24c-.13.06-.25.13-.38.18Q188.59,4.47,189,4.25Z" transform="translate(-109.09 0)"/><path class="cls-5" d="M186.15,5.57l.63-.26Z" transform="translate(-109.09 0)"/><path class="cls-2" d="M185.43,5.85l.72-.28C185.91,5.67,185.67,5.77,185.43,5.85Z" transform="translate(-109.09 0)"/><path class="cls-2" d="M184.37,6.23c.35-.12.71-.24,1.06-.38C185.07,6,184.72,6.12,184.37,6.23Z" transform="translate(-109.09 0)"/><path class="cls-6" d="M196.64,10.45c-3,7.27-7.52,10.5-12.29,11.35-4.42.8-9.09-.43-13.1-2.36a33.87,33.87,0,0,1-6.67-4.23,42.38,42.38,0,0,0,7.27,1.36C182.79,17.25,189.77,15,196.64,10.45Z" transform="translate(-109.09 0)"/><path class="cls-3" d="M171.25,19.44c4,1.93,8.68,3.16,13.1,2.36l.48,2.54a51.26,51.26,0,0,1-12.89.71c-7.4-.46-23.06-6.29-30.75-6.92-12.71-1.05-21.87,3.71-27.88,7-.19-.66-.39-1.32-.58-2-.29-1-.58-1.94-.87-2.89a3,3,0,0,1-.1-.32c-.26-.83-.52-1.64-.78-2.45,6-3.29,15.83-8.36,28.59-7.93,7.25.25,17.27,3.67,25,5.64A33.87,33.87,0,0,0,171.25,19.44Z" transform="translate(-109.09 0)"/><path class="cls-6" d="M181.46,51.54c-1.38,0-2.79,0-4.26-.11-7.4-.46-23.06-6.3-30.75-6.93-11.27-.93-19.75,2.72-25.72,5.84l-.23-.71-.15-.46c-.38-1.2-.75-2.4-1.12-3.61,0-.19-.11-.37-.17-.56l-.79-2.65c5-2.72,12.25-6.18,21.79-6.43q3.63,1,7.56,2A79.26,79.26,0,0,1,167.27,46,52.81,52.81,0,0,0,181.46,51.54Z" transform="translate(-109.09 0)"/><path class="cls-2" d="M180.28,7.27a29.52,29.52,0,0,0,4.09-1A27,27,0,0,1,180.28,7.27Z" transform="translate(-109.09 0)"/><path class="cls-5" d="M179.75,7.37l-.24,0a34.73,34.73,0,0,1-10.37-.07c-.27,0-.54-.08-.82-.14l.87.13A36,36,0,0,0,179.75,7.37Z" transform="translate(-109.09 0)"/><path class="cls-2" d="M158.79,4.78a66.18,66.18,0,0,0,8.6,2.27A60.68,60.68,0,0,1,158.79,4.78Z" transform="translate(-109.09 0)"/><path class="cls-2" d="M162.88,13.67c.49.49,1.06,1,1.7,1.54-7.74-2-17.76-5.39-25-5.64C126.81,9.14,117,14.21,111,17.5l-.18-.57c-.21-.64-1.08-3.19-1.66-4.79a1,1,0,0,1,.29-1.07l1.43-1.19A49,49,0,0,1,122.2,3.41,44.52,44.52,0,0,1,138.86,0h.08c.27,0,.44.14.72.21A59.71,59.71,0,0,1,162.88,13.67Z" transform="translate(-109.09 0)"/><path class="cls-2" d="M158.79,4.78c-.67-.22-1.36-.45-2-.71C157.43,4.32,158.12,4.55,158.79,4.78Z" transform="translate(-109.09 0)"/><path class="cls-5" d="M150.82,1.86c.84.27,1.7.58,2.56.93C152.52,2.45,151.67,2.14,150.82,1.86Z" transform="translate(-109.09 0)"/><path class="cls-5" d="M140.66,0a37.77,37.77,0,0,1,10.09,1.81A39,39,0,0,0,140.66,0Z" transform="translate(-109.09 0)"/><path class="cls-7" d="M140.06,35.92c-9.54.25-16.77,3.71-21.79,6.43l-.27-.92-.18-.6c-.34-1.19-.69-2.38-1-3.57-.06-.2-.11-.4-.17-.6l-1-3.64c-.37-1.29-.73-2.57-1.09-3.83l-.08-.26c-.36-1.25-.71-2.48-1.07-3.7a0,0,0,0,0,0,0C119.6,29.67,128.69,32.85,140.06,35.92Z" transform="translate(-109.09 0)"/></svg>