<svg id="Layer_46" data-name="Layer 46" xmlns="http://www.w3.org/2000/svg" viewBox="0 0 144 95.58"><defs><style>.cls-1{fill:#ef4130;}.cls-2{fill:#da2128;}.cls-3{fill:#fff;}.cls-4{fill:#eceff3;}</style></defs><path class="cls-1" d="M430.66,388.8c-.4-2.91-.81-5.86-1.22-8.82l-.39-2.78c-2.19-15.46-4.59-31.38-6.56-46.6v0c-.26-1.95-.5-3.89-.74-5.81-.25-2.08-.5-4.15-.74-6.19a1.11,1.11,0,0,0-1.71-.8c-12.25,7.85-23.88,11-39.34,7.92a108,108,0,0,1-23.63-8.18,59.48,59.48,0,0,0-20.8-5.37c-.4,0-.78,0-1.17-.05h0c-18.87-1-35.11,7-43.49,12.8l-.33.24c-.47.33-.93.66-1.34,1l-.85.65a1.1,1.1,0,0,0-.36,1.19c.34,1.08.67,2.2,1,3.34l.28,1c.31,1.1.62,2.21.93,3.35.08.3.16.6.23.89.33,1.25.66,2.51,1,3.8,0,.16.08.33.13.5.36,1.47.73,2.95,1.1,4.46h0c4,16.66,7.91,36,13.19,53.44a1.12,1.12,0,0,0,1.57.67c8.44-4.1,21.06-7.23,41.07-3.1a139.34,139.34,0,0,1,18.12,5.12,106.49,106.49,0,0,0,24.13,5.69c17.9,1.94,30.89-2.31,40.62-7.41a1.1,1.1,0,0,0,.58-1.12Q431.32,393.76,430.66,388.8Z" transform="translate(-287.93 -312)"/><path class="cls-2" d="M430.66,388.87c-10.44,11.28-26.57,10.75-42,4A81.72,81.72,0,0,1,374,384.47c-9.68-6.93-19.69-11-29.32-13.93-22.49-6.89-42.89-7.81-52-25.26,4,16.66,7.91,36,13.19,53.44a1.12,1.12,0,0,0,1.57.67c8.44-4.1,21.06-7.23,41.07-3.1a139.34,139.34,0,0,1,18.12,5.12,106.49,106.49,0,0,0,24.13,5.69c17.9,1.94,30.89-2.31,40.62-7.41a1.1,1.1,0,0,0,.58-1.12C431.53,395.38,431.1,392.14,430.66,388.87Z" transform="translate(-287.93 -312)"/><path class="cls-2" d="M421,318.56a1.11,1.11,0,0,0-1.71-.8c-12.25,7.85-23.88,11-39.34,7.92a108,108,0,0,1-23.63-8.18,59.48,59.48,0,0,0-20.8-5.37c-.4,0-.78,0-1.17-.05l1.23.38c12,3.9,26.5,13.82,34.27,22.41a48.73,48.73,0,0,0,12.32,9.43v0c12.76,6.93,30.43,9.18,40.31-13.73C422,326.52,421.46,322.49,421,318.56Z" transform="translate(-287.93 -312)"/><path class="cls-3" d="M355.24,365.8a20.76,20.76,0,1,1,.53-22.62,16.66,16.66,0,1,0-.53,22.62ZM370,354.46l4.56-5.94-7.24,2.28L363,344.42l-.09,7.76-7.15,2.24,7.09,2.17-.09,7.65,4.43-5.93,7.23,2.45Z" transform="translate(-287.93 -312)"/><path class="cls-4" d="M338,374.75a20.52,20.52,0,0,0,10.79-2.9q-1.74-.59-3.45-1.11a17.7,17.7,0,0,1-2.07.12,16.54,16.54,0,0,1-9.88-3.45c-4.7-1.2-9.23-2.31-13.49-3.55A20.81,20.81,0,0,0,338,374.75Z" transform="translate(-287.93 -312)"/></svg>