<?xml version="1.0" encoding="utf-8"?>
<!-- Generator: Adobe Illustrator 25.2.1, SVG Export Plug-In . SVG Version: 6.00 Build 0)  -->
<svg version="1.1" id="Layer_1" xmlns="http://www.w3.org/2000/svg" xmlns:xlink="http://www.w3.org/1999/xlink" x="0px" y="0px"
	 viewBox="0 0 1199.8 759.6" style="enable-background:new 0 0 1199.8 759.6;" xml:space="preserve">
<style type="text/css">
	.st0{fill:#005087;}
	.st1{fill:#00589F;}
	.st2{fill:#FFD500;}
	.st3{fill:#F2C300;}
</style>
<path class="st0" d="M661.3,74c120.4,35,241.8,38.5,354.9-21.2c11.3-6,22.1-12.9,32.9-19.8c7.9-5.1,20.7-17.1,30.8-11.8
	c6.8,3.6,6.6,14.2,7.7,20.6c4.7,27,9.3,54.1,13.9,81.1l-0.4,0.1c0,0-18.9,58.6-66.8,106.5c-47.8,47.9-98.7,52.9-141.3,51.3
	s-92.2-16.7-141-46.1s-83.1-63.6-112.4-90.6c-29.3-27-88.3-64.3-134.7-91.4C463.4,28.3,395.8,4.7,382.2,0.1
	c25.7,0.4,51.4,2.8,76.8,7.2C528.7,19.1,593.3,54.2,661.3,74z"/>
<path class="st1" d="M44,281.1c-10.4-33.3-15.6-51.2-21.4-69.9S7.7,165,4.9,156.8s-4.8-13.4-4.9-14.8c-0.3-2.3,0.1-4.6,1.3-6.6
	c1.5-2.8,4.6-4.8,8.4-8s42.4-34.6,77.7-52.6C180.7,27.3,279.4-1.8,382.2,0c13.6,4.6,81.2,28.2,122.8,52.5
	c46.4,27.1,105.3,64.4,134.7,91.4s63.7,61.2,112.4,90.6s98.3,44.5,141,46.1s93.5-3.4,141.3-51.3s66.8-106.5,66.8-106.5l0.4-0.1
	c7.8,45.9,15.7,91.7,23.9,137.5c4.6,25.4,9.2,50.7,13.9,76.1c-0.4,0.3-12.6,7.8-38.2,22.2c-26.1,14.6-96.2,43-167.3,50.2
	s-104.5,3.3-136.3,1.1s-97.6-20.5-133.7-30.5s-106.1-30.7-161-45.6s-94.5-16.8-116.3-17.9s-11.3-1.6-72.8,2.8s-124,28.8-154.1,40.3
	c-8.6,3.3-19,8-29.6,12.9c-13.7-8.6-26.7-18.3-38.9-29c-29.7-26.2-44.7-55-45.1-55.9l0,0C45.3,285.1,44.7,283.1,44,281.1z"/>
<path class="st2" d="M1139.3,336.5c8.9,48.6,17.8,97.2,26.8,145.8c5.2,28.5,10.3,57,15.5,85.5c1.2,6.8,2.9,16.6,5.1,29
	c-2.2,3.4-16.2,23.5-56,46.5c-43.6,25.3-77.1,31.4-135,32.1c-57.9,0.7-111-18.9-151.3-33s-101-50.4-120.2-62.5s-61.4-36.4-97.2-54
	c-35.8-17.6-119.4-43.8-141.9-50.2s-97.2-23.1-136.7-31.6s-63-14-121.3-29.6c-34.3-9.3-67-23.7-97.1-42.7c10.6-5,21-9.6,29.6-12.9
	c30.2-11.6,92.6-35.9,154.1-40.3s51-3.9,72.8-2.8s61.3,3.1,116.3,17.9s124.9,35.6,161,45.6s101.9,28.5,133.8,30.6s65.2,6,136.3-1.1
	s141.2-35.5,167.3-50.2C1126.7,344.3,1138.9,336.8,1139.3,336.5z"/>
<path class="st3" d="M1199.4,671.1c0.7,3.4,0.8,7.1-0.8,10.1c-1.5,2.8-4.4,4.6-7.3,6c-14.4,6.9-28.2,15-42.7,21.7
	c-93.4,43.1-198.1,57.5-300.2,47.8c-39.6-3.9-78.8-10.5-117.5-19.7c-42-9.9-83.1-23.8-125-34.7c-73.3-19-148.9-32-224.8-29.7
	c-58.6,1.8-98.1,11.4-109.1,14.2c-17.4,4.4-34.5,9.9-51.2,16.5c-8.3,3.3-16.5,7-24.5,11c-6,3-13.4,9.1-20.5,7.7
	c-6.6-1.3-8.2-8.7-9.9-14.2c-50.8-163.4-65.4-217.1-65.4-217.1c-9.7-35.8-17.4-65.5-24.2-91.9c0,0,27.1-14.4,53.6-26.9
	c30,19,62.8,33.4,97.1,42.7c58.3,15.6,81.8,21.2,121.3,29.6s114.2,25.2,136.7,31.6s106.1,32.6,141.9,50.2s78,41.8,97.2,54
	s80,48.5,120.2,62.5s93.4,33.6,151.3,33s91.3-6.8,135-32.1c39.8-23,53.8-43.2,56-46.5c2.7,15.4,6,34.7,9.7,56.8
	C1197.3,659.4,1198.2,665.3,1199.4,671.1z"/>
<path class="st0" d="M129.9,371.9c-26.5,12.5-53.6,26.9-53.6,26.9c-10.9-42.5-19.5-76.1-30.4-111.7c0.5,0.9,15.4,29.7,45.1,55.9
	C103.2,353.6,116.2,363.3,129.9,371.9z"/>
</svg>
