<svg version="1.1" id="Layer_1" xmlns="http://www.w3.org/2000/svg" xmlns:xlink="http://www.w3.org/1999/xlink" x="0px" y="0px" viewBox="0 0 99.504 62.976" style="enable-background:new 0 0 99.504 62.976;" xml:space="preserve">
<g>
	<g>
		<path style="fill:#225AA9;" d="M98.369,49.362c-0.345-1.965-0.702-3.952-1.064-5.948c-0.113-0.621-0.227-1.244-0.341-1.868    c-1.904-10.418-3.966-21.139-5.713-31.396c-0.002-0.009-0.003-0.017-0.004-0.026c-0.224-1.315-0.441-2.62-0.656-3.921    c-0.228-1.398-0.456-2.794-0.671-4.171c-0.087-0.554-0.722-0.815-1.182-0.494c-8.086,5.648-15.876,8.126-26.436,6.439    c-4.757-0.76-10.067-2.352-16.233-4.9c-4.897-2.024-9.689-2.928-14.24-3.073c-0.269-0.009-0.53,0.005-0.797,0.002l-0.002,0    C18.219-0.151,7.428,5.686,1.91,9.86c-0.077,0.058-0.141,0.112-0.216,0.17c-0.307,0.236-0.611,0.471-0.882,0.693    c-0.195,0.159-0.38,0.315-0.556,0.467c-0.234,0.201-0.315,0.522-0.212,0.813c0.257,0.727,0.512,1.474,0.765,2.235    c0.074,0.223,0.147,0.456,0.221,0.681c0.241,0.737,0.482,1.481,0.721,2.246c0.061,0.195,0.121,0.396,0.182,0.592    c0.258,0.836,0.515,1.681,0.771,2.546c0.033,0.111,0.066,0.225,0.099,0.337c0.29,0.984,0.579,1.981,0.868,2.996l0,0    c3.18,11.174,6.341,24.15,10.395,35.846c0.154,0.443,0.667,0.632,1.08,0.411c5.609-3.007,14.074-5.471,27.745-3.218    c3.739,0.616,7.845,1.566,12.415,2.977c6.135,1.894,11.595,2.864,16.504,3.196c12.179,0.823,20.866-2.411,27.317-6.128    c0.273-0.157,0.417-0.466,0.366-0.777C99.136,53.779,98.759,51.581,98.369,49.362z"/>
	</g>
	<path style="fill:#004C9C;" d="M99.493,55.942c0.051,0.311-0.092,0.62-0.366,0.777c-6.451,3.717-15.138,6.95-27.317,6.128   c-4.909-0.332-10.368-1.302-16.504-3.196c-4.569-1.411-8.676-2.36-12.415-2.977c-13.671-2.253-22.137,0.211-27.745,3.218   c-0.413,0.222-0.926,0.032-1.08-0.411C10.012,47.786,6.851,34.81,3.671,23.636c6.678,11.57,20.524,11.64,35.948,15.696   c6.608,1.737,13.501,4.204,20.244,8.637c3.25,2.137,6.692,3.941,10.168,5.298c10.631,4.15,21.579,4.065,28.345-3.861   C98.764,51.611,99.138,53.793,99.493,55.942z M89.92,2.029c-0.086-0.554-0.721-0.814-1.181-0.492   c-8.086,5.648-15.876,8.126-26.437,6.439c-4.757-0.76-10.067-2.352-16.233-4.9c-4.897-2.024-9.689-2.928-14.24-3.073   c-0.269-0.009-0.53,0.005-0.797,0.002c0.28,0.071,0.561,0.143,0.846,0.223c8.204,2.316,18.333,8.637,23.831,14.246   c1.91,1.948,4.987,4.274,8.6,6.053c0.003,0.017,0.006,0.034,0.008,0.05c-0.003-0.017-0.006-0.033-0.008-0.05   c8.834,4.35,20.87,5.394,26.939-10.395C90.783,7.397,90.332,4.684,89.92,2.029z"/>
	<g>
		<path style="fill:#FFFFFF;" d="M47.136,31.059c-14.203-3.604-31.123,2.135-39.585,6.707c0.22,0.806,0.442,1.613,0.665,2.423    c5.617-3.173,15.872-7.123,26.382-7.734c-9.449,6.985-16.815,13.876-22.501,21.042c0.411,1.309,0.83,2.611,1.26,3.898    c6.458-8.48,15.309-16.567,27.275-24.896c1.478,0.116,2.944,0.314,4.386,0.607c0.008,0.04,0.016,0.079,0.023,0.119    C31.766,42.168,22.21,50.733,15.466,59.729c1.249-0.653,2.637-1.274,4.187-1.824c6.215-7.578,14.621-14.921,25.805-22.556    c1.541,7.855,3.112,15.825,4.501,22.805c0.869,0.218,1.756,0.455,2.662,0.709C50.955,50.501,48.998,40.559,47.136,31.059z"/>
		<path style="fill:#FFFFFF;" d="M5.547,30.396c9.898-5.039,25.832-9.601,40.045-7.228c-1.721-8.805-3.248-16.651-4.23-21.704    c-0.886-0.246-1.768-0.468-2.643-0.648c0.774,3.985,1.967,10.121,3.359,17.254C31.774,12.548,19.473,8.001,8.616,5.649    c-1.872,0.98-3.54,1.996-4.968,2.967c10.579,1.717,23.269,6.006,34.176,11.463c-2.203-0.008-4.411,0.111-6.603,0.334    C20.799,15.805,9.323,12.34,0.204,11.251c-0.189,0.202-0.254,0.487-0.16,0.752c0.111,0.315,0.221,0.646,0.331,0.967    c8.112,1.034,18.071,3.956,27.403,7.878c-8.636,1.31-16.784,4.123-22.889,7.146C5.108,28.788,5.327,29.59,5.547,30.396z"/>
		<path style="fill:#FFFFFF;" d="M58.829,39.327c9.652,6.479,21.934,14.234,34.414,20.28c1.525-0.623,2.952-1.3,4.288-2.009    c-11.722-5.378-23.49-12.533-33.214-18.915c2.427,0.572,4.936,1.009,7.603,1.223c8.458,5.335,17.981,10.84,27.42,15.127    c-0.126-0.756-0.252-1.513-0.383-2.277c-7.895-3.695-15.822-8.209-23.084-12.705c0.468-0.004,0.939-0.013,1.418-0.032    c5.329-0.215,11.377-1.403,18.628-4.142c-0.152-0.821-0.304-1.642-0.457-2.464c-7.159,2.758-13.05,3.955-18.24,4.164    c-8.064,0.325-14.454-1.718-21.362-3.927c-0.234-0.075-0.474-0.15-0.709-0.226c1.916,9.767,3.877,19.708,5.472,27.676    c0.894,0.213,1.772,0.406,2.635,0.579C61.969,55.244,60.415,47.388,58.829,39.327z"/>
		<path style="fill:#FFFFFF;" d="M53.532,25.157c1.577,0.475,3.097,0.959,4.585,1.434c11.062,3.536,19.31,6.162,35.969-0.599    c-0.153-0.826-0.304-1.651-0.455-2.476c-12.677,5.247-20.073,4.873-28.023,2.758c8.368-3.507,18.248-7.702,25.683-15.893    c-0.013-0.077-0.027-0.155-0.04-0.231c-0.002-0.009-0.003-0.017-0.004-0.026c-0.224-1.315-0.441-2.62-0.656-3.921    c-0.018-0.112-0.035-0.222-0.054-0.334c-7.126,8.833-17.219,13.07-26.317,16.882c-1.467,0.615-2.904,1.217-4.295,1.824    c-0.349-0.111-0.7-0.223-1.055-0.337c-1.045-0.334-2.112-0.672-3.197-1.009c-0.007-0.036-0.014-0.072-0.021-0.107    c2.332-1.106,4.808-2.144,7.375-3.22c9.471-3.968,20.069-8.419,26.753-18.203c-0.232-0.31-0.687-0.409-1.041-0.162    c-0.933,0.651-1.861,1.256-2.791,1.821C79.747,10.97,70.761,14.74,62.017,18.404c-2.316,0.97-4.566,1.914-6.719,2.91    c-1.159-5.93-2.23-11.426-3.107-15.931c-0.882-0.299-1.785-0.623-2.705-0.967C50.566,9.965,51.993,17.286,53.532,25.157z"/>
	</g>
	<g>
		<path style="fill:#ED1A3B;" d="M55.152,33.425c0.236,0.075,0.475,0.151,0.709,0.226c6.908,2.208,13.297,4.251,21.362,3.927    c5.19-0.209,11.08-1.406,18.24-4.164c-0.459-2.471-0.92-4.948-1.376-7.42c-16.659,6.761-24.907,4.135-35.969,0.599    c-1.488-0.476-3.008-0.959-4.585-1.434c-1.54-7.871-2.966-15.192-4.046-20.741C48.374,4,47.242,3.561,46.07,3.076    c-1.582-0.654-3.152-1.179-4.707-1.612c0.982,5.053,2.509,12.899,4.23,21.704c-14.213-2.373-30.147,2.189-40.045,7.228    c0.659,2.415,1.325,4.881,2.005,7.37c8.462-4.572,25.382-10.311,39.585-6.707c1.861,9.499,3.818,19.441,5.484,27.804    c0.879,0.247,1.771,0.506,2.686,0.788c1.834,0.566,3.601,1.041,5.317,1.449C59.029,53.133,57.068,43.192,55.152,33.425z"/>
		<path style="fill:#ED1A3B;" d="M45.019,33.108c-1.442-0.294-2.908-0.491-4.386-0.607C28.667,40.83,19.816,48.916,13.358,57.396    c0.233,0.699,0.469,1.395,0.709,2.086c0.154,0.443,0.667,0.632,1.08,0.411c0.103-0.055,0.214-0.109,0.319-0.164    c6.744-8.997,16.3-17.561,29.576-26.503C45.034,33.187,45.026,33.147,45.019,33.108z"/>
		<path style="fill:#ED1A3B;" d="M64.318,38.683c9.723,6.382,21.491,13.537,33.214,18.915c0.545-0.289,1.081-0.581,1.596-0.879    c0.273-0.157,0.417-0.466,0.366-0.777c-0.05-0.301-0.103-0.607-0.153-0.909c-9.439-4.287-18.961-9.791-27.42-15.127    C69.254,39.692,66.744,39.256,64.318,38.683z"/>
		<path style="fill:#ED1A3B;" d="M63.027,19.902c-2.567,1.076-5.043,2.114-7.375,3.22c0.007,0.036,0.014,0.072,0.021,0.107    c1.085,0.337,2.152,0.675,3.197,1.009c0.355,0.114,0.707,0.226,1.055,0.337c1.392-0.608,2.828-1.21,4.295-1.824    c9.098-3.812,19.191-8.049,26.317-16.882c-0.21-1.286-0.419-2.57-0.617-3.838c-0.02-0.128-0.072-0.238-0.141-0.331    C83.095,11.483,72.498,15.934,63.027,19.902z"/>
		<path style="fill:#ED1A3B;" d="M31.222,20.412c2.192-0.223,4.4-0.342,6.603-0.334C26.917,14.622,14.226,10.333,3.648,8.616    C3.022,9.042,2.441,9.459,1.91,9.86c-0.077,0.058-0.141,0.112-0.216,0.17c-0.307,0.236-0.61,0.471-0.882,0.693    c-0.195,0.159-0.38,0.315-0.556,0.467c-0.021,0.018-0.033,0.041-0.052,0.06C9.323,12.34,20.799,15.805,31.222,20.412z"/>
	</g>
	<g>
		<path style="fill:#ECEFF3;" d="M94.584,52.78c1.584,0.782,3.171,1.533,4.756,2.253c-0.126-0.757-0.252-1.513-0.383-2.277    c-0.885-0.414-1.771-0.837-2.656-1.271C95.749,51.958,95.175,52.387,94.584,52.78z"/>
		<path style="fill:#ECEFF3;" d="M50.579,10.028c1.062,0.805,2.066,1.62,2.991,2.433c-0.496-2.546-0.96-4.925-1.379-7.078    c-0.882-0.299-1.785-0.623-2.705-0.967C49.82,6.129,50.186,8.012,50.579,10.028z"/>
		<path style="fill:#ECEFF3;" d="M61.166,18.762c0.613,0.385,1.245,0.762,1.906,1.122c9.46-3.964,20.034-8.416,26.708-18.184    c-0.231-0.311-0.687-0.409-1.041-0.162c-0.933,0.652-1.862,1.256-2.791,1.822C79.747,10.97,70.761,14.74,62.017,18.404    C61.731,18.524,61.45,18.643,61.166,18.762z"/>
		<path style="fill:#ECEFF3;" d="M39.619,39.332c-0.789-0.208-1.574-0.402-2.354-0.591c-9.337,6.993-16.452,13.855-21.799,20.988    c1.249-0.653,2.637-1.274,4.187-1.824c5.115-6.237,11.72-12.316,20.133-18.528C39.731,39.362,39.675,39.347,39.619,39.332z"/>
		<path style="fill:#ECEFF3;" d="M41.362,1.464c-0.886-0.246-1.768-0.468-2.643-0.648c0.133,0.685,0.278,1.433,0.435,2.24    c0.934,0.448,1.867,0.922,2.794,1.425C41.737,3.39,41.541,2.381,41.362,1.464z"/>
		<path style="fill:#ECEFF3;" d="M66.849,21.643c1.897,0.734,3.891,1.275,5.905,1.521c6.355-2.95,12.925-6.714,18.274-12.495    c0.073-0.18,0.149-0.352,0.22-0.537c-0.243-1.428-0.481-2.849-0.713-4.26C84.089,13.86,75.218,18.088,66.849,21.643z"/>
		<path style="fill:#ECEFF3;" d="M20.747,35.001c-1.378-0.375-2.708-0.785-3.988-1.242c-3.599,1.265-6.757,2.684-9.207,4.008    c0.22,0.806,0.442,1.613,0.665,2.423C11.263,38.469,15.671,36.522,20.747,35.001z"/>
		<path style="fill:#ECEFF3;" d="M60.63,48.459c-0.256-0.163-0.513-0.324-0.766-0.49c-0.701-0.461-1.404-0.896-2.109-1.316    c1.021,5.172,1.999,10.102,2.869,14.448c0.894,0.213,1.772,0.406,2.635,0.579C62.465,57.717,61.57,53.216,60.63,48.459z"/>
		<path style="fill:#ECEFF3;" d="M91.211,54.542c-1.689,0.668-3.479,1.092-5.341,1.297c2.438,1.309,4.901,2.571,7.373,3.768    c1.525-0.623,2.952-1.3,4.288-2.009C95.422,56.63,93.311,55.61,91.211,54.542z"/>
		<path style="fill:#ECEFF3;" d="M52.621,58.863c-1.001-5.024-2.107-10.618-3.234-16.344c-0.909-0.367-1.817-0.709-2.722-1.031    c1.141,5.799,2.267,11.504,3.295,16.667C50.828,58.372,51.715,58.609,52.621,58.863z"/>
		<path style="fill:#ECEFF3;" d="M8.239,29.108c-0.663-0.558-1.293-1.162-1.891-1.814c-0.498,0.232-0.985,0.465-1.459,0.7    c0.219,0.794,0.438,1.596,0.658,2.402C6.401,29.962,7.3,29.531,8.239,29.108z"/>
		<path style="fill:#ECEFF3;" d="M33.344,37.842c-1.516-0.331-3.008-0.644-4.469-0.953c-6.766,5.486-12.296,10.962-16.777,16.609    c0.411,1.309,0.83,2.611,1.26,3.898C18.428,50.738,24.973,44.323,33.344,37.842z"/>
	</g>
	<g>
		<path style="fill:#DF1F33;" d="M57.755,46.653c-2.782-1.659-5.581-3.01-8.368-4.134c1.127,5.726,2.233,11.32,3.234,16.344    c0.879,0.247,1.771,0.506,2.686,0.788c1.834,0.566,3.601,1.041,5.317,1.449C59.754,56.755,58.776,51.825,57.755,46.653z"/>
		<path style="fill:#DF1F33;" d="M33.344,37.842c-8.371,6.48-14.916,12.896-19.986,19.554c0.233,0.699,0.469,1.395,0.709,2.086    c0.154,0.443,0.667,0.632,1.08,0.411c0.103-0.055,0.214-0.109,0.319-0.164c5.347-7.133,12.462-13.995,21.799-20.988    C35.943,38.421,34.635,38.124,33.344,37.842z"/>
		<path style="fill:#DF1F33;" d="M91.211,54.542c2.1,1.068,4.211,2.088,6.32,3.056c0.545-0.289,1.081-0.581,1.596-0.879    c0.273-0.157,0.417-0.466,0.366-0.777c-0.05-0.301-0.103-0.607-0.153-0.909c-1.585-0.72-3.172-1.471-4.756-2.253    C93.516,53.491,92.389,54.076,91.211,54.542z"/>
		<path style="fill:#DF1F33;" d="M41.949,4.481c3.048,1.652,6.017,3.566,8.63,5.548c-0.393-2.016-0.759-3.899-1.093-5.612    C48.374,4,47.242,3.561,46.07,3.076c-1.582-0.654-3.152-1.179-4.707-1.612C41.541,2.381,41.737,3.39,41.949,4.481z"/>
		<path style="fill:#DF1F33;" d="M16.759,33.759c-3.2-1.141-6.076-2.595-8.52-4.651c-0.939,0.423-1.838,0.854-2.692,1.288    c0.659,2.415,1.325,4.881,2.005,7.37C10.002,36.442,13.16,35.023,16.759,33.759z"/>
		<path style="fill:#DF1F33;" d="M63.072,19.883c0.405,0.22,0.817,0.436,1.237,0.644c0.003,0.017,0.006,0.034,0.008,0.05    c-0.003-0.017-0.005-0.033-0.008-0.05c0.821,0.404,1.67,0.78,2.54,1.116c8.368-3.555,17.24-7.783,23.686-15.772    c-0.212-1.291-0.419-2.574-0.615-3.842c-0.02-0.128-0.071-0.237-0.14-0.33C83.106,11.468,72.532,15.92,63.072,19.883z"/>
	</g>
</g>
</svg>