<svg id="Layer_47" data-name="Layer 47" xmlns="http://www.w3.org/2000/svg" viewBox="0 0 144.01 95.63"><defs><style>.cls-1{fill:#00994c;}.cls-2{fill:#352825;}.cls-3{fill:#fff;}.cls-4{fill:#da2128;}.cls-5{fill:#231f20;}.cls-6{fill:#008f49;}.cls-7{fill:#ef4130;}</style></defs><path class="cls-1" d="M338.71,337.2c19.48.8,26.56,10.65,47,14.34,14.09,2.55,26.27-.41,38.64-8.4-1.28-9.34-2.45-18.17-3.32-25.29a1.1,1.1,0,0,0-1.71-.8C407.05,324.89,395.48,327.8,380,325c-20.25-3.69-26.3-12.8-45.61-13.6-19.92-.83-35.4,6.75-46,14.66a1.05,1.05,0,0,0-.37,1.18c1.43,4.24,3.43,12.43,5.72,22.12C305.26,341.6,321.69,336.5,338.71,337.2Z" transform="translate(-287.93 -311.31)"/><path class="cls-2" d="M428.09,370.1c-21.44,12.27-45.39,9.4-67.31,0-22.4-9.57-43.63-7.07-61.21,4,2.11,8.72,4.26,17.13,6.26,23.83a1.13,1.13,0,0,0,1.57.67c15.57-7.06,33.73-7,59.19,2,23.46,8.31,44.29,8.89,64.75-1.72a1.12,1.12,0,0,0,.59-1.13C431,390.77,429.61,380.87,428.09,370.1Z" transform="translate(-287.93 -311.31)"/><path class="cls-3" d="M360.78,370.14c21.92,9.36,45.87,12.23,67.31,0-1.23-8.75-2.54-18.08-3.76-27-12.37,8-24.55,10.95-38.64,8.4-20.42-3.69-27.5-13.54-47-14.34-17-.7-33.45,4.4-45,12.13,1.83,7.74,3.83,16.44,5.87,24.85C317.15,363.07,338.38,360.57,360.78,370.14Z" transform="translate(-287.93 -311.31)"/><path class="cls-4" d="M381.91,388c-17.4-11.37-27.81-16.06-47.39-20.84-17.12-4.17-33.08-7.21-41.7-21.59,3.88,16.27,8.75,38.17,13,52.4a1.13,1.13,0,0,0,1.57.67c15.57-7.06,33.73-7,59.19,2,23.46,8.31,44.29,8.89,64.75-1.72a1.12,1.12,0,0,0,.59-1.13c-.37-2.81-.82-6.09-1.31-9.67C418.94,401.92,397.28,398.09,381.91,388Z" transform="translate(-287.93 -311.31)"/><path class="cls-5" d="M381.91,388c-17.4-11.37-27.81-16.06-47.39-20.84-17.12-4.17-33.08-7.21-41.7-21.59,3.88,16.27,8.75,38.17,13,52.4a1.13,1.13,0,0,0,1.57.67c15.57-7.06,33.73-7,59.19,2,23.46,8.31,44.29,8.89,64.75-1.72a1.12,1.12,0,0,0,.59-1.13c-.37-2.81-.82-6.09-1.31-9.67C418.94,401.92,397.28,398.09,381.91,388Z" transform="translate(-287.93 -311.31)"/><path class="cls-6" d="M380,325c-20-3.65-26.15-12.58-44.93-13.56,30.49,9.81,31.78,28.1,52,34.62,12.69,4.09,26.45,3.35,35.52-15.83-.59-4.46-1.13-8.65-1.58-12.35a1.1,1.1,0,0,0-1.71-.8C407.05,324.89,395.48,327.8,380,325Z" transform="translate(-287.93 -311.31)"/><path class="cls-7" d="M331.92,311.33A71.42,71.42,0,0,0,288.35,326a1.05,1.05,0,0,0-.37,1.18c3.75,11.14,11.49,49.55,17.85,70.8a1.13,1.13,0,0,0,1.57.67c10.49-4.76,22.18-6.27,36.47-4C340.62,371.8,335.88,338.58,331.92,311.33Z" transform="translate(-287.93 -311.31)"/><path class="cls-4" d="M292.82,345.61c3.88,16.27,8.76,38.17,13,52.4a1.13,1.13,0,0,0,1.57.67c10.49-4.76,22.18-6.27,36.47-4-1.1-7.71-2.36-16.6-3.71-26-1.8-.49-3.66-1-5.64-1.46C317.4,363,301.44,360,292.82,345.61Z" transform="translate(-287.93 -311.31)"/></svg>