<svg id="Layer_49" data-name="Layer 49" xmlns="http://www.w3.org/2000/svg" viewBox="0 0 144 95.58"><defs><style>.cls-1{fill:#ed1c24;}.cls-2{fill:#da2128;}.cls-3{fill:#fff;}.cls-4{fill:#eceff3;}.cls-5{fill:#005379;}.cls-6{fill:#003e62;}</style></defs><path class="cls-1" d="M430.66,388.8c-.4-2.91-.81-5.86-1.22-8.82l-.39-2.78c-2.19-15.46-4.59-31.38-6.56-46.6v0c-.26-1.95-.5-3.89-.74-5.81-.25-2.08-.5-4.15-.74-6.19a1.11,1.11,0,0,0-1.71-.8c-12.25,7.85-23.88,11-39.34,7.92a108,108,0,0,1-23.63-8.18,59.48,59.48,0,0,0-20.8-5.37c-.4,0-.78,0-1.17-.05h0c-18.87-1-35.11,7-43.49,12.8l-.33.24c-.47.33-.93.66-1.34,1l-.85.65a1.1,1.1,0,0,0-.36,1.19c.34,1.08.67,2.2,1,3.34l.28,1c.31,1.1.62,2.21.93,3.35.08.3.16.6.23.89.33,1.25.66,2.51,1,3.8,0,.16.08.33.13.5.36,1.47.73,2.95,1.1,4.46h0c4,16.66,7.91,36,13.19,53.44a1.12,1.12,0,0,0,1.57.67c8.44-4.1,21.06-7.23,41.07-3.1a139.34,139.34,0,0,1,18.12,5.12,106.49,106.49,0,0,0,24.13,5.69c17.9,1.94,30.89-2.31,40.62-7.41a1.1,1.1,0,0,0,.58-1.12Q431.32,393.76,430.66,388.8Z" transform="translate(-287.93 -312)"/><path class="cls-2" d="M430.66,388.87c-10.44,11.28-26.57,10.75-42,4A81.72,81.72,0,0,1,374,384.47c-9.68-6.93-19.69-11-29.32-13.93-22.49-6.89-42.89-7.81-52-25.26,4,16.66,7.91,36,13.19,53.44a1.12,1.12,0,0,0,1.57.67c8.44-4.1,21.06-7.23,41.07-3.1a139.34,139.34,0,0,1,18.12,5.12,106.49,106.49,0,0,0,24.13,5.69c17.9,1.94,30.89-2.31,40.62-7.41a1.1,1.1,0,0,0,.58-1.12C431.53,395.38,431.1,392.14,430.66,388.87Z" transform="translate(-287.93 -312)"/><path class="cls-2" d="M421,318.56a1.11,1.11,0,0,0-1.71-.8c-12.25,7.85-23.88,11-39.34,7.92a108,108,0,0,1-23.63-8.18,59.48,59.48,0,0,0-20.8-5.37c-.4,0-.78,0-1.17-.05l1.23.38c12,3.9,26.5,13.82,34.27,22.41a48.73,48.73,0,0,0,12.32,9.43v0c12.76,6.93,30.43,9.18,40.31-13.73C422,326.52,421.46,322.49,421,318.56Z" transform="translate(-287.93 -312)"/><path class="cls-3" d="M359,325.63c-25.32-11-48.17-8.77-69.75,6.7.3,1.09.61,2.18.91,3.3.08.3.16.6.23.89l.42,1.59c20.63-15.57,41.63-17.91,66-7.36C366.7,335,378.43,339,391.52,339a64.63,64.63,0,0,0,31-8.07c0-.12,0-.23-.05-.35v0c-.25-1.87-.48-3.72-.71-5.58C397.54,339,376.48,333.18,359,325.63Z" transform="translate(-287.93 -312)"/><path class="cls-3" d="M357.65,356.43c12,3.81,24.43,7.2,37.33,7.2A65.41,65.41,0,0,0,426,356l-.84-5.89c-23,12.88-45.11,7.59-65.82,1-21.25-6.76-39.71-12.61-64.48,3.65.45,1.93.89,3.87,1.34,5.83C319.64,344.36,336.46,349.69,357.65,356.43Z" transform="translate(-287.93 -312)"/><path class="cls-3" d="M293.68,349.66c22.68-18.1,45-13.38,64-6.32,11.06,4.12,23.17,8,36.18,8a62.5,62.5,0,0,0,30.39-7.89q-.42-3-.82-5.94c-23.53,13.7-45.24,7.53-63.8.61s-43-12.45-67.35,5.6l.39,1.57h0Z" transform="translate(-287.93 -312)"/><path class="cls-3" d="M358.4,392.09C371,396.16,384.84,400,399.24,400a70.44,70.44,0,0,0,31.92-7.39c-.17-1.27-.33-2.54-.5-3.82-.1-.68-.2-1.37-.29-2.06-24.45,13-48.11,7.18-70.26,0-21.12-6.81-38.28-9.13-57.55.28.48,1.84,1,3.68,1.48,5.5C322.11,383.37,337.74,385.43,358.4,392.09Z" transform="translate(-287.93 -312)"/><path class="cls-3" d="M356.41,380c13.41,4.21,27.36,7.67,41.55,7.67a74.85,74.85,0,0,0,31.61-6.72c0-.32-.09-.63-.13-.94l-.39-2.78-.3-2.06c-23.8,11.54-48,6.62-70.67-.5-17.81-5.59-37.17-9.22-58.29,1.37.44,1.86.9,3.71,1.36,5.57C319.82,371.75,336.79,373.81,356.41,380Z" transform="translate(-287.93 -312)"/><path class="cls-3" d="M360.54,369.71A112,112,0,0,0,395,375.4a81,81,0,0,0,32.86-6.51c-.28-1.92-.55-3.84-.83-5.76-25,12-53.49,4.94-64.77,1.28-23.47-7.64-42.13-12.07-65,.67q.64,2.82,1.31,5.67C320.19,358.1,337.25,362.14,360.54,369.71Z" transform="translate(-287.93 -312)"/><path class="cls-4" d="M356.41,380c6,1.87,12,3.6,18.21,4.94l-.62-.44a93,93,0,0,0-23.69-12.07c-15.64-4.1-32.43-5.46-50.52,3.61h0c.45,1.85.9,3.71,1.36,5.56h0C319.82,371.75,336.79,373.81,356.41,380Z" transform="translate(-287.93 -312)"/><path class="cls-4" d="M358.4,392.09C371,396.16,384.84,400,399.24,400a70.44,70.44,0,0,0,31.92-7.39v0c-.16-1.23-.32-2.47-.49-3.71-9.76,10.54-24.5,10.77-39,5.24-10.8-1-21.35-4-31.57-7.33-21.12-6.81-38.28-9.13-57.55.28h0c.48,1.84,1,3.67,1.48,5.49C322.11,383.37,337.74,385.43,358.4,392.09Z" transform="translate(-287.93 -312)"/><path class="cls-4" d="M360.17,326.11a74.49,74.49,0,0,1,9.69,8.76c.3.33.64.68,1,1A74,74,0,0,0,391.52,339a64.61,64.61,0,0,0,30.73-7.92c.08-.18.16-.34.24-.53q-.36-2.81-.71-5.58C398.07,338.64,377.4,333.42,360.17,326.11Z" transform="translate(-287.93 -312)"/><path class="cls-4" d="M293.68,349.66c.37-.3.74-.58,1.11-.86a32,32,0,0,1-2.15-3.52c.34,1.44.69,2.89,1,4.36Z" transform="translate(-287.93 -312)"/><path class="cls-4" d="M296.2,360.59a74.76,74.76,0,0,1,6.54-4.07,31.54,31.54,0,0,1-4.61-3.78c-1.08.64-2.17,1.3-3.27,2C295.31,356.69,295.75,358.63,296.2,360.59Z" transform="translate(-287.93 -312)"/><path class="cls-4" d="M383.14,344.8c10.15,5.22,23.1,7.27,32.8-3.59A58.79,58.79,0,0,1,383.14,344.8Z" transform="translate(-287.93 -312)"/><path class="cls-4" d="M298.54,370.75a57.5,57.5,0,0,1,19.55-7.41,73.61,73.61,0,0,1-9.23-3.42,67.4,67.4,0,0,0-11.63,5.16Q297.88,367.9,298.54,370.75Z" transform="translate(-287.93 -312)"/><path class="cls-5" d="M359.21,363.42c-1.52-10.41-5.26-36-6.71-47.51a59.08,59.08,0,0,0-17-3.78c-.4,0-.78,0-1.17-.05h0c-18.87-1-35.11,7-43.49,12.8l-.33.24c-.47.33-.93.66-1.34,1l-.85.65a1.12,1.12,0,0,0-.36,1.19c.34,1.08.67,2.2,1,3.34l.28,1c.31,1.1.62,2.21.93,3.35.08.3.16.6.23.89.33,1.25.66,2.51,1,3.8,0,.16.08.33.13.5.36,1.47.73,2.95,1.1,4.46h0c1.52,6.3,3,13,4.59,19.8C319.13,352.9,337.15,356.42,359.21,363.42Z" transform="translate(-287.93 -312)"/><path class="cls-6" d="M335.59,312.46l-1.23-.38c.39,0,.77,0,1.17.05.76.05,1.52.13,2.29.21l.93.12c.44.05.89.11,1.33.18l1.24.2.95.17c.51.1,1,.19,1.51.3l.46.11a60.06,60.06,0,0,1,8.26,2.49c.19,1.53.43,3.32.69,5.29A79.78,79.78,0,0,0,335.59,312.46Zm-41.67,38.25c.33,1.4.66,2.8,1,4.22l.15.64c.31,1.33.61,2.68.92,4,.42,1.81.83,3.63,1.26,5.47h0a67.32,67.32,0,0,1,11.62-5.16c-6.86-3.14-12.48-7.51-16.21-14.64.34,1.42.68,2.86,1,4.31C293.75,350,293.84,350.34,293.92,350.71Z" transform="translate(-287.93 -312)"/><polygon class="cls-3" points="59.53 6.33 60.33 8.04 62.19 7.8 60.83 9.11 61.63 10.83 59.99 9.91 58.63 11.22 58.98 9.35 57.33 8.44 59.19 8.2 59.53 6.33"/><polygon class="cls-3" points="60.58 14.6 61.38 16.32 63.24 16.07 61.88 17.38 62.68 19.1 61.04 18.19 59.68 19.49 60.02 17.62 58.38 16.71 60.24 16.47 60.58 14.6"/><polygon class="cls-3" points="61.63 22.87 62.43 24.59 64.29 24.35 62.93 25.65 63.73 27.37 62.09 26.46 60.73 27.77 61.07 25.9 59.43 24.98 61.29 24.74 61.63 22.87"/><polygon class="cls-3" points="62.68 31.14 63.48 32.86 65.33 32.62 63.98 33.93 64.78 35.65 63.14 34.73 61.78 36.04 62.12 34.17 60.48 33.26 62.34 33.01 62.68 31.14"/><polygon class="cls-3" points="63.73 39.42 64.53 41.13 66.38 40.89 65.03 42.2 65.83 43.92 64.19 43.01 62.83 44.31 63.17 42.44 61.53 41.53 63.38 41.29 63.73 39.42"/><polygon class="cls-3" points="5.76 14.48 6.64 15.91 8.25 15.5 7.19 16.8 8.07 18.23 6.53 17.6 5.47 18.89 5.58 17.21 4.04 16.58 5.65 16.17 5.76 14.48"/><polygon class="cls-3" points="7.53 21.66 8.41 23.1 10.02 22.68 8.96 23.98 9.84 25.41 8.3 24.78 7.24 26.08 7.35 24.39 5.81 23.76 7.42 23.35 7.53 21.66"/><polygon class="cls-3" points="9.3 28.85 10.18 30.28 11.79 29.87 10.73 31.16 11.61 32.6 10.07 31.97 9.01 33.26 9.12 31.58 7.58 30.95 9.19 30.53 9.3 28.85"/><polygon class="cls-3" points="11.07 36.03 11.96 37.46 13.56 37.05 12.5 38.35 13.38 39.78 11.84 39.15 10.78 40.45 10.89 38.76 9.35 38.13 10.96 37.72 11.07 36.03"/><polygon class="cls-4" points="12.84 43.22 13.72 44.65 15.34 44.24 14.27 45.53 15.15 46.97 13.61 46.33 12.55 47.63 12.66 45.94 11.12 45.31 12.73 44.9 12.84 43.22"/><polygon class="cls-3" points="11.49 15.27 12.37 16.75 14.02 16.36 12.9 17.66 13.78 19.14 12.22 18.46 11.11 19.76 11.25 18.05 9.7 17.37 11.35 16.98 11.49 15.27"/><polygon class="cls-3" points="13.16 22.63 14.03 24.11 15.68 23.72 14.57 25.02 15.44 26.5 13.88 25.83 12.77 27.13 12.92 25.41 11.36 24.73 13.01 24.35 13.16 22.63"/><polygon class="cls-3" points="14.82 29.99 15.7 31.47 17.34 31.08 16.23 32.38 17.1 33.86 15.55 33.19 14.44 34.49 14.58 32.77 13.03 32.1 14.68 31.71 14.82 29.99"/><polygon class="cls-3" points="16.49 37.35 17.36 38.83 19.01 38.45 17.9 39.75 18.77 41.23 17.21 40.55 16.1 41.85 16.25 40.13 14.69 39.46 16.34 39.07 16.49 37.35"/><polygon class="cls-3" points="22.06 10.81 22.89 12.38 24.61 12.07 23.4 13.35 24.23 14.93 22.65 14.15 21.44 15.43 21.68 13.67 20.1 12.89 21.82 12.58 22.06 10.81"/><polygon class="cls-3" points="23.42 18.5 24.24 20.07 25.96 19.76 24.75 21.04 25.58 22.61 24 21.84 22.79 23.12 23.03 21.36 21.45 20.58 23.18 20.26 23.42 18.5"/><polygon class="cls-3" points="24.77 26.18 25.59 27.76 27.32 27.44 26.11 28.73 26.93 30.3 25.36 29.52 24.14 30.81 24.38 29.04 22.81 28.26 24.53 27.95 24.77 26.18"/><polygon class="cls-3" points="26.12 33.87 26.95 35.44 28.67 35.13 27.46 36.41 28.28 37.98 26.71 37.21 25.5 38.49 25.73 36.73 24.16 35.95 25.88 35.64 26.12 33.87"/><polygon class="cls-3" points="32.88 8.18 33.67 9.85 35.48 9.59 34.17 10.88 34.97 12.54 33.36 11.67 32.05 12.96 32.37 11.14 30.76 10.27 32.56 10.01 32.88 8.18"/><polygon class="cls-3" points="33.99 16.23 34.79 17.89 36.59 17.63 35.28 18.92 36.08 20.59 34.48 19.72 33.17 21.01 33.48 19.18 31.87 18.31 33.68 18.05 33.99 16.23"/><polygon class="cls-3" points="35.11 24.27 35.91 25.94 37.71 25.68 36.4 26.96 37.2 28.63 35.59 27.76 34.28 29.05 34.6 27.22 32.99 26.36 34.79 26.1 35.11 24.27"/><polygon class="cls-3" points="36.22 32.31 37.02 33.98 38.83 33.72 37.52 35.01 38.31 36.67 36.71 35.8 35.4 37.09 35.71 35.27 34.1 34.4 35.91 34.14 36.22 32.31"/><polygon class="cls-3" points="43.77 7.5 44.55 9.21 46.4 8.98 45.04 10.27 45.83 11.98 44.2 11.07 42.84 12.36 43.2 10.5 41.57 9.59 43.41 9.36 43.77 7.5"/><polygon class="cls-3" points="44.77 15.72 45.55 17.44 47.4 17.2 46.04 18.5 46.83 20.21 45.2 19.29 43.84 20.58 44.2 18.73 42.57 17.81 44.41 17.58 44.77 15.72"/><polygon class="cls-3" points="45.77 23.95 46.55 25.66 48.4 25.43 47.04 26.72 47.83 28.43 46.2 27.52 44.85 28.81 45.2 26.95 43.57 26.04 45.42 25.8 45.77 23.95"/><polygon class="cls-3" points="46.77 32.17 47.56 33.88 49.4 33.65 48.04 34.94 48.83 36.66 47.2 35.74 45.85 37.03 46.2 35.17 44.58 34.26 46.42 34.03 46.77 32.17"/><polygon class="cls-3" points="54.67 8.69 55.45 10.4 57.29 10.17 55.94 11.46 56.72 13.18 55.1 12.26 53.74 13.55 54.09 11.7 52.47 10.78 54.31 10.55 54.67 8.69"/><polygon class="cls-3" points="55.66 16.92 56.45 18.63 58.29 18.4 56.93 19.69 57.72 21.4 56.09 20.49 54.73 21.77 55.09 19.92 53.46 19 55.31 18.77 55.66 16.92"/><polygon class="cls-3" points="56.66 25.14 57.44 26.85 59.28 26.62 57.93 27.91 58.71 29.63 57.09 28.71 55.73 30 56.08 28.14 54.46 27.23 56.3 27 56.66 25.14"/><polygon class="cls-3" points="57.65 33.37 58.44 35.08 60.28 34.85 58.92 36.14 59.71 37.85 58.08 36.93 56.73 38.22 57.08 36.37 55.45 35.45 57.3 35.22 57.65 33.37"/><polygon class="cls-3" points="15.82 9.88 16.67 11.38 18.33 11.01 17.2 12.3 18.05 13.79 16.5 13.09 15.37 14.37 15.54 12.66 13.99 11.96 15.65 11.6 15.82 9.88"/><polygon class="cls-3" points="17.38 17.27 18.23 18.76 19.88 18.4 18.75 19.68 19.6 21.17 18.05 20.48 16.93 21.76 17.1 20.05 15.55 19.35 17.21 18.98 17.38 17.27"/><polygon class="cls-3" points="18.94 24.66 19.79 26.15 21.44 25.79 20.31 27.07 21.16 28.56 19.61 27.86 18.48 29.15 18.66 27.43 17.11 26.73 18.76 26.37 18.94 24.66"/><polygon class="cls-3" points="20.5 32.04 21.35 33.53 23 33.17 21.87 34.45 22.72 35.95 21.17 35.25 20.04 36.53 20.22 34.82 18.67 34.12 20.32 33.76 20.5 32.04"/><polygon class="cls-3" points="22.05 39.43 22.9 40.92 24.56 40.56 23.43 41.84 24.28 43.33 22.73 42.63 21.6 43.92 21.77 42.2 20.23 41.51 21.88 41.14 22.05 39.43"/><polygon class="cls-3" points="26.43 5.93 27.25 7.52 28.98 7.21 27.75 8.5 28.57 10.09 26.99 9.29 25.76 10.58 26.02 8.8 24.44 8.01 26.17 7.71 26.43 5.93"/><polygon class="cls-3" points="27.73 13.68 28.55 15.26 30.29 14.96 29.06 16.25 29.88 17.83 28.3 17.04 27.07 18.32 27.32 16.55 25.74 15.76 27.48 15.45 27.73 13.68"/><polygon class="cls-3" points="29.04 21.42 29.86 23.01 31.59 22.71 30.36 23.99 31.18 25.58 29.6 24.79 28.37 26.07 28.63 24.3 27.05 23.5 28.78 23.2 29.04 21.42"/><polygon class="cls-3" points="30.34 29.17 31.16 30.76 32.9 30.45 31.67 31.74 32.49 33.33 30.91 32.53 29.68 33.82 29.93 32.04 28.35 31.25 30.09 30.95 30.34 29.17"/><polygon class="cls-3" points="31.65 36.92 32.47 38.51 34.2 38.2 32.97 39.49 33.79 41.07 32.21 40.28 30.98 41.56 31.24 39.79 29.66 38.99 31.39 38.69 31.65 36.92"/><polygon class="cls-3" points="37.7 3.73 38.48 5.42 40.3 5.18 38.96 6.46 39.74 8.15 38.13 7.25 36.8 8.52 37.14 6.69 35.54 5.79 37.36 5.56 37.7 3.73"/><polygon class="cls-3" points="38.69 11.84 39.47 13.53 41.29 13.3 39.95 14.57 40.73 16.26 39.12 15.36 37.78 16.64 38.13 14.8 36.53 13.9 38.35 13.67 38.69 11.84"/><polygon class="cls-3" points="39.68 19.96 40.46 21.64 42.28 21.42 40.94 22.69 41.72 24.38 40.11 23.48 38.77 24.75 39.12 22.92 37.52 22.02 39.34 21.79 39.68 19.96"/><polygon class="cls-3" points="40.67 28.07 41.45 29.76 43.27 29.53 41.93 30.8 42.7 32.49 41.1 31.59 39.76 32.87 40.11 31.04 38.51 30.13 40.32 29.9 40.67 28.07"/><polygon class="cls-3" points="41.66 36.19 42.44 37.88 44.26 37.65 42.92 38.92 43.69 40.61 42.09 39.71 40.75 40.98 41.1 39.15 39.49 38.25 41.31 38.02 41.66 36.19"/><polygon class="cls-3" points="48.82 4.15 49.61 5.87 51.47 5.63 50.1 6.94 50.9 8.66 49.26 7.74 47.9 9.04 48.25 7.17 46.61 6.25 48.47 6.02 48.82 4.15"/><polygon class="cls-3" points="49.84 12.43 50.63 14.15 52.48 13.91 51.12 15.21 51.91 16.94 50.28 16.02 48.91 17.32 49.27 15.45 47.63 14.53 49.48 14.29 49.84 12.43"/><polygon class="cls-3" points="50.85 20.7 51.65 22.43 53.5 22.19 52.14 23.49 52.93 25.21 51.3 24.29 49.93 25.59 50.28 23.73 48.65 22.81 50.5 22.57 50.85 20.7"/><polygon class="cls-3" points="51.87 28.98 52.66 30.7 54.52 30.46 53.16 31.77 53.95 33.49 52.31 32.57 50.95 33.87 51.3 32 49.66 31.08 51.52 30.85 51.87 28.98"/><polygon class="cls-3" points="52.89 37.26 53.68 38.98 55.54 38.74 54.17 40.04 54.97 41.77 53.33 40.85 51.97 42.15 52.32 40.28 50.68 39.36 52.54 39.12 52.89 37.26"/></svg>