<svg id="Layer_48" data-name="Layer 48" xmlns="http://www.w3.org/2000/svg" viewBox="0 0 144 95.64"><defs><style>.cls-1{fill:#225aa9;}.cls-2{fill:#004c9c;}.cls-3{fill:#fff;}.cls-4{fill:#ef4130;}.cls-5{fill:#eceff3;}.cls-6{fill:#da2128;}</style></defs><path class="cls-1" d="M430.66,388.85c-.39-2.92-.8-5.87-1.21-8.84l-.39-2.77c-2.18-15.47-4.58-31.39-6.54-46.62v0c-.25-2-.5-3.89-.73-5.82s-.51-4.15-.74-6.19a1.11,1.11,0,0,0-1.71-.8c-12.26,7.84-23.89,11-39.35,7.9a108,108,0,0,1-23.64-8.19,59.53,59.53,0,0,0-20.8-5.39c-.4,0-.78,0-1.18,0h0c-18.87-1-35.13,6.95-43.51,12.78l-.33.23c-.46.33-.93.66-1.34,1s-.58.44-.85.66a1.1,1.1,0,0,0-.36,1.18c.34,1.09.67,2.2,1,3.34.09.33.18.68.28,1,.31,1.1.62,2.21.93,3.35.08.29.15.59.23.89.33,1.24.66,2.51,1,3.8.05.16.09.33.13.5.37,1.47.73,3,1.1,4.47h0c4,16.66,7.9,36,13.17,53.45a1.11,1.11,0,0,0,1.57.67c8.44-4.09,21.07-7.22,41.08-3.07a136.4,136.4,0,0,1,18.12,5.13,107.05,107.05,0,0,0,24.14,5.7c17.9,1.94,30.9-2.3,40.63-7.39a1.12,1.12,0,0,0,.58-1.13C431.53,395.4,431.1,392.14,430.66,388.85Z" transform="translate(-287.93 -311.97)"/><path class="cls-2" d="M431.92,398.61a1.12,1.12,0,0,1-.58,1.13c-9.73,5.09-22.73,9.33-40.63,7.39a107.05,107.05,0,0,1-24.14-5.7,136.4,136.4,0,0,0-18.12-5.13c-20-4.15-32.64-1-41.08,3.07a1.11,1.11,0,0,1-1.57-.67c-5.27-17.48-9.15-36.79-13.17-53.45,9.15,17.45,29.55,18.38,52,25.29,9.64,2.95,19.65,7,29.32,13.94a81.18,81.18,0,0,0,14.67,8.42c15.42,6.76,31.56,7.29,42-4C431.11,392.18,431.53,395.42,431.92,398.61Zm-10.87-80a1.11,1.11,0,0,0-1.71-.8c-12.26,7.84-23.89,11-39.35,7.9a108,108,0,0,1-23.64-8.19,59.53,59.53,0,0,0-20.8-5.39c-.4,0-.78,0-1.18,0,.41.12.82.24,1.24.38,11.95,3.9,26.5,13.83,34.27,22.42a48.44,48.44,0,0,0,12.31,9.44v0c12.76,6.94,30.44,9.21,40.33-13.7C422,326.54,421.5,322.51,421.05,318.58Z" transform="translate(-287.93 -311.97)"/><path class="cls-3" d="M356.25,358.8c-20.72-6.17-46,1.27-58.75,7.51.28,1.2.55,2.4.84,3.61a96.84,96.84,0,0,1,39.34-9.82c-14.34,9.73-25.61,19.44-34.42,29.66.53,2,1.06,3.9,1.62,5.83,10-12.12,23.56-23.5,41.69-35.06a53.09,53.09,0,0,1,6.43,1.16l0,.17c-20.1,12.39-34.7,24.44-45.18,37.29a47.6,47.6,0,0,1,6.28-2.44c9.61-10.79,22.44-21.11,39.39-31.69,1.8,11.67,3.63,23.51,5.26,33.88,1.27.37,2.56.78,3.88,1.2C360.71,387.68,358.42,372.91,356.25,358.8Z" transform="translate(-287.93 -311.97)"/><path class="cls-3" d="M295,355.32c14.89-6.83,38.65-12.6,59.45-8.25-2-13.08-3.78-24.74-4.93-32.24-1.29-.42-2.57-.8-3.85-1.11.9,5.92,2.29,15,3.91,25.63A198.85,198.85,0,0,0,301,319a72.86,72.86,0,0,0-7.5,4.08c15.48,3.16,33.93,10.25,49.68,18.94a93.25,93.25,0,0,0-9.75.1c-15.09-7.42-31.79-13.21-45.17-15.37a1.1,1.1,0,0,0-.28,1.1c.15.47.29,1,.43,1.45,11.89,2,26.4,6.91,39.92,13.25a118.79,118.79,0,0,0-34.17,9.16C294.44,352.93,294.71,354.12,295,355.32Z" transform="translate(-287.93 -311.97)"/><path class="cls-3" d="M373,371.68c13.84,10.13,31.48,22.3,49.51,32a69.62,69.62,0,0,0,6.44-2.71c-16.95-8.63-33.87-19.88-47.82-29.87a73.94,73.94,0,0,0,11.14,2.26,346.09,346.09,0,0,0,39.5,23.94c-.14-1.12-.28-2.24-.43-3.38a341.1,341.1,0,0,1-33.26-20.11c.69,0,1.39,0,2.09,0,7.87,0,16.86-1.39,27.71-5-.18-1.22-.35-2.43-.53-3.66-10.71,3.64-19.47,5-27.13,5-11.91,0-21.2-3.4-31.25-7.07l-1-.38c2.24,14.51,4.53,29.28,6.4,41.12,1.31.37,2.59.71,3.85,1C376.66,395.33,374.84,383.66,373,371.68Z" transform="translate(-287.93 -311.97)"/><path class="cls-3" d="M366,350.48c2.29.79,4.5,1.6,6.67,2.39,16.09,5.87,28.09,10.24,53.05,1.27-.17-1.22-.35-2.45-.52-3.67-19,7-29.88,6-41.47,2.38,12.54-4.67,27.36-10.26,38.81-21.88,0-.12,0-.23-.05-.35v0c-.25-2-.5-3.89-.73-5.82l-.06-.5c-11,12.59-26.17,18.23-39.8,23.3-2.2.82-4.36,1.62-6.45,2.44-.5-.19-1-.38-1.53-.56q-2.28-.84-4.65-1.68l0-.16c3.51-1.49,7.22-2.87,11.07-4.31,14.19-5.28,30.08-11.2,40.52-25.22a1.11,1.11,0,0,0-1.52-.3c-1.42.9-2.82,1.74-4.23,2.52-9.59,10.84-23.06,15.86-36.17,20.74-3.47,1.29-6.85,2.54-10.08,3.88-1.35-8.81-2.6-17-3.62-23.67-1.28-.49-2.6-1-3.93-1.58C362.57,327.91,364.23,338.79,366,350.48Z" transform="translate(-287.93 -311.97)"/><path class="cls-4" d="M367.92,362.76l1,.38c10.05,3.67,19.34,7.06,31.25,7.07,7.66,0,16.42-1.41,27.13-5q-.78-5.51-1.58-11c-25,9-37,4.6-53.05-1.27-2.17-.79-4.38-1.6-6.67-2.39-1.8-11.69-3.46-22.57-4.72-30.81-1.62-.68-3.26-1.4-5-2.18a59.83,59.83,0,0,0-6.84-2.66c1.15,7.5,2.93,19.16,4.93,32.24-20.8-4.35-44.56,1.42-59.45,8.25.82,3.6,1.66,7.28,2.51,11,12.75-6.24,38-13.68,58.75-7.51,2.17,14.11,4.46,28.88,6.41,41.3,1.28.42,2.58.86,3.91,1.33,2.67.94,5.25,1.75,7.75,2.45C372.45,392,370.16,377.27,367.92,362.76Z" transform="translate(-287.93 -311.97)"/><path class="cls-4" d="M353,361.69a53.09,53.09,0,0,0-6.43-1.16c-18.13,11.56-31.66,22.94-41.69,35.06.3,1,.61,2.08.92,3.11a1.11,1.11,0,0,0,1.57.67l.48-.22c10.48-12.85,25.08-24.9,45.18-37.29Z" transform="translate(-287.93 -311.97)"/><path class="cls-4" d="M381.11,371.06c13.95,10,30.87,21.24,47.82,29.87.82-.39,1.63-.79,2.41-1.19a1.12,1.12,0,0,0,.58-1.13c-.05-.44-.11-.9-.17-1.35a346.09,346.09,0,0,1-39.5-23.94A73.94,73.94,0,0,1,381.11,371.06Z" transform="translate(-287.93 -311.97)"/><path class="cls-4" d="M380.34,343.3c-3.85,1.44-7.56,2.82-11.07,4.31l0,.16q2.37.84,4.65,1.68c.52.18,1,.37,1.53.56,2.09-.82,4.25-1.62,6.45-2.44,13.63-5.07,28.76-10.71,39.8-23.3-.23-1.91-.47-3.81-.68-5.69a1,1,0,0,0-.19-.5C410.42,332.1,394.53,338,380.34,343.3Z" transform="translate(-287.93 -311.97)"/><path class="cls-4" d="M333.43,342.15a93.25,93.25,0,0,1,9.75-.1c-15.75-8.69-34.2-15.78-49.68-18.94-.95.59-1.83,1.17-2.64,1.73l-.33.23c-.46.33-.93.66-1.34,1s-.58.44-.85.66c0,0,0,.06-.08.08C301.64,328.94,318.34,334.73,333.43,342.15Z" transform="translate(-287.93 -311.97)"/><path class="cls-5" d="M424.88,393.66c2.28,1.24,4.58,2.45,6.87,3.6-.14-1.12-.28-2.24-.43-3.38-1.28-.66-2.56-1.34-3.83-2A29.73,29.73,0,0,1,424.88,393.66Z" transform="translate(-287.93 -311.97)"/><path class="cls-5" d="M362.58,328c1.52,1.25,2.95,2.52,4.27,3.77l-1.61-10.52c-1.28-.49-2.6-1-3.93-1.58C361.7,322.21,362.13,325,362.58,328Z" transform="translate(-287.93 -311.97)"/><path class="cls-5" d="M377.66,341.51c.88.61,1.79,1.2,2.74,1.77,14.19-5.27,30-11.2,40.46-25.2a1.11,1.11,0,0,0-1.52-.3c-1.42.9-2.82,1.74-4.23,2.52-9.59,10.84-23.06,15.86-36.17,20.74Z" transform="translate(-287.93 -311.97)"/><path class="cls-5" d="M344.67,370.54c-1.15-.36-2.29-.69-3.43-1-14.18,9.75-25.08,19.44-33.39,29.63a47.6,47.6,0,0,1,6.28-2.44c7.91-8.88,18-17.45,30.78-26.1Z" transform="translate(-287.93 -311.97)"/><path class="cls-5" d="M349.51,314.83c-1.29-.42-2.57-.8-3.85-1.11.15,1,.32,2.12.5,3.32,1.35.72,2.7,1.47,4,2.27Z" transform="translate(-287.93 -311.97)"/><path class="cls-5" d="M385.87,346.1a36.7,36.7,0,0,0,8.61,2.6c9.54-4,19.45-9.12,27.68-17.32.12-.27.24-.51.36-.78q-.4-3.18-.8-6.32C411.74,335.66,398.41,341.36,385.87,346.1Z" transform="translate(-287.93 -311.97)"/><path class="cls-5" d="M317.12,363c-2-.64-3.95-1.32-5.81-2.07a95.74,95.74,0,0,0-13.81,5.36c.28,1.2.55,2.4.84,3.61A93,93,0,0,1,317.12,363Z" transform="translate(-287.93 -311.97)"/><path class="cls-5" d="M375.09,385.25l-1.1-.77c-1-.72-2-1.4-3-2.06,1.2,7.68,2.34,15,3.36,21.46,1.31.37,2.59.71,3.85,1C377.24,399,376.19,392.32,375.09,385.25Z" transform="translate(-287.93 -311.97)"/><path class="cls-5" d="M419.8,396.05a30.49,30.49,0,0,1-7.95,1.59c3.51,2.08,7.07,4.08,10.64,6a69.62,69.62,0,0,0,6.44-2.71Q424.36,398.61,419.8,396.05Z" transform="translate(-287.93 -311.97)"/><path class="cls-5" d="M362.66,400.1c-1.17-7.46-2.47-15.77-3.78-24.28q-2-.88-4-1.68c1.34,8.61,2.66,17.09,3.86,24.76C360.05,399.27,361.34,399.68,362.66,400.1Z" transform="translate(-287.93 -311.97)"/><path class="cls-5" d="M299,353.58a32.09,32.09,0,0,1-2.68-2.78c-.74.31-1.47.62-2.19.94.28,1.19.55,2.38.83,3.58C296.27,354.73,297.62,354.15,299,353.58Z" transform="translate(-287.93 -311.97)"/><path class="cls-5" d="M335.51,368c-2.21-.58-4.39-1.13-6.53-1.68a159.33,159.33,0,0,0-25.72,23.47c.53,2,1.06,3.9,1.62,5.83C312.75,386.08,322.78,377,335.51,368Z" transform="translate(-287.93 -311.97)"/><path class="cls-6" d="M371,382.42a87.68,87.68,0,0,0-12.08-6.6c1.31,8.51,2.61,16.82,3.78,24.28,1.28.42,2.58.86,3.91,1.33,2.67.94,5.25,1.75,7.75,2.45C373.3,397.43,372.16,390.1,371,382.42Z" transform="translate(-287.93 -311.97)"/><path class="cls-6" d="M335.51,368c-12.73,9-22.76,18.11-30.63,27.62.3,1,.61,2.08.92,3.11a1.11,1.11,0,0,0,1.57.67l.48-.22c8.31-10.19,19.21-19.88,33.39-29.63C339.31,369,337.4,368.46,335.51,368Z" transform="translate(-287.93 -311.97)"/><path class="cls-6" d="M419.8,396.05q4.54,2.55,9.13,4.88c.82-.39,1.63-.79,2.41-1.19a1.12,1.12,0,0,0,.58-1.13c-.05-.44-.11-.9-.17-1.35-2.29-1.15-4.59-2.36-6.87-3.6A26.71,26.71,0,0,1,419.8,396.05Z" transform="translate(-287.93 -311.97)"/><path class="cls-6" d="M350.2,319.31A102.14,102.14,0,0,1,362.58,328c-.45-3-.88-5.79-1.27-8.33-1.62-.68-3.26-1.4-5-2.18a59.83,59.83,0,0,0-6.84-2.66Z" transform="translate(-287.93 -311.97)"/><path class="cls-6" d="M311.31,361A39.94,39.94,0,0,1,299,353.58c-1.41.57-2.76,1.15-4,1.74.82,3.6,1.66,7.28,2.51,11A95.74,95.74,0,0,1,311.31,361Z" transform="translate(-287.93 -311.97)"/><path class="cls-6" d="M380.4,343.28c.59.35,1.18.69,1.79,1v0c1.19.65,2.42,1.25,3.68,1.8,12.54-4.74,25.87-10.44,35.85-21.82-.23-1.92-.46-3.82-.67-5.7a1,1,0,0,0-.19-.5C410.44,332.08,394.59,338,380.4,343.28Z" transform="translate(-287.93 -311.97)"/></svg>